G04 #@! TF.GenerationSoftware,KiCad,Pcbnew,(5.0.0)*
G04 #@! TF.CreationDate,2018-09-17T15:57:07-05:00*
G04 #@! TF.ProjectId,TESEO-LIV3F_uBUS,544553454F2D4C495633465F75425553,rev?*
G04 #@! TF.SameCoordinates,Original*
G04 #@! TF.FileFunction,Paste,Top*
G04 #@! TF.FilePolarity,Positive*
%FSLAX46Y46*%
G04 Gerber Fmt 4.6, Leading zero omitted, Abs format (unit mm)*
G04 Created by KiCad (PCBNEW (5.0.0)) date 09/17/18 15:57:07*
%MOMM*%
%LPD*%
G01*
G04 APERTURE LIST*
%ADD10R,0.400000X0.600000*%
%ADD11R,0.600000X0.400000*%
%ADD12R,0.900000X1.600000*%
%ADD13R,4.000000X4.000000*%
%ADD14R,2.900000X3.500000*%
%ADD15R,0.500000X0.600000*%
%ADD16R,0.750000X0.800000*%
%ADD17R,0.600000X0.500000*%
%ADD18C,0.100000*%
%ADD19C,0.318000*%
%ADD20C,0.875000*%
%ADD21R,0.325000X0.250000*%
%ADD22R,2.290000X5.080000*%
%ADD23R,2.420000X5.080000*%
%ADD24C,0.590000*%
%ADD25R,0.800000X0.900000*%
%ADD26R,0.500000X0.900000*%
%ADD27R,0.400000X0.650000*%
%ADD28R,0.245000X0.245000*%
%ADD29R,1.000000X1.250000*%
%ADD30R,0.900000X0.500000*%
G04 APERTURE END LIST*
D10*
G04 #@! TO.C,R7*
X135110000Y-103100000D03*
X134210000Y-103100000D03*
G04 #@! TD*
D11*
G04 #@! TO.C,R9*
X134460000Y-112650000D03*
X134460000Y-113550000D03*
G04 #@! TD*
D10*
G04 #@! TO.C,R8*
X133810000Y-110100000D03*
X134710000Y-110100000D03*
G04 #@! TD*
D12*
G04 #@! TO.C,U3*
X140360000Y-115500000D03*
X139260000Y-115500000D03*
X138160000Y-115500000D03*
X137060000Y-115500000D03*
X135960000Y-115500000D03*
X134860000Y-115500000D03*
X133760000Y-115500000D03*
X132660000Y-115500000D03*
X131560000Y-115500000D03*
X140360000Y-124700000D03*
X139260000Y-124700000D03*
X138160000Y-124700000D03*
X137060000Y-124700000D03*
X135960000Y-124700000D03*
X134860000Y-124700000D03*
X133760000Y-124700000D03*
X132660000Y-124700000D03*
X131560000Y-124700000D03*
G04 #@! TD*
D13*
G04 #@! TO.C,BT1*
X138430000Y-131445000D03*
D14*
X131830000Y-131445000D03*
X145030000Y-131445000D03*
G04 #@! TD*
D15*
G04 #@! TO.C,C1*
X136060000Y-103050000D03*
X136060000Y-101950000D03*
G04 #@! TD*
D16*
G04 #@! TO.C,C3*
X143060000Y-125850000D03*
X143060000Y-124350000D03*
G04 #@! TD*
D15*
G04 #@! TO.C,C4*
X138460000Y-104100000D03*
X138460000Y-105200000D03*
G04 #@! TD*
D16*
G04 #@! TO.C,C5*
X141860000Y-124350000D03*
X141860000Y-125850000D03*
G04 #@! TD*
D17*
G04 #@! TO.C,C6*
X136810000Y-109900000D03*
X135710000Y-109900000D03*
G04 #@! TD*
D15*
G04 #@! TO.C,C8*
X139160000Y-112450000D03*
X139160000Y-113550000D03*
G04 #@! TD*
D18*
G04 #@! TO.C,D1*
G36*
X138542292Y-101620383D02*
X138550010Y-101621528D01*
X138557578Y-101623423D01*
X138564923Y-101626052D01*
X138571976Y-101629387D01*
X138578668Y-101633398D01*
X138584934Y-101638046D01*
X138590715Y-101643285D01*
X138595954Y-101649066D01*
X138600602Y-101655332D01*
X138604613Y-101662024D01*
X138607948Y-101669077D01*
X138610577Y-101676422D01*
X138612472Y-101683990D01*
X138613617Y-101691708D01*
X138614000Y-101699500D01*
X138614000Y-101900500D01*
X138613617Y-101908292D01*
X138612472Y-101916010D01*
X138610577Y-101923578D01*
X138607948Y-101930923D01*
X138604613Y-101937976D01*
X138600602Y-101944668D01*
X138595954Y-101950934D01*
X138590715Y-101956715D01*
X138584934Y-101961954D01*
X138578668Y-101966602D01*
X138571976Y-101970613D01*
X138564923Y-101973948D01*
X138557578Y-101976577D01*
X138550010Y-101978472D01*
X138542292Y-101979617D01*
X138534500Y-101980000D01*
X138375500Y-101980000D01*
X138367708Y-101979617D01*
X138359990Y-101978472D01*
X138352422Y-101976577D01*
X138345077Y-101973948D01*
X138338024Y-101970613D01*
X138331332Y-101966602D01*
X138325066Y-101961954D01*
X138319285Y-101956715D01*
X138314046Y-101950934D01*
X138309398Y-101944668D01*
X138305387Y-101937976D01*
X138302052Y-101930923D01*
X138299423Y-101923578D01*
X138297528Y-101916010D01*
X138296383Y-101908292D01*
X138296000Y-101900500D01*
X138296000Y-101699500D01*
X138296383Y-101691708D01*
X138297528Y-101683990D01*
X138299423Y-101676422D01*
X138302052Y-101669077D01*
X138305387Y-101662024D01*
X138309398Y-101655332D01*
X138314046Y-101649066D01*
X138319285Y-101643285D01*
X138325066Y-101638046D01*
X138331332Y-101633398D01*
X138338024Y-101629387D01*
X138345077Y-101626052D01*
X138352422Y-101623423D01*
X138359990Y-101621528D01*
X138367708Y-101620383D01*
X138375500Y-101620000D01*
X138534500Y-101620000D01*
X138542292Y-101620383D01*
X138542292Y-101620383D01*
G37*
D19*
X138455000Y-101800000D03*
D18*
G36*
X137852292Y-101620383D02*
X137860010Y-101621528D01*
X137867578Y-101623423D01*
X137874923Y-101626052D01*
X137881976Y-101629387D01*
X137888668Y-101633398D01*
X137894934Y-101638046D01*
X137900715Y-101643285D01*
X137905954Y-101649066D01*
X137910602Y-101655332D01*
X137914613Y-101662024D01*
X137917948Y-101669077D01*
X137920577Y-101676422D01*
X137922472Y-101683990D01*
X137923617Y-101691708D01*
X137924000Y-101699500D01*
X137924000Y-101900500D01*
X137923617Y-101908292D01*
X137922472Y-101916010D01*
X137920577Y-101923578D01*
X137917948Y-101930923D01*
X137914613Y-101937976D01*
X137910602Y-101944668D01*
X137905954Y-101950934D01*
X137900715Y-101956715D01*
X137894934Y-101961954D01*
X137888668Y-101966602D01*
X137881976Y-101970613D01*
X137874923Y-101973948D01*
X137867578Y-101976577D01*
X137860010Y-101978472D01*
X137852292Y-101979617D01*
X137844500Y-101980000D01*
X137685500Y-101980000D01*
X137677708Y-101979617D01*
X137669990Y-101978472D01*
X137662422Y-101976577D01*
X137655077Y-101973948D01*
X137648024Y-101970613D01*
X137641332Y-101966602D01*
X137635066Y-101961954D01*
X137629285Y-101956715D01*
X137624046Y-101950934D01*
X137619398Y-101944668D01*
X137615387Y-101937976D01*
X137612052Y-101930923D01*
X137609423Y-101923578D01*
X137607528Y-101916010D01*
X137606383Y-101908292D01*
X137606000Y-101900500D01*
X137606000Y-101699500D01*
X137606383Y-101691708D01*
X137607528Y-101683990D01*
X137609423Y-101676422D01*
X137612052Y-101669077D01*
X137615387Y-101662024D01*
X137619398Y-101655332D01*
X137624046Y-101649066D01*
X137629285Y-101643285D01*
X137635066Y-101638046D01*
X137641332Y-101633398D01*
X137648024Y-101629387D01*
X137655077Y-101626052D01*
X137662422Y-101623423D01*
X137669990Y-101621528D01*
X137677708Y-101620383D01*
X137685500Y-101620000D01*
X137844500Y-101620000D01*
X137852292Y-101620383D01*
X137852292Y-101620383D01*
G37*
D19*
X137765000Y-101800000D03*
G04 #@! TD*
D18*
G04 #@! TO.C,D2*
G36*
X132687691Y-127826053D02*
X132708926Y-127829203D01*
X132729750Y-127834419D01*
X132749962Y-127841651D01*
X132769368Y-127850830D01*
X132787781Y-127861866D01*
X132805024Y-127874654D01*
X132820930Y-127889070D01*
X132835346Y-127904976D01*
X132848134Y-127922219D01*
X132859170Y-127940632D01*
X132868349Y-127960038D01*
X132875581Y-127980250D01*
X132880797Y-128001074D01*
X132883947Y-128022309D01*
X132885000Y-128043750D01*
X132885000Y-128556250D01*
X132883947Y-128577691D01*
X132880797Y-128598926D01*
X132875581Y-128619750D01*
X132868349Y-128639962D01*
X132859170Y-128659368D01*
X132848134Y-128677781D01*
X132835346Y-128695024D01*
X132820930Y-128710930D01*
X132805024Y-128725346D01*
X132787781Y-128738134D01*
X132769368Y-128749170D01*
X132749962Y-128758349D01*
X132729750Y-128765581D01*
X132708926Y-128770797D01*
X132687691Y-128773947D01*
X132666250Y-128775000D01*
X132228750Y-128775000D01*
X132207309Y-128773947D01*
X132186074Y-128770797D01*
X132165250Y-128765581D01*
X132145038Y-128758349D01*
X132125632Y-128749170D01*
X132107219Y-128738134D01*
X132089976Y-128725346D01*
X132074070Y-128710930D01*
X132059654Y-128695024D01*
X132046866Y-128677781D01*
X132035830Y-128659368D01*
X132026651Y-128639962D01*
X132019419Y-128619750D01*
X132014203Y-128598926D01*
X132011053Y-128577691D01*
X132010000Y-128556250D01*
X132010000Y-128043750D01*
X132011053Y-128022309D01*
X132014203Y-128001074D01*
X132019419Y-127980250D01*
X132026651Y-127960038D01*
X132035830Y-127940632D01*
X132046866Y-127922219D01*
X132059654Y-127904976D01*
X132074070Y-127889070D01*
X132089976Y-127874654D01*
X132107219Y-127861866D01*
X132125632Y-127850830D01*
X132145038Y-127841651D01*
X132165250Y-127834419D01*
X132186074Y-127829203D01*
X132207309Y-127826053D01*
X132228750Y-127825000D01*
X132666250Y-127825000D01*
X132687691Y-127826053D01*
X132687691Y-127826053D01*
G37*
D20*
X132447500Y-128300000D03*
D18*
G36*
X131112691Y-127826053D02*
X131133926Y-127829203D01*
X131154750Y-127834419D01*
X131174962Y-127841651D01*
X131194368Y-127850830D01*
X131212781Y-127861866D01*
X131230024Y-127874654D01*
X131245930Y-127889070D01*
X131260346Y-127904976D01*
X131273134Y-127922219D01*
X131284170Y-127940632D01*
X131293349Y-127960038D01*
X131300581Y-127980250D01*
X131305797Y-128001074D01*
X131308947Y-128022309D01*
X131310000Y-128043750D01*
X131310000Y-128556250D01*
X131308947Y-128577691D01*
X131305797Y-128598926D01*
X131300581Y-128619750D01*
X131293349Y-128639962D01*
X131284170Y-128659368D01*
X131273134Y-128677781D01*
X131260346Y-128695024D01*
X131245930Y-128710930D01*
X131230024Y-128725346D01*
X131212781Y-128738134D01*
X131194368Y-128749170D01*
X131174962Y-128758349D01*
X131154750Y-128765581D01*
X131133926Y-128770797D01*
X131112691Y-128773947D01*
X131091250Y-128775000D01*
X130653750Y-128775000D01*
X130632309Y-128773947D01*
X130611074Y-128770797D01*
X130590250Y-128765581D01*
X130570038Y-128758349D01*
X130550632Y-128749170D01*
X130532219Y-128738134D01*
X130514976Y-128725346D01*
X130499070Y-128710930D01*
X130484654Y-128695024D01*
X130471866Y-128677781D01*
X130460830Y-128659368D01*
X130451651Y-128639962D01*
X130444419Y-128619750D01*
X130439203Y-128598926D01*
X130436053Y-128577691D01*
X130435000Y-128556250D01*
X130435000Y-128043750D01*
X130436053Y-128022309D01*
X130439203Y-128001074D01*
X130444419Y-127980250D01*
X130451651Y-127960038D01*
X130460830Y-127940632D01*
X130471866Y-127922219D01*
X130484654Y-127904976D01*
X130499070Y-127889070D01*
X130514976Y-127874654D01*
X130532219Y-127861866D01*
X130550632Y-127850830D01*
X130570038Y-127841651D01*
X130590250Y-127834419D01*
X130611074Y-127829203D01*
X130632309Y-127826053D01*
X130653750Y-127825000D01*
X131091250Y-127825000D01*
X131112691Y-127826053D01*
X131112691Y-127826053D01*
G37*
D20*
X130872500Y-128300000D03*
G04 #@! TD*
D18*
G04 #@! TO.C,D3*
G36*
X144712691Y-127826053D02*
X144733926Y-127829203D01*
X144754750Y-127834419D01*
X144774962Y-127841651D01*
X144794368Y-127850830D01*
X144812781Y-127861866D01*
X144830024Y-127874654D01*
X144845930Y-127889070D01*
X144860346Y-127904976D01*
X144873134Y-127922219D01*
X144884170Y-127940632D01*
X144893349Y-127960038D01*
X144900581Y-127980250D01*
X144905797Y-128001074D01*
X144908947Y-128022309D01*
X144910000Y-128043750D01*
X144910000Y-128556250D01*
X144908947Y-128577691D01*
X144905797Y-128598926D01*
X144900581Y-128619750D01*
X144893349Y-128639962D01*
X144884170Y-128659368D01*
X144873134Y-128677781D01*
X144860346Y-128695024D01*
X144845930Y-128710930D01*
X144830024Y-128725346D01*
X144812781Y-128738134D01*
X144794368Y-128749170D01*
X144774962Y-128758349D01*
X144754750Y-128765581D01*
X144733926Y-128770797D01*
X144712691Y-128773947D01*
X144691250Y-128775000D01*
X144253750Y-128775000D01*
X144232309Y-128773947D01*
X144211074Y-128770797D01*
X144190250Y-128765581D01*
X144170038Y-128758349D01*
X144150632Y-128749170D01*
X144132219Y-128738134D01*
X144114976Y-128725346D01*
X144099070Y-128710930D01*
X144084654Y-128695024D01*
X144071866Y-128677781D01*
X144060830Y-128659368D01*
X144051651Y-128639962D01*
X144044419Y-128619750D01*
X144039203Y-128598926D01*
X144036053Y-128577691D01*
X144035000Y-128556250D01*
X144035000Y-128043750D01*
X144036053Y-128022309D01*
X144039203Y-128001074D01*
X144044419Y-127980250D01*
X144051651Y-127960038D01*
X144060830Y-127940632D01*
X144071866Y-127922219D01*
X144084654Y-127904976D01*
X144099070Y-127889070D01*
X144114976Y-127874654D01*
X144132219Y-127861866D01*
X144150632Y-127850830D01*
X144170038Y-127841651D01*
X144190250Y-127834419D01*
X144211074Y-127829203D01*
X144232309Y-127826053D01*
X144253750Y-127825000D01*
X144691250Y-127825000D01*
X144712691Y-127826053D01*
X144712691Y-127826053D01*
G37*
D20*
X144472500Y-128300000D03*
D18*
G36*
X146287691Y-127826053D02*
X146308926Y-127829203D01*
X146329750Y-127834419D01*
X146349962Y-127841651D01*
X146369368Y-127850830D01*
X146387781Y-127861866D01*
X146405024Y-127874654D01*
X146420930Y-127889070D01*
X146435346Y-127904976D01*
X146448134Y-127922219D01*
X146459170Y-127940632D01*
X146468349Y-127960038D01*
X146475581Y-127980250D01*
X146480797Y-128001074D01*
X146483947Y-128022309D01*
X146485000Y-128043750D01*
X146485000Y-128556250D01*
X146483947Y-128577691D01*
X146480797Y-128598926D01*
X146475581Y-128619750D01*
X146468349Y-128639962D01*
X146459170Y-128659368D01*
X146448134Y-128677781D01*
X146435346Y-128695024D01*
X146420930Y-128710930D01*
X146405024Y-128725346D01*
X146387781Y-128738134D01*
X146369368Y-128749170D01*
X146349962Y-128758349D01*
X146329750Y-128765581D01*
X146308926Y-128770797D01*
X146287691Y-128773947D01*
X146266250Y-128775000D01*
X145828750Y-128775000D01*
X145807309Y-128773947D01*
X145786074Y-128770797D01*
X145765250Y-128765581D01*
X145745038Y-128758349D01*
X145725632Y-128749170D01*
X145707219Y-128738134D01*
X145689976Y-128725346D01*
X145674070Y-128710930D01*
X145659654Y-128695024D01*
X145646866Y-128677781D01*
X145635830Y-128659368D01*
X145626651Y-128639962D01*
X145619419Y-128619750D01*
X145614203Y-128598926D01*
X145611053Y-128577691D01*
X145610000Y-128556250D01*
X145610000Y-128043750D01*
X145611053Y-128022309D01*
X145614203Y-128001074D01*
X145619419Y-127980250D01*
X145626651Y-127960038D01*
X145635830Y-127940632D01*
X145646866Y-127922219D01*
X145659654Y-127904976D01*
X145674070Y-127889070D01*
X145689976Y-127874654D01*
X145707219Y-127861866D01*
X145725632Y-127850830D01*
X145745038Y-127841651D01*
X145765250Y-127834419D01*
X145786074Y-127829203D01*
X145807309Y-127826053D01*
X145828750Y-127825000D01*
X146266250Y-127825000D01*
X146287691Y-127826053D01*
X146287691Y-127826053D01*
G37*
D20*
X146047500Y-128300000D03*
G04 #@! TD*
D21*
G04 #@! TO.C,F1*
X139147500Y-110550000D03*
X139147500Y-111050000D03*
X138572500Y-111050000D03*
X138572500Y-110550000D03*
X138860000Y-110050000D03*
G04 #@! TD*
D22*
G04 #@! TO.C,J3*
X138430000Y-98298000D03*
D23*
X142810000Y-98298000D03*
X134050000Y-98298000D03*
G04 #@! TD*
D18*
G04 #@! TO.C,L1*
G36*
X137636958Y-102780710D02*
X137651276Y-102782834D01*
X137665317Y-102786351D01*
X137678946Y-102791228D01*
X137692031Y-102797417D01*
X137704447Y-102804858D01*
X137716073Y-102813481D01*
X137726798Y-102823202D01*
X137736519Y-102833927D01*
X137745142Y-102845553D01*
X137752583Y-102857969D01*
X137758772Y-102871054D01*
X137763649Y-102884683D01*
X137767166Y-102898724D01*
X137769290Y-102913042D01*
X137770000Y-102927500D01*
X137770000Y-103272500D01*
X137769290Y-103286958D01*
X137767166Y-103301276D01*
X137763649Y-103315317D01*
X137758772Y-103328946D01*
X137752583Y-103342031D01*
X137745142Y-103354447D01*
X137736519Y-103366073D01*
X137726798Y-103376798D01*
X137716073Y-103386519D01*
X137704447Y-103395142D01*
X137692031Y-103402583D01*
X137678946Y-103408772D01*
X137665317Y-103413649D01*
X137651276Y-103417166D01*
X137636958Y-103419290D01*
X137622500Y-103420000D01*
X137327500Y-103420000D01*
X137313042Y-103419290D01*
X137298724Y-103417166D01*
X137284683Y-103413649D01*
X137271054Y-103408772D01*
X137257969Y-103402583D01*
X137245553Y-103395142D01*
X137233927Y-103386519D01*
X137223202Y-103376798D01*
X137213481Y-103366073D01*
X137204858Y-103354447D01*
X137197417Y-103342031D01*
X137191228Y-103328946D01*
X137186351Y-103315317D01*
X137182834Y-103301276D01*
X137180710Y-103286958D01*
X137180000Y-103272500D01*
X137180000Y-102927500D01*
X137180710Y-102913042D01*
X137182834Y-102898724D01*
X137186351Y-102884683D01*
X137191228Y-102871054D01*
X137197417Y-102857969D01*
X137204858Y-102845553D01*
X137213481Y-102833927D01*
X137223202Y-102823202D01*
X137233927Y-102813481D01*
X137245553Y-102804858D01*
X137257969Y-102797417D01*
X137271054Y-102791228D01*
X137284683Y-102786351D01*
X137298724Y-102782834D01*
X137313042Y-102780710D01*
X137327500Y-102780000D01*
X137622500Y-102780000D01*
X137636958Y-102780710D01*
X137636958Y-102780710D01*
G37*
D24*
X137475000Y-103100000D03*
D18*
G36*
X138606958Y-102780710D02*
X138621276Y-102782834D01*
X138635317Y-102786351D01*
X138648946Y-102791228D01*
X138662031Y-102797417D01*
X138674447Y-102804858D01*
X138686073Y-102813481D01*
X138696798Y-102823202D01*
X138706519Y-102833927D01*
X138715142Y-102845553D01*
X138722583Y-102857969D01*
X138728772Y-102871054D01*
X138733649Y-102884683D01*
X138737166Y-102898724D01*
X138739290Y-102913042D01*
X138740000Y-102927500D01*
X138740000Y-103272500D01*
X138739290Y-103286958D01*
X138737166Y-103301276D01*
X138733649Y-103315317D01*
X138728772Y-103328946D01*
X138722583Y-103342031D01*
X138715142Y-103354447D01*
X138706519Y-103366073D01*
X138696798Y-103376798D01*
X138686073Y-103386519D01*
X138674447Y-103395142D01*
X138662031Y-103402583D01*
X138648946Y-103408772D01*
X138635317Y-103413649D01*
X138621276Y-103417166D01*
X138606958Y-103419290D01*
X138592500Y-103420000D01*
X138297500Y-103420000D01*
X138283042Y-103419290D01*
X138268724Y-103417166D01*
X138254683Y-103413649D01*
X138241054Y-103408772D01*
X138227969Y-103402583D01*
X138215553Y-103395142D01*
X138203927Y-103386519D01*
X138193202Y-103376798D01*
X138183481Y-103366073D01*
X138174858Y-103354447D01*
X138167417Y-103342031D01*
X138161228Y-103328946D01*
X138156351Y-103315317D01*
X138152834Y-103301276D01*
X138150710Y-103286958D01*
X138150000Y-103272500D01*
X138150000Y-102927500D01*
X138150710Y-102913042D01*
X138152834Y-102898724D01*
X138156351Y-102884683D01*
X138161228Y-102871054D01*
X138167417Y-102857969D01*
X138174858Y-102845553D01*
X138183481Y-102833927D01*
X138193202Y-102823202D01*
X138203927Y-102813481D01*
X138215553Y-102804858D01*
X138227969Y-102797417D01*
X138241054Y-102791228D01*
X138254683Y-102786351D01*
X138268724Y-102782834D01*
X138283042Y-102780710D01*
X138297500Y-102780000D01*
X138592500Y-102780000D01*
X138606958Y-102780710D01*
X138606958Y-102780710D01*
G37*
D24*
X138445000Y-103100000D03*
G04 #@! TD*
D18*
G04 #@! TO.C,L2*
G36*
X138646958Y-106875710D02*
X138661276Y-106877834D01*
X138675317Y-106881351D01*
X138688946Y-106886228D01*
X138702031Y-106892417D01*
X138714447Y-106899858D01*
X138726073Y-106908481D01*
X138736798Y-106918202D01*
X138746519Y-106928927D01*
X138755142Y-106940553D01*
X138762583Y-106952969D01*
X138768772Y-106966054D01*
X138773649Y-106979683D01*
X138777166Y-106993724D01*
X138779290Y-107008042D01*
X138780000Y-107022500D01*
X138780000Y-107317500D01*
X138779290Y-107331958D01*
X138777166Y-107346276D01*
X138773649Y-107360317D01*
X138768772Y-107373946D01*
X138762583Y-107387031D01*
X138755142Y-107399447D01*
X138746519Y-107411073D01*
X138736798Y-107421798D01*
X138726073Y-107431519D01*
X138714447Y-107440142D01*
X138702031Y-107447583D01*
X138688946Y-107453772D01*
X138675317Y-107458649D01*
X138661276Y-107462166D01*
X138646958Y-107464290D01*
X138632500Y-107465000D01*
X138287500Y-107465000D01*
X138273042Y-107464290D01*
X138258724Y-107462166D01*
X138244683Y-107458649D01*
X138231054Y-107453772D01*
X138217969Y-107447583D01*
X138205553Y-107440142D01*
X138193927Y-107431519D01*
X138183202Y-107421798D01*
X138173481Y-107411073D01*
X138164858Y-107399447D01*
X138157417Y-107387031D01*
X138151228Y-107373946D01*
X138146351Y-107360317D01*
X138142834Y-107346276D01*
X138140710Y-107331958D01*
X138140000Y-107317500D01*
X138140000Y-107022500D01*
X138140710Y-107008042D01*
X138142834Y-106993724D01*
X138146351Y-106979683D01*
X138151228Y-106966054D01*
X138157417Y-106952969D01*
X138164858Y-106940553D01*
X138173481Y-106928927D01*
X138183202Y-106918202D01*
X138193927Y-106908481D01*
X138205553Y-106899858D01*
X138217969Y-106892417D01*
X138231054Y-106886228D01*
X138244683Y-106881351D01*
X138258724Y-106877834D01*
X138273042Y-106875710D01*
X138287500Y-106875000D01*
X138632500Y-106875000D01*
X138646958Y-106875710D01*
X138646958Y-106875710D01*
G37*
D24*
X138460000Y-107170000D03*
D18*
G36*
X138646958Y-105905710D02*
X138661276Y-105907834D01*
X138675317Y-105911351D01*
X138688946Y-105916228D01*
X138702031Y-105922417D01*
X138714447Y-105929858D01*
X138726073Y-105938481D01*
X138736798Y-105948202D01*
X138746519Y-105958927D01*
X138755142Y-105970553D01*
X138762583Y-105982969D01*
X138768772Y-105996054D01*
X138773649Y-106009683D01*
X138777166Y-106023724D01*
X138779290Y-106038042D01*
X138780000Y-106052500D01*
X138780000Y-106347500D01*
X138779290Y-106361958D01*
X138777166Y-106376276D01*
X138773649Y-106390317D01*
X138768772Y-106403946D01*
X138762583Y-106417031D01*
X138755142Y-106429447D01*
X138746519Y-106441073D01*
X138736798Y-106451798D01*
X138726073Y-106461519D01*
X138714447Y-106470142D01*
X138702031Y-106477583D01*
X138688946Y-106483772D01*
X138675317Y-106488649D01*
X138661276Y-106492166D01*
X138646958Y-106494290D01*
X138632500Y-106495000D01*
X138287500Y-106495000D01*
X138273042Y-106494290D01*
X138258724Y-106492166D01*
X138244683Y-106488649D01*
X138231054Y-106483772D01*
X138217969Y-106477583D01*
X138205553Y-106470142D01*
X138193927Y-106461519D01*
X138183202Y-106451798D01*
X138173481Y-106441073D01*
X138164858Y-106429447D01*
X138157417Y-106417031D01*
X138151228Y-106403946D01*
X138146351Y-106390317D01*
X138142834Y-106376276D01*
X138140710Y-106361958D01*
X138140000Y-106347500D01*
X138140000Y-106052500D01*
X138140710Y-106038042D01*
X138142834Y-106023724D01*
X138146351Y-106009683D01*
X138151228Y-105996054D01*
X138157417Y-105982969D01*
X138164858Y-105970553D01*
X138173481Y-105958927D01*
X138183202Y-105948202D01*
X138193927Y-105938481D01*
X138205553Y-105929858D01*
X138217969Y-105922417D01*
X138231054Y-105916228D01*
X138244683Y-105911351D01*
X138258724Y-105907834D01*
X138273042Y-105905710D01*
X138287500Y-105905000D01*
X138632500Y-105905000D01*
X138646958Y-105905710D01*
X138646958Y-105905710D01*
G37*
D24*
X138460000Y-106200000D03*
G04 #@! TD*
D25*
G04 #@! TO.C,Q1*
X145210000Y-118500000D03*
X143310000Y-118500000D03*
X144260000Y-120500000D03*
G04 #@! TD*
D10*
G04 #@! TO.C,R1*
X138460000Y-104100000D03*
X139360000Y-104100000D03*
G04 #@! TD*
G04 #@! TO.C,R3*
X136010000Y-107900000D03*
X136910000Y-107900000D03*
G04 #@! TD*
D26*
G04 #@! TO.C,R4*
X130910000Y-134500000D03*
X132410000Y-134500000D03*
G04 #@! TD*
D10*
G04 #@! TO.C,R5*
X140060000Y-113550000D03*
X139160000Y-113550000D03*
G04 #@! TD*
D26*
G04 #@! TO.C,R6*
X144510000Y-134500000D03*
X146010000Y-134500000D03*
G04 #@! TD*
D27*
G04 #@! TO.C,U1*
X134510000Y-107150000D03*
X133210000Y-107150000D03*
X133860000Y-107150000D03*
X133210000Y-109050000D03*
X134510000Y-109050000D03*
G04 #@! TD*
D28*
G04 #@! TO.C,U2*
X138060000Y-108850000D03*
X138460000Y-108850000D03*
X138860000Y-108850000D03*
X138860000Y-108450000D03*
X138460000Y-108450000D03*
X138060000Y-108450000D03*
G04 #@! TD*
D29*
G04 #@! TO.C,C2*
X134260000Y-104500000D03*
X132260000Y-104500000D03*
G04 #@! TD*
G04 #@! TO.C,C7*
X132260000Y-111500000D03*
X134260000Y-111500000D03*
G04 #@! TD*
D30*
G04 #@! TO.C,R2*
X131772000Y-108450000D03*
X131772000Y-106950000D03*
G04 #@! TD*
M02*
