G04 #@! TF.GenerationSoftware,KiCad,Pcbnew,(5.0.0)*
G04 #@! TF.CreationDate,2018-09-17T15:57:07-05:00*
G04 #@! TF.ProjectId,TESEO-LIV3F_uBUS,544553454F2D4C495633465F75425553,rev?*
G04 #@! TF.SameCoordinates,Original*
G04 #@! TF.FileFunction,Copper,L3,Inr,Plane*
G04 #@! TF.FilePolarity,Positive*
%FSLAX46Y46*%
G04 Gerber Fmt 4.6, Leading zero omitted, Abs format (unit mm)*
G04 Created by KiCad (PCBNEW (5.0.0)) date 09/17/18 15:57:07*
%MOMM*%
%LPD*%
G01*
G04 APERTURE LIST*
G04 #@! TA.AperFunction,ViaPad*
%ADD10R,1.700000X1.700000*%
G04 #@! TD*
G04 #@! TA.AperFunction,ViaPad*
%ADD11O,1.700000X1.700000*%
G04 #@! TD*
G04 #@! TA.AperFunction,ViaPad*
%ADD12C,1.700000*%
G04 #@! TD*
G04 #@! TA.AperFunction,ViaPad*
%ADD13C,0.970000*%
G04 #@! TD*
G04 #@! TA.AperFunction,ViaPad*
%ADD14C,0.800000*%
G04 #@! TD*
G04 #@! TA.AperFunction,ViaPad*
%ADD15C,0.457200*%
G04 #@! TD*
G04 #@! TA.AperFunction,Conductor*
%ADD16C,0.127000*%
G04 #@! TD*
G04 APERTURE END LIST*
D10*
G04 #@! TO.N,Net-(J1-Pad1)*
G04 #@! TO.C,J1*
X127000000Y-116840000D03*
D11*
G04 #@! TO.N,/RESET*
X127000000Y-119380000D03*
G04 #@! TO.N,Net-(J1-Pad3)*
X127000000Y-121920000D03*
G04 #@! TO.N,Net-(J1-Pad4)*
X127000000Y-124460000D03*
G04 #@! TO.N,Net-(J1-Pad5)*
X127000000Y-127000000D03*
G04 #@! TO.N,Net-(J1-Pad6)*
X127000000Y-129540000D03*
G04 #@! TO.N,+3V3*
X127000000Y-132080000D03*
G04 #@! TO.N,GND*
X127000000Y-134620000D03*
G04 #@! TD*
G04 #@! TO.N,GND*
G04 #@! TO.C,J2*
X149860000Y-134620000D03*
G04 #@! TO.N,Net-(J2-Pad7)*
X149860000Y-132080000D03*
G04 #@! TO.N,/SDA*
X149860000Y-129540000D03*
G04 #@! TO.N,/SCL*
X149860000Y-127000000D03*
G04 #@! TO.N,/RX*
X149860000Y-124460000D03*
G04 #@! TO.N,/TX*
X149860000Y-121920000D03*
G04 #@! TO.N,/PPS*
X149860000Y-119380000D03*
D12*
G04 #@! TO.N,/EXI*
X149860000Y-116840000D03*
G04 #@! TD*
D13*
G04 #@! TO.N,GND*
G04 #@! TO.C,J3*
X142810000Y-101738000D03*
X134050000Y-101738000D03*
G04 #@! TD*
D14*
G04 #@! TO.N,+3V3*
X130860000Y-135700000D03*
X144260000Y-125900000D03*
X144260000Y-124900000D03*
X144460000Y-135700000D03*
D15*
G04 #@! TO.N,GND*
X136210000Y-96200000D03*
X136210000Y-97200000D03*
X136210000Y-98200000D03*
X136210000Y-99200000D03*
X136210000Y-100200000D03*
X136210000Y-101200000D03*
X140710000Y-99200000D03*
X140710000Y-100200000D03*
X140710000Y-96200000D03*
X140710000Y-97200000D03*
X140710000Y-98200000D03*
X140710000Y-101200000D03*
X141460000Y-101950000D03*
X144960000Y-98200000D03*
X144960000Y-99200000D03*
X144960000Y-96200000D03*
X144960000Y-97200000D03*
X144960000Y-100200000D03*
X144960000Y-101200000D03*
X144210000Y-101950000D03*
X135210000Y-101700000D03*
X132960000Y-101700000D03*
X131960000Y-99200000D03*
X131960000Y-96200000D03*
X131960000Y-97200000D03*
X131960000Y-100200000D03*
X131960000Y-101200000D03*
X131960000Y-98200000D03*
X130960000Y-96200000D03*
X126460000Y-96200000D03*
X127960000Y-96200000D03*
X129460000Y-96200000D03*
X145960000Y-96200000D03*
X147460000Y-96200000D03*
X148960000Y-96200000D03*
X150460000Y-96200000D03*
X150460000Y-97700000D03*
X150460000Y-99200000D03*
X150460000Y-100700000D03*
X150460000Y-102200000D03*
X150460000Y-103700000D03*
X150460000Y-105200000D03*
X150460000Y-106700000D03*
X150460000Y-108200000D03*
X150460000Y-109700000D03*
X150460000Y-111200000D03*
X150460000Y-112700000D03*
X150460000Y-114200000D03*
X126460000Y-97700000D03*
X126460000Y-99200000D03*
X126460000Y-100700000D03*
X126460000Y-102200000D03*
X126460000Y-103700000D03*
X126460000Y-105200000D03*
X126460000Y-106700000D03*
X126460000Y-108200000D03*
X126460000Y-109700000D03*
X126460000Y-111200000D03*
X126460000Y-112700000D03*
X126460000Y-114200000D03*
X139210000Y-101700000D03*
X139210000Y-102700000D03*
X140460000Y-103450000D03*
X141210000Y-104200000D03*
X141710000Y-104950000D03*
X141710000Y-105950000D03*
X141710000Y-106950000D03*
X141710000Y-107950000D03*
X141710000Y-108950000D03*
X141710000Y-109950000D03*
X141710000Y-110950000D03*
X141710000Y-111950000D03*
X141710000Y-112950000D03*
X141210000Y-113950000D03*
X140210000Y-114300000D03*
X140460000Y-105950000D03*
X140460000Y-106950000D03*
X140460000Y-107950000D03*
X140460000Y-108950000D03*
X140460000Y-109950000D03*
X140460000Y-110950000D03*
X140460000Y-111950000D03*
X139960000Y-112700000D03*
X139460000Y-105950000D03*
X139460000Y-106950000D03*
X139460000Y-107950000D03*
X139460000Y-108950000D03*
X139460000Y-109950000D03*
X139460000Y-104950000D03*
X136960000Y-101950000D03*
X137460000Y-104950000D03*
X137460000Y-105950000D03*
X137460000Y-106950000D03*
X137460000Y-103950000D03*
X137710000Y-107950000D03*
X137460000Y-109200000D03*
X136960000Y-108950000D03*
X138460000Y-111950000D03*
X138460000Y-112950000D03*
X138460000Y-113950000D03*
X137460000Y-113950000D03*
X137460000Y-112950000D03*
X137460000Y-111950000D03*
X137460000Y-110950000D03*
X130960000Y-114200000D03*
X141710000Y-114950000D03*
X141710000Y-116200000D03*
X127960000Y-114200000D03*
X129460000Y-114200000D03*
X132460000Y-114200000D03*
X148960000Y-114200000D03*
X147460000Y-114200000D03*
X145960000Y-114200000D03*
X144460000Y-114200000D03*
X142960000Y-114200000D03*
X135460000Y-131450000D03*
X135460000Y-128450000D03*
X138460000Y-128450000D03*
X141460000Y-128450000D03*
X141460000Y-131450000D03*
X141460000Y-134450000D03*
X138460000Y-134450000D03*
X135460000Y-134450000D03*
X129460000Y-128450000D03*
X129460000Y-134450000D03*
X129460000Y-122450000D03*
X129460000Y-116450000D03*
X147460000Y-128450000D03*
X147460000Y-122500000D03*
X147460000Y-116450000D03*
X141460000Y-122450000D03*
X135460000Y-122450000D03*
X147460000Y-134450000D03*
X135960000Y-110950000D03*
X135960000Y-111950000D03*
X135960000Y-112950000D03*
X135960000Y-106950000D03*
X135960000Y-105950000D03*
X135960000Y-104950000D03*
X135960000Y-103950000D03*
X130960000Y-112700000D03*
X130960000Y-111200000D03*
X130960000Y-109700000D03*
X130960000Y-105200000D03*
X130960000Y-103700000D03*
X130960000Y-102200000D03*
X130460000Y-108200000D03*
X130460000Y-106700000D03*
X132460000Y-109700000D03*
X132460000Y-112700000D03*
X133210000Y-105950000D03*
X131960000Y-105950000D03*
X132210000Y-102700000D03*
X134960000Y-108200000D03*
X135860000Y-109100000D03*
G04 #@! TO.N,/RESET*
X140060000Y-122500000D03*
G04 #@! TO.N,/SDA*
X132060000Y-123500000D03*
G04 #@! TO.N,/SCL*
X132660000Y-122900000D03*
G04 #@! TO.N,/RX*
X133860000Y-126500000D03*
G04 #@! TO.N,/TX*
X133260000Y-126100000D03*
G04 #@! TO.N,/PPS*
X134860000Y-123500000D03*
G04 #@! TO.N,/EXI*
X136060000Y-122900000D03*
G04 #@! TO.N,/ANT_OFF*
X136460000Y-116900000D03*
X134460000Y-114300000D03*
G04 #@! TD*
D16*
G04 #@! TO.N,+3V3*
G36*
X127413900Y-96091374D02*
X127413900Y-96308626D01*
X127497039Y-96509341D01*
X127650659Y-96662961D01*
X127851374Y-96746100D01*
X128068626Y-96746100D01*
X128269341Y-96662961D01*
X128422961Y-96509341D01*
X128506100Y-96308626D01*
X128506100Y-96091374D01*
X128446919Y-95948500D01*
X128973081Y-95948500D01*
X128913900Y-96091374D01*
X128913900Y-96308626D01*
X128997039Y-96509341D01*
X129150659Y-96662961D01*
X129351374Y-96746100D01*
X129568626Y-96746100D01*
X129769341Y-96662961D01*
X129922961Y-96509341D01*
X130006100Y-96308626D01*
X130006100Y-96091374D01*
X129946919Y-95948500D01*
X130473081Y-95948500D01*
X130413900Y-96091374D01*
X130413900Y-96308626D01*
X130497039Y-96509341D01*
X130650659Y-96662961D01*
X130851374Y-96746100D01*
X131068626Y-96746100D01*
X131269341Y-96662961D01*
X131422961Y-96509341D01*
X131460000Y-96419921D01*
X131497039Y-96509341D01*
X131650659Y-96662961D01*
X131740079Y-96700000D01*
X131650659Y-96737039D01*
X131497039Y-96890659D01*
X131413900Y-97091374D01*
X131413900Y-97308626D01*
X131497039Y-97509341D01*
X131650659Y-97662961D01*
X131740079Y-97700000D01*
X131650659Y-97737039D01*
X131497039Y-97890659D01*
X131413900Y-98091374D01*
X131413900Y-98308626D01*
X131497039Y-98509341D01*
X131650659Y-98662961D01*
X131740079Y-98700000D01*
X131650659Y-98737039D01*
X131497039Y-98890659D01*
X131413900Y-99091374D01*
X131413900Y-99308626D01*
X131497039Y-99509341D01*
X131650659Y-99662961D01*
X131740079Y-99700000D01*
X131650659Y-99737039D01*
X131497039Y-99890659D01*
X131413900Y-100091374D01*
X131413900Y-100308626D01*
X131497039Y-100509341D01*
X131650659Y-100662961D01*
X131740079Y-100700000D01*
X131650659Y-100737039D01*
X131497039Y-100890659D01*
X131413900Y-101091374D01*
X131413900Y-101308626D01*
X131497039Y-101509341D01*
X131650659Y-101662961D01*
X131851374Y-101746100D01*
X132068626Y-101746100D01*
X132269341Y-101662961D01*
X132340928Y-101591374D01*
X132413900Y-101591374D01*
X132413900Y-101808626D01*
X132497039Y-102009341D01*
X132650659Y-102162961D01*
X132851374Y-102246100D01*
X133068626Y-102246100D01*
X133269341Y-102162961D01*
X133331611Y-102100691D01*
X133369673Y-102192580D01*
X133595420Y-102418327D01*
X133890373Y-102540500D01*
X134209627Y-102540500D01*
X134504580Y-102418327D01*
X134730327Y-102192580D01*
X134788891Y-102051193D01*
X134900659Y-102162961D01*
X135101374Y-102246100D01*
X135318626Y-102246100D01*
X135519341Y-102162961D01*
X135672961Y-102009341D01*
X135756100Y-101808626D01*
X135756100Y-101591374D01*
X135672961Y-101390659D01*
X135519341Y-101237039D01*
X135318626Y-101153900D01*
X135101374Y-101153900D01*
X134900659Y-101237039D01*
X134766631Y-101371067D01*
X134730327Y-101283420D01*
X134504580Y-101057673D01*
X134209627Y-100935500D01*
X133890373Y-100935500D01*
X133595420Y-101057673D01*
X133369673Y-101283420D01*
X133353871Y-101321569D01*
X133269341Y-101237039D01*
X133068626Y-101153900D01*
X132851374Y-101153900D01*
X132650659Y-101237039D01*
X132497039Y-101390659D01*
X132413900Y-101591374D01*
X132340928Y-101591374D01*
X132422961Y-101509341D01*
X132506100Y-101308626D01*
X132506100Y-101091374D01*
X132422961Y-100890659D01*
X132269341Y-100737039D01*
X132179921Y-100700000D01*
X132269341Y-100662961D01*
X132422961Y-100509341D01*
X132506100Y-100308626D01*
X132506100Y-100091374D01*
X132422961Y-99890659D01*
X132269341Y-99737039D01*
X132179921Y-99700000D01*
X132269341Y-99662961D01*
X132422961Y-99509341D01*
X132506100Y-99308626D01*
X132506100Y-99091374D01*
X132422961Y-98890659D01*
X132269341Y-98737039D01*
X132179921Y-98700000D01*
X132269341Y-98662961D01*
X132422961Y-98509341D01*
X132506100Y-98308626D01*
X132506100Y-98091374D01*
X132422961Y-97890659D01*
X132269341Y-97737039D01*
X132179921Y-97700000D01*
X132269341Y-97662961D01*
X132422961Y-97509341D01*
X132506100Y-97308626D01*
X132506100Y-97091374D01*
X132422961Y-96890659D01*
X132269341Y-96737039D01*
X132179921Y-96700000D01*
X132269341Y-96662961D01*
X132422961Y-96509341D01*
X132506100Y-96308626D01*
X132506100Y-96091374D01*
X132446919Y-95948500D01*
X135723081Y-95948500D01*
X135663900Y-96091374D01*
X135663900Y-96308626D01*
X135747039Y-96509341D01*
X135900659Y-96662961D01*
X135990079Y-96700000D01*
X135900659Y-96737039D01*
X135747039Y-96890659D01*
X135663900Y-97091374D01*
X135663900Y-97308626D01*
X135747039Y-97509341D01*
X135900659Y-97662961D01*
X135990079Y-97700000D01*
X135900659Y-97737039D01*
X135747039Y-97890659D01*
X135663900Y-98091374D01*
X135663900Y-98308626D01*
X135747039Y-98509341D01*
X135900659Y-98662961D01*
X135990079Y-98700000D01*
X135900659Y-98737039D01*
X135747039Y-98890659D01*
X135663900Y-99091374D01*
X135663900Y-99308626D01*
X135747039Y-99509341D01*
X135900659Y-99662961D01*
X135990079Y-99700000D01*
X135900659Y-99737039D01*
X135747039Y-99890659D01*
X135663900Y-100091374D01*
X135663900Y-100308626D01*
X135747039Y-100509341D01*
X135900659Y-100662961D01*
X135990079Y-100700000D01*
X135900659Y-100737039D01*
X135747039Y-100890659D01*
X135663900Y-101091374D01*
X135663900Y-101308626D01*
X135747039Y-101509341D01*
X135900659Y-101662961D01*
X136101374Y-101746100D01*
X136318626Y-101746100D01*
X136481269Y-101678731D01*
X136413900Y-101841374D01*
X136413900Y-102058626D01*
X136497039Y-102259341D01*
X136650659Y-102412961D01*
X136851374Y-102496100D01*
X137068626Y-102496100D01*
X137269341Y-102412961D01*
X137422961Y-102259341D01*
X137506100Y-102058626D01*
X137506100Y-101841374D01*
X137422961Y-101640659D01*
X137373676Y-101591374D01*
X138663900Y-101591374D01*
X138663900Y-101808626D01*
X138747039Y-102009341D01*
X138900659Y-102162961D01*
X138990079Y-102200000D01*
X138900659Y-102237039D01*
X138747039Y-102390659D01*
X138663900Y-102591374D01*
X138663900Y-102808626D01*
X138747039Y-103009341D01*
X138900659Y-103162961D01*
X139101374Y-103246100D01*
X139318626Y-103246100D01*
X139519341Y-103162961D01*
X139672961Y-103009341D01*
X139756100Y-102808626D01*
X139756100Y-102591374D01*
X139672961Y-102390659D01*
X139519341Y-102237039D01*
X139429921Y-102200000D01*
X139519341Y-102162961D01*
X139672961Y-102009341D01*
X139756100Y-101808626D01*
X139756100Y-101591374D01*
X139672961Y-101390659D01*
X139519341Y-101237039D01*
X139318626Y-101153900D01*
X139101374Y-101153900D01*
X138900659Y-101237039D01*
X138747039Y-101390659D01*
X138663900Y-101591374D01*
X137373676Y-101591374D01*
X137269341Y-101487039D01*
X137068626Y-101403900D01*
X136851374Y-101403900D01*
X136688731Y-101471269D01*
X136756100Y-101308626D01*
X136756100Y-101091374D01*
X136672961Y-100890659D01*
X136519341Y-100737039D01*
X136429921Y-100700000D01*
X136519341Y-100662961D01*
X136672961Y-100509341D01*
X136756100Y-100308626D01*
X136756100Y-100091374D01*
X136672961Y-99890659D01*
X136519341Y-99737039D01*
X136429921Y-99700000D01*
X136519341Y-99662961D01*
X136672961Y-99509341D01*
X136756100Y-99308626D01*
X136756100Y-99091374D01*
X136672961Y-98890659D01*
X136519341Y-98737039D01*
X136429921Y-98700000D01*
X136519341Y-98662961D01*
X136672961Y-98509341D01*
X136756100Y-98308626D01*
X136756100Y-98091374D01*
X136672961Y-97890659D01*
X136519341Y-97737039D01*
X136429921Y-97700000D01*
X136519341Y-97662961D01*
X136672961Y-97509341D01*
X136756100Y-97308626D01*
X136756100Y-97091374D01*
X136672961Y-96890659D01*
X136519341Y-96737039D01*
X136429921Y-96700000D01*
X136519341Y-96662961D01*
X136672961Y-96509341D01*
X136756100Y-96308626D01*
X136756100Y-96091374D01*
X136696919Y-95948500D01*
X140223081Y-95948500D01*
X140163900Y-96091374D01*
X140163900Y-96308626D01*
X140247039Y-96509341D01*
X140400659Y-96662961D01*
X140490079Y-96700000D01*
X140400659Y-96737039D01*
X140247039Y-96890659D01*
X140163900Y-97091374D01*
X140163900Y-97308626D01*
X140247039Y-97509341D01*
X140400659Y-97662961D01*
X140490079Y-97700000D01*
X140400659Y-97737039D01*
X140247039Y-97890659D01*
X140163900Y-98091374D01*
X140163900Y-98308626D01*
X140247039Y-98509341D01*
X140400659Y-98662961D01*
X140490079Y-98700000D01*
X140400659Y-98737039D01*
X140247039Y-98890659D01*
X140163900Y-99091374D01*
X140163900Y-99308626D01*
X140247039Y-99509341D01*
X140400659Y-99662961D01*
X140490079Y-99700000D01*
X140400659Y-99737039D01*
X140247039Y-99890659D01*
X140163900Y-100091374D01*
X140163900Y-100308626D01*
X140247039Y-100509341D01*
X140400659Y-100662961D01*
X140490079Y-100700000D01*
X140400659Y-100737039D01*
X140247039Y-100890659D01*
X140163900Y-101091374D01*
X140163900Y-101308626D01*
X140247039Y-101509341D01*
X140400659Y-101662961D01*
X140601374Y-101746100D01*
X140818626Y-101746100D01*
X140981269Y-101678731D01*
X140913900Y-101841374D01*
X140913900Y-102058626D01*
X140997039Y-102259341D01*
X141150659Y-102412961D01*
X141351374Y-102496100D01*
X141568626Y-102496100D01*
X141769341Y-102412961D01*
X141922961Y-102259341D01*
X142006100Y-102058626D01*
X142006100Y-101841374D01*
X141922961Y-101640659D01*
X141860675Y-101578373D01*
X142007500Y-101578373D01*
X142007500Y-101897627D01*
X142129673Y-102192580D01*
X142355420Y-102418327D01*
X142650373Y-102540500D01*
X142969627Y-102540500D01*
X143264580Y-102418327D01*
X143490327Y-102192580D01*
X143612500Y-101897627D01*
X143612500Y-101578373D01*
X143490327Y-101283420D01*
X143264580Y-101057673D01*
X142969627Y-100935500D01*
X142650373Y-100935500D01*
X142355420Y-101057673D01*
X142129673Y-101283420D01*
X142007500Y-101578373D01*
X141860675Y-101578373D01*
X141769341Y-101487039D01*
X141568626Y-101403900D01*
X141351374Y-101403900D01*
X141188731Y-101471269D01*
X141256100Y-101308626D01*
X141256100Y-101091374D01*
X141172961Y-100890659D01*
X141019341Y-100737039D01*
X140929921Y-100700000D01*
X141019341Y-100662961D01*
X141172961Y-100509341D01*
X141256100Y-100308626D01*
X141256100Y-100091374D01*
X141172961Y-99890659D01*
X141019341Y-99737039D01*
X140929921Y-99700000D01*
X141019341Y-99662961D01*
X141172961Y-99509341D01*
X141256100Y-99308626D01*
X141256100Y-99091374D01*
X141172961Y-98890659D01*
X141019341Y-98737039D01*
X140929921Y-98700000D01*
X141019341Y-98662961D01*
X141172961Y-98509341D01*
X141256100Y-98308626D01*
X141256100Y-98091374D01*
X141172961Y-97890659D01*
X141019341Y-97737039D01*
X140929921Y-97700000D01*
X141019341Y-97662961D01*
X141172961Y-97509341D01*
X141256100Y-97308626D01*
X141256100Y-97091374D01*
X141172961Y-96890659D01*
X141019341Y-96737039D01*
X140929921Y-96700000D01*
X141019341Y-96662961D01*
X141172961Y-96509341D01*
X141256100Y-96308626D01*
X141256100Y-96091374D01*
X141196919Y-95948500D01*
X144473081Y-95948500D01*
X144413900Y-96091374D01*
X144413900Y-96308626D01*
X144497039Y-96509341D01*
X144650659Y-96662961D01*
X144740079Y-96700000D01*
X144650659Y-96737039D01*
X144497039Y-96890659D01*
X144413900Y-97091374D01*
X144413900Y-97308626D01*
X144497039Y-97509341D01*
X144650659Y-97662961D01*
X144740079Y-97700000D01*
X144650659Y-97737039D01*
X144497039Y-97890659D01*
X144413900Y-98091374D01*
X144413900Y-98308626D01*
X144497039Y-98509341D01*
X144650659Y-98662961D01*
X144740079Y-98700000D01*
X144650659Y-98737039D01*
X144497039Y-98890659D01*
X144413900Y-99091374D01*
X144413900Y-99308626D01*
X144497039Y-99509341D01*
X144650659Y-99662961D01*
X144740079Y-99700000D01*
X144650659Y-99737039D01*
X144497039Y-99890659D01*
X144413900Y-100091374D01*
X144413900Y-100308626D01*
X144497039Y-100509341D01*
X144650659Y-100662961D01*
X144740079Y-100700000D01*
X144650659Y-100737039D01*
X144497039Y-100890659D01*
X144413900Y-101091374D01*
X144413900Y-101308626D01*
X144481269Y-101471269D01*
X144318626Y-101403900D01*
X144101374Y-101403900D01*
X143900659Y-101487039D01*
X143747039Y-101640659D01*
X143663900Y-101841374D01*
X143663900Y-102058626D01*
X143747039Y-102259341D01*
X143900659Y-102412961D01*
X144101374Y-102496100D01*
X144318626Y-102496100D01*
X144519341Y-102412961D01*
X144672961Y-102259341D01*
X144756100Y-102058626D01*
X144756100Y-101841374D01*
X144688731Y-101678731D01*
X144851374Y-101746100D01*
X145068626Y-101746100D01*
X145269341Y-101662961D01*
X145422961Y-101509341D01*
X145506100Y-101308626D01*
X145506100Y-101091374D01*
X145422961Y-100890659D01*
X145269341Y-100737039D01*
X145179921Y-100700000D01*
X145269341Y-100662961D01*
X145422961Y-100509341D01*
X145506100Y-100308626D01*
X145506100Y-100091374D01*
X145422961Y-99890659D01*
X145269341Y-99737039D01*
X145179921Y-99700000D01*
X145269341Y-99662961D01*
X145422961Y-99509341D01*
X145506100Y-99308626D01*
X145506100Y-99091374D01*
X145422961Y-98890659D01*
X145269341Y-98737039D01*
X145179921Y-98700000D01*
X145269341Y-98662961D01*
X145422961Y-98509341D01*
X145506100Y-98308626D01*
X145506100Y-98091374D01*
X145422961Y-97890659D01*
X145269341Y-97737039D01*
X145179921Y-97700000D01*
X145269341Y-97662961D01*
X145422961Y-97509341D01*
X145506100Y-97308626D01*
X145506100Y-97091374D01*
X145422961Y-96890659D01*
X145269341Y-96737039D01*
X145179921Y-96700000D01*
X145269341Y-96662961D01*
X145422961Y-96509341D01*
X145460000Y-96419921D01*
X145497039Y-96509341D01*
X145650659Y-96662961D01*
X145851374Y-96746100D01*
X146068626Y-96746100D01*
X146269341Y-96662961D01*
X146422961Y-96509341D01*
X146506100Y-96308626D01*
X146506100Y-96091374D01*
X146446919Y-95948500D01*
X146973081Y-95948500D01*
X146913900Y-96091374D01*
X146913900Y-96308626D01*
X146997039Y-96509341D01*
X147150659Y-96662961D01*
X147351374Y-96746100D01*
X147568626Y-96746100D01*
X147769341Y-96662961D01*
X147922961Y-96509341D01*
X148006100Y-96308626D01*
X148006100Y-96091374D01*
X147946919Y-95948500D01*
X148473081Y-95948500D01*
X148413900Y-96091374D01*
X148413900Y-96308626D01*
X148497039Y-96509341D01*
X148650659Y-96662961D01*
X148851374Y-96746100D01*
X149068626Y-96746100D01*
X149269341Y-96662961D01*
X149422961Y-96509341D01*
X149506100Y-96308626D01*
X149506100Y-96091374D01*
X149446919Y-95948500D01*
X149973081Y-95948500D01*
X149913900Y-96091374D01*
X149913900Y-96308626D01*
X149997039Y-96509341D01*
X150150659Y-96662961D01*
X150351374Y-96746100D01*
X150568626Y-96746100D01*
X150685500Y-96697689D01*
X150685500Y-97202311D01*
X150568626Y-97153900D01*
X150351374Y-97153900D01*
X150150659Y-97237039D01*
X149997039Y-97390659D01*
X149913900Y-97591374D01*
X149913900Y-97808626D01*
X149997039Y-98009341D01*
X150150659Y-98162961D01*
X150351374Y-98246100D01*
X150568626Y-98246100D01*
X150685500Y-98197689D01*
X150685500Y-98702311D01*
X150568626Y-98653900D01*
X150351374Y-98653900D01*
X150150659Y-98737039D01*
X149997039Y-98890659D01*
X149913900Y-99091374D01*
X149913900Y-99308626D01*
X149997039Y-99509341D01*
X150150659Y-99662961D01*
X150351374Y-99746100D01*
X150568626Y-99746100D01*
X150685500Y-99697689D01*
X150685500Y-100202311D01*
X150568626Y-100153900D01*
X150351374Y-100153900D01*
X150150659Y-100237039D01*
X149997039Y-100390659D01*
X149913900Y-100591374D01*
X149913900Y-100808626D01*
X149997039Y-101009341D01*
X150150659Y-101162961D01*
X150351374Y-101246100D01*
X150568626Y-101246100D01*
X150685500Y-101197689D01*
X150685500Y-101702311D01*
X150568626Y-101653900D01*
X150351374Y-101653900D01*
X150150659Y-101737039D01*
X149997039Y-101890659D01*
X149913900Y-102091374D01*
X149913900Y-102308626D01*
X149997039Y-102509341D01*
X150150659Y-102662961D01*
X150351374Y-102746100D01*
X150568626Y-102746100D01*
X150685500Y-102697689D01*
X150685500Y-103202311D01*
X150568626Y-103153900D01*
X150351374Y-103153900D01*
X150150659Y-103237039D01*
X149997039Y-103390659D01*
X149913900Y-103591374D01*
X149913900Y-103808626D01*
X149997039Y-104009341D01*
X150150659Y-104162961D01*
X150351374Y-104246100D01*
X150568626Y-104246100D01*
X150685500Y-104197689D01*
X150685500Y-104702311D01*
X150568626Y-104653900D01*
X150351374Y-104653900D01*
X150150659Y-104737039D01*
X149997039Y-104890659D01*
X149913900Y-105091374D01*
X149913900Y-105308626D01*
X149997039Y-105509341D01*
X150150659Y-105662961D01*
X150351374Y-105746100D01*
X150568626Y-105746100D01*
X150685500Y-105697689D01*
X150685500Y-106202311D01*
X150568626Y-106153900D01*
X150351374Y-106153900D01*
X150150659Y-106237039D01*
X149997039Y-106390659D01*
X149913900Y-106591374D01*
X149913900Y-106808626D01*
X149997039Y-107009341D01*
X150150659Y-107162961D01*
X150351374Y-107246100D01*
X150568626Y-107246100D01*
X150685500Y-107197689D01*
X150685500Y-107702311D01*
X150568626Y-107653900D01*
X150351374Y-107653900D01*
X150150659Y-107737039D01*
X149997039Y-107890659D01*
X149913900Y-108091374D01*
X149913900Y-108308626D01*
X149997039Y-108509341D01*
X150150659Y-108662961D01*
X150351374Y-108746100D01*
X150568626Y-108746100D01*
X150685500Y-108697689D01*
X150685500Y-109202311D01*
X150568626Y-109153900D01*
X150351374Y-109153900D01*
X150150659Y-109237039D01*
X149997039Y-109390659D01*
X149913900Y-109591374D01*
X149913900Y-109808626D01*
X149997039Y-110009341D01*
X150150659Y-110162961D01*
X150351374Y-110246100D01*
X150568626Y-110246100D01*
X150685500Y-110197689D01*
X150685500Y-110702311D01*
X150568626Y-110653900D01*
X150351374Y-110653900D01*
X150150659Y-110737039D01*
X149997039Y-110890659D01*
X149913900Y-111091374D01*
X149913900Y-111308626D01*
X149997039Y-111509341D01*
X150150659Y-111662961D01*
X150351374Y-111746100D01*
X150568626Y-111746100D01*
X150685500Y-111697689D01*
X150685500Y-112202311D01*
X150568626Y-112153900D01*
X150351374Y-112153900D01*
X150150659Y-112237039D01*
X149997039Y-112390659D01*
X149913900Y-112591374D01*
X149913900Y-112808626D01*
X149997039Y-113009341D01*
X150150659Y-113162961D01*
X150351374Y-113246100D01*
X150568626Y-113246100D01*
X150685500Y-113197689D01*
X150685500Y-113702311D01*
X150568626Y-113653900D01*
X150351374Y-113653900D01*
X150150659Y-113737039D01*
X149997039Y-113890659D01*
X149913900Y-114091374D01*
X149913900Y-114308626D01*
X149997039Y-114509341D01*
X150150659Y-114662961D01*
X150351374Y-114746100D01*
X150568626Y-114746100D01*
X150685500Y-114697689D01*
X150685500Y-116014405D01*
X150521336Y-115850241D01*
X150092230Y-115672500D01*
X149627770Y-115672500D01*
X149198664Y-115850241D01*
X148870241Y-116178664D01*
X148692500Y-116607770D01*
X148692500Y-117072230D01*
X148870241Y-117501336D01*
X149198664Y-117829759D01*
X149627770Y-118007500D01*
X150092230Y-118007500D01*
X150521336Y-117829759D01*
X150685500Y-117665595D01*
X150685500Y-118527442D01*
X150315536Y-118280240D01*
X149974985Y-118212500D01*
X149745015Y-118212500D01*
X149404464Y-118280240D01*
X149018280Y-118538280D01*
X148760240Y-118924464D01*
X148669628Y-119380000D01*
X148760240Y-119835536D01*
X149018280Y-120221720D01*
X149404464Y-120479760D01*
X149745015Y-120547500D01*
X149974985Y-120547500D01*
X150315536Y-120479760D01*
X150685500Y-120232558D01*
X150685500Y-121067442D01*
X150315536Y-120820240D01*
X149974985Y-120752500D01*
X149745015Y-120752500D01*
X149404464Y-120820240D01*
X149018280Y-121078280D01*
X148760240Y-121464464D01*
X148669628Y-121920000D01*
X148760240Y-122375536D01*
X149018280Y-122761720D01*
X149404464Y-123019760D01*
X149745015Y-123087500D01*
X149974985Y-123087500D01*
X150315536Y-123019760D01*
X150685500Y-122772558D01*
X150685500Y-123607442D01*
X150315536Y-123360240D01*
X149974985Y-123292500D01*
X149745015Y-123292500D01*
X149404464Y-123360240D01*
X149018280Y-123618280D01*
X148760240Y-124004464D01*
X148669628Y-124460000D01*
X148760240Y-124915536D01*
X149018280Y-125301720D01*
X149404464Y-125559760D01*
X149745015Y-125627500D01*
X149974985Y-125627500D01*
X150315536Y-125559760D01*
X150685500Y-125312558D01*
X150685500Y-126147442D01*
X150315536Y-125900240D01*
X149974985Y-125832500D01*
X149745015Y-125832500D01*
X149404464Y-125900240D01*
X149018280Y-126158280D01*
X148760240Y-126544464D01*
X148669628Y-127000000D01*
X148760240Y-127455536D01*
X149018280Y-127841720D01*
X149404464Y-128099760D01*
X149745015Y-128167500D01*
X149974985Y-128167500D01*
X150315536Y-128099760D01*
X150685500Y-127852558D01*
X150685500Y-128687442D01*
X150315536Y-128440240D01*
X149974985Y-128372500D01*
X149745015Y-128372500D01*
X149404464Y-128440240D01*
X149018280Y-128698280D01*
X148760240Y-129084464D01*
X148669628Y-129540000D01*
X148760240Y-129995536D01*
X149018280Y-130381720D01*
X149404464Y-130639760D01*
X149745015Y-130707500D01*
X149974985Y-130707500D01*
X150315536Y-130639760D01*
X150685500Y-130392558D01*
X150685500Y-131227442D01*
X150315536Y-130980240D01*
X149974985Y-130912500D01*
X149745015Y-130912500D01*
X149404464Y-130980240D01*
X149018280Y-131238280D01*
X148760240Y-131624464D01*
X148669628Y-132080000D01*
X148760240Y-132535536D01*
X149018280Y-132921720D01*
X149404464Y-133179760D01*
X149745015Y-133247500D01*
X149974985Y-133247500D01*
X150315536Y-133179760D01*
X150685500Y-132932558D01*
X150685500Y-133767442D01*
X150315536Y-133520240D01*
X149974985Y-133452500D01*
X149745015Y-133452500D01*
X149404464Y-133520240D01*
X149018280Y-133778280D01*
X148760240Y-134164464D01*
X148669628Y-134620000D01*
X148760240Y-135075536D01*
X149018280Y-135461720D01*
X149404464Y-135719760D01*
X149745015Y-135787500D01*
X149974985Y-135787500D01*
X150315536Y-135719760D01*
X150685500Y-135472558D01*
X150685500Y-135736698D01*
X148436698Y-137985500D01*
X126174500Y-137985500D01*
X126174500Y-135472558D01*
X126544464Y-135719760D01*
X126885015Y-135787500D01*
X127114985Y-135787500D01*
X127455536Y-135719760D01*
X127841720Y-135461720D01*
X128099760Y-135075536D01*
X128190372Y-134620000D01*
X128134950Y-134341374D01*
X128913900Y-134341374D01*
X128913900Y-134558626D01*
X128997039Y-134759341D01*
X129150659Y-134912961D01*
X129351374Y-134996100D01*
X129568626Y-134996100D01*
X129769341Y-134912961D01*
X129922961Y-134759341D01*
X130006100Y-134558626D01*
X130006100Y-134341374D01*
X134913900Y-134341374D01*
X134913900Y-134558626D01*
X134997039Y-134759341D01*
X135150659Y-134912961D01*
X135351374Y-134996100D01*
X135568626Y-134996100D01*
X135769341Y-134912961D01*
X135922961Y-134759341D01*
X136006100Y-134558626D01*
X136006100Y-134341374D01*
X137913900Y-134341374D01*
X137913900Y-134558626D01*
X137997039Y-134759341D01*
X138150659Y-134912961D01*
X138351374Y-134996100D01*
X138568626Y-134996100D01*
X138769341Y-134912961D01*
X138922961Y-134759341D01*
X139006100Y-134558626D01*
X139006100Y-134341374D01*
X140913900Y-134341374D01*
X140913900Y-134558626D01*
X140997039Y-134759341D01*
X141150659Y-134912961D01*
X141351374Y-134996100D01*
X141568626Y-134996100D01*
X141769341Y-134912961D01*
X141922961Y-134759341D01*
X142006100Y-134558626D01*
X142006100Y-134341374D01*
X146913900Y-134341374D01*
X146913900Y-134558626D01*
X146997039Y-134759341D01*
X147150659Y-134912961D01*
X147351374Y-134996100D01*
X147568626Y-134996100D01*
X147769341Y-134912961D01*
X147922961Y-134759341D01*
X148006100Y-134558626D01*
X148006100Y-134341374D01*
X147922961Y-134140659D01*
X147769341Y-133987039D01*
X147568626Y-133903900D01*
X147351374Y-133903900D01*
X147150659Y-133987039D01*
X146997039Y-134140659D01*
X146913900Y-134341374D01*
X142006100Y-134341374D01*
X141922961Y-134140659D01*
X141769341Y-133987039D01*
X141568626Y-133903900D01*
X141351374Y-133903900D01*
X141150659Y-133987039D01*
X140997039Y-134140659D01*
X140913900Y-134341374D01*
X139006100Y-134341374D01*
X138922961Y-134140659D01*
X138769341Y-133987039D01*
X138568626Y-133903900D01*
X138351374Y-133903900D01*
X138150659Y-133987039D01*
X137997039Y-134140659D01*
X137913900Y-134341374D01*
X136006100Y-134341374D01*
X135922961Y-134140659D01*
X135769341Y-133987039D01*
X135568626Y-133903900D01*
X135351374Y-133903900D01*
X135150659Y-133987039D01*
X134997039Y-134140659D01*
X134913900Y-134341374D01*
X130006100Y-134341374D01*
X129922961Y-134140659D01*
X129769341Y-133987039D01*
X129568626Y-133903900D01*
X129351374Y-133903900D01*
X129150659Y-133987039D01*
X128997039Y-134140659D01*
X128913900Y-134341374D01*
X128134950Y-134341374D01*
X128099760Y-134164464D01*
X127841720Y-133778280D01*
X127455536Y-133520240D01*
X127114985Y-133452500D01*
X126885015Y-133452500D01*
X126544464Y-133520240D01*
X126174500Y-133767442D01*
X126174500Y-132873581D01*
X126336740Y-133040811D01*
X126754914Y-133221492D01*
X126936500Y-133166403D01*
X126936500Y-132143500D01*
X127063500Y-132143500D01*
X127063500Y-133166403D01*
X127245086Y-133221492D01*
X127663260Y-133040811D01*
X127980459Y-132713855D01*
X128141486Y-132325085D01*
X128086271Y-132143500D01*
X127063500Y-132143500D01*
X126936500Y-132143500D01*
X126916500Y-132143500D01*
X126916500Y-132016500D01*
X126936500Y-132016500D01*
X126936500Y-130993597D01*
X127063500Y-130993597D01*
X127063500Y-132016500D01*
X128086271Y-132016500D01*
X128141486Y-131834915D01*
X127980459Y-131446145D01*
X127878815Y-131341374D01*
X134913900Y-131341374D01*
X134913900Y-131558626D01*
X134997039Y-131759341D01*
X135150659Y-131912961D01*
X135351374Y-131996100D01*
X135568626Y-131996100D01*
X135769341Y-131912961D01*
X135922961Y-131759341D01*
X136006100Y-131558626D01*
X136006100Y-131341374D01*
X140913900Y-131341374D01*
X140913900Y-131558626D01*
X140997039Y-131759341D01*
X141150659Y-131912961D01*
X141351374Y-131996100D01*
X141568626Y-131996100D01*
X141769341Y-131912961D01*
X141922961Y-131759341D01*
X142006100Y-131558626D01*
X142006100Y-131341374D01*
X141922961Y-131140659D01*
X141769341Y-130987039D01*
X141568626Y-130903900D01*
X141351374Y-130903900D01*
X141150659Y-130987039D01*
X140997039Y-131140659D01*
X140913900Y-131341374D01*
X136006100Y-131341374D01*
X135922961Y-131140659D01*
X135769341Y-130987039D01*
X135568626Y-130903900D01*
X135351374Y-130903900D01*
X135150659Y-130987039D01*
X134997039Y-131140659D01*
X134913900Y-131341374D01*
X127878815Y-131341374D01*
X127663260Y-131119189D01*
X127245086Y-130938508D01*
X127063500Y-130993597D01*
X126936500Y-130993597D01*
X126754914Y-130938508D01*
X126336740Y-131119189D01*
X126174500Y-131286419D01*
X126174500Y-130392558D01*
X126544464Y-130639760D01*
X126885015Y-130707500D01*
X127114985Y-130707500D01*
X127455536Y-130639760D01*
X127841720Y-130381720D01*
X128099760Y-129995536D01*
X128190372Y-129540000D01*
X128099760Y-129084464D01*
X127841720Y-128698280D01*
X127455536Y-128440240D01*
X127114985Y-128372500D01*
X126885015Y-128372500D01*
X126544464Y-128440240D01*
X126174500Y-128687442D01*
X126174500Y-128341374D01*
X128913900Y-128341374D01*
X128913900Y-128558626D01*
X128997039Y-128759341D01*
X129150659Y-128912961D01*
X129351374Y-128996100D01*
X129568626Y-128996100D01*
X129769341Y-128912961D01*
X129922961Y-128759341D01*
X130006100Y-128558626D01*
X130006100Y-128341374D01*
X134913900Y-128341374D01*
X134913900Y-128558626D01*
X134997039Y-128759341D01*
X135150659Y-128912961D01*
X135351374Y-128996100D01*
X135568626Y-128996100D01*
X135769341Y-128912961D01*
X135922961Y-128759341D01*
X136006100Y-128558626D01*
X136006100Y-128341374D01*
X137913900Y-128341374D01*
X137913900Y-128558626D01*
X137997039Y-128759341D01*
X138150659Y-128912961D01*
X138351374Y-128996100D01*
X138568626Y-128996100D01*
X138769341Y-128912961D01*
X138922961Y-128759341D01*
X139006100Y-128558626D01*
X139006100Y-128341374D01*
X140913900Y-128341374D01*
X140913900Y-128558626D01*
X140997039Y-128759341D01*
X141150659Y-128912961D01*
X141351374Y-128996100D01*
X141568626Y-128996100D01*
X141769341Y-128912961D01*
X141922961Y-128759341D01*
X142006100Y-128558626D01*
X142006100Y-128341374D01*
X146913900Y-128341374D01*
X146913900Y-128558626D01*
X146997039Y-128759341D01*
X147150659Y-128912961D01*
X147351374Y-128996100D01*
X147568626Y-128996100D01*
X147769341Y-128912961D01*
X147922961Y-128759341D01*
X148006100Y-128558626D01*
X148006100Y-128341374D01*
X147922961Y-128140659D01*
X147769341Y-127987039D01*
X147568626Y-127903900D01*
X147351374Y-127903900D01*
X147150659Y-127987039D01*
X146997039Y-128140659D01*
X146913900Y-128341374D01*
X142006100Y-128341374D01*
X141922961Y-128140659D01*
X141769341Y-127987039D01*
X141568626Y-127903900D01*
X141351374Y-127903900D01*
X141150659Y-127987039D01*
X140997039Y-128140659D01*
X140913900Y-128341374D01*
X139006100Y-128341374D01*
X138922961Y-128140659D01*
X138769341Y-127987039D01*
X138568626Y-127903900D01*
X138351374Y-127903900D01*
X138150659Y-127987039D01*
X137997039Y-128140659D01*
X137913900Y-128341374D01*
X136006100Y-128341374D01*
X135922961Y-128140659D01*
X135769341Y-127987039D01*
X135568626Y-127903900D01*
X135351374Y-127903900D01*
X135150659Y-127987039D01*
X134997039Y-128140659D01*
X134913900Y-128341374D01*
X130006100Y-128341374D01*
X129922961Y-128140659D01*
X129769341Y-127987039D01*
X129568626Y-127903900D01*
X129351374Y-127903900D01*
X129150659Y-127987039D01*
X128997039Y-128140659D01*
X128913900Y-128341374D01*
X126174500Y-128341374D01*
X126174500Y-127852558D01*
X126544464Y-128099760D01*
X126885015Y-128167500D01*
X127114985Y-128167500D01*
X127455536Y-128099760D01*
X127841720Y-127841720D01*
X128099760Y-127455536D01*
X128190372Y-127000000D01*
X128099760Y-126544464D01*
X127841720Y-126158280D01*
X127591928Y-125991374D01*
X132713900Y-125991374D01*
X132713900Y-126208626D01*
X132797039Y-126409341D01*
X132950659Y-126562961D01*
X133151374Y-126646100D01*
X133329422Y-126646100D01*
X133397039Y-126809341D01*
X133550659Y-126962961D01*
X133751374Y-127046100D01*
X133968626Y-127046100D01*
X134169341Y-126962961D01*
X134322961Y-126809341D01*
X134406100Y-126608626D01*
X134406100Y-126391374D01*
X134322961Y-126190659D01*
X134169341Y-126037039D01*
X133968626Y-125953900D01*
X133790578Y-125953900D01*
X133722961Y-125790659D01*
X133569341Y-125637039D01*
X133368626Y-125553900D01*
X133151374Y-125553900D01*
X132950659Y-125637039D01*
X132797039Y-125790659D01*
X132713900Y-125991374D01*
X127591928Y-125991374D01*
X127455536Y-125900240D01*
X127114985Y-125832500D01*
X126885015Y-125832500D01*
X126544464Y-125900240D01*
X126174500Y-126147442D01*
X126174500Y-125312558D01*
X126544464Y-125559760D01*
X126885015Y-125627500D01*
X127114985Y-125627500D01*
X127455536Y-125559760D01*
X127841720Y-125301720D01*
X128099760Y-124915536D01*
X128190372Y-124460000D01*
X128099760Y-124004464D01*
X127841720Y-123618280D01*
X127502132Y-123391374D01*
X131513900Y-123391374D01*
X131513900Y-123608626D01*
X131597039Y-123809341D01*
X131750659Y-123962961D01*
X131951374Y-124046100D01*
X132168626Y-124046100D01*
X132369341Y-123962961D01*
X132522961Y-123809341D01*
X132606100Y-123608626D01*
X132606100Y-123446100D01*
X132768626Y-123446100D01*
X132900746Y-123391374D01*
X134313900Y-123391374D01*
X134313900Y-123608626D01*
X134397039Y-123809341D01*
X134550659Y-123962961D01*
X134751374Y-124046100D01*
X134968626Y-124046100D01*
X135169341Y-123962961D01*
X135322961Y-123809341D01*
X135406100Y-123608626D01*
X135406100Y-123391374D01*
X135322961Y-123190659D01*
X135169341Y-123037039D01*
X134968626Y-122953900D01*
X134751374Y-122953900D01*
X134550659Y-123037039D01*
X134397039Y-123190659D01*
X134313900Y-123391374D01*
X132900746Y-123391374D01*
X132969341Y-123362961D01*
X133122961Y-123209341D01*
X133206100Y-123008626D01*
X133206100Y-122791374D01*
X133122961Y-122590659D01*
X132969341Y-122437039D01*
X132768626Y-122353900D01*
X132551374Y-122353900D01*
X132350659Y-122437039D01*
X132197039Y-122590659D01*
X132113900Y-122791374D01*
X132113900Y-122953900D01*
X131951374Y-122953900D01*
X131750659Y-123037039D01*
X131597039Y-123190659D01*
X131513900Y-123391374D01*
X127502132Y-123391374D01*
X127455536Y-123360240D01*
X127114985Y-123292500D01*
X126885015Y-123292500D01*
X126544464Y-123360240D01*
X126174500Y-123607442D01*
X126174500Y-122772558D01*
X126544464Y-123019760D01*
X126885015Y-123087500D01*
X127114985Y-123087500D01*
X127455536Y-123019760D01*
X127841720Y-122761720D01*
X128099760Y-122375536D01*
X128106555Y-122341374D01*
X128913900Y-122341374D01*
X128913900Y-122558626D01*
X128997039Y-122759341D01*
X129150659Y-122912961D01*
X129351374Y-122996100D01*
X129568626Y-122996100D01*
X129769341Y-122912961D01*
X129922961Y-122759341D01*
X130006100Y-122558626D01*
X130006100Y-122341374D01*
X134913900Y-122341374D01*
X134913900Y-122558626D01*
X134997039Y-122759341D01*
X135150659Y-122912961D01*
X135351374Y-122996100D01*
X135513900Y-122996100D01*
X135513900Y-123008626D01*
X135597039Y-123209341D01*
X135750659Y-123362961D01*
X135951374Y-123446100D01*
X136168626Y-123446100D01*
X136369341Y-123362961D01*
X136522961Y-123209341D01*
X136606100Y-123008626D01*
X136606100Y-122791374D01*
X136522961Y-122590659D01*
X136369341Y-122437039D01*
X136259097Y-122391374D01*
X139513900Y-122391374D01*
X139513900Y-122608626D01*
X139597039Y-122809341D01*
X139750659Y-122962961D01*
X139951374Y-123046100D01*
X140168626Y-123046100D01*
X140369341Y-122962961D01*
X140522961Y-122809341D01*
X140606100Y-122608626D01*
X140606100Y-122391374D01*
X140585390Y-122341374D01*
X140913900Y-122341374D01*
X140913900Y-122558626D01*
X140997039Y-122759341D01*
X141150659Y-122912961D01*
X141351374Y-122996100D01*
X141568626Y-122996100D01*
X141769341Y-122912961D01*
X141922961Y-122759341D01*
X142006100Y-122558626D01*
X142006100Y-122391374D01*
X146913900Y-122391374D01*
X146913900Y-122608626D01*
X146997039Y-122809341D01*
X147150659Y-122962961D01*
X147351374Y-123046100D01*
X147568626Y-123046100D01*
X147769341Y-122962961D01*
X147922961Y-122809341D01*
X148006100Y-122608626D01*
X148006100Y-122391374D01*
X147922961Y-122190659D01*
X147769341Y-122037039D01*
X147568626Y-121953900D01*
X147351374Y-121953900D01*
X147150659Y-122037039D01*
X146997039Y-122190659D01*
X146913900Y-122391374D01*
X142006100Y-122391374D01*
X142006100Y-122341374D01*
X141922961Y-122140659D01*
X141769341Y-121987039D01*
X141568626Y-121903900D01*
X141351374Y-121903900D01*
X141150659Y-121987039D01*
X140997039Y-122140659D01*
X140913900Y-122341374D01*
X140585390Y-122341374D01*
X140522961Y-122190659D01*
X140369341Y-122037039D01*
X140168626Y-121953900D01*
X139951374Y-121953900D01*
X139750659Y-122037039D01*
X139597039Y-122190659D01*
X139513900Y-122391374D01*
X136259097Y-122391374D01*
X136168626Y-122353900D01*
X136006100Y-122353900D01*
X136006100Y-122341374D01*
X135922961Y-122140659D01*
X135769341Y-121987039D01*
X135568626Y-121903900D01*
X135351374Y-121903900D01*
X135150659Y-121987039D01*
X134997039Y-122140659D01*
X134913900Y-122341374D01*
X130006100Y-122341374D01*
X129922961Y-122140659D01*
X129769341Y-121987039D01*
X129568626Y-121903900D01*
X129351374Y-121903900D01*
X129150659Y-121987039D01*
X128997039Y-122140659D01*
X128913900Y-122341374D01*
X128106555Y-122341374D01*
X128190372Y-121920000D01*
X128099760Y-121464464D01*
X127841720Y-121078280D01*
X127455536Y-120820240D01*
X127114985Y-120752500D01*
X126885015Y-120752500D01*
X126544464Y-120820240D01*
X126174500Y-121067442D01*
X126174500Y-120232558D01*
X126544464Y-120479760D01*
X126885015Y-120547500D01*
X127114985Y-120547500D01*
X127455536Y-120479760D01*
X127841720Y-120221720D01*
X128099760Y-119835536D01*
X128190372Y-119380000D01*
X128099760Y-118924464D01*
X127841720Y-118538280D01*
X127455536Y-118280240D01*
X127114985Y-118212500D01*
X126885015Y-118212500D01*
X126544464Y-118280240D01*
X126174500Y-118527442D01*
X126174500Y-118013720D01*
X127850000Y-118013720D01*
X127973882Y-117989078D01*
X128078905Y-117918905D01*
X128149078Y-117813882D01*
X128173720Y-117690000D01*
X128173720Y-116341374D01*
X128913900Y-116341374D01*
X128913900Y-116558626D01*
X128997039Y-116759341D01*
X129150659Y-116912961D01*
X129351374Y-116996100D01*
X129568626Y-116996100D01*
X129769341Y-116912961D01*
X129890928Y-116791374D01*
X135913900Y-116791374D01*
X135913900Y-117008626D01*
X135997039Y-117209341D01*
X136150659Y-117362961D01*
X136351374Y-117446100D01*
X136568626Y-117446100D01*
X136769341Y-117362961D01*
X136922961Y-117209341D01*
X137006100Y-117008626D01*
X137006100Y-116791374D01*
X136922961Y-116590659D01*
X136769341Y-116437039D01*
X136568626Y-116353900D01*
X136351374Y-116353900D01*
X136150659Y-116437039D01*
X135997039Y-116590659D01*
X135913900Y-116791374D01*
X129890928Y-116791374D01*
X129922961Y-116759341D01*
X130006100Y-116558626D01*
X130006100Y-116341374D01*
X129922961Y-116140659D01*
X129873676Y-116091374D01*
X141163900Y-116091374D01*
X141163900Y-116308626D01*
X141247039Y-116509341D01*
X141400659Y-116662961D01*
X141601374Y-116746100D01*
X141818626Y-116746100D01*
X142019341Y-116662961D01*
X142172961Y-116509341D01*
X142242535Y-116341374D01*
X146913900Y-116341374D01*
X146913900Y-116558626D01*
X146997039Y-116759341D01*
X147150659Y-116912961D01*
X147351374Y-116996100D01*
X147568626Y-116996100D01*
X147769341Y-116912961D01*
X147922961Y-116759341D01*
X148006100Y-116558626D01*
X148006100Y-116341374D01*
X147922961Y-116140659D01*
X147769341Y-115987039D01*
X147568626Y-115903900D01*
X147351374Y-115903900D01*
X147150659Y-115987039D01*
X146997039Y-116140659D01*
X146913900Y-116341374D01*
X142242535Y-116341374D01*
X142256100Y-116308626D01*
X142256100Y-116091374D01*
X142172961Y-115890659D01*
X142019341Y-115737039D01*
X141818626Y-115653900D01*
X141601374Y-115653900D01*
X141400659Y-115737039D01*
X141247039Y-115890659D01*
X141163900Y-116091374D01*
X129873676Y-116091374D01*
X129769341Y-115987039D01*
X129568626Y-115903900D01*
X129351374Y-115903900D01*
X129150659Y-115987039D01*
X128997039Y-116140659D01*
X128913900Y-116341374D01*
X128173720Y-116341374D01*
X128173720Y-115990000D01*
X128149078Y-115866118D01*
X128078905Y-115761095D01*
X127973882Y-115690922D01*
X127850000Y-115666280D01*
X126174500Y-115666280D01*
X126174500Y-114672836D01*
X126351374Y-114746100D01*
X126568626Y-114746100D01*
X126769341Y-114662961D01*
X126922961Y-114509341D01*
X127006100Y-114308626D01*
X127006100Y-114091374D01*
X127413900Y-114091374D01*
X127413900Y-114308626D01*
X127497039Y-114509341D01*
X127650659Y-114662961D01*
X127851374Y-114746100D01*
X128068626Y-114746100D01*
X128269341Y-114662961D01*
X128422961Y-114509341D01*
X128506100Y-114308626D01*
X128506100Y-114091374D01*
X128913900Y-114091374D01*
X128913900Y-114308626D01*
X128997039Y-114509341D01*
X129150659Y-114662961D01*
X129351374Y-114746100D01*
X129568626Y-114746100D01*
X129769341Y-114662961D01*
X129922961Y-114509341D01*
X130006100Y-114308626D01*
X130006100Y-114091374D01*
X130413900Y-114091374D01*
X130413900Y-114308626D01*
X130497039Y-114509341D01*
X130650659Y-114662961D01*
X130851374Y-114746100D01*
X131068626Y-114746100D01*
X131269341Y-114662961D01*
X131422961Y-114509341D01*
X131506100Y-114308626D01*
X131506100Y-114091374D01*
X131913900Y-114091374D01*
X131913900Y-114308626D01*
X131997039Y-114509341D01*
X132150659Y-114662961D01*
X132351374Y-114746100D01*
X132568626Y-114746100D01*
X132769341Y-114662961D01*
X132922961Y-114509341D01*
X133006100Y-114308626D01*
X133006100Y-114191374D01*
X133913900Y-114191374D01*
X133913900Y-114408626D01*
X133997039Y-114609341D01*
X134150659Y-114762961D01*
X134351374Y-114846100D01*
X134568626Y-114846100D01*
X134769341Y-114762961D01*
X134922961Y-114609341D01*
X135006100Y-114408626D01*
X135006100Y-114191374D01*
X134922961Y-113990659D01*
X134769341Y-113837039D01*
X134568626Y-113753900D01*
X134351374Y-113753900D01*
X134150659Y-113837039D01*
X133997039Y-113990659D01*
X133913900Y-114191374D01*
X133006100Y-114191374D01*
X133006100Y-114091374D01*
X132922961Y-113890659D01*
X132769341Y-113737039D01*
X132568626Y-113653900D01*
X132351374Y-113653900D01*
X132150659Y-113737039D01*
X131997039Y-113890659D01*
X131913900Y-114091374D01*
X131506100Y-114091374D01*
X131422961Y-113890659D01*
X131269341Y-113737039D01*
X131068626Y-113653900D01*
X130851374Y-113653900D01*
X130650659Y-113737039D01*
X130497039Y-113890659D01*
X130413900Y-114091374D01*
X130006100Y-114091374D01*
X129922961Y-113890659D01*
X129769341Y-113737039D01*
X129568626Y-113653900D01*
X129351374Y-113653900D01*
X129150659Y-113737039D01*
X128997039Y-113890659D01*
X128913900Y-114091374D01*
X128506100Y-114091374D01*
X128422961Y-113890659D01*
X128269341Y-113737039D01*
X128068626Y-113653900D01*
X127851374Y-113653900D01*
X127650659Y-113737039D01*
X127497039Y-113890659D01*
X127413900Y-114091374D01*
X127006100Y-114091374D01*
X126922961Y-113890659D01*
X126769341Y-113737039D01*
X126568626Y-113653900D01*
X126351374Y-113653900D01*
X126174500Y-113727164D01*
X126174500Y-113172836D01*
X126351374Y-113246100D01*
X126568626Y-113246100D01*
X126769341Y-113162961D01*
X126922961Y-113009341D01*
X127006100Y-112808626D01*
X127006100Y-112591374D01*
X130413900Y-112591374D01*
X130413900Y-112808626D01*
X130497039Y-113009341D01*
X130650659Y-113162961D01*
X130851374Y-113246100D01*
X131068626Y-113246100D01*
X131269341Y-113162961D01*
X131422961Y-113009341D01*
X131506100Y-112808626D01*
X131506100Y-112591374D01*
X131913900Y-112591374D01*
X131913900Y-112808626D01*
X131997039Y-113009341D01*
X132150659Y-113162961D01*
X132351374Y-113246100D01*
X132568626Y-113246100D01*
X132769341Y-113162961D01*
X132922961Y-113009341D01*
X133006100Y-112808626D01*
X133006100Y-112591374D01*
X132922961Y-112390659D01*
X132769341Y-112237039D01*
X132568626Y-112153900D01*
X132351374Y-112153900D01*
X132150659Y-112237039D01*
X131997039Y-112390659D01*
X131913900Y-112591374D01*
X131506100Y-112591374D01*
X131422961Y-112390659D01*
X131269341Y-112237039D01*
X131068626Y-112153900D01*
X130851374Y-112153900D01*
X130650659Y-112237039D01*
X130497039Y-112390659D01*
X130413900Y-112591374D01*
X127006100Y-112591374D01*
X126922961Y-112390659D01*
X126769341Y-112237039D01*
X126568626Y-112153900D01*
X126351374Y-112153900D01*
X126174500Y-112227164D01*
X126174500Y-111672836D01*
X126351374Y-111746100D01*
X126568626Y-111746100D01*
X126769341Y-111662961D01*
X126922961Y-111509341D01*
X127006100Y-111308626D01*
X127006100Y-111091374D01*
X130413900Y-111091374D01*
X130413900Y-111308626D01*
X130497039Y-111509341D01*
X130650659Y-111662961D01*
X130851374Y-111746100D01*
X131068626Y-111746100D01*
X131269341Y-111662961D01*
X131422961Y-111509341D01*
X131506100Y-111308626D01*
X131506100Y-111091374D01*
X131422961Y-110890659D01*
X131373676Y-110841374D01*
X135413900Y-110841374D01*
X135413900Y-111058626D01*
X135497039Y-111259341D01*
X135650659Y-111412961D01*
X135740079Y-111450000D01*
X135650659Y-111487039D01*
X135497039Y-111640659D01*
X135413900Y-111841374D01*
X135413900Y-112058626D01*
X135497039Y-112259341D01*
X135650659Y-112412961D01*
X135740079Y-112450000D01*
X135650659Y-112487039D01*
X135497039Y-112640659D01*
X135413900Y-112841374D01*
X135413900Y-113058626D01*
X135497039Y-113259341D01*
X135650659Y-113412961D01*
X135851374Y-113496100D01*
X136068626Y-113496100D01*
X136269341Y-113412961D01*
X136422961Y-113259341D01*
X136506100Y-113058626D01*
X136506100Y-112841374D01*
X136422961Y-112640659D01*
X136269341Y-112487039D01*
X136179921Y-112450000D01*
X136269341Y-112412961D01*
X136422961Y-112259341D01*
X136506100Y-112058626D01*
X136506100Y-111841374D01*
X136422961Y-111640659D01*
X136269341Y-111487039D01*
X136179921Y-111450000D01*
X136269341Y-111412961D01*
X136422961Y-111259341D01*
X136506100Y-111058626D01*
X136506100Y-110841374D01*
X136913900Y-110841374D01*
X136913900Y-111058626D01*
X136997039Y-111259341D01*
X137150659Y-111412961D01*
X137240079Y-111450000D01*
X137150659Y-111487039D01*
X136997039Y-111640659D01*
X136913900Y-111841374D01*
X136913900Y-112058626D01*
X136997039Y-112259341D01*
X137150659Y-112412961D01*
X137240079Y-112450000D01*
X137150659Y-112487039D01*
X136997039Y-112640659D01*
X136913900Y-112841374D01*
X136913900Y-113058626D01*
X136997039Y-113259341D01*
X137150659Y-113412961D01*
X137240079Y-113450000D01*
X137150659Y-113487039D01*
X136997039Y-113640659D01*
X136913900Y-113841374D01*
X136913900Y-114058626D01*
X136997039Y-114259341D01*
X137150659Y-114412961D01*
X137351374Y-114496100D01*
X137568626Y-114496100D01*
X137769341Y-114412961D01*
X137922961Y-114259341D01*
X137960000Y-114169921D01*
X137997039Y-114259341D01*
X138150659Y-114412961D01*
X138351374Y-114496100D01*
X138568626Y-114496100D01*
X138769341Y-114412961D01*
X138922961Y-114259341D01*
X138951113Y-114191374D01*
X139663900Y-114191374D01*
X139663900Y-114408626D01*
X139747039Y-114609341D01*
X139900659Y-114762961D01*
X140101374Y-114846100D01*
X140318626Y-114846100D01*
X140330035Y-114841374D01*
X141163900Y-114841374D01*
X141163900Y-115058626D01*
X141247039Y-115259341D01*
X141400659Y-115412961D01*
X141601374Y-115496100D01*
X141818626Y-115496100D01*
X142019341Y-115412961D01*
X142172961Y-115259341D01*
X142256100Y-115058626D01*
X142256100Y-114841374D01*
X142172961Y-114640659D01*
X142019341Y-114487039D01*
X141818626Y-114403900D01*
X141601374Y-114403900D01*
X141400659Y-114487039D01*
X141247039Y-114640659D01*
X141163900Y-114841374D01*
X140330035Y-114841374D01*
X140519341Y-114762961D01*
X140672961Y-114609341D01*
X140756100Y-114408626D01*
X140756100Y-114268402D01*
X140900659Y-114412961D01*
X141101374Y-114496100D01*
X141318626Y-114496100D01*
X141519341Y-114412961D01*
X141672961Y-114259341D01*
X141742535Y-114091374D01*
X142413900Y-114091374D01*
X142413900Y-114308626D01*
X142497039Y-114509341D01*
X142650659Y-114662961D01*
X142851374Y-114746100D01*
X143068626Y-114746100D01*
X143269341Y-114662961D01*
X143422961Y-114509341D01*
X143506100Y-114308626D01*
X143506100Y-114091374D01*
X143913900Y-114091374D01*
X143913900Y-114308626D01*
X143997039Y-114509341D01*
X144150659Y-114662961D01*
X144351374Y-114746100D01*
X144568626Y-114746100D01*
X144769341Y-114662961D01*
X144922961Y-114509341D01*
X145006100Y-114308626D01*
X145006100Y-114091374D01*
X145413900Y-114091374D01*
X145413900Y-114308626D01*
X145497039Y-114509341D01*
X145650659Y-114662961D01*
X145851374Y-114746100D01*
X146068626Y-114746100D01*
X146269341Y-114662961D01*
X146422961Y-114509341D01*
X146506100Y-114308626D01*
X146506100Y-114091374D01*
X146913900Y-114091374D01*
X146913900Y-114308626D01*
X146997039Y-114509341D01*
X147150659Y-114662961D01*
X147351374Y-114746100D01*
X147568626Y-114746100D01*
X147769341Y-114662961D01*
X147922961Y-114509341D01*
X148006100Y-114308626D01*
X148006100Y-114091374D01*
X148413900Y-114091374D01*
X148413900Y-114308626D01*
X148497039Y-114509341D01*
X148650659Y-114662961D01*
X148851374Y-114746100D01*
X149068626Y-114746100D01*
X149269341Y-114662961D01*
X149422961Y-114509341D01*
X149506100Y-114308626D01*
X149506100Y-114091374D01*
X149422961Y-113890659D01*
X149269341Y-113737039D01*
X149068626Y-113653900D01*
X148851374Y-113653900D01*
X148650659Y-113737039D01*
X148497039Y-113890659D01*
X148413900Y-114091374D01*
X148006100Y-114091374D01*
X147922961Y-113890659D01*
X147769341Y-113737039D01*
X147568626Y-113653900D01*
X147351374Y-113653900D01*
X147150659Y-113737039D01*
X146997039Y-113890659D01*
X146913900Y-114091374D01*
X146506100Y-114091374D01*
X146422961Y-113890659D01*
X146269341Y-113737039D01*
X146068626Y-113653900D01*
X145851374Y-113653900D01*
X145650659Y-113737039D01*
X145497039Y-113890659D01*
X145413900Y-114091374D01*
X145006100Y-114091374D01*
X144922961Y-113890659D01*
X144769341Y-113737039D01*
X144568626Y-113653900D01*
X144351374Y-113653900D01*
X144150659Y-113737039D01*
X143997039Y-113890659D01*
X143913900Y-114091374D01*
X143506100Y-114091374D01*
X143422961Y-113890659D01*
X143269341Y-113737039D01*
X143068626Y-113653900D01*
X142851374Y-113653900D01*
X142650659Y-113737039D01*
X142497039Y-113890659D01*
X142413900Y-114091374D01*
X141742535Y-114091374D01*
X141756100Y-114058626D01*
X141756100Y-113841374D01*
X141672961Y-113640659D01*
X141519341Y-113487039D01*
X141318626Y-113403900D01*
X141101374Y-113403900D01*
X140900659Y-113487039D01*
X140747039Y-113640659D01*
X140663900Y-113841374D01*
X140663900Y-113981598D01*
X140519341Y-113837039D01*
X140318626Y-113753900D01*
X140101374Y-113753900D01*
X139900659Y-113837039D01*
X139747039Y-113990659D01*
X139663900Y-114191374D01*
X138951113Y-114191374D01*
X139006100Y-114058626D01*
X139006100Y-113841374D01*
X138922961Y-113640659D01*
X138769341Y-113487039D01*
X138679921Y-113450000D01*
X138769341Y-113412961D01*
X138922961Y-113259341D01*
X139006100Y-113058626D01*
X139006100Y-112841374D01*
X138922961Y-112640659D01*
X138769341Y-112487039D01*
X138679921Y-112450000D01*
X138769341Y-112412961D01*
X138922961Y-112259341D01*
X139006100Y-112058626D01*
X139006100Y-111841374D01*
X138922961Y-111640659D01*
X138769341Y-111487039D01*
X138568626Y-111403900D01*
X138351374Y-111403900D01*
X138150659Y-111487039D01*
X137997039Y-111640659D01*
X137960000Y-111730079D01*
X137922961Y-111640659D01*
X137769341Y-111487039D01*
X137679921Y-111450000D01*
X137769341Y-111412961D01*
X137922961Y-111259341D01*
X138006100Y-111058626D01*
X138006100Y-110841374D01*
X137922961Y-110640659D01*
X137769341Y-110487039D01*
X137568626Y-110403900D01*
X137351374Y-110403900D01*
X137150659Y-110487039D01*
X136997039Y-110640659D01*
X136913900Y-110841374D01*
X136506100Y-110841374D01*
X136422961Y-110640659D01*
X136269341Y-110487039D01*
X136068626Y-110403900D01*
X135851374Y-110403900D01*
X135650659Y-110487039D01*
X135497039Y-110640659D01*
X135413900Y-110841374D01*
X131373676Y-110841374D01*
X131269341Y-110737039D01*
X131068626Y-110653900D01*
X130851374Y-110653900D01*
X130650659Y-110737039D01*
X130497039Y-110890659D01*
X130413900Y-111091374D01*
X127006100Y-111091374D01*
X126922961Y-110890659D01*
X126769341Y-110737039D01*
X126568626Y-110653900D01*
X126351374Y-110653900D01*
X126174500Y-110727164D01*
X126174500Y-110172836D01*
X126351374Y-110246100D01*
X126568626Y-110246100D01*
X126769341Y-110162961D01*
X126922961Y-110009341D01*
X127006100Y-109808626D01*
X127006100Y-109591374D01*
X130413900Y-109591374D01*
X130413900Y-109808626D01*
X130497039Y-110009341D01*
X130650659Y-110162961D01*
X130851374Y-110246100D01*
X131068626Y-110246100D01*
X131269341Y-110162961D01*
X131422961Y-110009341D01*
X131506100Y-109808626D01*
X131506100Y-109591374D01*
X131913900Y-109591374D01*
X131913900Y-109808626D01*
X131997039Y-110009341D01*
X132150659Y-110162961D01*
X132351374Y-110246100D01*
X132568626Y-110246100D01*
X132769341Y-110162961D01*
X132922961Y-110009341D01*
X133006100Y-109808626D01*
X133006100Y-109591374D01*
X132922961Y-109390659D01*
X132769341Y-109237039D01*
X132568626Y-109153900D01*
X132351374Y-109153900D01*
X132150659Y-109237039D01*
X131997039Y-109390659D01*
X131913900Y-109591374D01*
X131506100Y-109591374D01*
X131422961Y-109390659D01*
X131269341Y-109237039D01*
X131068626Y-109153900D01*
X130851374Y-109153900D01*
X130650659Y-109237039D01*
X130497039Y-109390659D01*
X130413900Y-109591374D01*
X127006100Y-109591374D01*
X126922961Y-109390659D01*
X126769341Y-109237039D01*
X126568626Y-109153900D01*
X126351374Y-109153900D01*
X126174500Y-109227164D01*
X126174500Y-108991374D01*
X135313900Y-108991374D01*
X135313900Y-109208626D01*
X135397039Y-109409341D01*
X135550659Y-109562961D01*
X135751374Y-109646100D01*
X135968626Y-109646100D01*
X136169341Y-109562961D01*
X136322961Y-109409341D01*
X136406100Y-109208626D01*
X136406100Y-108991374D01*
X136343968Y-108841374D01*
X136413900Y-108841374D01*
X136413900Y-109058626D01*
X136497039Y-109259341D01*
X136650659Y-109412961D01*
X136851374Y-109496100D01*
X136991554Y-109496100D01*
X136997039Y-109509341D01*
X137150659Y-109662961D01*
X137351374Y-109746100D01*
X137568626Y-109746100D01*
X137769341Y-109662961D01*
X137922961Y-109509341D01*
X138006100Y-109308626D01*
X138006100Y-109091374D01*
X137922961Y-108890659D01*
X137769341Y-108737039D01*
X137568626Y-108653900D01*
X137428446Y-108653900D01*
X137422961Y-108640659D01*
X137269341Y-108487039D01*
X137068626Y-108403900D01*
X136851374Y-108403900D01*
X136650659Y-108487039D01*
X136497039Y-108640659D01*
X136413900Y-108841374D01*
X136343968Y-108841374D01*
X136322961Y-108790659D01*
X136169341Y-108637039D01*
X135968626Y-108553900D01*
X135751374Y-108553900D01*
X135550659Y-108637039D01*
X135397039Y-108790659D01*
X135313900Y-108991374D01*
X126174500Y-108991374D01*
X126174500Y-108672836D01*
X126351374Y-108746100D01*
X126568626Y-108746100D01*
X126769341Y-108662961D01*
X126922961Y-108509341D01*
X127006100Y-108308626D01*
X127006100Y-108091374D01*
X129913900Y-108091374D01*
X129913900Y-108308626D01*
X129997039Y-108509341D01*
X130150659Y-108662961D01*
X130351374Y-108746100D01*
X130568626Y-108746100D01*
X130769341Y-108662961D01*
X130922961Y-108509341D01*
X131006100Y-108308626D01*
X131006100Y-108091374D01*
X134413900Y-108091374D01*
X134413900Y-108308626D01*
X134497039Y-108509341D01*
X134650659Y-108662961D01*
X134851374Y-108746100D01*
X135068626Y-108746100D01*
X135269341Y-108662961D01*
X135422961Y-108509341D01*
X135506100Y-108308626D01*
X135506100Y-108091374D01*
X135422961Y-107890659D01*
X135269341Y-107737039D01*
X135068626Y-107653900D01*
X134851374Y-107653900D01*
X134650659Y-107737039D01*
X134497039Y-107890659D01*
X134413900Y-108091374D01*
X131006100Y-108091374D01*
X130922961Y-107890659D01*
X130769341Y-107737039D01*
X130568626Y-107653900D01*
X130351374Y-107653900D01*
X130150659Y-107737039D01*
X129997039Y-107890659D01*
X129913900Y-108091374D01*
X127006100Y-108091374D01*
X126922961Y-107890659D01*
X126769341Y-107737039D01*
X126568626Y-107653900D01*
X126351374Y-107653900D01*
X126174500Y-107727164D01*
X126174500Y-107172836D01*
X126351374Y-107246100D01*
X126568626Y-107246100D01*
X126769341Y-107162961D01*
X126922961Y-107009341D01*
X127006100Y-106808626D01*
X127006100Y-106591374D01*
X129913900Y-106591374D01*
X129913900Y-106808626D01*
X129997039Y-107009341D01*
X130150659Y-107162961D01*
X130351374Y-107246100D01*
X130568626Y-107246100D01*
X130769341Y-107162961D01*
X130922961Y-107009341D01*
X131006100Y-106808626D01*
X131006100Y-106591374D01*
X130922961Y-106390659D01*
X130769341Y-106237039D01*
X130568626Y-106153900D01*
X130351374Y-106153900D01*
X130150659Y-106237039D01*
X129997039Y-106390659D01*
X129913900Y-106591374D01*
X127006100Y-106591374D01*
X126922961Y-106390659D01*
X126769341Y-106237039D01*
X126568626Y-106153900D01*
X126351374Y-106153900D01*
X126174500Y-106227164D01*
X126174500Y-105841374D01*
X131413900Y-105841374D01*
X131413900Y-106058626D01*
X131497039Y-106259341D01*
X131650659Y-106412961D01*
X131851374Y-106496100D01*
X132068626Y-106496100D01*
X132269341Y-106412961D01*
X132422961Y-106259341D01*
X132506100Y-106058626D01*
X132506100Y-105841374D01*
X132663900Y-105841374D01*
X132663900Y-106058626D01*
X132747039Y-106259341D01*
X132900659Y-106412961D01*
X133101374Y-106496100D01*
X133318626Y-106496100D01*
X133519341Y-106412961D01*
X133672961Y-106259341D01*
X133756100Y-106058626D01*
X133756100Y-105841374D01*
X133672961Y-105640659D01*
X133519341Y-105487039D01*
X133318626Y-105403900D01*
X133101374Y-105403900D01*
X132900659Y-105487039D01*
X132747039Y-105640659D01*
X132663900Y-105841374D01*
X132506100Y-105841374D01*
X132422961Y-105640659D01*
X132269341Y-105487039D01*
X132068626Y-105403900D01*
X131851374Y-105403900D01*
X131650659Y-105487039D01*
X131497039Y-105640659D01*
X131413900Y-105841374D01*
X126174500Y-105841374D01*
X126174500Y-105672836D01*
X126351374Y-105746100D01*
X126568626Y-105746100D01*
X126769341Y-105662961D01*
X126922961Y-105509341D01*
X127006100Y-105308626D01*
X127006100Y-105091374D01*
X130413900Y-105091374D01*
X130413900Y-105308626D01*
X130497039Y-105509341D01*
X130650659Y-105662961D01*
X130851374Y-105746100D01*
X131068626Y-105746100D01*
X131269341Y-105662961D01*
X131422961Y-105509341D01*
X131506100Y-105308626D01*
X131506100Y-105091374D01*
X131422961Y-104890659D01*
X131269341Y-104737039D01*
X131068626Y-104653900D01*
X130851374Y-104653900D01*
X130650659Y-104737039D01*
X130497039Y-104890659D01*
X130413900Y-105091374D01*
X127006100Y-105091374D01*
X126922961Y-104890659D01*
X126769341Y-104737039D01*
X126568626Y-104653900D01*
X126351374Y-104653900D01*
X126174500Y-104727164D01*
X126174500Y-104172836D01*
X126351374Y-104246100D01*
X126568626Y-104246100D01*
X126769341Y-104162961D01*
X126922961Y-104009341D01*
X127006100Y-103808626D01*
X127006100Y-103591374D01*
X130413900Y-103591374D01*
X130413900Y-103808626D01*
X130497039Y-104009341D01*
X130650659Y-104162961D01*
X130851374Y-104246100D01*
X131068626Y-104246100D01*
X131269341Y-104162961D01*
X131422961Y-104009341D01*
X131492535Y-103841374D01*
X135413900Y-103841374D01*
X135413900Y-104058626D01*
X135497039Y-104259341D01*
X135650659Y-104412961D01*
X135740079Y-104450000D01*
X135650659Y-104487039D01*
X135497039Y-104640659D01*
X135413900Y-104841374D01*
X135413900Y-105058626D01*
X135497039Y-105259341D01*
X135650659Y-105412961D01*
X135740079Y-105450000D01*
X135650659Y-105487039D01*
X135497039Y-105640659D01*
X135413900Y-105841374D01*
X135413900Y-106058626D01*
X135497039Y-106259341D01*
X135650659Y-106412961D01*
X135740079Y-106450000D01*
X135650659Y-106487039D01*
X135497039Y-106640659D01*
X135413900Y-106841374D01*
X135413900Y-107058626D01*
X135497039Y-107259341D01*
X135650659Y-107412961D01*
X135851374Y-107496100D01*
X136068626Y-107496100D01*
X136269341Y-107412961D01*
X136422961Y-107259341D01*
X136506100Y-107058626D01*
X136506100Y-106841374D01*
X136422961Y-106640659D01*
X136269341Y-106487039D01*
X136179921Y-106450000D01*
X136269341Y-106412961D01*
X136422961Y-106259341D01*
X136506100Y-106058626D01*
X136506100Y-105841374D01*
X136422961Y-105640659D01*
X136269341Y-105487039D01*
X136179921Y-105450000D01*
X136269341Y-105412961D01*
X136422961Y-105259341D01*
X136506100Y-105058626D01*
X136506100Y-104841374D01*
X136422961Y-104640659D01*
X136269341Y-104487039D01*
X136179921Y-104450000D01*
X136269341Y-104412961D01*
X136422961Y-104259341D01*
X136506100Y-104058626D01*
X136506100Y-103841374D01*
X136913900Y-103841374D01*
X136913900Y-104058626D01*
X136997039Y-104259341D01*
X137150659Y-104412961D01*
X137240079Y-104450000D01*
X137150659Y-104487039D01*
X136997039Y-104640659D01*
X136913900Y-104841374D01*
X136913900Y-105058626D01*
X136997039Y-105259341D01*
X137150659Y-105412961D01*
X137240079Y-105450000D01*
X137150659Y-105487039D01*
X136997039Y-105640659D01*
X136913900Y-105841374D01*
X136913900Y-106058626D01*
X136997039Y-106259341D01*
X137150659Y-106412961D01*
X137240079Y-106450000D01*
X137150659Y-106487039D01*
X136997039Y-106640659D01*
X136913900Y-106841374D01*
X136913900Y-107058626D01*
X136997039Y-107259341D01*
X137150659Y-107412961D01*
X137351374Y-107496100D01*
X137391598Y-107496100D01*
X137247039Y-107640659D01*
X137163900Y-107841374D01*
X137163900Y-108058626D01*
X137247039Y-108259341D01*
X137400659Y-108412961D01*
X137601374Y-108496100D01*
X137818626Y-108496100D01*
X138019341Y-108412961D01*
X138172961Y-108259341D01*
X138256100Y-108058626D01*
X138256100Y-107841374D01*
X138172961Y-107640659D01*
X138019341Y-107487039D01*
X137818626Y-107403900D01*
X137778402Y-107403900D01*
X137922961Y-107259341D01*
X138006100Y-107058626D01*
X138006100Y-106841374D01*
X137922961Y-106640659D01*
X137769341Y-106487039D01*
X137679921Y-106450000D01*
X137769341Y-106412961D01*
X137922961Y-106259341D01*
X138006100Y-106058626D01*
X138006100Y-105841374D01*
X137922961Y-105640659D01*
X137769341Y-105487039D01*
X137679921Y-105450000D01*
X137769341Y-105412961D01*
X137922961Y-105259341D01*
X138006100Y-105058626D01*
X138006100Y-104841374D01*
X138913900Y-104841374D01*
X138913900Y-105058626D01*
X138997039Y-105259341D01*
X139150659Y-105412961D01*
X139240079Y-105450000D01*
X139150659Y-105487039D01*
X138997039Y-105640659D01*
X138913900Y-105841374D01*
X138913900Y-106058626D01*
X138997039Y-106259341D01*
X139150659Y-106412961D01*
X139240079Y-106450000D01*
X139150659Y-106487039D01*
X138997039Y-106640659D01*
X138913900Y-106841374D01*
X138913900Y-107058626D01*
X138997039Y-107259341D01*
X139150659Y-107412961D01*
X139240079Y-107450000D01*
X139150659Y-107487039D01*
X138997039Y-107640659D01*
X138913900Y-107841374D01*
X138913900Y-108058626D01*
X138997039Y-108259341D01*
X139150659Y-108412961D01*
X139240079Y-108450000D01*
X139150659Y-108487039D01*
X138997039Y-108640659D01*
X138913900Y-108841374D01*
X138913900Y-109058626D01*
X138997039Y-109259341D01*
X139150659Y-109412961D01*
X139240079Y-109450000D01*
X139150659Y-109487039D01*
X138997039Y-109640659D01*
X138913900Y-109841374D01*
X138913900Y-110058626D01*
X138997039Y-110259341D01*
X139150659Y-110412961D01*
X139351374Y-110496100D01*
X139568626Y-110496100D01*
X139769341Y-110412961D01*
X139922961Y-110259341D01*
X139960000Y-110169921D01*
X139997039Y-110259341D01*
X140150659Y-110412961D01*
X140240079Y-110450000D01*
X140150659Y-110487039D01*
X139997039Y-110640659D01*
X139913900Y-110841374D01*
X139913900Y-111058626D01*
X139997039Y-111259341D01*
X140150659Y-111412961D01*
X140240079Y-111450000D01*
X140150659Y-111487039D01*
X139997039Y-111640659D01*
X139913900Y-111841374D01*
X139913900Y-112058626D01*
X139953364Y-112153900D01*
X139851374Y-112153900D01*
X139650659Y-112237039D01*
X139497039Y-112390659D01*
X139413900Y-112591374D01*
X139413900Y-112808626D01*
X139497039Y-113009341D01*
X139650659Y-113162961D01*
X139851374Y-113246100D01*
X140068626Y-113246100D01*
X140269341Y-113162961D01*
X140422961Y-113009341D01*
X140506100Y-112808626D01*
X140506100Y-112591374D01*
X140466636Y-112496100D01*
X140568626Y-112496100D01*
X140769341Y-112412961D01*
X140922961Y-112259341D01*
X141006100Y-112058626D01*
X141006100Y-111841374D01*
X140922961Y-111640659D01*
X140769341Y-111487039D01*
X140679921Y-111450000D01*
X140769341Y-111412961D01*
X140922961Y-111259341D01*
X141006100Y-111058626D01*
X141006100Y-110841374D01*
X140922961Y-110640659D01*
X140769341Y-110487039D01*
X140679921Y-110450000D01*
X140769341Y-110412961D01*
X140922961Y-110259341D01*
X141006100Y-110058626D01*
X141006100Y-109841374D01*
X140922961Y-109640659D01*
X140769341Y-109487039D01*
X140679921Y-109450000D01*
X140769341Y-109412961D01*
X140922961Y-109259341D01*
X141006100Y-109058626D01*
X141006100Y-108841374D01*
X140922961Y-108640659D01*
X140769341Y-108487039D01*
X140679921Y-108450000D01*
X140769341Y-108412961D01*
X140922961Y-108259341D01*
X141006100Y-108058626D01*
X141006100Y-107841374D01*
X140922961Y-107640659D01*
X140769341Y-107487039D01*
X140679921Y-107450000D01*
X140769341Y-107412961D01*
X140922961Y-107259341D01*
X141006100Y-107058626D01*
X141006100Y-106841374D01*
X140922961Y-106640659D01*
X140769341Y-106487039D01*
X140679921Y-106450000D01*
X140769341Y-106412961D01*
X140922961Y-106259341D01*
X141006100Y-106058626D01*
X141006100Y-105841374D01*
X140922961Y-105640659D01*
X140769341Y-105487039D01*
X140568626Y-105403900D01*
X140351374Y-105403900D01*
X140150659Y-105487039D01*
X139997039Y-105640659D01*
X139960000Y-105730079D01*
X139922961Y-105640659D01*
X139769341Y-105487039D01*
X139679921Y-105450000D01*
X139769341Y-105412961D01*
X139922961Y-105259341D01*
X140006100Y-105058626D01*
X140006100Y-104841374D01*
X139922961Y-104640659D01*
X139769341Y-104487039D01*
X139568626Y-104403900D01*
X139351374Y-104403900D01*
X139150659Y-104487039D01*
X138997039Y-104640659D01*
X138913900Y-104841374D01*
X138006100Y-104841374D01*
X137922961Y-104640659D01*
X137769341Y-104487039D01*
X137679921Y-104450000D01*
X137769341Y-104412961D01*
X137922961Y-104259341D01*
X138006100Y-104058626D01*
X138006100Y-103841374D01*
X137922961Y-103640659D01*
X137769341Y-103487039D01*
X137568626Y-103403900D01*
X137351374Y-103403900D01*
X137150659Y-103487039D01*
X136997039Y-103640659D01*
X136913900Y-103841374D01*
X136506100Y-103841374D01*
X136422961Y-103640659D01*
X136269341Y-103487039D01*
X136068626Y-103403900D01*
X135851374Y-103403900D01*
X135650659Y-103487039D01*
X135497039Y-103640659D01*
X135413900Y-103841374D01*
X131492535Y-103841374D01*
X131506100Y-103808626D01*
X131506100Y-103591374D01*
X131422961Y-103390659D01*
X131373676Y-103341374D01*
X139913900Y-103341374D01*
X139913900Y-103558626D01*
X139997039Y-103759341D01*
X140150659Y-103912961D01*
X140351374Y-103996100D01*
X140568626Y-103996100D01*
X140731269Y-103928731D01*
X140663900Y-104091374D01*
X140663900Y-104308626D01*
X140747039Y-104509341D01*
X140900659Y-104662961D01*
X141101374Y-104746100D01*
X141203364Y-104746100D01*
X141163900Y-104841374D01*
X141163900Y-105058626D01*
X141247039Y-105259341D01*
X141400659Y-105412961D01*
X141490079Y-105450000D01*
X141400659Y-105487039D01*
X141247039Y-105640659D01*
X141163900Y-105841374D01*
X141163900Y-106058626D01*
X141247039Y-106259341D01*
X141400659Y-106412961D01*
X141490079Y-106450000D01*
X141400659Y-106487039D01*
X141247039Y-106640659D01*
X141163900Y-106841374D01*
X141163900Y-107058626D01*
X141247039Y-107259341D01*
X141400659Y-107412961D01*
X141490079Y-107450000D01*
X141400659Y-107487039D01*
X141247039Y-107640659D01*
X141163900Y-107841374D01*
X141163900Y-108058626D01*
X141247039Y-108259341D01*
X141400659Y-108412961D01*
X141490079Y-108450000D01*
X141400659Y-108487039D01*
X141247039Y-108640659D01*
X141163900Y-108841374D01*
X141163900Y-109058626D01*
X141247039Y-109259341D01*
X141400659Y-109412961D01*
X141490079Y-109450000D01*
X141400659Y-109487039D01*
X141247039Y-109640659D01*
X141163900Y-109841374D01*
X141163900Y-110058626D01*
X141247039Y-110259341D01*
X141400659Y-110412961D01*
X141490079Y-110450000D01*
X141400659Y-110487039D01*
X141247039Y-110640659D01*
X141163900Y-110841374D01*
X141163900Y-111058626D01*
X141247039Y-111259341D01*
X141400659Y-111412961D01*
X141490079Y-111450000D01*
X141400659Y-111487039D01*
X141247039Y-111640659D01*
X141163900Y-111841374D01*
X141163900Y-112058626D01*
X141247039Y-112259341D01*
X141400659Y-112412961D01*
X141490079Y-112450000D01*
X141400659Y-112487039D01*
X141247039Y-112640659D01*
X141163900Y-112841374D01*
X141163900Y-113058626D01*
X141247039Y-113259341D01*
X141400659Y-113412961D01*
X141601374Y-113496100D01*
X141818626Y-113496100D01*
X142019341Y-113412961D01*
X142172961Y-113259341D01*
X142256100Y-113058626D01*
X142256100Y-112841374D01*
X142172961Y-112640659D01*
X142019341Y-112487039D01*
X141929921Y-112450000D01*
X142019341Y-112412961D01*
X142172961Y-112259341D01*
X142256100Y-112058626D01*
X142256100Y-111841374D01*
X142172961Y-111640659D01*
X142019341Y-111487039D01*
X141929921Y-111450000D01*
X142019341Y-111412961D01*
X142172961Y-111259341D01*
X142256100Y-111058626D01*
X142256100Y-110841374D01*
X142172961Y-110640659D01*
X142019341Y-110487039D01*
X141929921Y-110450000D01*
X142019341Y-110412961D01*
X142172961Y-110259341D01*
X142256100Y-110058626D01*
X142256100Y-109841374D01*
X142172961Y-109640659D01*
X142019341Y-109487039D01*
X141929921Y-109450000D01*
X142019341Y-109412961D01*
X142172961Y-109259341D01*
X142256100Y-109058626D01*
X142256100Y-108841374D01*
X142172961Y-108640659D01*
X142019341Y-108487039D01*
X141929921Y-108450000D01*
X142019341Y-108412961D01*
X142172961Y-108259341D01*
X142256100Y-108058626D01*
X142256100Y-107841374D01*
X142172961Y-107640659D01*
X142019341Y-107487039D01*
X141929921Y-107450000D01*
X142019341Y-107412961D01*
X142172961Y-107259341D01*
X142256100Y-107058626D01*
X142256100Y-106841374D01*
X142172961Y-106640659D01*
X142019341Y-106487039D01*
X141929921Y-106450000D01*
X142019341Y-106412961D01*
X142172961Y-106259341D01*
X142256100Y-106058626D01*
X142256100Y-105841374D01*
X142172961Y-105640659D01*
X142019341Y-105487039D01*
X141929921Y-105450000D01*
X142019341Y-105412961D01*
X142172961Y-105259341D01*
X142256100Y-105058626D01*
X142256100Y-104841374D01*
X142172961Y-104640659D01*
X142019341Y-104487039D01*
X141818626Y-104403900D01*
X141716636Y-104403900D01*
X141756100Y-104308626D01*
X141756100Y-104091374D01*
X141672961Y-103890659D01*
X141519341Y-103737039D01*
X141318626Y-103653900D01*
X141101374Y-103653900D01*
X140938731Y-103721269D01*
X141006100Y-103558626D01*
X141006100Y-103341374D01*
X140922961Y-103140659D01*
X140769341Y-102987039D01*
X140568626Y-102903900D01*
X140351374Y-102903900D01*
X140150659Y-102987039D01*
X139997039Y-103140659D01*
X139913900Y-103341374D01*
X131373676Y-103341374D01*
X131269341Y-103237039D01*
X131068626Y-103153900D01*
X130851374Y-103153900D01*
X130650659Y-103237039D01*
X130497039Y-103390659D01*
X130413900Y-103591374D01*
X127006100Y-103591374D01*
X126922961Y-103390659D01*
X126769341Y-103237039D01*
X126568626Y-103153900D01*
X126351374Y-103153900D01*
X126174500Y-103227164D01*
X126174500Y-102672836D01*
X126351374Y-102746100D01*
X126568626Y-102746100D01*
X126769341Y-102662961D01*
X126922961Y-102509341D01*
X127006100Y-102308626D01*
X127006100Y-102091374D01*
X130413900Y-102091374D01*
X130413900Y-102308626D01*
X130497039Y-102509341D01*
X130650659Y-102662961D01*
X130851374Y-102746100D01*
X131068626Y-102746100D01*
X131269341Y-102662961D01*
X131340928Y-102591374D01*
X131663900Y-102591374D01*
X131663900Y-102808626D01*
X131747039Y-103009341D01*
X131900659Y-103162961D01*
X132101374Y-103246100D01*
X132318626Y-103246100D01*
X132519341Y-103162961D01*
X132672961Y-103009341D01*
X132756100Y-102808626D01*
X132756100Y-102591374D01*
X132672961Y-102390659D01*
X132519341Y-102237039D01*
X132318626Y-102153900D01*
X132101374Y-102153900D01*
X131900659Y-102237039D01*
X131747039Y-102390659D01*
X131663900Y-102591374D01*
X131340928Y-102591374D01*
X131422961Y-102509341D01*
X131506100Y-102308626D01*
X131506100Y-102091374D01*
X131422961Y-101890659D01*
X131269341Y-101737039D01*
X131068626Y-101653900D01*
X130851374Y-101653900D01*
X130650659Y-101737039D01*
X130497039Y-101890659D01*
X130413900Y-102091374D01*
X127006100Y-102091374D01*
X126922961Y-101890659D01*
X126769341Y-101737039D01*
X126568626Y-101653900D01*
X126351374Y-101653900D01*
X126174500Y-101727164D01*
X126174500Y-101172836D01*
X126351374Y-101246100D01*
X126568626Y-101246100D01*
X126769341Y-101162961D01*
X126922961Y-101009341D01*
X127006100Y-100808626D01*
X127006100Y-100591374D01*
X126922961Y-100390659D01*
X126769341Y-100237039D01*
X126568626Y-100153900D01*
X126351374Y-100153900D01*
X126174500Y-100227164D01*
X126174500Y-99672836D01*
X126351374Y-99746100D01*
X126568626Y-99746100D01*
X126769341Y-99662961D01*
X126922961Y-99509341D01*
X127006100Y-99308626D01*
X127006100Y-99091374D01*
X126922961Y-98890659D01*
X126769341Y-98737039D01*
X126568626Y-98653900D01*
X126351374Y-98653900D01*
X126174500Y-98727164D01*
X126174500Y-98172836D01*
X126351374Y-98246100D01*
X126568626Y-98246100D01*
X126769341Y-98162961D01*
X126922961Y-98009341D01*
X127006100Y-97808626D01*
X127006100Y-97591374D01*
X126922961Y-97390659D01*
X126769341Y-97237039D01*
X126568626Y-97153900D01*
X126351374Y-97153900D01*
X126174500Y-97227164D01*
X126174500Y-96672836D01*
X126351374Y-96746100D01*
X126568626Y-96746100D01*
X126769341Y-96662961D01*
X126922961Y-96509341D01*
X127006100Y-96308626D01*
X127006100Y-96091374D01*
X126946919Y-95948500D01*
X127473081Y-95948500D01*
X127413900Y-96091374D01*
X127413900Y-96091374D01*
G37*
X127413900Y-96091374D02*
X127413900Y-96308626D01*
X127497039Y-96509341D01*
X127650659Y-96662961D01*
X127851374Y-96746100D01*
X128068626Y-96746100D01*
X128269341Y-96662961D01*
X128422961Y-96509341D01*
X128506100Y-96308626D01*
X128506100Y-96091374D01*
X128446919Y-95948500D01*
X128973081Y-95948500D01*
X128913900Y-96091374D01*
X128913900Y-96308626D01*
X128997039Y-96509341D01*
X129150659Y-96662961D01*
X129351374Y-96746100D01*
X129568626Y-96746100D01*
X129769341Y-96662961D01*
X129922961Y-96509341D01*
X130006100Y-96308626D01*
X130006100Y-96091374D01*
X129946919Y-95948500D01*
X130473081Y-95948500D01*
X130413900Y-96091374D01*
X130413900Y-96308626D01*
X130497039Y-96509341D01*
X130650659Y-96662961D01*
X130851374Y-96746100D01*
X131068626Y-96746100D01*
X131269341Y-96662961D01*
X131422961Y-96509341D01*
X131460000Y-96419921D01*
X131497039Y-96509341D01*
X131650659Y-96662961D01*
X131740079Y-96700000D01*
X131650659Y-96737039D01*
X131497039Y-96890659D01*
X131413900Y-97091374D01*
X131413900Y-97308626D01*
X131497039Y-97509341D01*
X131650659Y-97662961D01*
X131740079Y-97700000D01*
X131650659Y-97737039D01*
X131497039Y-97890659D01*
X131413900Y-98091374D01*
X131413900Y-98308626D01*
X131497039Y-98509341D01*
X131650659Y-98662961D01*
X131740079Y-98700000D01*
X131650659Y-98737039D01*
X131497039Y-98890659D01*
X131413900Y-99091374D01*
X131413900Y-99308626D01*
X131497039Y-99509341D01*
X131650659Y-99662961D01*
X131740079Y-99700000D01*
X131650659Y-99737039D01*
X131497039Y-99890659D01*
X131413900Y-100091374D01*
X131413900Y-100308626D01*
X131497039Y-100509341D01*
X131650659Y-100662961D01*
X131740079Y-100700000D01*
X131650659Y-100737039D01*
X131497039Y-100890659D01*
X131413900Y-101091374D01*
X131413900Y-101308626D01*
X131497039Y-101509341D01*
X131650659Y-101662961D01*
X131851374Y-101746100D01*
X132068626Y-101746100D01*
X132269341Y-101662961D01*
X132340928Y-101591374D01*
X132413900Y-101591374D01*
X132413900Y-101808626D01*
X132497039Y-102009341D01*
X132650659Y-102162961D01*
X132851374Y-102246100D01*
X133068626Y-102246100D01*
X133269341Y-102162961D01*
X133331611Y-102100691D01*
X133369673Y-102192580D01*
X133595420Y-102418327D01*
X133890373Y-102540500D01*
X134209627Y-102540500D01*
X134504580Y-102418327D01*
X134730327Y-102192580D01*
X134788891Y-102051193D01*
X134900659Y-102162961D01*
X135101374Y-102246100D01*
X135318626Y-102246100D01*
X135519341Y-102162961D01*
X135672961Y-102009341D01*
X135756100Y-101808626D01*
X135756100Y-101591374D01*
X135672961Y-101390659D01*
X135519341Y-101237039D01*
X135318626Y-101153900D01*
X135101374Y-101153900D01*
X134900659Y-101237039D01*
X134766631Y-101371067D01*
X134730327Y-101283420D01*
X134504580Y-101057673D01*
X134209627Y-100935500D01*
X133890373Y-100935500D01*
X133595420Y-101057673D01*
X133369673Y-101283420D01*
X133353871Y-101321569D01*
X133269341Y-101237039D01*
X133068626Y-101153900D01*
X132851374Y-101153900D01*
X132650659Y-101237039D01*
X132497039Y-101390659D01*
X132413900Y-101591374D01*
X132340928Y-101591374D01*
X132422961Y-101509341D01*
X132506100Y-101308626D01*
X132506100Y-101091374D01*
X132422961Y-100890659D01*
X132269341Y-100737039D01*
X132179921Y-100700000D01*
X132269341Y-100662961D01*
X132422961Y-100509341D01*
X132506100Y-100308626D01*
X132506100Y-100091374D01*
X132422961Y-99890659D01*
X132269341Y-99737039D01*
X132179921Y-99700000D01*
X132269341Y-99662961D01*
X132422961Y-99509341D01*
X132506100Y-99308626D01*
X132506100Y-99091374D01*
X132422961Y-98890659D01*
X132269341Y-98737039D01*
X132179921Y-98700000D01*
X132269341Y-98662961D01*
X132422961Y-98509341D01*
X132506100Y-98308626D01*
X132506100Y-98091374D01*
X132422961Y-97890659D01*
X132269341Y-97737039D01*
X132179921Y-97700000D01*
X132269341Y-97662961D01*
X132422961Y-97509341D01*
X132506100Y-97308626D01*
X132506100Y-97091374D01*
X132422961Y-96890659D01*
X132269341Y-96737039D01*
X132179921Y-96700000D01*
X132269341Y-96662961D01*
X132422961Y-96509341D01*
X132506100Y-96308626D01*
X132506100Y-96091374D01*
X132446919Y-95948500D01*
X135723081Y-95948500D01*
X135663900Y-96091374D01*
X135663900Y-96308626D01*
X135747039Y-96509341D01*
X135900659Y-96662961D01*
X135990079Y-96700000D01*
X135900659Y-96737039D01*
X135747039Y-96890659D01*
X135663900Y-97091374D01*
X135663900Y-97308626D01*
X135747039Y-97509341D01*
X135900659Y-97662961D01*
X135990079Y-97700000D01*
X135900659Y-97737039D01*
X135747039Y-97890659D01*
X135663900Y-98091374D01*
X135663900Y-98308626D01*
X135747039Y-98509341D01*
X135900659Y-98662961D01*
X135990079Y-98700000D01*
X135900659Y-98737039D01*
X135747039Y-98890659D01*
X135663900Y-99091374D01*
X135663900Y-99308626D01*
X135747039Y-99509341D01*
X135900659Y-99662961D01*
X135990079Y-99700000D01*
X135900659Y-99737039D01*
X135747039Y-99890659D01*
X135663900Y-100091374D01*
X135663900Y-100308626D01*
X135747039Y-100509341D01*
X135900659Y-100662961D01*
X135990079Y-100700000D01*
X135900659Y-100737039D01*
X135747039Y-100890659D01*
X135663900Y-101091374D01*
X135663900Y-101308626D01*
X135747039Y-101509341D01*
X135900659Y-101662961D01*
X136101374Y-101746100D01*
X136318626Y-101746100D01*
X136481269Y-101678731D01*
X136413900Y-101841374D01*
X136413900Y-102058626D01*
X136497039Y-102259341D01*
X136650659Y-102412961D01*
X136851374Y-102496100D01*
X137068626Y-102496100D01*
X137269341Y-102412961D01*
X137422961Y-102259341D01*
X137506100Y-102058626D01*
X137506100Y-101841374D01*
X137422961Y-101640659D01*
X137373676Y-101591374D01*
X138663900Y-101591374D01*
X138663900Y-101808626D01*
X138747039Y-102009341D01*
X138900659Y-102162961D01*
X138990079Y-102200000D01*
X138900659Y-102237039D01*
X138747039Y-102390659D01*
X138663900Y-102591374D01*
X138663900Y-102808626D01*
X138747039Y-103009341D01*
X138900659Y-103162961D01*
X139101374Y-103246100D01*
X139318626Y-103246100D01*
X139519341Y-103162961D01*
X139672961Y-103009341D01*
X139756100Y-102808626D01*
X139756100Y-102591374D01*
X139672961Y-102390659D01*
X139519341Y-102237039D01*
X139429921Y-102200000D01*
X139519341Y-102162961D01*
X139672961Y-102009341D01*
X139756100Y-101808626D01*
X139756100Y-101591374D01*
X139672961Y-101390659D01*
X139519341Y-101237039D01*
X139318626Y-101153900D01*
X139101374Y-101153900D01*
X138900659Y-101237039D01*
X138747039Y-101390659D01*
X138663900Y-101591374D01*
X137373676Y-101591374D01*
X137269341Y-101487039D01*
X137068626Y-101403900D01*
X136851374Y-101403900D01*
X136688731Y-101471269D01*
X136756100Y-101308626D01*
X136756100Y-101091374D01*
X136672961Y-100890659D01*
X136519341Y-100737039D01*
X136429921Y-100700000D01*
X136519341Y-100662961D01*
X136672961Y-100509341D01*
X136756100Y-100308626D01*
X136756100Y-100091374D01*
X136672961Y-99890659D01*
X136519341Y-99737039D01*
X136429921Y-99700000D01*
X136519341Y-99662961D01*
X136672961Y-99509341D01*
X136756100Y-99308626D01*
X136756100Y-99091374D01*
X136672961Y-98890659D01*
X136519341Y-98737039D01*
X136429921Y-98700000D01*
X136519341Y-98662961D01*
X136672961Y-98509341D01*
X136756100Y-98308626D01*
X136756100Y-98091374D01*
X136672961Y-97890659D01*
X136519341Y-97737039D01*
X136429921Y-97700000D01*
X136519341Y-97662961D01*
X136672961Y-97509341D01*
X136756100Y-97308626D01*
X136756100Y-97091374D01*
X136672961Y-96890659D01*
X136519341Y-96737039D01*
X136429921Y-96700000D01*
X136519341Y-96662961D01*
X136672961Y-96509341D01*
X136756100Y-96308626D01*
X136756100Y-96091374D01*
X136696919Y-95948500D01*
X140223081Y-95948500D01*
X140163900Y-96091374D01*
X140163900Y-96308626D01*
X140247039Y-96509341D01*
X140400659Y-96662961D01*
X140490079Y-96700000D01*
X140400659Y-96737039D01*
X140247039Y-96890659D01*
X140163900Y-97091374D01*
X140163900Y-97308626D01*
X140247039Y-97509341D01*
X140400659Y-97662961D01*
X140490079Y-97700000D01*
X140400659Y-97737039D01*
X140247039Y-97890659D01*
X140163900Y-98091374D01*
X140163900Y-98308626D01*
X140247039Y-98509341D01*
X140400659Y-98662961D01*
X140490079Y-98700000D01*
X140400659Y-98737039D01*
X140247039Y-98890659D01*
X140163900Y-99091374D01*
X140163900Y-99308626D01*
X140247039Y-99509341D01*
X140400659Y-99662961D01*
X140490079Y-99700000D01*
X140400659Y-99737039D01*
X140247039Y-99890659D01*
X140163900Y-100091374D01*
X140163900Y-100308626D01*
X140247039Y-100509341D01*
X140400659Y-100662961D01*
X140490079Y-100700000D01*
X140400659Y-100737039D01*
X140247039Y-100890659D01*
X140163900Y-101091374D01*
X140163900Y-101308626D01*
X140247039Y-101509341D01*
X140400659Y-101662961D01*
X140601374Y-101746100D01*
X140818626Y-101746100D01*
X140981269Y-101678731D01*
X140913900Y-101841374D01*
X140913900Y-102058626D01*
X140997039Y-102259341D01*
X141150659Y-102412961D01*
X141351374Y-102496100D01*
X141568626Y-102496100D01*
X141769341Y-102412961D01*
X141922961Y-102259341D01*
X142006100Y-102058626D01*
X142006100Y-101841374D01*
X141922961Y-101640659D01*
X141860675Y-101578373D01*
X142007500Y-101578373D01*
X142007500Y-101897627D01*
X142129673Y-102192580D01*
X142355420Y-102418327D01*
X142650373Y-102540500D01*
X142969627Y-102540500D01*
X143264580Y-102418327D01*
X143490327Y-102192580D01*
X143612500Y-101897627D01*
X143612500Y-101578373D01*
X143490327Y-101283420D01*
X143264580Y-101057673D01*
X142969627Y-100935500D01*
X142650373Y-100935500D01*
X142355420Y-101057673D01*
X142129673Y-101283420D01*
X142007500Y-101578373D01*
X141860675Y-101578373D01*
X141769341Y-101487039D01*
X141568626Y-101403900D01*
X141351374Y-101403900D01*
X141188731Y-101471269D01*
X141256100Y-101308626D01*
X141256100Y-101091374D01*
X141172961Y-100890659D01*
X141019341Y-100737039D01*
X140929921Y-100700000D01*
X141019341Y-100662961D01*
X141172961Y-100509341D01*
X141256100Y-100308626D01*
X141256100Y-100091374D01*
X141172961Y-99890659D01*
X141019341Y-99737039D01*
X140929921Y-99700000D01*
X141019341Y-99662961D01*
X141172961Y-99509341D01*
X141256100Y-99308626D01*
X141256100Y-99091374D01*
X141172961Y-98890659D01*
X141019341Y-98737039D01*
X140929921Y-98700000D01*
X141019341Y-98662961D01*
X141172961Y-98509341D01*
X141256100Y-98308626D01*
X141256100Y-98091374D01*
X141172961Y-97890659D01*
X141019341Y-97737039D01*
X140929921Y-97700000D01*
X141019341Y-97662961D01*
X141172961Y-97509341D01*
X141256100Y-97308626D01*
X141256100Y-97091374D01*
X141172961Y-96890659D01*
X141019341Y-96737039D01*
X140929921Y-96700000D01*
X141019341Y-96662961D01*
X141172961Y-96509341D01*
X141256100Y-96308626D01*
X141256100Y-96091374D01*
X141196919Y-95948500D01*
X144473081Y-95948500D01*
X144413900Y-96091374D01*
X144413900Y-96308626D01*
X144497039Y-96509341D01*
X144650659Y-96662961D01*
X144740079Y-96700000D01*
X144650659Y-96737039D01*
X144497039Y-96890659D01*
X144413900Y-97091374D01*
X144413900Y-97308626D01*
X144497039Y-97509341D01*
X144650659Y-97662961D01*
X144740079Y-97700000D01*
X144650659Y-97737039D01*
X144497039Y-97890659D01*
X144413900Y-98091374D01*
X144413900Y-98308626D01*
X144497039Y-98509341D01*
X144650659Y-98662961D01*
X144740079Y-98700000D01*
X144650659Y-98737039D01*
X144497039Y-98890659D01*
X144413900Y-99091374D01*
X144413900Y-99308626D01*
X144497039Y-99509341D01*
X144650659Y-99662961D01*
X144740079Y-99700000D01*
X144650659Y-99737039D01*
X144497039Y-99890659D01*
X144413900Y-100091374D01*
X144413900Y-100308626D01*
X144497039Y-100509341D01*
X144650659Y-100662961D01*
X144740079Y-100700000D01*
X144650659Y-100737039D01*
X144497039Y-100890659D01*
X144413900Y-101091374D01*
X144413900Y-101308626D01*
X144481269Y-101471269D01*
X144318626Y-101403900D01*
X144101374Y-101403900D01*
X143900659Y-101487039D01*
X143747039Y-101640659D01*
X143663900Y-101841374D01*
X143663900Y-102058626D01*
X143747039Y-102259341D01*
X143900659Y-102412961D01*
X144101374Y-102496100D01*
X144318626Y-102496100D01*
X144519341Y-102412961D01*
X144672961Y-102259341D01*
X144756100Y-102058626D01*
X144756100Y-101841374D01*
X144688731Y-101678731D01*
X144851374Y-101746100D01*
X145068626Y-101746100D01*
X145269341Y-101662961D01*
X145422961Y-101509341D01*
X145506100Y-101308626D01*
X145506100Y-101091374D01*
X145422961Y-100890659D01*
X145269341Y-100737039D01*
X145179921Y-100700000D01*
X145269341Y-100662961D01*
X145422961Y-100509341D01*
X145506100Y-100308626D01*
X145506100Y-100091374D01*
X145422961Y-99890659D01*
X145269341Y-99737039D01*
X145179921Y-99700000D01*
X145269341Y-99662961D01*
X145422961Y-99509341D01*
X145506100Y-99308626D01*
X145506100Y-99091374D01*
X145422961Y-98890659D01*
X145269341Y-98737039D01*
X145179921Y-98700000D01*
X145269341Y-98662961D01*
X145422961Y-98509341D01*
X145506100Y-98308626D01*
X145506100Y-98091374D01*
X145422961Y-97890659D01*
X145269341Y-97737039D01*
X145179921Y-97700000D01*
X145269341Y-97662961D01*
X145422961Y-97509341D01*
X145506100Y-97308626D01*
X145506100Y-97091374D01*
X145422961Y-96890659D01*
X145269341Y-96737039D01*
X145179921Y-96700000D01*
X145269341Y-96662961D01*
X145422961Y-96509341D01*
X145460000Y-96419921D01*
X145497039Y-96509341D01*
X145650659Y-96662961D01*
X145851374Y-96746100D01*
X146068626Y-96746100D01*
X146269341Y-96662961D01*
X146422961Y-96509341D01*
X146506100Y-96308626D01*
X146506100Y-96091374D01*
X146446919Y-95948500D01*
X146973081Y-95948500D01*
X146913900Y-96091374D01*
X146913900Y-96308626D01*
X146997039Y-96509341D01*
X147150659Y-96662961D01*
X147351374Y-96746100D01*
X147568626Y-96746100D01*
X147769341Y-96662961D01*
X147922961Y-96509341D01*
X148006100Y-96308626D01*
X148006100Y-96091374D01*
X147946919Y-95948500D01*
X148473081Y-95948500D01*
X148413900Y-96091374D01*
X148413900Y-96308626D01*
X148497039Y-96509341D01*
X148650659Y-96662961D01*
X148851374Y-96746100D01*
X149068626Y-96746100D01*
X149269341Y-96662961D01*
X149422961Y-96509341D01*
X149506100Y-96308626D01*
X149506100Y-96091374D01*
X149446919Y-95948500D01*
X149973081Y-95948500D01*
X149913900Y-96091374D01*
X149913900Y-96308626D01*
X149997039Y-96509341D01*
X150150659Y-96662961D01*
X150351374Y-96746100D01*
X150568626Y-96746100D01*
X150685500Y-96697689D01*
X150685500Y-97202311D01*
X150568626Y-97153900D01*
X150351374Y-97153900D01*
X150150659Y-97237039D01*
X149997039Y-97390659D01*
X149913900Y-97591374D01*
X149913900Y-97808626D01*
X149997039Y-98009341D01*
X150150659Y-98162961D01*
X150351374Y-98246100D01*
X150568626Y-98246100D01*
X150685500Y-98197689D01*
X150685500Y-98702311D01*
X150568626Y-98653900D01*
X150351374Y-98653900D01*
X150150659Y-98737039D01*
X149997039Y-98890659D01*
X149913900Y-99091374D01*
X149913900Y-99308626D01*
X149997039Y-99509341D01*
X150150659Y-99662961D01*
X150351374Y-99746100D01*
X150568626Y-99746100D01*
X150685500Y-99697689D01*
X150685500Y-100202311D01*
X150568626Y-100153900D01*
X150351374Y-100153900D01*
X150150659Y-100237039D01*
X149997039Y-100390659D01*
X149913900Y-100591374D01*
X149913900Y-100808626D01*
X149997039Y-101009341D01*
X150150659Y-101162961D01*
X150351374Y-101246100D01*
X150568626Y-101246100D01*
X150685500Y-101197689D01*
X150685500Y-101702311D01*
X150568626Y-101653900D01*
X150351374Y-101653900D01*
X150150659Y-101737039D01*
X149997039Y-101890659D01*
X149913900Y-102091374D01*
X149913900Y-102308626D01*
X149997039Y-102509341D01*
X150150659Y-102662961D01*
X150351374Y-102746100D01*
X150568626Y-102746100D01*
X150685500Y-102697689D01*
X150685500Y-103202311D01*
X150568626Y-103153900D01*
X150351374Y-103153900D01*
X150150659Y-103237039D01*
X149997039Y-103390659D01*
X149913900Y-103591374D01*
X149913900Y-103808626D01*
X149997039Y-104009341D01*
X150150659Y-104162961D01*
X150351374Y-104246100D01*
X150568626Y-104246100D01*
X150685500Y-104197689D01*
X150685500Y-104702311D01*
X150568626Y-104653900D01*
X150351374Y-104653900D01*
X150150659Y-104737039D01*
X149997039Y-104890659D01*
X149913900Y-105091374D01*
X149913900Y-105308626D01*
X149997039Y-105509341D01*
X150150659Y-105662961D01*
X150351374Y-105746100D01*
X150568626Y-105746100D01*
X150685500Y-105697689D01*
X150685500Y-106202311D01*
X150568626Y-106153900D01*
X150351374Y-106153900D01*
X150150659Y-106237039D01*
X149997039Y-106390659D01*
X149913900Y-106591374D01*
X149913900Y-106808626D01*
X149997039Y-107009341D01*
X150150659Y-107162961D01*
X150351374Y-107246100D01*
X150568626Y-107246100D01*
X150685500Y-107197689D01*
X150685500Y-107702311D01*
X150568626Y-107653900D01*
X150351374Y-107653900D01*
X150150659Y-107737039D01*
X149997039Y-107890659D01*
X149913900Y-108091374D01*
X149913900Y-108308626D01*
X149997039Y-108509341D01*
X150150659Y-108662961D01*
X150351374Y-108746100D01*
X150568626Y-108746100D01*
X150685500Y-108697689D01*
X150685500Y-109202311D01*
X150568626Y-109153900D01*
X150351374Y-109153900D01*
X150150659Y-109237039D01*
X149997039Y-109390659D01*
X149913900Y-109591374D01*
X149913900Y-109808626D01*
X149997039Y-110009341D01*
X150150659Y-110162961D01*
X150351374Y-110246100D01*
X150568626Y-110246100D01*
X150685500Y-110197689D01*
X150685500Y-110702311D01*
X150568626Y-110653900D01*
X150351374Y-110653900D01*
X150150659Y-110737039D01*
X149997039Y-110890659D01*
X149913900Y-111091374D01*
X149913900Y-111308626D01*
X149997039Y-111509341D01*
X150150659Y-111662961D01*
X150351374Y-111746100D01*
X150568626Y-111746100D01*
X150685500Y-111697689D01*
X150685500Y-112202311D01*
X150568626Y-112153900D01*
X150351374Y-112153900D01*
X150150659Y-112237039D01*
X149997039Y-112390659D01*
X149913900Y-112591374D01*
X149913900Y-112808626D01*
X149997039Y-113009341D01*
X150150659Y-113162961D01*
X150351374Y-113246100D01*
X150568626Y-113246100D01*
X150685500Y-113197689D01*
X150685500Y-113702311D01*
X150568626Y-113653900D01*
X150351374Y-113653900D01*
X150150659Y-113737039D01*
X149997039Y-113890659D01*
X149913900Y-114091374D01*
X149913900Y-114308626D01*
X149997039Y-114509341D01*
X150150659Y-114662961D01*
X150351374Y-114746100D01*
X150568626Y-114746100D01*
X150685500Y-114697689D01*
X150685500Y-116014405D01*
X150521336Y-115850241D01*
X150092230Y-115672500D01*
X149627770Y-115672500D01*
X149198664Y-115850241D01*
X148870241Y-116178664D01*
X148692500Y-116607770D01*
X148692500Y-117072230D01*
X148870241Y-117501336D01*
X149198664Y-117829759D01*
X149627770Y-118007500D01*
X150092230Y-118007500D01*
X150521336Y-117829759D01*
X150685500Y-117665595D01*
X150685500Y-118527442D01*
X150315536Y-118280240D01*
X149974985Y-118212500D01*
X149745015Y-118212500D01*
X149404464Y-118280240D01*
X149018280Y-118538280D01*
X148760240Y-118924464D01*
X148669628Y-119380000D01*
X148760240Y-119835536D01*
X149018280Y-120221720D01*
X149404464Y-120479760D01*
X149745015Y-120547500D01*
X149974985Y-120547500D01*
X150315536Y-120479760D01*
X150685500Y-120232558D01*
X150685500Y-121067442D01*
X150315536Y-120820240D01*
X149974985Y-120752500D01*
X149745015Y-120752500D01*
X149404464Y-120820240D01*
X149018280Y-121078280D01*
X148760240Y-121464464D01*
X148669628Y-121920000D01*
X148760240Y-122375536D01*
X149018280Y-122761720D01*
X149404464Y-123019760D01*
X149745015Y-123087500D01*
X149974985Y-123087500D01*
X150315536Y-123019760D01*
X150685500Y-122772558D01*
X150685500Y-123607442D01*
X150315536Y-123360240D01*
X149974985Y-123292500D01*
X149745015Y-123292500D01*
X149404464Y-123360240D01*
X149018280Y-123618280D01*
X148760240Y-124004464D01*
X148669628Y-124460000D01*
X148760240Y-124915536D01*
X149018280Y-125301720D01*
X149404464Y-125559760D01*
X149745015Y-125627500D01*
X149974985Y-125627500D01*
X150315536Y-125559760D01*
X150685500Y-125312558D01*
X150685500Y-126147442D01*
X150315536Y-125900240D01*
X149974985Y-125832500D01*
X149745015Y-125832500D01*
X149404464Y-125900240D01*
X149018280Y-126158280D01*
X148760240Y-126544464D01*
X148669628Y-127000000D01*
X148760240Y-127455536D01*
X149018280Y-127841720D01*
X149404464Y-128099760D01*
X149745015Y-128167500D01*
X149974985Y-128167500D01*
X150315536Y-128099760D01*
X150685500Y-127852558D01*
X150685500Y-128687442D01*
X150315536Y-128440240D01*
X149974985Y-128372500D01*
X149745015Y-128372500D01*
X149404464Y-128440240D01*
X149018280Y-128698280D01*
X148760240Y-129084464D01*
X148669628Y-129540000D01*
X148760240Y-129995536D01*
X149018280Y-130381720D01*
X149404464Y-130639760D01*
X149745015Y-130707500D01*
X149974985Y-130707500D01*
X150315536Y-130639760D01*
X150685500Y-130392558D01*
X150685500Y-131227442D01*
X150315536Y-130980240D01*
X149974985Y-130912500D01*
X149745015Y-130912500D01*
X149404464Y-130980240D01*
X149018280Y-131238280D01*
X148760240Y-131624464D01*
X148669628Y-132080000D01*
X148760240Y-132535536D01*
X149018280Y-132921720D01*
X149404464Y-133179760D01*
X149745015Y-133247500D01*
X149974985Y-133247500D01*
X150315536Y-133179760D01*
X150685500Y-132932558D01*
X150685500Y-133767442D01*
X150315536Y-133520240D01*
X149974985Y-133452500D01*
X149745015Y-133452500D01*
X149404464Y-133520240D01*
X149018280Y-133778280D01*
X148760240Y-134164464D01*
X148669628Y-134620000D01*
X148760240Y-135075536D01*
X149018280Y-135461720D01*
X149404464Y-135719760D01*
X149745015Y-135787500D01*
X149974985Y-135787500D01*
X150315536Y-135719760D01*
X150685500Y-135472558D01*
X150685500Y-135736698D01*
X148436698Y-137985500D01*
X126174500Y-137985500D01*
X126174500Y-135472558D01*
X126544464Y-135719760D01*
X126885015Y-135787500D01*
X127114985Y-135787500D01*
X127455536Y-135719760D01*
X127841720Y-135461720D01*
X128099760Y-135075536D01*
X128190372Y-134620000D01*
X128134950Y-134341374D01*
X128913900Y-134341374D01*
X128913900Y-134558626D01*
X128997039Y-134759341D01*
X129150659Y-134912961D01*
X129351374Y-134996100D01*
X129568626Y-134996100D01*
X129769341Y-134912961D01*
X129922961Y-134759341D01*
X130006100Y-134558626D01*
X130006100Y-134341374D01*
X134913900Y-134341374D01*
X134913900Y-134558626D01*
X134997039Y-134759341D01*
X135150659Y-134912961D01*
X135351374Y-134996100D01*
X135568626Y-134996100D01*
X135769341Y-134912961D01*
X135922961Y-134759341D01*
X136006100Y-134558626D01*
X136006100Y-134341374D01*
X137913900Y-134341374D01*
X137913900Y-134558626D01*
X137997039Y-134759341D01*
X138150659Y-134912961D01*
X138351374Y-134996100D01*
X138568626Y-134996100D01*
X138769341Y-134912961D01*
X138922961Y-134759341D01*
X139006100Y-134558626D01*
X139006100Y-134341374D01*
X140913900Y-134341374D01*
X140913900Y-134558626D01*
X140997039Y-134759341D01*
X141150659Y-134912961D01*
X141351374Y-134996100D01*
X141568626Y-134996100D01*
X141769341Y-134912961D01*
X141922961Y-134759341D01*
X142006100Y-134558626D01*
X142006100Y-134341374D01*
X146913900Y-134341374D01*
X146913900Y-134558626D01*
X146997039Y-134759341D01*
X147150659Y-134912961D01*
X147351374Y-134996100D01*
X147568626Y-134996100D01*
X147769341Y-134912961D01*
X147922961Y-134759341D01*
X148006100Y-134558626D01*
X148006100Y-134341374D01*
X147922961Y-134140659D01*
X147769341Y-133987039D01*
X147568626Y-133903900D01*
X147351374Y-133903900D01*
X147150659Y-133987039D01*
X146997039Y-134140659D01*
X146913900Y-134341374D01*
X142006100Y-134341374D01*
X141922961Y-134140659D01*
X141769341Y-133987039D01*
X141568626Y-133903900D01*
X141351374Y-133903900D01*
X141150659Y-133987039D01*
X140997039Y-134140659D01*
X140913900Y-134341374D01*
X139006100Y-134341374D01*
X138922961Y-134140659D01*
X138769341Y-133987039D01*
X138568626Y-133903900D01*
X138351374Y-133903900D01*
X138150659Y-133987039D01*
X137997039Y-134140659D01*
X137913900Y-134341374D01*
X136006100Y-134341374D01*
X135922961Y-134140659D01*
X135769341Y-133987039D01*
X135568626Y-133903900D01*
X135351374Y-133903900D01*
X135150659Y-133987039D01*
X134997039Y-134140659D01*
X134913900Y-134341374D01*
X130006100Y-134341374D01*
X129922961Y-134140659D01*
X129769341Y-133987039D01*
X129568626Y-133903900D01*
X129351374Y-133903900D01*
X129150659Y-133987039D01*
X128997039Y-134140659D01*
X128913900Y-134341374D01*
X128134950Y-134341374D01*
X128099760Y-134164464D01*
X127841720Y-133778280D01*
X127455536Y-133520240D01*
X127114985Y-133452500D01*
X126885015Y-133452500D01*
X126544464Y-133520240D01*
X126174500Y-133767442D01*
X126174500Y-132873581D01*
X126336740Y-133040811D01*
X126754914Y-133221492D01*
X126936500Y-133166403D01*
X126936500Y-132143500D01*
X127063500Y-132143500D01*
X127063500Y-133166403D01*
X127245086Y-133221492D01*
X127663260Y-133040811D01*
X127980459Y-132713855D01*
X128141486Y-132325085D01*
X128086271Y-132143500D01*
X127063500Y-132143500D01*
X126936500Y-132143500D01*
X126916500Y-132143500D01*
X126916500Y-132016500D01*
X126936500Y-132016500D01*
X126936500Y-130993597D01*
X127063500Y-130993597D01*
X127063500Y-132016500D01*
X128086271Y-132016500D01*
X128141486Y-131834915D01*
X127980459Y-131446145D01*
X127878815Y-131341374D01*
X134913900Y-131341374D01*
X134913900Y-131558626D01*
X134997039Y-131759341D01*
X135150659Y-131912961D01*
X135351374Y-131996100D01*
X135568626Y-131996100D01*
X135769341Y-131912961D01*
X135922961Y-131759341D01*
X136006100Y-131558626D01*
X136006100Y-131341374D01*
X140913900Y-131341374D01*
X140913900Y-131558626D01*
X140997039Y-131759341D01*
X141150659Y-131912961D01*
X141351374Y-131996100D01*
X141568626Y-131996100D01*
X141769341Y-131912961D01*
X141922961Y-131759341D01*
X142006100Y-131558626D01*
X142006100Y-131341374D01*
X141922961Y-131140659D01*
X141769341Y-130987039D01*
X141568626Y-130903900D01*
X141351374Y-130903900D01*
X141150659Y-130987039D01*
X140997039Y-131140659D01*
X140913900Y-131341374D01*
X136006100Y-131341374D01*
X135922961Y-131140659D01*
X135769341Y-130987039D01*
X135568626Y-130903900D01*
X135351374Y-130903900D01*
X135150659Y-130987039D01*
X134997039Y-131140659D01*
X134913900Y-131341374D01*
X127878815Y-131341374D01*
X127663260Y-131119189D01*
X127245086Y-130938508D01*
X127063500Y-130993597D01*
X126936500Y-130993597D01*
X126754914Y-130938508D01*
X126336740Y-131119189D01*
X126174500Y-131286419D01*
X126174500Y-130392558D01*
X126544464Y-130639760D01*
X126885015Y-130707500D01*
X127114985Y-130707500D01*
X127455536Y-130639760D01*
X127841720Y-130381720D01*
X128099760Y-129995536D01*
X128190372Y-129540000D01*
X128099760Y-129084464D01*
X127841720Y-128698280D01*
X127455536Y-128440240D01*
X127114985Y-128372500D01*
X126885015Y-128372500D01*
X126544464Y-128440240D01*
X126174500Y-128687442D01*
X126174500Y-128341374D01*
X128913900Y-128341374D01*
X128913900Y-128558626D01*
X128997039Y-128759341D01*
X129150659Y-128912961D01*
X129351374Y-128996100D01*
X129568626Y-128996100D01*
X129769341Y-128912961D01*
X129922961Y-128759341D01*
X130006100Y-128558626D01*
X130006100Y-128341374D01*
X134913900Y-128341374D01*
X134913900Y-128558626D01*
X134997039Y-128759341D01*
X135150659Y-128912961D01*
X135351374Y-128996100D01*
X135568626Y-128996100D01*
X135769341Y-128912961D01*
X135922961Y-128759341D01*
X136006100Y-128558626D01*
X136006100Y-128341374D01*
X137913900Y-128341374D01*
X137913900Y-128558626D01*
X137997039Y-128759341D01*
X138150659Y-128912961D01*
X138351374Y-128996100D01*
X138568626Y-128996100D01*
X138769341Y-128912961D01*
X138922961Y-128759341D01*
X139006100Y-128558626D01*
X139006100Y-128341374D01*
X140913900Y-128341374D01*
X140913900Y-128558626D01*
X140997039Y-128759341D01*
X141150659Y-128912961D01*
X141351374Y-128996100D01*
X141568626Y-128996100D01*
X141769341Y-128912961D01*
X141922961Y-128759341D01*
X142006100Y-128558626D01*
X142006100Y-128341374D01*
X146913900Y-128341374D01*
X146913900Y-128558626D01*
X146997039Y-128759341D01*
X147150659Y-128912961D01*
X147351374Y-128996100D01*
X147568626Y-128996100D01*
X147769341Y-128912961D01*
X147922961Y-128759341D01*
X148006100Y-128558626D01*
X148006100Y-128341374D01*
X147922961Y-128140659D01*
X147769341Y-127987039D01*
X147568626Y-127903900D01*
X147351374Y-127903900D01*
X147150659Y-127987039D01*
X146997039Y-128140659D01*
X146913900Y-128341374D01*
X142006100Y-128341374D01*
X141922961Y-128140659D01*
X141769341Y-127987039D01*
X141568626Y-127903900D01*
X141351374Y-127903900D01*
X141150659Y-127987039D01*
X140997039Y-128140659D01*
X140913900Y-128341374D01*
X139006100Y-128341374D01*
X138922961Y-128140659D01*
X138769341Y-127987039D01*
X138568626Y-127903900D01*
X138351374Y-127903900D01*
X138150659Y-127987039D01*
X137997039Y-128140659D01*
X137913900Y-128341374D01*
X136006100Y-128341374D01*
X135922961Y-128140659D01*
X135769341Y-127987039D01*
X135568626Y-127903900D01*
X135351374Y-127903900D01*
X135150659Y-127987039D01*
X134997039Y-128140659D01*
X134913900Y-128341374D01*
X130006100Y-128341374D01*
X129922961Y-128140659D01*
X129769341Y-127987039D01*
X129568626Y-127903900D01*
X129351374Y-127903900D01*
X129150659Y-127987039D01*
X128997039Y-128140659D01*
X128913900Y-128341374D01*
X126174500Y-128341374D01*
X126174500Y-127852558D01*
X126544464Y-128099760D01*
X126885015Y-128167500D01*
X127114985Y-128167500D01*
X127455536Y-128099760D01*
X127841720Y-127841720D01*
X128099760Y-127455536D01*
X128190372Y-127000000D01*
X128099760Y-126544464D01*
X127841720Y-126158280D01*
X127591928Y-125991374D01*
X132713900Y-125991374D01*
X132713900Y-126208626D01*
X132797039Y-126409341D01*
X132950659Y-126562961D01*
X133151374Y-126646100D01*
X133329422Y-126646100D01*
X133397039Y-126809341D01*
X133550659Y-126962961D01*
X133751374Y-127046100D01*
X133968626Y-127046100D01*
X134169341Y-126962961D01*
X134322961Y-126809341D01*
X134406100Y-126608626D01*
X134406100Y-126391374D01*
X134322961Y-126190659D01*
X134169341Y-126037039D01*
X133968626Y-125953900D01*
X133790578Y-125953900D01*
X133722961Y-125790659D01*
X133569341Y-125637039D01*
X133368626Y-125553900D01*
X133151374Y-125553900D01*
X132950659Y-125637039D01*
X132797039Y-125790659D01*
X132713900Y-125991374D01*
X127591928Y-125991374D01*
X127455536Y-125900240D01*
X127114985Y-125832500D01*
X126885015Y-125832500D01*
X126544464Y-125900240D01*
X126174500Y-126147442D01*
X126174500Y-125312558D01*
X126544464Y-125559760D01*
X126885015Y-125627500D01*
X127114985Y-125627500D01*
X127455536Y-125559760D01*
X127841720Y-125301720D01*
X128099760Y-124915536D01*
X128190372Y-124460000D01*
X128099760Y-124004464D01*
X127841720Y-123618280D01*
X127502132Y-123391374D01*
X131513900Y-123391374D01*
X131513900Y-123608626D01*
X131597039Y-123809341D01*
X131750659Y-123962961D01*
X131951374Y-124046100D01*
X132168626Y-124046100D01*
X132369341Y-123962961D01*
X132522961Y-123809341D01*
X132606100Y-123608626D01*
X132606100Y-123446100D01*
X132768626Y-123446100D01*
X132900746Y-123391374D01*
X134313900Y-123391374D01*
X134313900Y-123608626D01*
X134397039Y-123809341D01*
X134550659Y-123962961D01*
X134751374Y-124046100D01*
X134968626Y-124046100D01*
X135169341Y-123962961D01*
X135322961Y-123809341D01*
X135406100Y-123608626D01*
X135406100Y-123391374D01*
X135322961Y-123190659D01*
X135169341Y-123037039D01*
X134968626Y-122953900D01*
X134751374Y-122953900D01*
X134550659Y-123037039D01*
X134397039Y-123190659D01*
X134313900Y-123391374D01*
X132900746Y-123391374D01*
X132969341Y-123362961D01*
X133122961Y-123209341D01*
X133206100Y-123008626D01*
X133206100Y-122791374D01*
X133122961Y-122590659D01*
X132969341Y-122437039D01*
X132768626Y-122353900D01*
X132551374Y-122353900D01*
X132350659Y-122437039D01*
X132197039Y-122590659D01*
X132113900Y-122791374D01*
X132113900Y-122953900D01*
X131951374Y-122953900D01*
X131750659Y-123037039D01*
X131597039Y-123190659D01*
X131513900Y-123391374D01*
X127502132Y-123391374D01*
X127455536Y-123360240D01*
X127114985Y-123292500D01*
X126885015Y-123292500D01*
X126544464Y-123360240D01*
X126174500Y-123607442D01*
X126174500Y-122772558D01*
X126544464Y-123019760D01*
X126885015Y-123087500D01*
X127114985Y-123087500D01*
X127455536Y-123019760D01*
X127841720Y-122761720D01*
X128099760Y-122375536D01*
X128106555Y-122341374D01*
X128913900Y-122341374D01*
X128913900Y-122558626D01*
X128997039Y-122759341D01*
X129150659Y-122912961D01*
X129351374Y-122996100D01*
X129568626Y-122996100D01*
X129769341Y-122912961D01*
X129922961Y-122759341D01*
X130006100Y-122558626D01*
X130006100Y-122341374D01*
X134913900Y-122341374D01*
X134913900Y-122558626D01*
X134997039Y-122759341D01*
X135150659Y-122912961D01*
X135351374Y-122996100D01*
X135513900Y-122996100D01*
X135513900Y-123008626D01*
X135597039Y-123209341D01*
X135750659Y-123362961D01*
X135951374Y-123446100D01*
X136168626Y-123446100D01*
X136369341Y-123362961D01*
X136522961Y-123209341D01*
X136606100Y-123008626D01*
X136606100Y-122791374D01*
X136522961Y-122590659D01*
X136369341Y-122437039D01*
X136259097Y-122391374D01*
X139513900Y-122391374D01*
X139513900Y-122608626D01*
X139597039Y-122809341D01*
X139750659Y-122962961D01*
X139951374Y-123046100D01*
X140168626Y-123046100D01*
X140369341Y-122962961D01*
X140522961Y-122809341D01*
X140606100Y-122608626D01*
X140606100Y-122391374D01*
X140585390Y-122341374D01*
X140913900Y-122341374D01*
X140913900Y-122558626D01*
X140997039Y-122759341D01*
X141150659Y-122912961D01*
X141351374Y-122996100D01*
X141568626Y-122996100D01*
X141769341Y-122912961D01*
X141922961Y-122759341D01*
X142006100Y-122558626D01*
X142006100Y-122391374D01*
X146913900Y-122391374D01*
X146913900Y-122608626D01*
X146997039Y-122809341D01*
X147150659Y-122962961D01*
X147351374Y-123046100D01*
X147568626Y-123046100D01*
X147769341Y-122962961D01*
X147922961Y-122809341D01*
X148006100Y-122608626D01*
X148006100Y-122391374D01*
X147922961Y-122190659D01*
X147769341Y-122037039D01*
X147568626Y-121953900D01*
X147351374Y-121953900D01*
X147150659Y-122037039D01*
X146997039Y-122190659D01*
X146913900Y-122391374D01*
X142006100Y-122391374D01*
X142006100Y-122341374D01*
X141922961Y-122140659D01*
X141769341Y-121987039D01*
X141568626Y-121903900D01*
X141351374Y-121903900D01*
X141150659Y-121987039D01*
X140997039Y-122140659D01*
X140913900Y-122341374D01*
X140585390Y-122341374D01*
X140522961Y-122190659D01*
X140369341Y-122037039D01*
X140168626Y-121953900D01*
X139951374Y-121953900D01*
X139750659Y-122037039D01*
X139597039Y-122190659D01*
X139513900Y-122391374D01*
X136259097Y-122391374D01*
X136168626Y-122353900D01*
X136006100Y-122353900D01*
X136006100Y-122341374D01*
X135922961Y-122140659D01*
X135769341Y-121987039D01*
X135568626Y-121903900D01*
X135351374Y-121903900D01*
X135150659Y-121987039D01*
X134997039Y-122140659D01*
X134913900Y-122341374D01*
X130006100Y-122341374D01*
X129922961Y-122140659D01*
X129769341Y-121987039D01*
X129568626Y-121903900D01*
X129351374Y-121903900D01*
X129150659Y-121987039D01*
X128997039Y-122140659D01*
X128913900Y-122341374D01*
X128106555Y-122341374D01*
X128190372Y-121920000D01*
X128099760Y-121464464D01*
X127841720Y-121078280D01*
X127455536Y-120820240D01*
X127114985Y-120752500D01*
X126885015Y-120752500D01*
X126544464Y-120820240D01*
X126174500Y-121067442D01*
X126174500Y-120232558D01*
X126544464Y-120479760D01*
X126885015Y-120547500D01*
X127114985Y-120547500D01*
X127455536Y-120479760D01*
X127841720Y-120221720D01*
X128099760Y-119835536D01*
X128190372Y-119380000D01*
X128099760Y-118924464D01*
X127841720Y-118538280D01*
X127455536Y-118280240D01*
X127114985Y-118212500D01*
X126885015Y-118212500D01*
X126544464Y-118280240D01*
X126174500Y-118527442D01*
X126174500Y-118013720D01*
X127850000Y-118013720D01*
X127973882Y-117989078D01*
X128078905Y-117918905D01*
X128149078Y-117813882D01*
X128173720Y-117690000D01*
X128173720Y-116341374D01*
X128913900Y-116341374D01*
X128913900Y-116558626D01*
X128997039Y-116759341D01*
X129150659Y-116912961D01*
X129351374Y-116996100D01*
X129568626Y-116996100D01*
X129769341Y-116912961D01*
X129890928Y-116791374D01*
X135913900Y-116791374D01*
X135913900Y-117008626D01*
X135997039Y-117209341D01*
X136150659Y-117362961D01*
X136351374Y-117446100D01*
X136568626Y-117446100D01*
X136769341Y-117362961D01*
X136922961Y-117209341D01*
X137006100Y-117008626D01*
X137006100Y-116791374D01*
X136922961Y-116590659D01*
X136769341Y-116437039D01*
X136568626Y-116353900D01*
X136351374Y-116353900D01*
X136150659Y-116437039D01*
X135997039Y-116590659D01*
X135913900Y-116791374D01*
X129890928Y-116791374D01*
X129922961Y-116759341D01*
X130006100Y-116558626D01*
X130006100Y-116341374D01*
X129922961Y-116140659D01*
X129873676Y-116091374D01*
X141163900Y-116091374D01*
X141163900Y-116308626D01*
X141247039Y-116509341D01*
X141400659Y-116662961D01*
X141601374Y-116746100D01*
X141818626Y-116746100D01*
X142019341Y-116662961D01*
X142172961Y-116509341D01*
X142242535Y-116341374D01*
X146913900Y-116341374D01*
X146913900Y-116558626D01*
X146997039Y-116759341D01*
X147150659Y-116912961D01*
X147351374Y-116996100D01*
X147568626Y-116996100D01*
X147769341Y-116912961D01*
X147922961Y-116759341D01*
X148006100Y-116558626D01*
X148006100Y-116341374D01*
X147922961Y-116140659D01*
X147769341Y-115987039D01*
X147568626Y-115903900D01*
X147351374Y-115903900D01*
X147150659Y-115987039D01*
X146997039Y-116140659D01*
X146913900Y-116341374D01*
X142242535Y-116341374D01*
X142256100Y-116308626D01*
X142256100Y-116091374D01*
X142172961Y-115890659D01*
X142019341Y-115737039D01*
X141818626Y-115653900D01*
X141601374Y-115653900D01*
X141400659Y-115737039D01*
X141247039Y-115890659D01*
X141163900Y-116091374D01*
X129873676Y-116091374D01*
X129769341Y-115987039D01*
X129568626Y-115903900D01*
X129351374Y-115903900D01*
X129150659Y-115987039D01*
X128997039Y-116140659D01*
X128913900Y-116341374D01*
X128173720Y-116341374D01*
X128173720Y-115990000D01*
X128149078Y-115866118D01*
X128078905Y-115761095D01*
X127973882Y-115690922D01*
X127850000Y-115666280D01*
X126174500Y-115666280D01*
X126174500Y-114672836D01*
X126351374Y-114746100D01*
X126568626Y-114746100D01*
X126769341Y-114662961D01*
X126922961Y-114509341D01*
X127006100Y-114308626D01*
X127006100Y-114091374D01*
X127413900Y-114091374D01*
X127413900Y-114308626D01*
X127497039Y-114509341D01*
X127650659Y-114662961D01*
X127851374Y-114746100D01*
X128068626Y-114746100D01*
X128269341Y-114662961D01*
X128422961Y-114509341D01*
X128506100Y-114308626D01*
X128506100Y-114091374D01*
X128913900Y-114091374D01*
X128913900Y-114308626D01*
X128997039Y-114509341D01*
X129150659Y-114662961D01*
X129351374Y-114746100D01*
X129568626Y-114746100D01*
X129769341Y-114662961D01*
X129922961Y-114509341D01*
X130006100Y-114308626D01*
X130006100Y-114091374D01*
X130413900Y-114091374D01*
X130413900Y-114308626D01*
X130497039Y-114509341D01*
X130650659Y-114662961D01*
X130851374Y-114746100D01*
X131068626Y-114746100D01*
X131269341Y-114662961D01*
X131422961Y-114509341D01*
X131506100Y-114308626D01*
X131506100Y-114091374D01*
X131913900Y-114091374D01*
X131913900Y-114308626D01*
X131997039Y-114509341D01*
X132150659Y-114662961D01*
X132351374Y-114746100D01*
X132568626Y-114746100D01*
X132769341Y-114662961D01*
X132922961Y-114509341D01*
X133006100Y-114308626D01*
X133006100Y-114191374D01*
X133913900Y-114191374D01*
X133913900Y-114408626D01*
X133997039Y-114609341D01*
X134150659Y-114762961D01*
X134351374Y-114846100D01*
X134568626Y-114846100D01*
X134769341Y-114762961D01*
X134922961Y-114609341D01*
X135006100Y-114408626D01*
X135006100Y-114191374D01*
X134922961Y-113990659D01*
X134769341Y-113837039D01*
X134568626Y-113753900D01*
X134351374Y-113753900D01*
X134150659Y-113837039D01*
X133997039Y-113990659D01*
X133913900Y-114191374D01*
X133006100Y-114191374D01*
X133006100Y-114091374D01*
X132922961Y-113890659D01*
X132769341Y-113737039D01*
X132568626Y-113653900D01*
X132351374Y-113653900D01*
X132150659Y-113737039D01*
X131997039Y-113890659D01*
X131913900Y-114091374D01*
X131506100Y-114091374D01*
X131422961Y-113890659D01*
X131269341Y-113737039D01*
X131068626Y-113653900D01*
X130851374Y-113653900D01*
X130650659Y-113737039D01*
X130497039Y-113890659D01*
X130413900Y-114091374D01*
X130006100Y-114091374D01*
X129922961Y-113890659D01*
X129769341Y-113737039D01*
X129568626Y-113653900D01*
X129351374Y-113653900D01*
X129150659Y-113737039D01*
X128997039Y-113890659D01*
X128913900Y-114091374D01*
X128506100Y-114091374D01*
X128422961Y-113890659D01*
X128269341Y-113737039D01*
X128068626Y-113653900D01*
X127851374Y-113653900D01*
X127650659Y-113737039D01*
X127497039Y-113890659D01*
X127413900Y-114091374D01*
X127006100Y-114091374D01*
X126922961Y-113890659D01*
X126769341Y-113737039D01*
X126568626Y-113653900D01*
X126351374Y-113653900D01*
X126174500Y-113727164D01*
X126174500Y-113172836D01*
X126351374Y-113246100D01*
X126568626Y-113246100D01*
X126769341Y-113162961D01*
X126922961Y-113009341D01*
X127006100Y-112808626D01*
X127006100Y-112591374D01*
X130413900Y-112591374D01*
X130413900Y-112808626D01*
X130497039Y-113009341D01*
X130650659Y-113162961D01*
X130851374Y-113246100D01*
X131068626Y-113246100D01*
X131269341Y-113162961D01*
X131422961Y-113009341D01*
X131506100Y-112808626D01*
X131506100Y-112591374D01*
X131913900Y-112591374D01*
X131913900Y-112808626D01*
X131997039Y-113009341D01*
X132150659Y-113162961D01*
X132351374Y-113246100D01*
X132568626Y-113246100D01*
X132769341Y-113162961D01*
X132922961Y-113009341D01*
X133006100Y-112808626D01*
X133006100Y-112591374D01*
X132922961Y-112390659D01*
X132769341Y-112237039D01*
X132568626Y-112153900D01*
X132351374Y-112153900D01*
X132150659Y-112237039D01*
X131997039Y-112390659D01*
X131913900Y-112591374D01*
X131506100Y-112591374D01*
X131422961Y-112390659D01*
X131269341Y-112237039D01*
X131068626Y-112153900D01*
X130851374Y-112153900D01*
X130650659Y-112237039D01*
X130497039Y-112390659D01*
X130413900Y-112591374D01*
X127006100Y-112591374D01*
X126922961Y-112390659D01*
X126769341Y-112237039D01*
X126568626Y-112153900D01*
X126351374Y-112153900D01*
X126174500Y-112227164D01*
X126174500Y-111672836D01*
X126351374Y-111746100D01*
X126568626Y-111746100D01*
X126769341Y-111662961D01*
X126922961Y-111509341D01*
X127006100Y-111308626D01*
X127006100Y-111091374D01*
X130413900Y-111091374D01*
X130413900Y-111308626D01*
X130497039Y-111509341D01*
X130650659Y-111662961D01*
X130851374Y-111746100D01*
X131068626Y-111746100D01*
X131269341Y-111662961D01*
X131422961Y-111509341D01*
X131506100Y-111308626D01*
X131506100Y-111091374D01*
X131422961Y-110890659D01*
X131373676Y-110841374D01*
X135413900Y-110841374D01*
X135413900Y-111058626D01*
X135497039Y-111259341D01*
X135650659Y-111412961D01*
X135740079Y-111450000D01*
X135650659Y-111487039D01*
X135497039Y-111640659D01*
X135413900Y-111841374D01*
X135413900Y-112058626D01*
X135497039Y-112259341D01*
X135650659Y-112412961D01*
X135740079Y-112450000D01*
X135650659Y-112487039D01*
X135497039Y-112640659D01*
X135413900Y-112841374D01*
X135413900Y-113058626D01*
X135497039Y-113259341D01*
X135650659Y-113412961D01*
X135851374Y-113496100D01*
X136068626Y-113496100D01*
X136269341Y-113412961D01*
X136422961Y-113259341D01*
X136506100Y-113058626D01*
X136506100Y-112841374D01*
X136422961Y-112640659D01*
X136269341Y-112487039D01*
X136179921Y-112450000D01*
X136269341Y-112412961D01*
X136422961Y-112259341D01*
X136506100Y-112058626D01*
X136506100Y-111841374D01*
X136422961Y-111640659D01*
X136269341Y-111487039D01*
X136179921Y-111450000D01*
X136269341Y-111412961D01*
X136422961Y-111259341D01*
X136506100Y-111058626D01*
X136506100Y-110841374D01*
X136913900Y-110841374D01*
X136913900Y-111058626D01*
X136997039Y-111259341D01*
X137150659Y-111412961D01*
X137240079Y-111450000D01*
X137150659Y-111487039D01*
X136997039Y-111640659D01*
X136913900Y-111841374D01*
X136913900Y-112058626D01*
X136997039Y-112259341D01*
X137150659Y-112412961D01*
X137240079Y-112450000D01*
X137150659Y-112487039D01*
X136997039Y-112640659D01*
X136913900Y-112841374D01*
X136913900Y-113058626D01*
X136997039Y-113259341D01*
X137150659Y-113412961D01*
X137240079Y-113450000D01*
X137150659Y-113487039D01*
X136997039Y-113640659D01*
X136913900Y-113841374D01*
X136913900Y-114058626D01*
X136997039Y-114259341D01*
X137150659Y-114412961D01*
X137351374Y-114496100D01*
X137568626Y-114496100D01*
X137769341Y-114412961D01*
X137922961Y-114259341D01*
X137960000Y-114169921D01*
X137997039Y-114259341D01*
X138150659Y-114412961D01*
X138351374Y-114496100D01*
X138568626Y-114496100D01*
X138769341Y-114412961D01*
X138922961Y-114259341D01*
X138951113Y-114191374D01*
X139663900Y-114191374D01*
X139663900Y-114408626D01*
X139747039Y-114609341D01*
X139900659Y-114762961D01*
X140101374Y-114846100D01*
X140318626Y-114846100D01*
X140330035Y-114841374D01*
X141163900Y-114841374D01*
X141163900Y-115058626D01*
X141247039Y-115259341D01*
X141400659Y-115412961D01*
X141601374Y-115496100D01*
X141818626Y-115496100D01*
X142019341Y-115412961D01*
X142172961Y-115259341D01*
X142256100Y-115058626D01*
X142256100Y-114841374D01*
X142172961Y-114640659D01*
X142019341Y-114487039D01*
X141818626Y-114403900D01*
X141601374Y-114403900D01*
X141400659Y-114487039D01*
X141247039Y-114640659D01*
X141163900Y-114841374D01*
X140330035Y-114841374D01*
X140519341Y-114762961D01*
X140672961Y-114609341D01*
X140756100Y-114408626D01*
X140756100Y-114268402D01*
X140900659Y-114412961D01*
X141101374Y-114496100D01*
X141318626Y-114496100D01*
X141519341Y-114412961D01*
X141672961Y-114259341D01*
X141742535Y-114091374D01*
X142413900Y-114091374D01*
X142413900Y-114308626D01*
X142497039Y-114509341D01*
X142650659Y-114662961D01*
X142851374Y-114746100D01*
X143068626Y-114746100D01*
X143269341Y-114662961D01*
X143422961Y-114509341D01*
X143506100Y-114308626D01*
X143506100Y-114091374D01*
X143913900Y-114091374D01*
X143913900Y-114308626D01*
X143997039Y-114509341D01*
X144150659Y-114662961D01*
X144351374Y-114746100D01*
X144568626Y-114746100D01*
X144769341Y-114662961D01*
X144922961Y-114509341D01*
X145006100Y-114308626D01*
X145006100Y-114091374D01*
X145413900Y-114091374D01*
X145413900Y-114308626D01*
X145497039Y-114509341D01*
X145650659Y-114662961D01*
X145851374Y-114746100D01*
X146068626Y-114746100D01*
X146269341Y-114662961D01*
X146422961Y-114509341D01*
X146506100Y-114308626D01*
X146506100Y-114091374D01*
X146913900Y-114091374D01*
X146913900Y-114308626D01*
X146997039Y-114509341D01*
X147150659Y-114662961D01*
X147351374Y-114746100D01*
X147568626Y-114746100D01*
X147769341Y-114662961D01*
X147922961Y-114509341D01*
X148006100Y-114308626D01*
X148006100Y-114091374D01*
X148413900Y-114091374D01*
X148413900Y-114308626D01*
X148497039Y-114509341D01*
X148650659Y-114662961D01*
X148851374Y-114746100D01*
X149068626Y-114746100D01*
X149269341Y-114662961D01*
X149422961Y-114509341D01*
X149506100Y-114308626D01*
X149506100Y-114091374D01*
X149422961Y-113890659D01*
X149269341Y-113737039D01*
X149068626Y-113653900D01*
X148851374Y-113653900D01*
X148650659Y-113737039D01*
X148497039Y-113890659D01*
X148413900Y-114091374D01*
X148006100Y-114091374D01*
X147922961Y-113890659D01*
X147769341Y-113737039D01*
X147568626Y-113653900D01*
X147351374Y-113653900D01*
X147150659Y-113737039D01*
X146997039Y-113890659D01*
X146913900Y-114091374D01*
X146506100Y-114091374D01*
X146422961Y-113890659D01*
X146269341Y-113737039D01*
X146068626Y-113653900D01*
X145851374Y-113653900D01*
X145650659Y-113737039D01*
X145497039Y-113890659D01*
X145413900Y-114091374D01*
X145006100Y-114091374D01*
X144922961Y-113890659D01*
X144769341Y-113737039D01*
X144568626Y-113653900D01*
X144351374Y-113653900D01*
X144150659Y-113737039D01*
X143997039Y-113890659D01*
X143913900Y-114091374D01*
X143506100Y-114091374D01*
X143422961Y-113890659D01*
X143269341Y-113737039D01*
X143068626Y-113653900D01*
X142851374Y-113653900D01*
X142650659Y-113737039D01*
X142497039Y-113890659D01*
X142413900Y-114091374D01*
X141742535Y-114091374D01*
X141756100Y-114058626D01*
X141756100Y-113841374D01*
X141672961Y-113640659D01*
X141519341Y-113487039D01*
X141318626Y-113403900D01*
X141101374Y-113403900D01*
X140900659Y-113487039D01*
X140747039Y-113640659D01*
X140663900Y-113841374D01*
X140663900Y-113981598D01*
X140519341Y-113837039D01*
X140318626Y-113753900D01*
X140101374Y-113753900D01*
X139900659Y-113837039D01*
X139747039Y-113990659D01*
X139663900Y-114191374D01*
X138951113Y-114191374D01*
X139006100Y-114058626D01*
X139006100Y-113841374D01*
X138922961Y-113640659D01*
X138769341Y-113487039D01*
X138679921Y-113450000D01*
X138769341Y-113412961D01*
X138922961Y-113259341D01*
X139006100Y-113058626D01*
X139006100Y-112841374D01*
X138922961Y-112640659D01*
X138769341Y-112487039D01*
X138679921Y-112450000D01*
X138769341Y-112412961D01*
X138922961Y-112259341D01*
X139006100Y-112058626D01*
X139006100Y-111841374D01*
X138922961Y-111640659D01*
X138769341Y-111487039D01*
X138568626Y-111403900D01*
X138351374Y-111403900D01*
X138150659Y-111487039D01*
X137997039Y-111640659D01*
X137960000Y-111730079D01*
X137922961Y-111640659D01*
X137769341Y-111487039D01*
X137679921Y-111450000D01*
X137769341Y-111412961D01*
X137922961Y-111259341D01*
X138006100Y-111058626D01*
X138006100Y-110841374D01*
X137922961Y-110640659D01*
X137769341Y-110487039D01*
X137568626Y-110403900D01*
X137351374Y-110403900D01*
X137150659Y-110487039D01*
X136997039Y-110640659D01*
X136913900Y-110841374D01*
X136506100Y-110841374D01*
X136422961Y-110640659D01*
X136269341Y-110487039D01*
X136068626Y-110403900D01*
X135851374Y-110403900D01*
X135650659Y-110487039D01*
X135497039Y-110640659D01*
X135413900Y-110841374D01*
X131373676Y-110841374D01*
X131269341Y-110737039D01*
X131068626Y-110653900D01*
X130851374Y-110653900D01*
X130650659Y-110737039D01*
X130497039Y-110890659D01*
X130413900Y-111091374D01*
X127006100Y-111091374D01*
X126922961Y-110890659D01*
X126769341Y-110737039D01*
X126568626Y-110653900D01*
X126351374Y-110653900D01*
X126174500Y-110727164D01*
X126174500Y-110172836D01*
X126351374Y-110246100D01*
X126568626Y-110246100D01*
X126769341Y-110162961D01*
X126922961Y-110009341D01*
X127006100Y-109808626D01*
X127006100Y-109591374D01*
X130413900Y-109591374D01*
X130413900Y-109808626D01*
X130497039Y-110009341D01*
X130650659Y-110162961D01*
X130851374Y-110246100D01*
X131068626Y-110246100D01*
X131269341Y-110162961D01*
X131422961Y-110009341D01*
X131506100Y-109808626D01*
X131506100Y-109591374D01*
X131913900Y-109591374D01*
X131913900Y-109808626D01*
X131997039Y-110009341D01*
X132150659Y-110162961D01*
X132351374Y-110246100D01*
X132568626Y-110246100D01*
X132769341Y-110162961D01*
X132922961Y-110009341D01*
X133006100Y-109808626D01*
X133006100Y-109591374D01*
X132922961Y-109390659D01*
X132769341Y-109237039D01*
X132568626Y-109153900D01*
X132351374Y-109153900D01*
X132150659Y-109237039D01*
X131997039Y-109390659D01*
X131913900Y-109591374D01*
X131506100Y-109591374D01*
X131422961Y-109390659D01*
X131269341Y-109237039D01*
X131068626Y-109153900D01*
X130851374Y-109153900D01*
X130650659Y-109237039D01*
X130497039Y-109390659D01*
X130413900Y-109591374D01*
X127006100Y-109591374D01*
X126922961Y-109390659D01*
X126769341Y-109237039D01*
X126568626Y-109153900D01*
X126351374Y-109153900D01*
X126174500Y-109227164D01*
X126174500Y-108991374D01*
X135313900Y-108991374D01*
X135313900Y-109208626D01*
X135397039Y-109409341D01*
X135550659Y-109562961D01*
X135751374Y-109646100D01*
X135968626Y-109646100D01*
X136169341Y-109562961D01*
X136322961Y-109409341D01*
X136406100Y-109208626D01*
X136406100Y-108991374D01*
X136343968Y-108841374D01*
X136413900Y-108841374D01*
X136413900Y-109058626D01*
X136497039Y-109259341D01*
X136650659Y-109412961D01*
X136851374Y-109496100D01*
X136991554Y-109496100D01*
X136997039Y-109509341D01*
X137150659Y-109662961D01*
X137351374Y-109746100D01*
X137568626Y-109746100D01*
X137769341Y-109662961D01*
X137922961Y-109509341D01*
X138006100Y-109308626D01*
X138006100Y-109091374D01*
X137922961Y-108890659D01*
X137769341Y-108737039D01*
X137568626Y-108653900D01*
X137428446Y-108653900D01*
X137422961Y-108640659D01*
X137269341Y-108487039D01*
X137068626Y-108403900D01*
X136851374Y-108403900D01*
X136650659Y-108487039D01*
X136497039Y-108640659D01*
X136413900Y-108841374D01*
X136343968Y-108841374D01*
X136322961Y-108790659D01*
X136169341Y-108637039D01*
X135968626Y-108553900D01*
X135751374Y-108553900D01*
X135550659Y-108637039D01*
X135397039Y-108790659D01*
X135313900Y-108991374D01*
X126174500Y-108991374D01*
X126174500Y-108672836D01*
X126351374Y-108746100D01*
X126568626Y-108746100D01*
X126769341Y-108662961D01*
X126922961Y-108509341D01*
X127006100Y-108308626D01*
X127006100Y-108091374D01*
X129913900Y-108091374D01*
X129913900Y-108308626D01*
X129997039Y-108509341D01*
X130150659Y-108662961D01*
X130351374Y-108746100D01*
X130568626Y-108746100D01*
X130769341Y-108662961D01*
X130922961Y-108509341D01*
X131006100Y-108308626D01*
X131006100Y-108091374D01*
X134413900Y-108091374D01*
X134413900Y-108308626D01*
X134497039Y-108509341D01*
X134650659Y-108662961D01*
X134851374Y-108746100D01*
X135068626Y-108746100D01*
X135269341Y-108662961D01*
X135422961Y-108509341D01*
X135506100Y-108308626D01*
X135506100Y-108091374D01*
X135422961Y-107890659D01*
X135269341Y-107737039D01*
X135068626Y-107653900D01*
X134851374Y-107653900D01*
X134650659Y-107737039D01*
X134497039Y-107890659D01*
X134413900Y-108091374D01*
X131006100Y-108091374D01*
X130922961Y-107890659D01*
X130769341Y-107737039D01*
X130568626Y-107653900D01*
X130351374Y-107653900D01*
X130150659Y-107737039D01*
X129997039Y-107890659D01*
X129913900Y-108091374D01*
X127006100Y-108091374D01*
X126922961Y-107890659D01*
X126769341Y-107737039D01*
X126568626Y-107653900D01*
X126351374Y-107653900D01*
X126174500Y-107727164D01*
X126174500Y-107172836D01*
X126351374Y-107246100D01*
X126568626Y-107246100D01*
X126769341Y-107162961D01*
X126922961Y-107009341D01*
X127006100Y-106808626D01*
X127006100Y-106591374D01*
X129913900Y-106591374D01*
X129913900Y-106808626D01*
X129997039Y-107009341D01*
X130150659Y-107162961D01*
X130351374Y-107246100D01*
X130568626Y-107246100D01*
X130769341Y-107162961D01*
X130922961Y-107009341D01*
X131006100Y-106808626D01*
X131006100Y-106591374D01*
X130922961Y-106390659D01*
X130769341Y-106237039D01*
X130568626Y-106153900D01*
X130351374Y-106153900D01*
X130150659Y-106237039D01*
X129997039Y-106390659D01*
X129913900Y-106591374D01*
X127006100Y-106591374D01*
X126922961Y-106390659D01*
X126769341Y-106237039D01*
X126568626Y-106153900D01*
X126351374Y-106153900D01*
X126174500Y-106227164D01*
X126174500Y-105841374D01*
X131413900Y-105841374D01*
X131413900Y-106058626D01*
X131497039Y-106259341D01*
X131650659Y-106412961D01*
X131851374Y-106496100D01*
X132068626Y-106496100D01*
X132269341Y-106412961D01*
X132422961Y-106259341D01*
X132506100Y-106058626D01*
X132506100Y-105841374D01*
X132663900Y-105841374D01*
X132663900Y-106058626D01*
X132747039Y-106259341D01*
X132900659Y-106412961D01*
X133101374Y-106496100D01*
X133318626Y-106496100D01*
X133519341Y-106412961D01*
X133672961Y-106259341D01*
X133756100Y-106058626D01*
X133756100Y-105841374D01*
X133672961Y-105640659D01*
X133519341Y-105487039D01*
X133318626Y-105403900D01*
X133101374Y-105403900D01*
X132900659Y-105487039D01*
X132747039Y-105640659D01*
X132663900Y-105841374D01*
X132506100Y-105841374D01*
X132422961Y-105640659D01*
X132269341Y-105487039D01*
X132068626Y-105403900D01*
X131851374Y-105403900D01*
X131650659Y-105487039D01*
X131497039Y-105640659D01*
X131413900Y-105841374D01*
X126174500Y-105841374D01*
X126174500Y-105672836D01*
X126351374Y-105746100D01*
X126568626Y-105746100D01*
X126769341Y-105662961D01*
X126922961Y-105509341D01*
X127006100Y-105308626D01*
X127006100Y-105091374D01*
X130413900Y-105091374D01*
X130413900Y-105308626D01*
X130497039Y-105509341D01*
X130650659Y-105662961D01*
X130851374Y-105746100D01*
X131068626Y-105746100D01*
X131269341Y-105662961D01*
X131422961Y-105509341D01*
X131506100Y-105308626D01*
X131506100Y-105091374D01*
X131422961Y-104890659D01*
X131269341Y-104737039D01*
X131068626Y-104653900D01*
X130851374Y-104653900D01*
X130650659Y-104737039D01*
X130497039Y-104890659D01*
X130413900Y-105091374D01*
X127006100Y-105091374D01*
X126922961Y-104890659D01*
X126769341Y-104737039D01*
X126568626Y-104653900D01*
X126351374Y-104653900D01*
X126174500Y-104727164D01*
X126174500Y-104172836D01*
X126351374Y-104246100D01*
X126568626Y-104246100D01*
X126769341Y-104162961D01*
X126922961Y-104009341D01*
X127006100Y-103808626D01*
X127006100Y-103591374D01*
X130413900Y-103591374D01*
X130413900Y-103808626D01*
X130497039Y-104009341D01*
X130650659Y-104162961D01*
X130851374Y-104246100D01*
X131068626Y-104246100D01*
X131269341Y-104162961D01*
X131422961Y-104009341D01*
X131492535Y-103841374D01*
X135413900Y-103841374D01*
X135413900Y-104058626D01*
X135497039Y-104259341D01*
X135650659Y-104412961D01*
X135740079Y-104450000D01*
X135650659Y-104487039D01*
X135497039Y-104640659D01*
X135413900Y-104841374D01*
X135413900Y-105058626D01*
X135497039Y-105259341D01*
X135650659Y-105412961D01*
X135740079Y-105450000D01*
X135650659Y-105487039D01*
X135497039Y-105640659D01*
X135413900Y-105841374D01*
X135413900Y-106058626D01*
X135497039Y-106259341D01*
X135650659Y-106412961D01*
X135740079Y-106450000D01*
X135650659Y-106487039D01*
X135497039Y-106640659D01*
X135413900Y-106841374D01*
X135413900Y-107058626D01*
X135497039Y-107259341D01*
X135650659Y-107412961D01*
X135851374Y-107496100D01*
X136068626Y-107496100D01*
X136269341Y-107412961D01*
X136422961Y-107259341D01*
X136506100Y-107058626D01*
X136506100Y-106841374D01*
X136422961Y-106640659D01*
X136269341Y-106487039D01*
X136179921Y-106450000D01*
X136269341Y-106412961D01*
X136422961Y-106259341D01*
X136506100Y-106058626D01*
X136506100Y-105841374D01*
X136422961Y-105640659D01*
X136269341Y-105487039D01*
X136179921Y-105450000D01*
X136269341Y-105412961D01*
X136422961Y-105259341D01*
X136506100Y-105058626D01*
X136506100Y-104841374D01*
X136422961Y-104640659D01*
X136269341Y-104487039D01*
X136179921Y-104450000D01*
X136269341Y-104412961D01*
X136422961Y-104259341D01*
X136506100Y-104058626D01*
X136506100Y-103841374D01*
X136913900Y-103841374D01*
X136913900Y-104058626D01*
X136997039Y-104259341D01*
X137150659Y-104412961D01*
X137240079Y-104450000D01*
X137150659Y-104487039D01*
X136997039Y-104640659D01*
X136913900Y-104841374D01*
X136913900Y-105058626D01*
X136997039Y-105259341D01*
X137150659Y-105412961D01*
X137240079Y-105450000D01*
X137150659Y-105487039D01*
X136997039Y-105640659D01*
X136913900Y-105841374D01*
X136913900Y-106058626D01*
X136997039Y-106259341D01*
X137150659Y-106412961D01*
X137240079Y-106450000D01*
X137150659Y-106487039D01*
X136997039Y-106640659D01*
X136913900Y-106841374D01*
X136913900Y-107058626D01*
X136997039Y-107259341D01*
X137150659Y-107412961D01*
X137351374Y-107496100D01*
X137391598Y-107496100D01*
X137247039Y-107640659D01*
X137163900Y-107841374D01*
X137163900Y-108058626D01*
X137247039Y-108259341D01*
X137400659Y-108412961D01*
X137601374Y-108496100D01*
X137818626Y-108496100D01*
X138019341Y-108412961D01*
X138172961Y-108259341D01*
X138256100Y-108058626D01*
X138256100Y-107841374D01*
X138172961Y-107640659D01*
X138019341Y-107487039D01*
X137818626Y-107403900D01*
X137778402Y-107403900D01*
X137922961Y-107259341D01*
X138006100Y-107058626D01*
X138006100Y-106841374D01*
X137922961Y-106640659D01*
X137769341Y-106487039D01*
X137679921Y-106450000D01*
X137769341Y-106412961D01*
X137922961Y-106259341D01*
X138006100Y-106058626D01*
X138006100Y-105841374D01*
X137922961Y-105640659D01*
X137769341Y-105487039D01*
X137679921Y-105450000D01*
X137769341Y-105412961D01*
X137922961Y-105259341D01*
X138006100Y-105058626D01*
X138006100Y-104841374D01*
X138913900Y-104841374D01*
X138913900Y-105058626D01*
X138997039Y-105259341D01*
X139150659Y-105412961D01*
X139240079Y-105450000D01*
X139150659Y-105487039D01*
X138997039Y-105640659D01*
X138913900Y-105841374D01*
X138913900Y-106058626D01*
X138997039Y-106259341D01*
X139150659Y-106412961D01*
X139240079Y-106450000D01*
X139150659Y-106487039D01*
X138997039Y-106640659D01*
X138913900Y-106841374D01*
X138913900Y-107058626D01*
X138997039Y-107259341D01*
X139150659Y-107412961D01*
X139240079Y-107450000D01*
X139150659Y-107487039D01*
X138997039Y-107640659D01*
X138913900Y-107841374D01*
X138913900Y-108058626D01*
X138997039Y-108259341D01*
X139150659Y-108412961D01*
X139240079Y-108450000D01*
X139150659Y-108487039D01*
X138997039Y-108640659D01*
X138913900Y-108841374D01*
X138913900Y-109058626D01*
X138997039Y-109259341D01*
X139150659Y-109412961D01*
X139240079Y-109450000D01*
X139150659Y-109487039D01*
X138997039Y-109640659D01*
X138913900Y-109841374D01*
X138913900Y-110058626D01*
X138997039Y-110259341D01*
X139150659Y-110412961D01*
X139351374Y-110496100D01*
X139568626Y-110496100D01*
X139769341Y-110412961D01*
X139922961Y-110259341D01*
X139960000Y-110169921D01*
X139997039Y-110259341D01*
X140150659Y-110412961D01*
X140240079Y-110450000D01*
X140150659Y-110487039D01*
X139997039Y-110640659D01*
X139913900Y-110841374D01*
X139913900Y-111058626D01*
X139997039Y-111259341D01*
X140150659Y-111412961D01*
X140240079Y-111450000D01*
X140150659Y-111487039D01*
X139997039Y-111640659D01*
X139913900Y-111841374D01*
X139913900Y-112058626D01*
X139953364Y-112153900D01*
X139851374Y-112153900D01*
X139650659Y-112237039D01*
X139497039Y-112390659D01*
X139413900Y-112591374D01*
X139413900Y-112808626D01*
X139497039Y-113009341D01*
X139650659Y-113162961D01*
X139851374Y-113246100D01*
X140068626Y-113246100D01*
X140269341Y-113162961D01*
X140422961Y-113009341D01*
X140506100Y-112808626D01*
X140506100Y-112591374D01*
X140466636Y-112496100D01*
X140568626Y-112496100D01*
X140769341Y-112412961D01*
X140922961Y-112259341D01*
X141006100Y-112058626D01*
X141006100Y-111841374D01*
X140922961Y-111640659D01*
X140769341Y-111487039D01*
X140679921Y-111450000D01*
X140769341Y-111412961D01*
X140922961Y-111259341D01*
X141006100Y-111058626D01*
X141006100Y-110841374D01*
X140922961Y-110640659D01*
X140769341Y-110487039D01*
X140679921Y-110450000D01*
X140769341Y-110412961D01*
X140922961Y-110259341D01*
X141006100Y-110058626D01*
X141006100Y-109841374D01*
X140922961Y-109640659D01*
X140769341Y-109487039D01*
X140679921Y-109450000D01*
X140769341Y-109412961D01*
X140922961Y-109259341D01*
X141006100Y-109058626D01*
X141006100Y-108841374D01*
X140922961Y-108640659D01*
X140769341Y-108487039D01*
X140679921Y-108450000D01*
X140769341Y-108412961D01*
X140922961Y-108259341D01*
X141006100Y-108058626D01*
X141006100Y-107841374D01*
X140922961Y-107640659D01*
X140769341Y-107487039D01*
X140679921Y-107450000D01*
X140769341Y-107412961D01*
X140922961Y-107259341D01*
X141006100Y-107058626D01*
X141006100Y-106841374D01*
X140922961Y-106640659D01*
X140769341Y-106487039D01*
X140679921Y-106450000D01*
X140769341Y-106412961D01*
X140922961Y-106259341D01*
X141006100Y-106058626D01*
X141006100Y-105841374D01*
X140922961Y-105640659D01*
X140769341Y-105487039D01*
X140568626Y-105403900D01*
X140351374Y-105403900D01*
X140150659Y-105487039D01*
X139997039Y-105640659D01*
X139960000Y-105730079D01*
X139922961Y-105640659D01*
X139769341Y-105487039D01*
X139679921Y-105450000D01*
X139769341Y-105412961D01*
X139922961Y-105259341D01*
X140006100Y-105058626D01*
X140006100Y-104841374D01*
X139922961Y-104640659D01*
X139769341Y-104487039D01*
X139568626Y-104403900D01*
X139351374Y-104403900D01*
X139150659Y-104487039D01*
X138997039Y-104640659D01*
X138913900Y-104841374D01*
X138006100Y-104841374D01*
X137922961Y-104640659D01*
X137769341Y-104487039D01*
X137679921Y-104450000D01*
X137769341Y-104412961D01*
X137922961Y-104259341D01*
X138006100Y-104058626D01*
X138006100Y-103841374D01*
X137922961Y-103640659D01*
X137769341Y-103487039D01*
X137568626Y-103403900D01*
X137351374Y-103403900D01*
X137150659Y-103487039D01*
X136997039Y-103640659D01*
X136913900Y-103841374D01*
X136506100Y-103841374D01*
X136422961Y-103640659D01*
X136269341Y-103487039D01*
X136068626Y-103403900D01*
X135851374Y-103403900D01*
X135650659Y-103487039D01*
X135497039Y-103640659D01*
X135413900Y-103841374D01*
X131492535Y-103841374D01*
X131506100Y-103808626D01*
X131506100Y-103591374D01*
X131422961Y-103390659D01*
X131373676Y-103341374D01*
X139913900Y-103341374D01*
X139913900Y-103558626D01*
X139997039Y-103759341D01*
X140150659Y-103912961D01*
X140351374Y-103996100D01*
X140568626Y-103996100D01*
X140731269Y-103928731D01*
X140663900Y-104091374D01*
X140663900Y-104308626D01*
X140747039Y-104509341D01*
X140900659Y-104662961D01*
X141101374Y-104746100D01*
X141203364Y-104746100D01*
X141163900Y-104841374D01*
X141163900Y-105058626D01*
X141247039Y-105259341D01*
X141400659Y-105412961D01*
X141490079Y-105450000D01*
X141400659Y-105487039D01*
X141247039Y-105640659D01*
X141163900Y-105841374D01*
X141163900Y-106058626D01*
X141247039Y-106259341D01*
X141400659Y-106412961D01*
X141490079Y-106450000D01*
X141400659Y-106487039D01*
X141247039Y-106640659D01*
X141163900Y-106841374D01*
X141163900Y-107058626D01*
X141247039Y-107259341D01*
X141400659Y-107412961D01*
X141490079Y-107450000D01*
X141400659Y-107487039D01*
X141247039Y-107640659D01*
X141163900Y-107841374D01*
X141163900Y-108058626D01*
X141247039Y-108259341D01*
X141400659Y-108412961D01*
X141490079Y-108450000D01*
X141400659Y-108487039D01*
X141247039Y-108640659D01*
X141163900Y-108841374D01*
X141163900Y-109058626D01*
X141247039Y-109259341D01*
X141400659Y-109412961D01*
X141490079Y-109450000D01*
X141400659Y-109487039D01*
X141247039Y-109640659D01*
X141163900Y-109841374D01*
X141163900Y-110058626D01*
X141247039Y-110259341D01*
X141400659Y-110412961D01*
X141490079Y-110450000D01*
X141400659Y-110487039D01*
X141247039Y-110640659D01*
X141163900Y-110841374D01*
X141163900Y-111058626D01*
X141247039Y-111259341D01*
X141400659Y-111412961D01*
X141490079Y-111450000D01*
X141400659Y-111487039D01*
X141247039Y-111640659D01*
X141163900Y-111841374D01*
X141163900Y-112058626D01*
X141247039Y-112259341D01*
X141400659Y-112412961D01*
X141490079Y-112450000D01*
X141400659Y-112487039D01*
X141247039Y-112640659D01*
X141163900Y-112841374D01*
X141163900Y-113058626D01*
X141247039Y-113259341D01*
X141400659Y-113412961D01*
X141601374Y-113496100D01*
X141818626Y-113496100D01*
X142019341Y-113412961D01*
X142172961Y-113259341D01*
X142256100Y-113058626D01*
X142256100Y-112841374D01*
X142172961Y-112640659D01*
X142019341Y-112487039D01*
X141929921Y-112450000D01*
X142019341Y-112412961D01*
X142172961Y-112259341D01*
X142256100Y-112058626D01*
X142256100Y-111841374D01*
X142172961Y-111640659D01*
X142019341Y-111487039D01*
X141929921Y-111450000D01*
X142019341Y-111412961D01*
X142172961Y-111259341D01*
X142256100Y-111058626D01*
X142256100Y-110841374D01*
X142172961Y-110640659D01*
X142019341Y-110487039D01*
X141929921Y-110450000D01*
X142019341Y-110412961D01*
X142172961Y-110259341D01*
X142256100Y-110058626D01*
X142256100Y-109841374D01*
X142172961Y-109640659D01*
X142019341Y-109487039D01*
X141929921Y-109450000D01*
X142019341Y-109412961D01*
X142172961Y-109259341D01*
X142256100Y-109058626D01*
X142256100Y-108841374D01*
X142172961Y-108640659D01*
X142019341Y-108487039D01*
X141929921Y-108450000D01*
X142019341Y-108412961D01*
X142172961Y-108259341D01*
X142256100Y-108058626D01*
X142256100Y-107841374D01*
X142172961Y-107640659D01*
X142019341Y-107487039D01*
X141929921Y-107450000D01*
X142019341Y-107412961D01*
X142172961Y-107259341D01*
X142256100Y-107058626D01*
X142256100Y-106841374D01*
X142172961Y-106640659D01*
X142019341Y-106487039D01*
X141929921Y-106450000D01*
X142019341Y-106412961D01*
X142172961Y-106259341D01*
X142256100Y-106058626D01*
X142256100Y-105841374D01*
X142172961Y-105640659D01*
X142019341Y-105487039D01*
X141929921Y-105450000D01*
X142019341Y-105412961D01*
X142172961Y-105259341D01*
X142256100Y-105058626D01*
X142256100Y-104841374D01*
X142172961Y-104640659D01*
X142019341Y-104487039D01*
X141818626Y-104403900D01*
X141716636Y-104403900D01*
X141756100Y-104308626D01*
X141756100Y-104091374D01*
X141672961Y-103890659D01*
X141519341Y-103737039D01*
X141318626Y-103653900D01*
X141101374Y-103653900D01*
X140938731Y-103721269D01*
X141006100Y-103558626D01*
X141006100Y-103341374D01*
X140922961Y-103140659D01*
X140769341Y-102987039D01*
X140568626Y-102903900D01*
X140351374Y-102903900D01*
X140150659Y-102987039D01*
X139997039Y-103140659D01*
X139913900Y-103341374D01*
X131373676Y-103341374D01*
X131269341Y-103237039D01*
X131068626Y-103153900D01*
X130851374Y-103153900D01*
X130650659Y-103237039D01*
X130497039Y-103390659D01*
X130413900Y-103591374D01*
X127006100Y-103591374D01*
X126922961Y-103390659D01*
X126769341Y-103237039D01*
X126568626Y-103153900D01*
X126351374Y-103153900D01*
X126174500Y-103227164D01*
X126174500Y-102672836D01*
X126351374Y-102746100D01*
X126568626Y-102746100D01*
X126769341Y-102662961D01*
X126922961Y-102509341D01*
X127006100Y-102308626D01*
X127006100Y-102091374D01*
X130413900Y-102091374D01*
X130413900Y-102308626D01*
X130497039Y-102509341D01*
X130650659Y-102662961D01*
X130851374Y-102746100D01*
X131068626Y-102746100D01*
X131269341Y-102662961D01*
X131340928Y-102591374D01*
X131663900Y-102591374D01*
X131663900Y-102808626D01*
X131747039Y-103009341D01*
X131900659Y-103162961D01*
X132101374Y-103246100D01*
X132318626Y-103246100D01*
X132519341Y-103162961D01*
X132672961Y-103009341D01*
X132756100Y-102808626D01*
X132756100Y-102591374D01*
X132672961Y-102390659D01*
X132519341Y-102237039D01*
X132318626Y-102153900D01*
X132101374Y-102153900D01*
X131900659Y-102237039D01*
X131747039Y-102390659D01*
X131663900Y-102591374D01*
X131340928Y-102591374D01*
X131422961Y-102509341D01*
X131506100Y-102308626D01*
X131506100Y-102091374D01*
X131422961Y-101890659D01*
X131269341Y-101737039D01*
X131068626Y-101653900D01*
X130851374Y-101653900D01*
X130650659Y-101737039D01*
X130497039Y-101890659D01*
X130413900Y-102091374D01*
X127006100Y-102091374D01*
X126922961Y-101890659D01*
X126769341Y-101737039D01*
X126568626Y-101653900D01*
X126351374Y-101653900D01*
X126174500Y-101727164D01*
X126174500Y-101172836D01*
X126351374Y-101246100D01*
X126568626Y-101246100D01*
X126769341Y-101162961D01*
X126922961Y-101009341D01*
X127006100Y-100808626D01*
X127006100Y-100591374D01*
X126922961Y-100390659D01*
X126769341Y-100237039D01*
X126568626Y-100153900D01*
X126351374Y-100153900D01*
X126174500Y-100227164D01*
X126174500Y-99672836D01*
X126351374Y-99746100D01*
X126568626Y-99746100D01*
X126769341Y-99662961D01*
X126922961Y-99509341D01*
X127006100Y-99308626D01*
X127006100Y-99091374D01*
X126922961Y-98890659D01*
X126769341Y-98737039D01*
X126568626Y-98653900D01*
X126351374Y-98653900D01*
X126174500Y-98727164D01*
X126174500Y-98172836D01*
X126351374Y-98246100D01*
X126568626Y-98246100D01*
X126769341Y-98162961D01*
X126922961Y-98009341D01*
X127006100Y-97808626D01*
X127006100Y-97591374D01*
X126922961Y-97390659D01*
X126769341Y-97237039D01*
X126568626Y-97153900D01*
X126351374Y-97153900D01*
X126174500Y-97227164D01*
X126174500Y-96672836D01*
X126351374Y-96746100D01*
X126568626Y-96746100D01*
X126769341Y-96662961D01*
X126922961Y-96509341D01*
X127006100Y-96308626D01*
X127006100Y-96091374D01*
X126946919Y-95948500D01*
X127473081Y-95948500D01*
X127413900Y-96091374D01*
G04 #@! TD*
M02*
