G04 #@! TF.GenerationSoftware,KiCad,Pcbnew,(5.0.0)*
G04 #@! TF.CreationDate,2018-09-17T15:57:07-05:00*
G04 #@! TF.ProjectId,TESEO-LIV3F_uBUS,544553454F2D4C495633465F75425553,rev?*
G04 #@! TF.SameCoordinates,Original*
G04 #@! TF.FileFunction,Copper,L1,Top,Signal*
G04 #@! TF.FilePolarity,Positive*
%FSLAX46Y46*%
G04 Gerber Fmt 4.6, Leading zero omitted, Abs format (unit mm)*
G04 Created by KiCad (PCBNEW (5.0.0)) date 09/17/18 15:57:07*
%MOMM*%
%LPD*%
G01*
G04 APERTURE LIST*
G04 #@! TA.AperFunction,SMDPad,CuDef*
%ADD10R,0.400000X0.600000*%
G04 #@! TD*
G04 #@! TA.AperFunction,SMDPad,CuDef*
%ADD11R,0.600000X0.400000*%
G04 #@! TD*
G04 #@! TA.AperFunction,SMDPad,CuDef*
%ADD12R,0.900000X1.600000*%
G04 #@! TD*
G04 #@! TA.AperFunction,ComponentPad*
%ADD13R,1.700000X1.700000*%
G04 #@! TD*
G04 #@! TA.AperFunction,ComponentPad*
%ADD14O,1.700000X1.700000*%
G04 #@! TD*
G04 #@! TA.AperFunction,ComponentPad*
%ADD15C,1.700000*%
G04 #@! TD*
G04 #@! TA.AperFunction,SMDPad,CuDef*
%ADD16R,4.000000X4.000000*%
G04 #@! TD*
G04 #@! TA.AperFunction,SMDPad,CuDef*
%ADD17R,2.900000X3.500000*%
G04 #@! TD*
G04 #@! TA.AperFunction,SMDPad,CuDef*
%ADD18R,0.500000X0.600000*%
G04 #@! TD*
G04 #@! TA.AperFunction,SMDPad,CuDef*
%ADD19R,0.750000X0.800000*%
G04 #@! TD*
G04 #@! TA.AperFunction,SMDPad,CuDef*
%ADD20R,0.600000X0.500000*%
G04 #@! TD*
G04 #@! TA.AperFunction,Conductor*
%ADD21C,0.100000*%
G04 #@! TD*
G04 #@! TA.AperFunction,SMDPad,CuDef*
%ADD22C,0.400000*%
G04 #@! TD*
G04 #@! TA.AperFunction,SMDPad,CuDef*
%ADD23C,0.875000*%
G04 #@! TD*
G04 #@! TA.AperFunction,SMDPad,CuDef*
%ADD24R,0.325000X0.250000*%
G04 #@! TD*
G04 #@! TA.AperFunction,SMDPad,CuDef*
%ADD25R,2.290000X5.080000*%
G04 #@! TD*
G04 #@! TA.AperFunction,SMDPad,CuDef*
%ADD26R,2.420000X5.080000*%
G04 #@! TD*
G04 #@! TA.AperFunction,ViaPad*
%ADD27C,0.970000*%
G04 #@! TD*
G04 #@! TA.AperFunction,Conductor*
%ADD28R,0.460000X0.950000*%
G04 #@! TD*
G04 #@! TA.AperFunction,SMDPad,CuDef*
%ADD29C,0.590000*%
G04 #@! TD*
G04 #@! TA.AperFunction,SMDPad,CuDef*
%ADD30R,0.800000X0.900000*%
G04 #@! TD*
G04 #@! TA.AperFunction,SMDPad,CuDef*
%ADD31R,0.500000X0.900000*%
G04 #@! TD*
G04 #@! TA.AperFunction,SMDPad,CuDef*
%ADD32R,0.400000X0.650000*%
G04 #@! TD*
G04 #@! TA.AperFunction,SMDPad,CuDef*
%ADD33R,0.245000X0.245000*%
G04 #@! TD*
G04 #@! TA.AperFunction,SMDPad,CuDef*
%ADD34R,1.000000X1.250000*%
G04 #@! TD*
G04 #@! TA.AperFunction,SMDPad,CuDef*
%ADD35R,0.900000X0.500000*%
G04 #@! TD*
G04 #@! TA.AperFunction,ViaPad*
%ADD36C,0.800000*%
G04 #@! TD*
G04 #@! TA.AperFunction,ViaPad*
%ADD37C,0.457200*%
G04 #@! TD*
G04 #@! TA.AperFunction,Conductor*
%ADD38C,0.250000*%
G04 #@! TD*
G04 #@! TA.AperFunction,Conductor*
%ADD39C,0.350000*%
G04 #@! TD*
G04 #@! TA.AperFunction,Conductor*
%ADD40C,0.150000*%
G04 #@! TD*
G04 #@! TA.AperFunction,Conductor*
%ADD41C,0.127000*%
G04 #@! TD*
G04 APERTURE END LIST*
D10*
G04 #@! TO.P,R7,2*
G04 #@! TO.N,Net-(C1-Pad1)*
X135110000Y-103100000D03*
G04 #@! TO.P,R7,1*
G04 #@! TO.N,Net-(C2-Pad1)*
X134210000Y-103100000D03*
G04 #@! TD*
D11*
G04 #@! TO.P,R9,1*
G04 #@! TO.N,Net-(C7-Pad1)*
X134460000Y-112650000D03*
G04 #@! TO.P,R9,2*
G04 #@! TO.N,/VCC_RF*
X134460000Y-113550000D03*
G04 #@! TD*
D10*
G04 #@! TO.P,R8,1*
G04 #@! TO.N,Net-(R8-Pad1)*
X133810000Y-110100000D03*
G04 #@! TO.P,R8,2*
G04 #@! TO.N,/ANT_OFF*
X134710000Y-110100000D03*
G04 #@! TD*
D12*
G04 #@! TO.P,U3,10*
G04 #@! TO.N,GND*
X140360000Y-115500000D03*
G04 #@! TO.P,U3,11*
G04 #@! TO.N,/RF_IN*
X139260000Y-115500000D03*
G04 #@! TO.P,U3,12*
G04 #@! TO.N,GND*
X138160000Y-115500000D03*
G04 #@! TO.P,U3,13*
G04 #@! TO.N,/ANT_OFF*
X137060000Y-115500000D03*
G04 #@! TO.P,U3,14*
G04 #@! TO.N,/VCC_RF*
X135960000Y-115500000D03*
G04 #@! TO.P,U3,15*
G04 #@! TO.N,Net-(U3-Pad15)*
X134860000Y-115500000D03*
G04 #@! TO.P,U3,16*
G04 #@! TO.N,/SDA*
X133760000Y-115500000D03*
G04 #@! TO.P,U3,17*
G04 #@! TO.N,/SCL*
X132660000Y-115500000D03*
G04 #@! TO.P,U3,18*
G04 #@! TO.N,Net-(U3-Pad18)*
X131560000Y-115500000D03*
G04 #@! TO.P,U3,9*
G04 #@! TO.N,/RESET*
X140360000Y-124700000D03*
G04 #@! TO.P,U3,8*
G04 #@! TO.N,+3V3*
X139260000Y-124700000D03*
G04 #@! TO.P,U3,7*
X138160000Y-124700000D03*
G04 #@! TO.P,U3,6*
G04 #@! TO.N,+BATT*
X137060000Y-124700000D03*
G04 #@! TO.P,U3,5*
G04 #@! TO.N,/EXI*
X135960000Y-124700000D03*
G04 #@! TO.P,U3,4*
G04 #@! TO.N,/PPS*
X134860000Y-124700000D03*
G04 #@! TO.P,U3,3*
G04 #@! TO.N,/RX*
X133760000Y-124700000D03*
G04 #@! TO.P,U3,2*
G04 #@! TO.N,/TX*
X132660000Y-124700000D03*
G04 #@! TO.P,U3,1*
G04 #@! TO.N,GND*
X131560000Y-124700000D03*
G04 #@! TD*
D13*
G04 #@! TO.P,J1,1*
G04 #@! TO.N,Net-(J1-Pad1)*
X127000000Y-116840000D03*
D14*
G04 #@! TO.P,J1,2*
G04 #@! TO.N,/RESET*
X127000000Y-119380000D03*
G04 #@! TO.P,J1,3*
G04 #@! TO.N,Net-(J1-Pad3)*
X127000000Y-121920000D03*
G04 #@! TO.P,J1,4*
G04 #@! TO.N,Net-(J1-Pad4)*
X127000000Y-124460000D03*
G04 #@! TO.P,J1,5*
G04 #@! TO.N,Net-(J1-Pad5)*
X127000000Y-127000000D03*
G04 #@! TO.P,J1,6*
G04 #@! TO.N,Net-(J1-Pad6)*
X127000000Y-129540000D03*
G04 #@! TO.P,J1,7*
G04 #@! TO.N,+3V3*
X127000000Y-132080000D03*
G04 #@! TO.P,J1,8*
G04 #@! TO.N,GND*
X127000000Y-134620000D03*
G04 #@! TD*
G04 #@! TO.P,J2,8*
G04 #@! TO.N,GND*
X149860000Y-134620000D03*
G04 #@! TO.P,J2,7*
G04 #@! TO.N,Net-(J2-Pad7)*
X149860000Y-132080000D03*
G04 #@! TO.P,J2,6*
G04 #@! TO.N,/SDA*
X149860000Y-129540000D03*
G04 #@! TO.P,J2,5*
G04 #@! TO.N,/SCL*
X149860000Y-127000000D03*
G04 #@! TO.P,J2,4*
G04 #@! TO.N,/RX*
X149860000Y-124460000D03*
G04 #@! TO.P,J2,3*
G04 #@! TO.N,/TX*
X149860000Y-121920000D03*
G04 #@! TO.P,J2,2*
G04 #@! TO.N,/PPS*
X149860000Y-119380000D03*
D15*
G04 #@! TO.P,J2,1*
G04 #@! TO.N,/EXI*
X149860000Y-116840000D03*
G04 #@! TD*
D16*
G04 #@! TO.P,BT1,2*
G04 #@! TO.N,GND*
X138430000Y-131445000D03*
D17*
G04 #@! TO.P,BT1,1*
G04 #@! TO.N,+BATT*
X131830000Y-131445000D03*
X145030000Y-131445000D03*
G04 #@! TD*
D18*
G04 #@! TO.P,C1,1*
G04 #@! TO.N,Net-(C1-Pad1)*
X136060000Y-103050000D03*
G04 #@! TO.P,C1,2*
G04 #@! TO.N,GND*
X136060000Y-101950000D03*
G04 #@! TD*
D19*
G04 #@! TO.P,C3,2*
G04 #@! TO.N,+3V3*
X143060000Y-125850000D03*
G04 #@! TO.P,C3,1*
G04 #@! TO.N,GND*
X143060000Y-124350000D03*
G04 #@! TD*
D18*
G04 #@! TO.P,C4,2*
G04 #@! TO.N,Net-(C4-Pad2)*
X138460000Y-104100000D03*
G04 #@! TO.P,C4,1*
G04 #@! TO.N,Net-(C4-Pad1)*
X138460000Y-105200000D03*
G04 #@! TD*
D19*
G04 #@! TO.P,C5,1*
G04 #@! TO.N,GND*
X141860000Y-124350000D03*
G04 #@! TO.P,C5,2*
G04 #@! TO.N,+3V3*
X141860000Y-125850000D03*
G04 #@! TD*
D20*
G04 #@! TO.P,C6,1*
G04 #@! TO.N,/VCC_RF*
X136810000Y-109900000D03*
G04 #@! TO.P,C6,2*
G04 #@! TO.N,GND*
X135710000Y-109900000D03*
G04 #@! TD*
D18*
G04 #@! TO.P,C8,2*
G04 #@! TO.N,Net-(C8-Pad2)*
X139160000Y-112450000D03*
G04 #@! TO.P,C8,1*
G04 #@! TO.N,/RF_IN*
X139160000Y-113550000D03*
G04 #@! TD*
D21*
G04 #@! TO.N,Net-(C4-Pad2)*
G04 #@! TO.C,D1*
G36*
X138569802Y-101600482D02*
X138579509Y-101601921D01*
X138589028Y-101604306D01*
X138598268Y-101607612D01*
X138607140Y-101611808D01*
X138615557Y-101616853D01*
X138623439Y-101622699D01*
X138630711Y-101629289D01*
X138637301Y-101636561D01*
X138643147Y-101644443D01*
X138648192Y-101652860D01*
X138652388Y-101661732D01*
X138655694Y-101670972D01*
X138658079Y-101680491D01*
X138659518Y-101690198D01*
X138660000Y-101700000D01*
X138660000Y-101900000D01*
X138659518Y-101909802D01*
X138658079Y-101919509D01*
X138655694Y-101929028D01*
X138652388Y-101938268D01*
X138648192Y-101947140D01*
X138643147Y-101955557D01*
X138637301Y-101963439D01*
X138630711Y-101970711D01*
X138623439Y-101977301D01*
X138615557Y-101983147D01*
X138607140Y-101988192D01*
X138598268Y-101992388D01*
X138589028Y-101995694D01*
X138579509Y-101998079D01*
X138569802Y-101999518D01*
X138560000Y-102000000D01*
X138300000Y-102000000D01*
X138290198Y-101999518D01*
X138280491Y-101998079D01*
X138270972Y-101995694D01*
X138261732Y-101992388D01*
X138252860Y-101988192D01*
X138244443Y-101983147D01*
X138236561Y-101977301D01*
X138229289Y-101970711D01*
X138222699Y-101963439D01*
X138216853Y-101955557D01*
X138211808Y-101947140D01*
X138207612Y-101938268D01*
X138204306Y-101929028D01*
X138201921Y-101919509D01*
X138200482Y-101909802D01*
X138200000Y-101900000D01*
X138200000Y-101700000D01*
X138200482Y-101690198D01*
X138201921Y-101680491D01*
X138204306Y-101670972D01*
X138207612Y-101661732D01*
X138211808Y-101652860D01*
X138216853Y-101644443D01*
X138222699Y-101636561D01*
X138229289Y-101629289D01*
X138236561Y-101622699D01*
X138244443Y-101616853D01*
X138252860Y-101611808D01*
X138261732Y-101607612D01*
X138270972Y-101604306D01*
X138280491Y-101601921D01*
X138290198Y-101600482D01*
X138300000Y-101600000D01*
X138560000Y-101600000D01*
X138569802Y-101600482D01*
X138569802Y-101600482D01*
G37*
D22*
G04 #@! TD*
G04 #@! TO.P,D1,1*
G04 #@! TO.N,Net-(C4-Pad2)*
X138430000Y-101800000D03*
D21*
G04 #@! TO.N,GND*
G04 #@! TO.C,D1*
G36*
X137929802Y-101600482D02*
X137939509Y-101601921D01*
X137949028Y-101604306D01*
X137958268Y-101607612D01*
X137967140Y-101611808D01*
X137975557Y-101616853D01*
X137983439Y-101622699D01*
X137990711Y-101629289D01*
X137997301Y-101636561D01*
X138003147Y-101644443D01*
X138008192Y-101652860D01*
X138012388Y-101661732D01*
X138015694Y-101670972D01*
X138018079Y-101680491D01*
X138019518Y-101690198D01*
X138020000Y-101700000D01*
X138020000Y-101900000D01*
X138019518Y-101909802D01*
X138018079Y-101919509D01*
X138015694Y-101929028D01*
X138012388Y-101938268D01*
X138008192Y-101947140D01*
X138003147Y-101955557D01*
X137997301Y-101963439D01*
X137990711Y-101970711D01*
X137983439Y-101977301D01*
X137975557Y-101983147D01*
X137967140Y-101988192D01*
X137958268Y-101992388D01*
X137949028Y-101995694D01*
X137939509Y-101998079D01*
X137929802Y-101999518D01*
X137920000Y-102000000D01*
X137660000Y-102000000D01*
X137650198Y-101999518D01*
X137640491Y-101998079D01*
X137630972Y-101995694D01*
X137621732Y-101992388D01*
X137612860Y-101988192D01*
X137604443Y-101983147D01*
X137596561Y-101977301D01*
X137589289Y-101970711D01*
X137582699Y-101963439D01*
X137576853Y-101955557D01*
X137571808Y-101947140D01*
X137567612Y-101938268D01*
X137564306Y-101929028D01*
X137561921Y-101919509D01*
X137560482Y-101909802D01*
X137560000Y-101900000D01*
X137560000Y-101700000D01*
X137560482Y-101690198D01*
X137561921Y-101680491D01*
X137564306Y-101670972D01*
X137567612Y-101661732D01*
X137571808Y-101652860D01*
X137576853Y-101644443D01*
X137582699Y-101636561D01*
X137589289Y-101629289D01*
X137596561Y-101622699D01*
X137604443Y-101616853D01*
X137612860Y-101611808D01*
X137621732Y-101607612D01*
X137630972Y-101604306D01*
X137640491Y-101601921D01*
X137650198Y-101600482D01*
X137660000Y-101600000D01*
X137920000Y-101600000D01*
X137929802Y-101600482D01*
X137929802Y-101600482D01*
G37*
D22*
G04 #@! TD*
G04 #@! TO.P,D1,2*
G04 #@! TO.N,GND*
X137790000Y-101800000D03*
D21*
G04 #@! TO.N,Net-(D2-Pad2)*
G04 #@! TO.C,D2*
G36*
X132687691Y-127826053D02*
X132708926Y-127829203D01*
X132729750Y-127834419D01*
X132749962Y-127841651D01*
X132769368Y-127850830D01*
X132787781Y-127861866D01*
X132805024Y-127874654D01*
X132820930Y-127889070D01*
X132835346Y-127904976D01*
X132848134Y-127922219D01*
X132859170Y-127940632D01*
X132868349Y-127960038D01*
X132875581Y-127980250D01*
X132880797Y-128001074D01*
X132883947Y-128022309D01*
X132885000Y-128043750D01*
X132885000Y-128556250D01*
X132883947Y-128577691D01*
X132880797Y-128598926D01*
X132875581Y-128619750D01*
X132868349Y-128639962D01*
X132859170Y-128659368D01*
X132848134Y-128677781D01*
X132835346Y-128695024D01*
X132820930Y-128710930D01*
X132805024Y-128725346D01*
X132787781Y-128738134D01*
X132769368Y-128749170D01*
X132749962Y-128758349D01*
X132729750Y-128765581D01*
X132708926Y-128770797D01*
X132687691Y-128773947D01*
X132666250Y-128775000D01*
X132228750Y-128775000D01*
X132207309Y-128773947D01*
X132186074Y-128770797D01*
X132165250Y-128765581D01*
X132145038Y-128758349D01*
X132125632Y-128749170D01*
X132107219Y-128738134D01*
X132089976Y-128725346D01*
X132074070Y-128710930D01*
X132059654Y-128695024D01*
X132046866Y-128677781D01*
X132035830Y-128659368D01*
X132026651Y-128639962D01*
X132019419Y-128619750D01*
X132014203Y-128598926D01*
X132011053Y-128577691D01*
X132010000Y-128556250D01*
X132010000Y-128043750D01*
X132011053Y-128022309D01*
X132014203Y-128001074D01*
X132019419Y-127980250D01*
X132026651Y-127960038D01*
X132035830Y-127940632D01*
X132046866Y-127922219D01*
X132059654Y-127904976D01*
X132074070Y-127889070D01*
X132089976Y-127874654D01*
X132107219Y-127861866D01*
X132125632Y-127850830D01*
X132145038Y-127841651D01*
X132165250Y-127834419D01*
X132186074Y-127829203D01*
X132207309Y-127826053D01*
X132228750Y-127825000D01*
X132666250Y-127825000D01*
X132687691Y-127826053D01*
X132687691Y-127826053D01*
G37*
D23*
G04 #@! TD*
G04 #@! TO.P,D2,2*
G04 #@! TO.N,Net-(D2-Pad2)*
X132447500Y-128300000D03*
D21*
G04 #@! TO.N,GND*
G04 #@! TO.C,D2*
G36*
X131112691Y-127826053D02*
X131133926Y-127829203D01*
X131154750Y-127834419D01*
X131174962Y-127841651D01*
X131194368Y-127850830D01*
X131212781Y-127861866D01*
X131230024Y-127874654D01*
X131245930Y-127889070D01*
X131260346Y-127904976D01*
X131273134Y-127922219D01*
X131284170Y-127940632D01*
X131293349Y-127960038D01*
X131300581Y-127980250D01*
X131305797Y-128001074D01*
X131308947Y-128022309D01*
X131310000Y-128043750D01*
X131310000Y-128556250D01*
X131308947Y-128577691D01*
X131305797Y-128598926D01*
X131300581Y-128619750D01*
X131293349Y-128639962D01*
X131284170Y-128659368D01*
X131273134Y-128677781D01*
X131260346Y-128695024D01*
X131245930Y-128710930D01*
X131230024Y-128725346D01*
X131212781Y-128738134D01*
X131194368Y-128749170D01*
X131174962Y-128758349D01*
X131154750Y-128765581D01*
X131133926Y-128770797D01*
X131112691Y-128773947D01*
X131091250Y-128775000D01*
X130653750Y-128775000D01*
X130632309Y-128773947D01*
X130611074Y-128770797D01*
X130590250Y-128765581D01*
X130570038Y-128758349D01*
X130550632Y-128749170D01*
X130532219Y-128738134D01*
X130514976Y-128725346D01*
X130499070Y-128710930D01*
X130484654Y-128695024D01*
X130471866Y-128677781D01*
X130460830Y-128659368D01*
X130451651Y-128639962D01*
X130444419Y-128619750D01*
X130439203Y-128598926D01*
X130436053Y-128577691D01*
X130435000Y-128556250D01*
X130435000Y-128043750D01*
X130436053Y-128022309D01*
X130439203Y-128001074D01*
X130444419Y-127980250D01*
X130451651Y-127960038D01*
X130460830Y-127940632D01*
X130471866Y-127922219D01*
X130484654Y-127904976D01*
X130499070Y-127889070D01*
X130514976Y-127874654D01*
X130532219Y-127861866D01*
X130550632Y-127850830D01*
X130570038Y-127841651D01*
X130590250Y-127834419D01*
X130611074Y-127829203D01*
X130632309Y-127826053D01*
X130653750Y-127825000D01*
X131091250Y-127825000D01*
X131112691Y-127826053D01*
X131112691Y-127826053D01*
G37*
D23*
G04 #@! TD*
G04 #@! TO.P,D2,1*
G04 #@! TO.N,GND*
X130872500Y-128300000D03*
D21*
G04 #@! TO.N,Net-(D3-Pad1)*
G04 #@! TO.C,D3*
G36*
X144712691Y-127826053D02*
X144733926Y-127829203D01*
X144754750Y-127834419D01*
X144774962Y-127841651D01*
X144794368Y-127850830D01*
X144812781Y-127861866D01*
X144830024Y-127874654D01*
X144845930Y-127889070D01*
X144860346Y-127904976D01*
X144873134Y-127922219D01*
X144884170Y-127940632D01*
X144893349Y-127960038D01*
X144900581Y-127980250D01*
X144905797Y-128001074D01*
X144908947Y-128022309D01*
X144910000Y-128043750D01*
X144910000Y-128556250D01*
X144908947Y-128577691D01*
X144905797Y-128598926D01*
X144900581Y-128619750D01*
X144893349Y-128639962D01*
X144884170Y-128659368D01*
X144873134Y-128677781D01*
X144860346Y-128695024D01*
X144845930Y-128710930D01*
X144830024Y-128725346D01*
X144812781Y-128738134D01*
X144794368Y-128749170D01*
X144774962Y-128758349D01*
X144754750Y-128765581D01*
X144733926Y-128770797D01*
X144712691Y-128773947D01*
X144691250Y-128775000D01*
X144253750Y-128775000D01*
X144232309Y-128773947D01*
X144211074Y-128770797D01*
X144190250Y-128765581D01*
X144170038Y-128758349D01*
X144150632Y-128749170D01*
X144132219Y-128738134D01*
X144114976Y-128725346D01*
X144099070Y-128710930D01*
X144084654Y-128695024D01*
X144071866Y-128677781D01*
X144060830Y-128659368D01*
X144051651Y-128639962D01*
X144044419Y-128619750D01*
X144039203Y-128598926D01*
X144036053Y-128577691D01*
X144035000Y-128556250D01*
X144035000Y-128043750D01*
X144036053Y-128022309D01*
X144039203Y-128001074D01*
X144044419Y-127980250D01*
X144051651Y-127960038D01*
X144060830Y-127940632D01*
X144071866Y-127922219D01*
X144084654Y-127904976D01*
X144099070Y-127889070D01*
X144114976Y-127874654D01*
X144132219Y-127861866D01*
X144150632Y-127850830D01*
X144170038Y-127841651D01*
X144190250Y-127834419D01*
X144211074Y-127829203D01*
X144232309Y-127826053D01*
X144253750Y-127825000D01*
X144691250Y-127825000D01*
X144712691Y-127826053D01*
X144712691Y-127826053D01*
G37*
D23*
G04 #@! TD*
G04 #@! TO.P,D3,1*
G04 #@! TO.N,Net-(D3-Pad1)*
X144472500Y-128300000D03*
D21*
G04 #@! TO.N,Net-(D3-Pad2)*
G04 #@! TO.C,D3*
G36*
X146287691Y-127826053D02*
X146308926Y-127829203D01*
X146329750Y-127834419D01*
X146349962Y-127841651D01*
X146369368Y-127850830D01*
X146387781Y-127861866D01*
X146405024Y-127874654D01*
X146420930Y-127889070D01*
X146435346Y-127904976D01*
X146448134Y-127922219D01*
X146459170Y-127940632D01*
X146468349Y-127960038D01*
X146475581Y-127980250D01*
X146480797Y-128001074D01*
X146483947Y-128022309D01*
X146485000Y-128043750D01*
X146485000Y-128556250D01*
X146483947Y-128577691D01*
X146480797Y-128598926D01*
X146475581Y-128619750D01*
X146468349Y-128639962D01*
X146459170Y-128659368D01*
X146448134Y-128677781D01*
X146435346Y-128695024D01*
X146420930Y-128710930D01*
X146405024Y-128725346D01*
X146387781Y-128738134D01*
X146369368Y-128749170D01*
X146349962Y-128758349D01*
X146329750Y-128765581D01*
X146308926Y-128770797D01*
X146287691Y-128773947D01*
X146266250Y-128775000D01*
X145828750Y-128775000D01*
X145807309Y-128773947D01*
X145786074Y-128770797D01*
X145765250Y-128765581D01*
X145745038Y-128758349D01*
X145725632Y-128749170D01*
X145707219Y-128738134D01*
X145689976Y-128725346D01*
X145674070Y-128710930D01*
X145659654Y-128695024D01*
X145646866Y-128677781D01*
X145635830Y-128659368D01*
X145626651Y-128639962D01*
X145619419Y-128619750D01*
X145614203Y-128598926D01*
X145611053Y-128577691D01*
X145610000Y-128556250D01*
X145610000Y-128043750D01*
X145611053Y-128022309D01*
X145614203Y-128001074D01*
X145619419Y-127980250D01*
X145626651Y-127960038D01*
X145635830Y-127940632D01*
X145646866Y-127922219D01*
X145659654Y-127904976D01*
X145674070Y-127889070D01*
X145689976Y-127874654D01*
X145707219Y-127861866D01*
X145725632Y-127850830D01*
X145745038Y-127841651D01*
X145765250Y-127834419D01*
X145786074Y-127829203D01*
X145807309Y-127826053D01*
X145828750Y-127825000D01*
X146266250Y-127825000D01*
X146287691Y-127826053D01*
X146287691Y-127826053D01*
G37*
D23*
G04 #@! TD*
G04 #@! TO.P,D3,2*
G04 #@! TO.N,Net-(D3-Pad2)*
X146047500Y-128300000D03*
D24*
G04 #@! TO.P,F1,5*
G04 #@! TO.N,GND*
X139147500Y-110550000D03*
G04 #@! TO.P,F1,4*
G04 #@! TO.N,Net-(C8-Pad2)*
X139147500Y-111050000D03*
G04 #@! TO.P,F1,3*
G04 #@! TO.N,GND*
X138572500Y-111050000D03*
G04 #@! TO.P,F1,2*
X138572500Y-110550000D03*
G04 #@! TO.P,F1,1*
G04 #@! TO.N,Net-(F1-Pad1)*
X138860000Y-110050000D03*
G04 #@! TD*
D25*
G04 #@! TO.P,J3,1*
G04 #@! TO.N,Net-(C4-Pad2)*
X138430000Y-98298000D03*
D26*
G04 #@! TO.P,J3,2*
G04 #@! TO.N,GND*
X142810000Y-98298000D03*
X134050000Y-98298000D03*
D27*
G04 #@! TD*
G04 #@! TO.N,GND*
G04 #@! TO.C,J3*
X142810000Y-101738000D03*
G04 #@! TO.N,GND*
G04 #@! TO.C,J3*
X134050000Y-101738000D03*
D28*
X142810000Y-101288000D03*
X134050000Y-101288000D03*
G04 #@! TD*
D21*
G04 #@! TO.N,Net-(C1-Pad1)*
G04 #@! TO.C,L1*
G36*
X137636958Y-102780710D02*
X137651276Y-102782834D01*
X137665317Y-102786351D01*
X137678946Y-102791228D01*
X137692031Y-102797417D01*
X137704447Y-102804858D01*
X137716073Y-102813481D01*
X137726798Y-102823202D01*
X137736519Y-102833927D01*
X137745142Y-102845553D01*
X137752583Y-102857969D01*
X137758772Y-102871054D01*
X137763649Y-102884683D01*
X137767166Y-102898724D01*
X137769290Y-102913042D01*
X137770000Y-102927500D01*
X137770000Y-103272500D01*
X137769290Y-103286958D01*
X137767166Y-103301276D01*
X137763649Y-103315317D01*
X137758772Y-103328946D01*
X137752583Y-103342031D01*
X137745142Y-103354447D01*
X137736519Y-103366073D01*
X137726798Y-103376798D01*
X137716073Y-103386519D01*
X137704447Y-103395142D01*
X137692031Y-103402583D01*
X137678946Y-103408772D01*
X137665317Y-103413649D01*
X137651276Y-103417166D01*
X137636958Y-103419290D01*
X137622500Y-103420000D01*
X137327500Y-103420000D01*
X137313042Y-103419290D01*
X137298724Y-103417166D01*
X137284683Y-103413649D01*
X137271054Y-103408772D01*
X137257969Y-103402583D01*
X137245553Y-103395142D01*
X137233927Y-103386519D01*
X137223202Y-103376798D01*
X137213481Y-103366073D01*
X137204858Y-103354447D01*
X137197417Y-103342031D01*
X137191228Y-103328946D01*
X137186351Y-103315317D01*
X137182834Y-103301276D01*
X137180710Y-103286958D01*
X137180000Y-103272500D01*
X137180000Y-102927500D01*
X137180710Y-102913042D01*
X137182834Y-102898724D01*
X137186351Y-102884683D01*
X137191228Y-102871054D01*
X137197417Y-102857969D01*
X137204858Y-102845553D01*
X137213481Y-102833927D01*
X137223202Y-102823202D01*
X137233927Y-102813481D01*
X137245553Y-102804858D01*
X137257969Y-102797417D01*
X137271054Y-102791228D01*
X137284683Y-102786351D01*
X137298724Y-102782834D01*
X137313042Y-102780710D01*
X137327500Y-102780000D01*
X137622500Y-102780000D01*
X137636958Y-102780710D01*
X137636958Y-102780710D01*
G37*
D29*
G04 #@! TD*
G04 #@! TO.P,L1,2*
G04 #@! TO.N,Net-(C1-Pad1)*
X137475000Y-103100000D03*
D21*
G04 #@! TO.N,Net-(C4-Pad2)*
G04 #@! TO.C,L1*
G36*
X138606958Y-102780710D02*
X138621276Y-102782834D01*
X138635317Y-102786351D01*
X138648946Y-102791228D01*
X138662031Y-102797417D01*
X138674447Y-102804858D01*
X138686073Y-102813481D01*
X138696798Y-102823202D01*
X138706519Y-102833927D01*
X138715142Y-102845553D01*
X138722583Y-102857969D01*
X138728772Y-102871054D01*
X138733649Y-102884683D01*
X138737166Y-102898724D01*
X138739290Y-102913042D01*
X138740000Y-102927500D01*
X138740000Y-103272500D01*
X138739290Y-103286958D01*
X138737166Y-103301276D01*
X138733649Y-103315317D01*
X138728772Y-103328946D01*
X138722583Y-103342031D01*
X138715142Y-103354447D01*
X138706519Y-103366073D01*
X138696798Y-103376798D01*
X138686073Y-103386519D01*
X138674447Y-103395142D01*
X138662031Y-103402583D01*
X138648946Y-103408772D01*
X138635317Y-103413649D01*
X138621276Y-103417166D01*
X138606958Y-103419290D01*
X138592500Y-103420000D01*
X138297500Y-103420000D01*
X138283042Y-103419290D01*
X138268724Y-103417166D01*
X138254683Y-103413649D01*
X138241054Y-103408772D01*
X138227969Y-103402583D01*
X138215553Y-103395142D01*
X138203927Y-103386519D01*
X138193202Y-103376798D01*
X138183481Y-103366073D01*
X138174858Y-103354447D01*
X138167417Y-103342031D01*
X138161228Y-103328946D01*
X138156351Y-103315317D01*
X138152834Y-103301276D01*
X138150710Y-103286958D01*
X138150000Y-103272500D01*
X138150000Y-102927500D01*
X138150710Y-102913042D01*
X138152834Y-102898724D01*
X138156351Y-102884683D01*
X138161228Y-102871054D01*
X138167417Y-102857969D01*
X138174858Y-102845553D01*
X138183481Y-102833927D01*
X138193202Y-102823202D01*
X138203927Y-102813481D01*
X138215553Y-102804858D01*
X138227969Y-102797417D01*
X138241054Y-102791228D01*
X138254683Y-102786351D01*
X138268724Y-102782834D01*
X138283042Y-102780710D01*
X138297500Y-102780000D01*
X138592500Y-102780000D01*
X138606958Y-102780710D01*
X138606958Y-102780710D01*
G37*
D29*
G04 #@! TD*
G04 #@! TO.P,L1,1*
G04 #@! TO.N,Net-(C4-Pad2)*
X138445000Y-103100000D03*
D21*
G04 #@! TO.N,Net-(L2-Pad1)*
G04 #@! TO.C,L2*
G36*
X138646958Y-106875710D02*
X138661276Y-106877834D01*
X138675317Y-106881351D01*
X138688946Y-106886228D01*
X138702031Y-106892417D01*
X138714447Y-106899858D01*
X138726073Y-106908481D01*
X138736798Y-106918202D01*
X138746519Y-106928927D01*
X138755142Y-106940553D01*
X138762583Y-106952969D01*
X138768772Y-106966054D01*
X138773649Y-106979683D01*
X138777166Y-106993724D01*
X138779290Y-107008042D01*
X138780000Y-107022500D01*
X138780000Y-107317500D01*
X138779290Y-107331958D01*
X138777166Y-107346276D01*
X138773649Y-107360317D01*
X138768772Y-107373946D01*
X138762583Y-107387031D01*
X138755142Y-107399447D01*
X138746519Y-107411073D01*
X138736798Y-107421798D01*
X138726073Y-107431519D01*
X138714447Y-107440142D01*
X138702031Y-107447583D01*
X138688946Y-107453772D01*
X138675317Y-107458649D01*
X138661276Y-107462166D01*
X138646958Y-107464290D01*
X138632500Y-107465000D01*
X138287500Y-107465000D01*
X138273042Y-107464290D01*
X138258724Y-107462166D01*
X138244683Y-107458649D01*
X138231054Y-107453772D01*
X138217969Y-107447583D01*
X138205553Y-107440142D01*
X138193927Y-107431519D01*
X138183202Y-107421798D01*
X138173481Y-107411073D01*
X138164858Y-107399447D01*
X138157417Y-107387031D01*
X138151228Y-107373946D01*
X138146351Y-107360317D01*
X138142834Y-107346276D01*
X138140710Y-107331958D01*
X138140000Y-107317500D01*
X138140000Y-107022500D01*
X138140710Y-107008042D01*
X138142834Y-106993724D01*
X138146351Y-106979683D01*
X138151228Y-106966054D01*
X138157417Y-106952969D01*
X138164858Y-106940553D01*
X138173481Y-106928927D01*
X138183202Y-106918202D01*
X138193927Y-106908481D01*
X138205553Y-106899858D01*
X138217969Y-106892417D01*
X138231054Y-106886228D01*
X138244683Y-106881351D01*
X138258724Y-106877834D01*
X138273042Y-106875710D01*
X138287500Y-106875000D01*
X138632500Y-106875000D01*
X138646958Y-106875710D01*
X138646958Y-106875710D01*
G37*
D29*
G04 #@! TD*
G04 #@! TO.P,L2,1*
G04 #@! TO.N,Net-(L2-Pad1)*
X138460000Y-107170000D03*
D21*
G04 #@! TO.N,Net-(C4-Pad1)*
G04 #@! TO.C,L2*
G36*
X138646958Y-105905710D02*
X138661276Y-105907834D01*
X138675317Y-105911351D01*
X138688946Y-105916228D01*
X138702031Y-105922417D01*
X138714447Y-105929858D01*
X138726073Y-105938481D01*
X138736798Y-105948202D01*
X138746519Y-105958927D01*
X138755142Y-105970553D01*
X138762583Y-105982969D01*
X138768772Y-105996054D01*
X138773649Y-106009683D01*
X138777166Y-106023724D01*
X138779290Y-106038042D01*
X138780000Y-106052500D01*
X138780000Y-106347500D01*
X138779290Y-106361958D01*
X138777166Y-106376276D01*
X138773649Y-106390317D01*
X138768772Y-106403946D01*
X138762583Y-106417031D01*
X138755142Y-106429447D01*
X138746519Y-106441073D01*
X138736798Y-106451798D01*
X138726073Y-106461519D01*
X138714447Y-106470142D01*
X138702031Y-106477583D01*
X138688946Y-106483772D01*
X138675317Y-106488649D01*
X138661276Y-106492166D01*
X138646958Y-106494290D01*
X138632500Y-106495000D01*
X138287500Y-106495000D01*
X138273042Y-106494290D01*
X138258724Y-106492166D01*
X138244683Y-106488649D01*
X138231054Y-106483772D01*
X138217969Y-106477583D01*
X138205553Y-106470142D01*
X138193927Y-106461519D01*
X138183202Y-106451798D01*
X138173481Y-106441073D01*
X138164858Y-106429447D01*
X138157417Y-106417031D01*
X138151228Y-106403946D01*
X138146351Y-106390317D01*
X138142834Y-106376276D01*
X138140710Y-106361958D01*
X138140000Y-106347500D01*
X138140000Y-106052500D01*
X138140710Y-106038042D01*
X138142834Y-106023724D01*
X138146351Y-106009683D01*
X138151228Y-105996054D01*
X138157417Y-105982969D01*
X138164858Y-105970553D01*
X138173481Y-105958927D01*
X138183202Y-105948202D01*
X138193927Y-105938481D01*
X138205553Y-105929858D01*
X138217969Y-105922417D01*
X138231054Y-105916228D01*
X138244683Y-105911351D01*
X138258724Y-105907834D01*
X138273042Y-105905710D01*
X138287500Y-105905000D01*
X138632500Y-105905000D01*
X138646958Y-105905710D01*
X138646958Y-105905710D01*
G37*
D29*
G04 #@! TD*
G04 #@! TO.P,L2,2*
G04 #@! TO.N,Net-(C4-Pad1)*
X138460000Y-106200000D03*
D30*
G04 #@! TO.P,Q1,1*
G04 #@! TO.N,/PPS*
X145210000Y-118500000D03*
G04 #@! TO.P,Q1,2*
G04 #@! TO.N,GND*
X143310000Y-118500000D03*
G04 #@! TO.P,Q1,3*
G04 #@! TO.N,Net-(D3-Pad1)*
X144260000Y-120500000D03*
G04 #@! TD*
D10*
G04 #@! TO.P,R1,1*
G04 #@! TO.N,Net-(C4-Pad2)*
X138460000Y-104100000D03*
G04 #@! TO.P,R1,2*
G04 #@! TO.N,Net-(R1-Pad2)*
X139360000Y-104100000D03*
G04 #@! TD*
G04 #@! TO.P,R3,1*
G04 #@! TO.N,GND*
X136010000Y-107900000D03*
G04 #@! TO.P,R3,2*
G04 #@! TO.N,/ANT_OFF*
X136910000Y-107900000D03*
G04 #@! TD*
D31*
G04 #@! TO.P,R4,1*
G04 #@! TO.N,+3V3*
X130910000Y-134500000D03*
G04 #@! TO.P,R4,2*
G04 #@! TO.N,Net-(D2-Pad2)*
X132410000Y-134500000D03*
G04 #@! TD*
D10*
G04 #@! TO.P,R5,2*
G04 #@! TO.N,Net-(R1-Pad2)*
X140060000Y-113550000D03*
G04 #@! TO.P,R5,1*
G04 #@! TO.N,/RF_IN*
X139160000Y-113550000D03*
G04 #@! TD*
D31*
G04 #@! TO.P,R6,1*
G04 #@! TO.N,+3V3*
X144510000Y-134500000D03*
G04 #@! TO.P,R6,2*
G04 #@! TO.N,Net-(D3-Pad2)*
X146010000Y-134500000D03*
G04 #@! TD*
D32*
G04 #@! TO.P,U1,1*
G04 #@! TO.N,Net-(C2-Pad1)*
X134510000Y-107150000D03*
G04 #@! TO.P,U1,3*
G04 #@! TO.N,Net-(R2-Pad2)*
X133210000Y-107150000D03*
G04 #@! TO.P,U1,2*
G04 #@! TO.N,GND*
X133860000Y-107150000D03*
G04 #@! TO.P,U1,4*
G04 #@! TO.N,Net-(R8-Pad1)*
X133210000Y-109050000D03*
G04 #@! TO.P,U1,5*
G04 #@! TO.N,Net-(C7-Pad1)*
X134510000Y-109050000D03*
G04 #@! TD*
D33*
G04 #@! TO.P,U2,1*
G04 #@! TO.N,GND*
X138060000Y-108850000D03*
G04 #@! TO.P,U2,2*
G04 #@! TO.N,/VCC_RF*
X138460000Y-108850000D03*
G04 #@! TO.P,U2,3*
G04 #@! TO.N,Net-(F1-Pad1)*
X138860000Y-108850000D03*
G04 #@! TO.P,U2,4*
G04 #@! TO.N,GND*
X138860000Y-108450000D03*
G04 #@! TO.P,U2,5*
G04 #@! TO.N,Net-(L2-Pad1)*
X138460000Y-108450000D03*
G04 #@! TO.P,U2,6*
G04 #@! TO.N,/ANT_OFF*
X138060000Y-108450000D03*
G04 #@! TD*
D34*
G04 #@! TO.P,C2,1*
G04 #@! TO.N,Net-(C2-Pad1)*
X134260000Y-104500000D03*
G04 #@! TO.P,C2,2*
G04 #@! TO.N,GND*
X132260000Y-104500000D03*
G04 #@! TD*
G04 #@! TO.P,C7,2*
G04 #@! TO.N,GND*
X132260000Y-111500000D03*
G04 #@! TO.P,C7,1*
G04 #@! TO.N,Net-(C7-Pad1)*
X134260000Y-111500000D03*
G04 #@! TD*
D35*
G04 #@! TO.P,R2,1*
G04 #@! TO.N,Net-(C7-Pad1)*
X131772000Y-108450000D03*
G04 #@! TO.P,R2,2*
G04 #@! TO.N,Net-(R2-Pad2)*
X131772000Y-106950000D03*
G04 #@! TD*
D36*
G04 #@! TO.N,+3V3*
X130860000Y-135700000D03*
X144260000Y-125900000D03*
X144260000Y-124900000D03*
X144460000Y-135700000D03*
D37*
G04 #@! TO.N,GND*
X136210000Y-96200000D03*
X136210000Y-97200000D03*
X136210000Y-98200000D03*
X136210000Y-99200000D03*
X136210000Y-100200000D03*
X136210000Y-101200000D03*
X140710000Y-99200000D03*
X140710000Y-100200000D03*
X140710000Y-96200000D03*
X140710000Y-97200000D03*
X140710000Y-98200000D03*
X140710000Y-101200000D03*
X141460000Y-101950000D03*
X144960000Y-98200000D03*
X144960000Y-99200000D03*
X144960000Y-96200000D03*
X144960000Y-97200000D03*
X144960000Y-100200000D03*
X144960000Y-101200000D03*
X144210000Y-101950000D03*
X135210000Y-101700000D03*
X132960000Y-101700000D03*
X131960000Y-99200000D03*
X131960000Y-96200000D03*
X131960000Y-97200000D03*
X131960000Y-100200000D03*
X131960000Y-101200000D03*
X131960000Y-98200000D03*
X130960000Y-96200000D03*
X126460000Y-96200000D03*
X127960000Y-96200000D03*
X129460000Y-96200000D03*
X145960000Y-96200000D03*
X147460000Y-96200000D03*
X148960000Y-96200000D03*
X150460000Y-96200000D03*
X150460000Y-97700000D03*
X150460000Y-99200000D03*
X150460000Y-100700000D03*
X150460000Y-102200000D03*
X150460000Y-103700000D03*
X150460000Y-105200000D03*
X150460000Y-106700000D03*
X150460000Y-108200000D03*
X150460000Y-109700000D03*
X150460000Y-111200000D03*
X150460000Y-112700000D03*
X150460000Y-114200000D03*
X126460000Y-97700000D03*
X126460000Y-99200000D03*
X126460000Y-100700000D03*
X126460000Y-102200000D03*
X126460000Y-103700000D03*
X126460000Y-105200000D03*
X126460000Y-106700000D03*
X126460000Y-108200000D03*
X126460000Y-109700000D03*
X126460000Y-111200000D03*
X126460000Y-112700000D03*
X126460000Y-114200000D03*
X139210000Y-101700000D03*
X139210000Y-102700000D03*
X140460000Y-103450000D03*
X141210000Y-104200000D03*
X141710000Y-104950000D03*
X141710000Y-105950000D03*
X141710000Y-106950000D03*
X141710000Y-107950000D03*
X141710000Y-108950000D03*
X141710000Y-109950000D03*
X141710000Y-110950000D03*
X141710000Y-111950000D03*
X141710000Y-112950000D03*
X141210000Y-113950000D03*
X140210000Y-114300000D03*
X140460000Y-105950000D03*
X140460000Y-106950000D03*
X140460000Y-107950000D03*
X140460000Y-108950000D03*
X140460000Y-109950000D03*
X140460000Y-110950000D03*
X140460000Y-111950000D03*
X139960000Y-112700000D03*
X139460000Y-105950000D03*
X139460000Y-106950000D03*
X139460000Y-107950000D03*
X139460000Y-108950000D03*
X139460000Y-109950000D03*
X139460000Y-104950000D03*
X136960000Y-101950000D03*
X137460000Y-104950000D03*
X137460000Y-105950000D03*
X137460000Y-106950000D03*
X137460000Y-103950000D03*
X137710000Y-107950000D03*
X137460000Y-109200000D03*
X136960000Y-108950000D03*
X138460000Y-111950000D03*
X138460000Y-112950000D03*
X138460000Y-113950000D03*
X137460000Y-113950000D03*
X137460000Y-112950000D03*
X137460000Y-111950000D03*
X137460000Y-110950000D03*
X130960000Y-114200000D03*
X141710000Y-114950000D03*
X141710000Y-116200000D03*
X127960000Y-114200000D03*
X129460000Y-114200000D03*
X132460000Y-114200000D03*
X148960000Y-114200000D03*
X147460000Y-114200000D03*
X145960000Y-114200000D03*
X144460000Y-114200000D03*
X142960000Y-114200000D03*
X135460000Y-131450000D03*
X135460000Y-128450000D03*
X138460000Y-128450000D03*
X141460000Y-128450000D03*
X141460000Y-131450000D03*
X141460000Y-134450000D03*
X138460000Y-134450000D03*
X135460000Y-134450000D03*
X129460000Y-128450000D03*
X129460000Y-134450000D03*
X129460000Y-122450000D03*
X129460000Y-116450000D03*
X147460000Y-128450000D03*
X147460000Y-122500000D03*
X147460000Y-116450000D03*
X141460000Y-122450000D03*
X135460000Y-122450000D03*
X147460000Y-134450000D03*
X135960000Y-110950000D03*
X135960000Y-111950000D03*
X135960000Y-112950000D03*
X135960000Y-106950000D03*
X135960000Y-105950000D03*
X135960000Y-104950000D03*
X135960000Y-103950000D03*
X130960000Y-112700000D03*
X130960000Y-111200000D03*
X130960000Y-109700000D03*
X130960000Y-105200000D03*
X130960000Y-103700000D03*
X130960000Y-102200000D03*
X130460000Y-108200000D03*
X130460000Y-106700000D03*
X132460000Y-109700000D03*
X132460000Y-112700000D03*
X133210000Y-105950000D03*
X131960000Y-105950000D03*
X132210000Y-102700000D03*
X134960000Y-108200000D03*
X135860000Y-109100000D03*
G04 #@! TO.N,/RESET*
X140060000Y-122500000D03*
G04 #@! TO.N,/SDA*
X132060000Y-123500000D03*
G04 #@! TO.N,/SCL*
X132660000Y-122900000D03*
G04 #@! TO.N,/RX*
X133860000Y-126500000D03*
G04 #@! TO.N,/TX*
X133260000Y-126100000D03*
G04 #@! TO.N,/PPS*
X134860000Y-123500000D03*
G04 #@! TO.N,/EXI*
X136060000Y-122900000D03*
G04 #@! TO.N,/ANT_OFF*
X136460000Y-116900000D03*
X134460000Y-114300000D03*
G04 #@! TD*
D38*
G04 #@! TO.N,+3V3*
X142060000Y-125850000D02*
X143260000Y-125850000D01*
X130910000Y-134500000D02*
X130910000Y-135650000D01*
X130910000Y-135650000D02*
X130860000Y-135700000D01*
X138160000Y-124700000D02*
X138160000Y-125400000D01*
X138160000Y-125400000D02*
X138610000Y-125850000D01*
X143060000Y-125850000D02*
X144210000Y-125850000D01*
X144210000Y-125850000D02*
X144260000Y-125900000D01*
X141860000Y-125850000D02*
X141860000Y-125700000D01*
X141860000Y-125700000D02*
X142460000Y-125100000D01*
X142460000Y-125100000D02*
X144060000Y-125100000D01*
X144060000Y-125100000D02*
X144260000Y-124900000D01*
X138160000Y-124700000D02*
X139260000Y-124700000D01*
X139260000Y-125450000D02*
X139660000Y-125850000D01*
X139260000Y-124700000D02*
X139260000Y-125450000D01*
X138610000Y-125850000D02*
X139660000Y-125850000D01*
X139660000Y-125850000D02*
X141860000Y-125850000D01*
X144510000Y-134500000D02*
X144510000Y-135650000D01*
X144510000Y-135650000D02*
X144460000Y-135700000D01*
G04 #@! TO.N,+BATT*
X137060000Y-125500000D02*
X137060000Y-124700000D01*
X135460000Y-127100000D02*
X137060000Y-125500000D01*
X132260000Y-127100000D02*
X135460000Y-127100000D01*
X131660000Y-127700000D02*
X132260000Y-127100000D01*
X131830000Y-131445000D02*
X131660000Y-131275000D01*
X131660000Y-131275000D02*
X131660000Y-127700000D01*
X137060000Y-125500000D02*
X137860000Y-126300000D01*
X137860000Y-126300000D02*
X140860000Y-126300000D01*
X145030000Y-130470000D02*
X145030000Y-131445000D01*
X140860000Y-126300000D02*
X145030000Y-130470000D01*
G04 #@! TO.N,Net-(C1-Pad1)*
X137425000Y-103050000D02*
X137475000Y-103100000D01*
X136060000Y-103050000D02*
X137425000Y-103050000D01*
X136010000Y-103100000D02*
X136060000Y-103050000D01*
X135110000Y-103100000D02*
X136010000Y-103100000D01*
D39*
G04 #@! TO.N,Net-(C4-Pad2)*
X138430000Y-98298000D02*
X138430000Y-101800000D01*
X138430000Y-103085000D02*
X138445000Y-103100000D01*
X138430000Y-101800000D02*
X138430000Y-103085000D01*
X138445000Y-104085000D02*
X138460000Y-104100000D01*
X138445000Y-103100000D02*
X138445000Y-104085000D01*
G04 #@! TO.N,Net-(C4-Pad1)*
X138460000Y-105200000D02*
X138460000Y-106200000D01*
D40*
G04 #@! TO.N,/VCC_RF*
X138460000Y-108850000D02*
X138460000Y-109100000D01*
X137660000Y-109900000D02*
X136810000Y-109900000D01*
X138460000Y-109100000D02*
X137660000Y-109900000D01*
D38*
X135960000Y-115500000D02*
X135960000Y-114800000D01*
X134710000Y-113550000D02*
X134460000Y-113550000D01*
X135960000Y-114800000D02*
X134710000Y-113550000D01*
D40*
X134460000Y-113550000D02*
X134810000Y-113550000D01*
X134810000Y-113550000D02*
X135360000Y-113000000D01*
X135360000Y-113000000D02*
X135360000Y-110800000D01*
X135360000Y-110800000D02*
X135660000Y-110500000D01*
X136210000Y-110500000D02*
X136810000Y-109900000D01*
X135660000Y-110500000D02*
X136210000Y-110500000D01*
D39*
G04 #@! TO.N,Net-(C8-Pad2)*
X139160000Y-111062500D02*
X139147500Y-111050000D01*
X139160000Y-112450000D02*
X139160000Y-111062500D01*
G04 #@! TO.N,/RF_IN*
X139160000Y-115400000D02*
X139260000Y-115500000D01*
X139160000Y-113550000D02*
X139160000Y-115400000D01*
D38*
G04 #@! TO.N,Net-(D2-Pad2)*
X132410000Y-134500000D02*
X132660000Y-134500000D01*
X132660000Y-134500000D02*
X133660000Y-133500000D01*
X133660000Y-129512500D02*
X132447500Y-128300000D01*
X133660000Y-133500000D02*
X133660000Y-129512500D01*
G04 #@! TO.N,Net-(D3-Pad1)*
X144260000Y-120500000D02*
X144260000Y-123700000D01*
X144260000Y-123700000D02*
X145060000Y-124500000D01*
X145060000Y-127712500D02*
X144472500Y-128300000D01*
X145060000Y-124500000D02*
X145060000Y-127712500D01*
G04 #@! TO.N,Net-(D3-Pad2)*
X146010000Y-134500000D02*
X146860000Y-133650000D01*
X146860000Y-129112500D02*
X146047500Y-128300000D01*
X146860000Y-133650000D02*
X146860000Y-129112500D01*
D39*
G04 #@! TO.N,Net-(F1-Pad1)*
X138860000Y-110050000D02*
X138860000Y-109100000D01*
D40*
X138860000Y-108850000D02*
X138860000Y-109100000D01*
D38*
G04 #@! TO.N,/RESET*
X140360000Y-124700000D02*
X140360000Y-122800000D01*
X140360000Y-122800000D02*
X140060000Y-122500000D01*
G04 #@! TO.N,/SDA*
X149860000Y-129540000D02*
X149860000Y-129100000D01*
X149860000Y-129540000D02*
X149860000Y-128900000D01*
X149860000Y-129540000D02*
X149860000Y-129300000D01*
X132060000Y-123500000D02*
X132860000Y-123500000D01*
X133760000Y-122600000D02*
X133760000Y-115500000D01*
X132860000Y-123500000D02*
X133760000Y-122600000D01*
G04 #@! TO.N,/SCL*
X132660000Y-122900000D02*
X132660000Y-115500000D01*
G04 #@! TO.N,/RX*
X133860000Y-126500000D02*
X133760000Y-126400000D01*
X133760000Y-126400000D02*
X133760000Y-124700000D01*
G04 #@! TO.N,/TX*
X133260000Y-126100000D02*
X132660000Y-125500000D01*
X132660000Y-125500000D02*
X132660000Y-124700000D01*
G04 #@! TO.N,/PPS*
X146090000Y-119380000D02*
X145210000Y-118500000D01*
X149860000Y-119380000D02*
X146090000Y-119380000D01*
X134860000Y-124700000D02*
X134860000Y-123500000D01*
G04 #@! TO.N,/EXI*
X135960000Y-124700000D02*
X135960000Y-123000000D01*
X135960000Y-123000000D02*
X136060000Y-122900000D01*
D39*
G04 #@! TO.N,Net-(L2-Pad1)*
X138460000Y-107170000D02*
X138460000Y-108200000D01*
D40*
X138460000Y-108450000D02*
X138460000Y-108200000D01*
D39*
G04 #@! TO.N,Net-(R1-Pad2)*
X140400000Y-113550000D02*
X140060000Y-113550000D01*
X140550000Y-113520000D02*
X140400000Y-113550000D01*
X140660000Y-113480000D02*
X140550000Y-113520000D01*
X140760000Y-113420000D02*
X140660000Y-113480000D01*
X140860000Y-113340000D02*
X140760000Y-113420000D01*
X140950000Y-113240000D02*
X140860000Y-113340000D01*
X141020000Y-113120000D02*
X140950000Y-113240000D01*
X141070000Y-112980000D02*
X141020000Y-113120000D01*
X141090000Y-112850000D02*
X141070000Y-112980000D01*
X141090000Y-105540000D02*
X141090000Y-112850000D01*
X141080000Y-105400000D02*
X141090000Y-105540000D01*
X141060000Y-105270000D02*
X141080000Y-105400000D01*
X141020000Y-105110000D02*
X141060000Y-105270000D01*
X140960000Y-104960000D02*
X141020000Y-105110000D01*
X140890000Y-104820000D02*
X140960000Y-104960000D01*
X140810000Y-104700000D02*
X140890000Y-104820000D01*
X140720000Y-104590000D02*
X140810000Y-104700000D01*
X140610000Y-104480000D02*
X140720000Y-104590000D01*
X140530000Y-104410000D02*
X140610000Y-104480000D01*
X140430000Y-104340000D02*
X140530000Y-104410000D01*
X140300000Y-104260000D02*
X140430000Y-104340000D01*
X140160000Y-104200000D02*
X140300000Y-104260000D01*
X140050000Y-104160000D02*
X140160000Y-104200000D01*
X139930000Y-104130000D02*
X140050000Y-104160000D01*
X139810000Y-104110000D02*
X139930000Y-104130000D01*
X139700000Y-104100000D02*
X139810000Y-104110000D01*
X139360000Y-104100000D02*
X139700000Y-104100000D01*
D38*
G04 #@! TO.N,Net-(R2-Pad2)*
X133010000Y-106950000D02*
X131772000Y-106950000D01*
X133210000Y-107150000D02*
X133010000Y-106950000D01*
D40*
G04 #@! TO.N,/ANT_OFF*
X137460000Y-108450000D02*
X138060000Y-108450000D01*
X136910000Y-107900000D02*
X137460000Y-108450000D01*
X137060000Y-115500000D02*
X137060000Y-116300000D01*
X137060000Y-116300000D02*
X136460000Y-116900000D01*
X134460000Y-114300000D02*
X134260000Y-114300000D01*
X134260000Y-114300000D02*
X133860000Y-113900000D01*
X133860000Y-113900000D02*
X133860000Y-113300000D01*
X133860000Y-113300000D02*
X134060000Y-113100000D01*
X134060000Y-113100000D02*
X134860000Y-113100000D01*
X134860000Y-113100000D02*
X135060000Y-112900000D01*
X135060000Y-110450000D02*
X134710000Y-110100000D01*
X135060000Y-112900000D02*
X135060000Y-110450000D01*
X134710000Y-110100000D02*
X134710000Y-109850000D01*
X134710000Y-109850000D02*
X135060000Y-109500000D01*
X135060000Y-109500000D02*
X135060000Y-109100000D01*
X135060000Y-109100000D02*
X135660000Y-108500000D01*
X136310000Y-108500000D02*
X136910000Y-107900000D01*
X135660000Y-108500000D02*
X136310000Y-108500000D01*
D38*
G04 #@! TO.N,Net-(C2-Pad1)*
X134510000Y-104750000D02*
X134260000Y-104500000D01*
X134510000Y-107150000D02*
X134510000Y-104750000D01*
X134260000Y-103150000D02*
X134210000Y-103100000D01*
X134260000Y-104500000D02*
X134260000Y-103150000D01*
D40*
G04 #@! TO.N,Net-(C7-Pad1)*
X134260000Y-109300000D02*
X134510000Y-109050000D01*
X134260000Y-111500000D02*
X134260000Y-109300000D01*
D38*
X134260000Y-112450000D02*
X134460000Y-112650000D01*
X134260000Y-111500000D02*
X134260000Y-112450000D01*
X133910000Y-108450000D02*
X134510000Y-109050000D01*
X131772000Y-108450000D02*
X133910000Y-108450000D01*
D40*
G04 #@! TO.N,Net-(R8-Pad1)*
X133810000Y-109650000D02*
X133210000Y-109050000D01*
X133810000Y-110100000D02*
X133810000Y-109650000D01*
G04 #@! TD*
D41*
G04 #@! TO.N,GND*
G36*
X132522500Y-98155125D02*
X132601875Y-98234500D01*
X133986500Y-98234500D01*
X133986500Y-98214500D01*
X134113500Y-98214500D01*
X134113500Y-98234500D01*
X135498125Y-98234500D01*
X135577500Y-98155125D01*
X135577500Y-95948500D01*
X136961280Y-95948500D01*
X136961280Y-100838000D01*
X136985922Y-100961882D01*
X137056095Y-101066905D01*
X137161118Y-101137078D01*
X137285000Y-101161720D01*
X137396500Y-101161720D01*
X137396500Y-101324065D01*
X137380150Y-101330837D01*
X137290836Y-101420151D01*
X137242500Y-101536846D01*
X137242500Y-101657125D01*
X137321875Y-101736500D01*
X137396500Y-101736500D01*
X137396500Y-101863500D01*
X137321875Y-101863500D01*
X137242500Y-101942875D01*
X137242500Y-102063154D01*
X137290836Y-102179849D01*
X137380150Y-102269163D01*
X137396500Y-102275935D01*
X137396500Y-102456280D01*
X137327500Y-102456280D01*
X137147172Y-102492149D01*
X136994297Y-102594297D01*
X136985475Y-102607500D01*
X136596638Y-102607500D01*
X136538905Y-102521095D01*
X136508340Y-102500673D01*
X136579163Y-102429850D01*
X136627500Y-102313155D01*
X136627500Y-102092875D01*
X136548125Y-102013500D01*
X136123500Y-102013500D01*
X136123500Y-102033500D01*
X135996500Y-102033500D01*
X135996500Y-102013500D01*
X135571875Y-102013500D01*
X135492500Y-102092875D01*
X135492500Y-102313155D01*
X135540837Y-102429850D01*
X135611660Y-102500673D01*
X135581095Y-102521095D01*
X135543296Y-102577666D01*
X135538905Y-102571095D01*
X135433882Y-102500922D01*
X135310000Y-102476280D01*
X134910000Y-102476280D01*
X134786118Y-102500922D01*
X134681095Y-102571095D01*
X134660000Y-102602666D01*
X134638905Y-102571095D01*
X134533882Y-102500922D01*
X134410000Y-102476280D01*
X134379140Y-102476280D01*
X134478116Y-102435283D01*
X134525609Y-102303412D01*
X134302697Y-102080500D01*
X134343154Y-102080500D01*
X134441548Y-102039745D01*
X134615412Y-102213609D01*
X134747283Y-102166116D01*
X134858038Y-101866688D01*
X134847283Y-101586845D01*
X135492500Y-101586845D01*
X135492500Y-101807125D01*
X135571875Y-101886500D01*
X135996500Y-101886500D01*
X135996500Y-101411875D01*
X136123500Y-101411875D01*
X136123500Y-101886500D01*
X136548125Y-101886500D01*
X136627500Y-101807125D01*
X136627500Y-101586845D01*
X136579163Y-101470150D01*
X136489849Y-101380836D01*
X136373154Y-101332500D01*
X136202875Y-101332500D01*
X136123500Y-101411875D01*
X135996500Y-101411875D01*
X135917125Y-101332500D01*
X135746846Y-101332500D01*
X135630151Y-101380836D01*
X135540837Y-101470150D01*
X135492500Y-101586845D01*
X134847283Y-101586845D01*
X134845777Y-101547670D01*
X134747283Y-101309884D01*
X134615412Y-101262391D01*
X134597500Y-101280303D01*
X134597500Y-101224498D01*
X134518127Y-101224498D01*
X134587125Y-101155500D01*
X135323154Y-101155500D01*
X135439849Y-101107164D01*
X135529163Y-101017850D01*
X135577500Y-100901155D01*
X135577500Y-98440875D01*
X135498125Y-98361500D01*
X134113500Y-98361500D01*
X134113500Y-98381500D01*
X133986500Y-98381500D01*
X133986500Y-98361500D01*
X132601875Y-98361500D01*
X132522500Y-98440875D01*
X132522500Y-100901155D01*
X132570837Y-101017850D01*
X132660151Y-101107164D01*
X132776846Y-101155500D01*
X133512875Y-101155500D01*
X133581873Y-101224498D01*
X133502500Y-101224498D01*
X133502500Y-101280303D01*
X133484588Y-101262391D01*
X133352717Y-101309884D01*
X133241962Y-101609312D01*
X133254223Y-101928330D01*
X133352717Y-102166116D01*
X133484588Y-102213609D01*
X133658452Y-102039745D01*
X133756846Y-102080500D01*
X133797303Y-102080500D01*
X133574391Y-102303412D01*
X133621884Y-102435283D01*
X133855197Y-102521583D01*
X133781095Y-102571095D01*
X133710922Y-102676118D01*
X133686280Y-102800000D01*
X133686280Y-103400000D01*
X133710922Y-103523882D01*
X133732838Y-103556683D01*
X133636118Y-103575922D01*
X133531095Y-103646095D01*
X133460922Y-103751118D01*
X133436280Y-103875000D01*
X133436280Y-105125000D01*
X133460922Y-105248882D01*
X133531095Y-105353905D01*
X133636118Y-105424078D01*
X133760000Y-105448720D01*
X134067501Y-105448720D01*
X134067500Y-106507500D01*
X134002875Y-106507500D01*
X133923500Y-106586875D01*
X133923500Y-107086500D01*
X133943500Y-107086500D01*
X133943500Y-107213500D01*
X133923500Y-107213500D01*
X133923500Y-107713125D01*
X134002875Y-107792500D01*
X134123154Y-107792500D01*
X134179043Y-107769350D01*
X134186118Y-107774078D01*
X134310000Y-107798720D01*
X134710000Y-107798720D01*
X134833882Y-107774078D01*
X134938905Y-107703905D01*
X135009078Y-107598882D01*
X135021417Y-107536846D01*
X135492500Y-107536846D01*
X135492500Y-107757125D01*
X135571875Y-107836500D01*
X135946500Y-107836500D01*
X135946500Y-107361875D01*
X135867125Y-107282500D01*
X135746845Y-107282500D01*
X135630150Y-107330837D01*
X135540836Y-107420151D01*
X135492500Y-107536846D01*
X135021417Y-107536846D01*
X135033720Y-107475000D01*
X135033720Y-106825000D01*
X135009078Y-106701118D01*
X134952500Y-106616442D01*
X134952500Y-105378230D01*
X134988905Y-105353905D01*
X135059078Y-105248882D01*
X135083720Y-105125000D01*
X135083720Y-103875000D01*
X135059078Y-103751118D01*
X135040772Y-103723720D01*
X135310000Y-103723720D01*
X135433882Y-103699078D01*
X135538905Y-103628905D01*
X135576704Y-103572334D01*
X135581095Y-103578905D01*
X135686118Y-103649078D01*
X135810000Y-103673720D01*
X136310000Y-103673720D01*
X136433882Y-103649078D01*
X136538905Y-103578905D01*
X136596638Y-103492500D01*
X136918657Y-103492500D01*
X136994297Y-103605703D01*
X137147172Y-103707851D01*
X137327500Y-103743720D01*
X137396500Y-103743720D01*
X137396500Y-107457293D01*
X137338905Y-107371095D01*
X137233882Y-107300922D01*
X137110000Y-107276280D01*
X136710000Y-107276280D01*
X136586118Y-107300922D01*
X136481095Y-107371095D01*
X136460673Y-107401660D01*
X136389850Y-107330837D01*
X136273155Y-107282500D01*
X136152875Y-107282500D01*
X136073500Y-107361875D01*
X136073500Y-107836500D01*
X136093500Y-107836500D01*
X136093500Y-107963500D01*
X136073500Y-107963500D01*
X136073500Y-107983500D01*
X135946500Y-107983500D01*
X135946500Y-107963500D01*
X135571875Y-107963500D01*
X135492500Y-108042875D01*
X135492500Y-108139865D01*
X135409793Y-108195128D01*
X135409792Y-108195129D01*
X135377024Y-108217024D01*
X135355129Y-108249792D01*
X135006965Y-108597956D01*
X134938905Y-108496095D01*
X134833882Y-108425922D01*
X134710000Y-108401280D01*
X134487068Y-108401280D01*
X134253716Y-108167928D01*
X134229025Y-108130975D01*
X134082655Y-108033174D01*
X133953582Y-108007500D01*
X133910000Y-107998831D01*
X133866418Y-108007500D01*
X132475230Y-108007500D01*
X132450905Y-107971095D01*
X132345882Y-107900922D01*
X132222000Y-107876280D01*
X131322000Y-107876280D01*
X131198118Y-107900922D01*
X131093095Y-107971095D01*
X131022922Y-108076118D01*
X130998280Y-108200000D01*
X130998280Y-108700000D01*
X131022922Y-108823882D01*
X131093095Y-108928905D01*
X131198118Y-108999078D01*
X131322000Y-109023720D01*
X132222000Y-109023720D01*
X132345882Y-108999078D01*
X132450905Y-108928905D01*
X132475230Y-108892500D01*
X132686280Y-108892500D01*
X132686280Y-109375000D01*
X132710922Y-109498882D01*
X132781095Y-109603905D01*
X132886118Y-109674078D01*
X133010000Y-109698720D01*
X133303641Y-109698720D01*
X133305964Y-109701043D01*
X133286280Y-109800000D01*
X133286280Y-110400000D01*
X133310922Y-110523882D01*
X133381095Y-110628905D01*
X133486118Y-110699078D01*
X133494570Y-110700759D01*
X133460922Y-110751118D01*
X133436280Y-110875000D01*
X133436280Y-112125000D01*
X133460922Y-112248882D01*
X133531095Y-112353905D01*
X133636118Y-112424078D01*
X133760000Y-112448720D01*
X133809086Y-112448720D01*
X133808831Y-112450000D01*
X133836280Y-112587996D01*
X133836280Y-112777430D01*
X133777024Y-112817024D01*
X133755125Y-112849797D01*
X133609794Y-112995129D01*
X133577025Y-113017024D01*
X133555130Y-113049792D01*
X133555128Y-113049794D01*
X133490274Y-113146855D01*
X133459812Y-113300000D01*
X133467501Y-113338655D01*
X133467500Y-113861349D01*
X133459812Y-113900000D01*
X133467500Y-113938651D01*
X133467500Y-113938654D01*
X133490274Y-114053145D01*
X133577024Y-114182976D01*
X133609795Y-114204873D01*
X133781202Y-114376280D01*
X133310000Y-114376280D01*
X133210000Y-114396172D01*
X133110000Y-114376280D01*
X132210000Y-114376280D01*
X132110000Y-114396172D01*
X132010000Y-114376280D01*
X131110000Y-114376280D01*
X130986118Y-114400922D01*
X130881095Y-114471095D01*
X130810922Y-114576118D01*
X130786280Y-114700000D01*
X130786280Y-116300000D01*
X130810922Y-116423882D01*
X130881095Y-116528905D01*
X130986118Y-116599078D01*
X131110000Y-116623720D01*
X132010000Y-116623720D01*
X132110000Y-116603828D01*
X132210000Y-116623720D01*
X132217501Y-116623720D01*
X132217500Y-122570198D01*
X132197039Y-122590659D01*
X132113900Y-122791374D01*
X132113900Y-122953900D01*
X131951374Y-122953900D01*
X131750659Y-123037039D01*
X131597039Y-123190659D01*
X131513900Y-123391374D01*
X131513900Y-123582500D01*
X131496498Y-123582500D01*
X131496498Y-123661873D01*
X131417125Y-123582500D01*
X131046846Y-123582500D01*
X130930151Y-123630836D01*
X130840837Y-123720150D01*
X130792500Y-123836845D01*
X130792500Y-124557125D01*
X130871875Y-124636500D01*
X131496500Y-124636500D01*
X131496500Y-124616500D01*
X131623500Y-124616500D01*
X131623500Y-124636500D01*
X131643500Y-124636500D01*
X131643500Y-124763500D01*
X131623500Y-124763500D01*
X131623500Y-125738125D01*
X131702875Y-125817500D01*
X132073154Y-125817500D01*
X132107406Y-125803313D01*
X132210000Y-125823720D01*
X132348002Y-125823720D01*
X132377928Y-125843716D01*
X132713900Y-126179689D01*
X132713900Y-126208626D01*
X132797039Y-126409341D01*
X132950659Y-126562961D01*
X133151374Y-126646100D01*
X133329422Y-126646100D01*
X133334144Y-126657500D01*
X132303580Y-126657500D01*
X132259999Y-126648831D01*
X132216418Y-126657500D01*
X132087345Y-126683174D01*
X131940975Y-126780975D01*
X131916285Y-126817926D01*
X131377926Y-127356286D01*
X131340976Y-127380975D01*
X131291156Y-127455536D01*
X131256435Y-127507500D01*
X131015375Y-127507500D01*
X130936000Y-127586875D01*
X130936000Y-128236500D01*
X130956000Y-128236500D01*
X130956000Y-128363500D01*
X130936000Y-128363500D01*
X130936000Y-129013125D01*
X131015375Y-129092500D01*
X131217501Y-129092500D01*
X131217501Y-129371280D01*
X130380000Y-129371280D01*
X130256118Y-129395922D01*
X130151095Y-129466095D01*
X130080922Y-129571118D01*
X130056280Y-129695000D01*
X130056280Y-133195000D01*
X130080922Y-133318882D01*
X130151095Y-133423905D01*
X130256118Y-133494078D01*
X130380000Y-133518720D01*
X133015491Y-133518720D01*
X132783387Y-133750824D01*
X132660000Y-133726280D01*
X132160000Y-133726280D01*
X132036118Y-133750922D01*
X131931095Y-133821095D01*
X131860922Y-133926118D01*
X131836280Y-134050000D01*
X131836280Y-134950000D01*
X131860922Y-135073882D01*
X131931095Y-135178905D01*
X132036118Y-135249078D01*
X132160000Y-135273720D01*
X132660000Y-135273720D01*
X132783882Y-135249078D01*
X132888905Y-135178905D01*
X132959078Y-135073882D01*
X132983720Y-134950000D01*
X132983720Y-134811998D01*
X133003716Y-134782072D01*
X133942078Y-133843712D01*
X133979025Y-133819025D01*
X134076826Y-133672655D01*
X134102500Y-133543582D01*
X134102500Y-133543581D01*
X134111169Y-133500000D01*
X134102500Y-133456418D01*
X134102500Y-131587875D01*
X136112500Y-131587875D01*
X136112500Y-133508154D01*
X136160836Y-133624849D01*
X136250150Y-133714163D01*
X136366845Y-133762500D01*
X138287125Y-133762500D01*
X138366500Y-133683125D01*
X138366500Y-131508500D01*
X138493500Y-131508500D01*
X138493500Y-133683125D01*
X138572875Y-133762500D01*
X140493155Y-133762500D01*
X140609850Y-133714163D01*
X140699164Y-133624849D01*
X140747500Y-133508154D01*
X140747500Y-131587875D01*
X140668125Y-131508500D01*
X138493500Y-131508500D01*
X138366500Y-131508500D01*
X136191875Y-131508500D01*
X136112500Y-131587875D01*
X134102500Y-131587875D01*
X134102500Y-129556082D01*
X134111169Y-129512500D01*
X134085181Y-129381846D01*
X136112500Y-129381846D01*
X136112500Y-131302125D01*
X136191875Y-131381500D01*
X138366500Y-131381500D01*
X138366500Y-129206875D01*
X138493500Y-129206875D01*
X138493500Y-131381500D01*
X140668125Y-131381500D01*
X140747500Y-131302125D01*
X140747500Y-129381846D01*
X140699164Y-129265151D01*
X140609850Y-129175837D01*
X140493155Y-129127500D01*
X138572875Y-129127500D01*
X138493500Y-129206875D01*
X138366500Y-129206875D01*
X138287125Y-129127500D01*
X136366845Y-129127500D01*
X136250150Y-129175837D01*
X136160836Y-129265151D01*
X136112500Y-129381846D01*
X134085181Y-129381846D01*
X134076826Y-129339845D01*
X134040283Y-129285155D01*
X133979025Y-129193475D01*
X133942074Y-129168786D01*
X133208720Y-128435432D01*
X133208720Y-128043750D01*
X133167427Y-127836156D01*
X133049834Y-127660166D01*
X132873844Y-127542573D01*
X132873477Y-127542500D01*
X135416418Y-127542500D01*
X135460000Y-127551169D01*
X135503582Y-127542500D01*
X135632655Y-127516826D01*
X135779025Y-127419025D01*
X135803716Y-127382072D01*
X137060001Y-126125789D01*
X137516285Y-126582074D01*
X137540975Y-126619025D01*
X137636983Y-126683175D01*
X137687345Y-126716826D01*
X137860000Y-126751169D01*
X137903582Y-126742500D01*
X140676712Y-126742500D01*
X143380595Y-129446384D01*
X143351095Y-129466095D01*
X143280922Y-129571118D01*
X143256280Y-129695000D01*
X143256280Y-133195000D01*
X143280922Y-133318882D01*
X143351095Y-133423905D01*
X143456118Y-133494078D01*
X143580000Y-133518720D01*
X146365490Y-133518720D01*
X146157931Y-133726280D01*
X145760000Y-133726280D01*
X145636118Y-133750922D01*
X145531095Y-133821095D01*
X145460922Y-133926118D01*
X145436280Y-134050000D01*
X145436280Y-134950000D01*
X145460922Y-135073882D01*
X145531095Y-135178905D01*
X145636118Y-135249078D01*
X145760000Y-135273720D01*
X146260000Y-135273720D01*
X146383882Y-135249078D01*
X146488905Y-135178905D01*
X146559078Y-135073882D01*
X146583720Y-134950000D01*
X146583720Y-134865085D01*
X148718514Y-134865085D01*
X148879541Y-135253855D01*
X149196740Y-135580811D01*
X149614914Y-135761492D01*
X149796500Y-135706403D01*
X149796500Y-134683500D01*
X148773729Y-134683500D01*
X148718514Y-134865085D01*
X146583720Y-134865085D01*
X146583720Y-134552069D01*
X146760874Y-134374915D01*
X148718514Y-134374915D01*
X148773729Y-134556500D01*
X149796500Y-134556500D01*
X149796500Y-133533597D01*
X149614914Y-133478508D01*
X149196740Y-133659189D01*
X148879541Y-133986145D01*
X148718514Y-134374915D01*
X146760874Y-134374915D01*
X147142078Y-133993712D01*
X147179025Y-133969025D01*
X147276826Y-133822655D01*
X147302500Y-133693582D01*
X147302500Y-133693581D01*
X147311169Y-133650000D01*
X147302500Y-133606418D01*
X147302500Y-129156082D01*
X147311169Y-129112500D01*
X147276826Y-128939845D01*
X147221082Y-128856418D01*
X147179025Y-128793475D01*
X147142077Y-128768787D01*
X146808720Y-128435431D01*
X146808720Y-128043750D01*
X146767427Y-127836156D01*
X146649834Y-127660166D01*
X146473844Y-127542573D01*
X146266250Y-127501280D01*
X145828750Y-127501280D01*
X145621156Y-127542573D01*
X145502500Y-127621857D01*
X145502500Y-124543582D01*
X145511169Y-124500000D01*
X145476826Y-124327345D01*
X145447312Y-124283174D01*
X145379025Y-124180975D01*
X145342075Y-124156286D01*
X144702500Y-123516712D01*
X144702500Y-121265266D01*
X144783882Y-121249078D01*
X144888905Y-121178905D01*
X144959078Y-121073882D01*
X144983720Y-120950000D01*
X144983720Y-120050000D01*
X144959078Y-119926118D01*
X144888905Y-119821095D01*
X144783882Y-119750922D01*
X144660000Y-119726280D01*
X143860000Y-119726280D01*
X143736118Y-119750922D01*
X143631095Y-119821095D01*
X143560922Y-119926118D01*
X143536280Y-120050000D01*
X143536280Y-120950000D01*
X143560922Y-121073882D01*
X143631095Y-121178905D01*
X143736118Y-121249078D01*
X143817500Y-121265266D01*
X143817501Y-123656413D01*
X143808831Y-123700000D01*
X143843174Y-123872654D01*
X143843175Y-123872655D01*
X143940976Y-124019025D01*
X143977926Y-124043714D01*
X144116878Y-124182666D01*
X143853569Y-124291733D01*
X143702464Y-124442839D01*
X143673125Y-124413500D01*
X143123500Y-124413500D01*
X143123500Y-124433500D01*
X142996500Y-124433500D01*
X142996500Y-124413500D01*
X141923500Y-124413500D01*
X141923500Y-124988125D01*
X141934793Y-124999418D01*
X141807932Y-125126280D01*
X141485000Y-125126280D01*
X141361118Y-125150922D01*
X141256095Y-125221095D01*
X141185922Y-125326118D01*
X141169734Y-125407500D01*
X141133720Y-125407500D01*
X141133720Y-124492875D01*
X141167500Y-124492875D01*
X141167500Y-124813155D01*
X141215837Y-124929850D01*
X141305151Y-125019164D01*
X141421846Y-125067500D01*
X141717125Y-125067500D01*
X141796500Y-124988125D01*
X141796500Y-124413500D01*
X141246875Y-124413500D01*
X141167500Y-124492875D01*
X141133720Y-124492875D01*
X141133720Y-123900000D01*
X141131104Y-123886845D01*
X141167500Y-123886845D01*
X141167500Y-124207125D01*
X141246875Y-124286500D01*
X141796500Y-124286500D01*
X141796500Y-123711875D01*
X141923500Y-123711875D01*
X141923500Y-124286500D01*
X142996500Y-124286500D01*
X142996500Y-123711875D01*
X143123500Y-123711875D01*
X143123500Y-124286500D01*
X143673125Y-124286500D01*
X143752500Y-124207125D01*
X143752500Y-123886845D01*
X143704163Y-123770150D01*
X143614849Y-123680836D01*
X143498154Y-123632500D01*
X143202875Y-123632500D01*
X143123500Y-123711875D01*
X142996500Y-123711875D01*
X142917125Y-123632500D01*
X142621846Y-123632500D01*
X142505151Y-123680836D01*
X142460000Y-123725987D01*
X142414849Y-123680836D01*
X142298154Y-123632500D01*
X142002875Y-123632500D01*
X141923500Y-123711875D01*
X141796500Y-123711875D01*
X141717125Y-123632500D01*
X141421846Y-123632500D01*
X141305151Y-123680836D01*
X141215837Y-123770150D01*
X141167500Y-123886845D01*
X141131104Y-123886845D01*
X141109078Y-123776118D01*
X141038905Y-123671095D01*
X140933882Y-123600922D01*
X140810000Y-123576280D01*
X140802500Y-123576280D01*
X140802500Y-122843580D01*
X140811169Y-122799999D01*
X140794843Y-122717923D01*
X140776826Y-122627345D01*
X140679025Y-122480975D01*
X140642074Y-122456285D01*
X140606100Y-122420311D01*
X140606100Y-122391374D01*
X140522961Y-122190659D01*
X140369341Y-122037039D01*
X140168626Y-121953900D01*
X139951374Y-121953900D01*
X139750659Y-122037039D01*
X139597039Y-122190659D01*
X139513900Y-122391374D01*
X139513900Y-122608626D01*
X139597039Y-122809341D01*
X139750659Y-122962961D01*
X139917501Y-123032069D01*
X139917501Y-123576280D01*
X139910000Y-123576280D01*
X139810000Y-123596172D01*
X139710000Y-123576280D01*
X138810000Y-123576280D01*
X138710000Y-123596172D01*
X138610000Y-123576280D01*
X137710000Y-123576280D01*
X137610000Y-123596172D01*
X137510000Y-123576280D01*
X136610000Y-123576280D01*
X136510000Y-123596172D01*
X136410000Y-123576280D01*
X136402500Y-123576280D01*
X136402500Y-123329802D01*
X136522961Y-123209341D01*
X136606100Y-123008626D01*
X136606100Y-122791374D01*
X136522961Y-122590659D01*
X136369341Y-122437039D01*
X136168626Y-122353900D01*
X135951374Y-122353900D01*
X135750659Y-122437039D01*
X135597039Y-122590659D01*
X135513900Y-122791374D01*
X135513900Y-122974516D01*
X135508831Y-123000000D01*
X135517501Y-123043587D01*
X135517501Y-123576280D01*
X135510000Y-123576280D01*
X135410000Y-123596172D01*
X135406100Y-123595396D01*
X135406100Y-123391374D01*
X135322961Y-123190659D01*
X135169341Y-123037039D01*
X134968626Y-122953900D01*
X134751374Y-122953900D01*
X134550659Y-123037039D01*
X134397039Y-123190659D01*
X134313900Y-123391374D01*
X134313900Y-123595396D01*
X134310000Y-123596172D01*
X134210000Y-123576280D01*
X133409508Y-123576280D01*
X134042075Y-122943714D01*
X134079025Y-122919025D01*
X134176826Y-122772655D01*
X134202500Y-122643582D01*
X134202500Y-122643581D01*
X134211169Y-122600001D01*
X134202500Y-122556420D01*
X134202500Y-118642875D01*
X142592500Y-118642875D01*
X142592500Y-119013155D01*
X142640837Y-119129850D01*
X142730151Y-119219164D01*
X142846846Y-119267500D01*
X143167125Y-119267500D01*
X143246500Y-119188125D01*
X143246500Y-118563500D01*
X143373500Y-118563500D01*
X143373500Y-119188125D01*
X143452875Y-119267500D01*
X143773154Y-119267500D01*
X143889849Y-119219164D01*
X143979163Y-119129850D01*
X144027500Y-119013155D01*
X144027500Y-118642875D01*
X143948125Y-118563500D01*
X143373500Y-118563500D01*
X143246500Y-118563500D01*
X142671875Y-118563500D01*
X142592500Y-118642875D01*
X134202500Y-118642875D01*
X134202500Y-117986845D01*
X142592500Y-117986845D01*
X142592500Y-118357125D01*
X142671875Y-118436500D01*
X143246500Y-118436500D01*
X143246500Y-117811875D01*
X143373500Y-117811875D01*
X143373500Y-118436500D01*
X143948125Y-118436500D01*
X144027500Y-118357125D01*
X144027500Y-117986845D01*
X143979163Y-117870150D01*
X143889849Y-117780836D01*
X143773154Y-117732500D01*
X143452875Y-117732500D01*
X143373500Y-117811875D01*
X143246500Y-117811875D01*
X143167125Y-117732500D01*
X142846846Y-117732500D01*
X142730151Y-117780836D01*
X142640837Y-117870150D01*
X142592500Y-117986845D01*
X134202500Y-117986845D01*
X134202500Y-116623720D01*
X134210000Y-116623720D01*
X134310000Y-116603828D01*
X134410000Y-116623720D01*
X135310000Y-116623720D01*
X135410000Y-116603828D01*
X135510000Y-116623720D01*
X135983345Y-116623720D01*
X135913900Y-116791374D01*
X135913900Y-117008626D01*
X135997039Y-117209341D01*
X136150659Y-117362961D01*
X136351374Y-117446100D01*
X136568626Y-117446100D01*
X136769341Y-117362961D01*
X136922961Y-117209341D01*
X137006100Y-117008626D01*
X137006100Y-116908978D01*
X137291359Y-116623720D01*
X137510000Y-116623720D01*
X137612594Y-116603313D01*
X137646846Y-116617500D01*
X138017125Y-116617500D01*
X138096500Y-116538125D01*
X138096500Y-115563500D01*
X138076500Y-115563500D01*
X138076500Y-115436500D01*
X138096500Y-115436500D01*
X138096500Y-114461875D01*
X138017125Y-114382500D01*
X137646846Y-114382500D01*
X137612594Y-114396687D01*
X137510000Y-114376280D01*
X136610000Y-114376280D01*
X136510000Y-114396172D01*
X136410000Y-114376280D01*
X136162069Y-114376280D01*
X135350433Y-113564645D01*
X135610208Y-113304871D01*
X135642976Y-113282976D01*
X135671377Y-113240472D01*
X135729726Y-113153146D01*
X135736101Y-113121095D01*
X135752500Y-113038655D01*
X135752500Y-113038652D01*
X135760188Y-113000001D01*
X135752500Y-112961350D01*
X135752500Y-110962578D01*
X135822579Y-110892500D01*
X136171349Y-110892500D01*
X136210000Y-110900188D01*
X136248651Y-110892500D01*
X136248655Y-110892500D01*
X136363146Y-110869726D01*
X136492976Y-110782976D01*
X136514873Y-110750205D01*
X136791359Y-110473720D01*
X137110000Y-110473720D01*
X137233882Y-110449078D01*
X137338905Y-110378905D01*
X137396500Y-110292707D01*
X137396500Y-111700000D01*
X137399759Y-111720080D01*
X138149759Y-113970080D01*
X138159200Y-113988100D01*
X138455000Y-114382500D01*
X138302875Y-114382500D01*
X138223500Y-114461875D01*
X138223500Y-115436500D01*
X138243500Y-115436500D01*
X138243500Y-115563500D01*
X138223500Y-115563500D01*
X138223500Y-116538125D01*
X138302875Y-116617500D01*
X138673154Y-116617500D01*
X138707406Y-116603313D01*
X138810000Y-116623720D01*
X139710000Y-116623720D01*
X139812594Y-116603313D01*
X139846846Y-116617500D01*
X140217125Y-116617500D01*
X140296500Y-116538125D01*
X140296500Y-115563500D01*
X140423500Y-115563500D01*
X140423500Y-116538125D01*
X140502875Y-116617500D01*
X140873154Y-116617500D01*
X140989849Y-116569164D01*
X141079163Y-116479850D01*
X141127500Y-116363155D01*
X141127500Y-115642875D01*
X141048125Y-115563500D01*
X140423500Y-115563500D01*
X140296500Y-115563500D01*
X140276500Y-115563500D01*
X140276500Y-115436500D01*
X140296500Y-115436500D01*
X140296500Y-115416500D01*
X140423500Y-115416500D01*
X140423500Y-115436500D01*
X141048125Y-115436500D01*
X141127500Y-115357125D01*
X141127500Y-115013500D01*
X141210000Y-115013500D01*
X141235014Y-115008366D01*
X141255445Y-114994350D01*
X141268958Y-114973583D01*
X141768958Y-113723583D01*
X141770241Y-113720080D01*
X142020241Y-112970080D01*
X142023500Y-112950000D01*
X142023500Y-104700000D01*
X142018666Y-104675700D01*
X142004901Y-104655099D01*
X141004901Y-103655099D01*
X140983583Y-103641042D01*
X139773500Y-103157009D01*
X139773500Y-101087221D01*
X139803905Y-101066905D01*
X139874078Y-100961882D01*
X139898720Y-100838000D01*
X139898720Y-98440875D01*
X141282500Y-98440875D01*
X141282500Y-100901155D01*
X141330837Y-101017850D01*
X141420151Y-101107164D01*
X141536846Y-101155500D01*
X142272875Y-101155500D01*
X142341873Y-101224498D01*
X142262500Y-101224498D01*
X142262500Y-101280303D01*
X142244588Y-101262391D01*
X142112717Y-101309884D01*
X142001962Y-101609312D01*
X142014223Y-101928330D01*
X142112717Y-102166116D01*
X142244588Y-102213609D01*
X142418452Y-102039745D01*
X142516846Y-102080500D01*
X142557303Y-102080500D01*
X142334391Y-102303412D01*
X142381884Y-102435283D01*
X142681312Y-102546038D01*
X143000330Y-102533777D01*
X143238116Y-102435283D01*
X143285609Y-102303412D01*
X143062697Y-102080500D01*
X143103154Y-102080500D01*
X143201548Y-102039745D01*
X143375412Y-102213609D01*
X143507283Y-102166116D01*
X143618038Y-101866688D01*
X143605777Y-101547670D01*
X143507283Y-101309884D01*
X143375412Y-101262391D01*
X143357500Y-101280303D01*
X143357500Y-101224498D01*
X143278127Y-101224498D01*
X143347125Y-101155500D01*
X144083154Y-101155500D01*
X144199849Y-101107164D01*
X144289163Y-101017850D01*
X144337500Y-100901155D01*
X144337500Y-98440875D01*
X144258125Y-98361500D01*
X142873500Y-98361500D01*
X142873500Y-98381500D01*
X142746500Y-98381500D01*
X142746500Y-98361500D01*
X141361875Y-98361500D01*
X141282500Y-98440875D01*
X139898720Y-98440875D01*
X139898720Y-95948500D01*
X141282500Y-95948500D01*
X141282500Y-98155125D01*
X141361875Y-98234500D01*
X142746500Y-98234500D01*
X142746500Y-98214500D01*
X142873500Y-98214500D01*
X142873500Y-98234500D01*
X144258125Y-98234500D01*
X144337500Y-98155125D01*
X144337500Y-95948500D01*
X150685500Y-95948500D01*
X150685500Y-116014405D01*
X150521336Y-115850241D01*
X150092230Y-115672500D01*
X149627770Y-115672500D01*
X149198664Y-115850241D01*
X148870241Y-116178664D01*
X148692500Y-116607770D01*
X148692500Y-117072230D01*
X148870241Y-117501336D01*
X149198664Y-117829759D01*
X149627770Y-118007500D01*
X150092230Y-118007500D01*
X150521336Y-117829759D01*
X150685500Y-117665595D01*
X150685500Y-118527442D01*
X150315536Y-118280240D01*
X149974985Y-118212500D01*
X149745015Y-118212500D01*
X149404464Y-118280240D01*
X149018280Y-118538280D01*
X148760240Y-118924464D01*
X148757647Y-118937500D01*
X146273289Y-118937500D01*
X145933720Y-118597932D01*
X145933720Y-118050000D01*
X145909078Y-117926118D01*
X145838905Y-117821095D01*
X145733882Y-117750922D01*
X145610000Y-117726280D01*
X144810000Y-117726280D01*
X144686118Y-117750922D01*
X144581095Y-117821095D01*
X144510922Y-117926118D01*
X144486280Y-118050000D01*
X144486280Y-118950000D01*
X144510922Y-119073882D01*
X144581095Y-119178905D01*
X144686118Y-119249078D01*
X144810000Y-119273720D01*
X145357931Y-119273720D01*
X145746285Y-119662074D01*
X145770975Y-119699025D01*
X145917345Y-119796826D01*
X146090000Y-119831169D01*
X146133582Y-119822500D01*
X148757647Y-119822500D01*
X148760240Y-119835536D01*
X149018280Y-120221720D01*
X149404464Y-120479760D01*
X149745015Y-120547500D01*
X149974985Y-120547500D01*
X150315536Y-120479760D01*
X150685500Y-120232558D01*
X150685500Y-121067442D01*
X150315536Y-120820240D01*
X149974985Y-120752500D01*
X149745015Y-120752500D01*
X149404464Y-120820240D01*
X149018280Y-121078280D01*
X148760240Y-121464464D01*
X148669628Y-121920000D01*
X148760240Y-122375536D01*
X149018280Y-122761720D01*
X149404464Y-123019760D01*
X149745015Y-123087500D01*
X149974985Y-123087500D01*
X150315536Y-123019760D01*
X150685500Y-122772558D01*
X150685500Y-123607442D01*
X150315536Y-123360240D01*
X149974985Y-123292500D01*
X149745015Y-123292500D01*
X149404464Y-123360240D01*
X149018280Y-123618280D01*
X148760240Y-124004464D01*
X148669628Y-124460000D01*
X148760240Y-124915536D01*
X149018280Y-125301720D01*
X149404464Y-125559760D01*
X149745015Y-125627500D01*
X149974985Y-125627500D01*
X150315536Y-125559760D01*
X150685500Y-125312558D01*
X150685500Y-126147442D01*
X150315536Y-125900240D01*
X149974985Y-125832500D01*
X149745015Y-125832500D01*
X149404464Y-125900240D01*
X149018280Y-126158280D01*
X148760240Y-126544464D01*
X148669628Y-127000000D01*
X148760240Y-127455536D01*
X149018280Y-127841720D01*
X149404464Y-128099760D01*
X149745015Y-128167500D01*
X149974985Y-128167500D01*
X150315536Y-128099760D01*
X150685500Y-127852558D01*
X150685500Y-128687442D01*
X150315536Y-128440240D01*
X149974985Y-128372500D01*
X149745015Y-128372500D01*
X149404464Y-128440240D01*
X149018280Y-128698280D01*
X148760240Y-129084464D01*
X148669628Y-129540000D01*
X148760240Y-129995536D01*
X149018280Y-130381720D01*
X149404464Y-130639760D01*
X149745015Y-130707500D01*
X149974985Y-130707500D01*
X150315536Y-130639760D01*
X150685500Y-130392558D01*
X150685500Y-131227442D01*
X150315536Y-130980240D01*
X149974985Y-130912500D01*
X149745015Y-130912500D01*
X149404464Y-130980240D01*
X149018280Y-131238280D01*
X148760240Y-131624464D01*
X148669628Y-132080000D01*
X148760240Y-132535536D01*
X149018280Y-132921720D01*
X149404464Y-133179760D01*
X149745015Y-133247500D01*
X149974985Y-133247500D01*
X150315536Y-133179760D01*
X150685500Y-132932558D01*
X150685500Y-133826419D01*
X150523260Y-133659189D01*
X150105086Y-133478508D01*
X149923500Y-133533597D01*
X149923500Y-134556500D01*
X149943500Y-134556500D01*
X149943500Y-134683500D01*
X149923500Y-134683500D01*
X149923500Y-135706403D01*
X150105086Y-135761492D01*
X150523260Y-135580811D01*
X150685500Y-135413581D01*
X150685500Y-135736698D01*
X148436698Y-137985500D01*
X126174500Y-137985500D01*
X126174500Y-135413581D01*
X126336740Y-135580811D01*
X126754914Y-135761492D01*
X126936500Y-135706403D01*
X126936500Y-134683500D01*
X127063500Y-134683500D01*
X127063500Y-135706403D01*
X127245086Y-135761492D01*
X127663260Y-135580811D01*
X127686088Y-135557280D01*
X130142500Y-135557280D01*
X130142500Y-135842720D01*
X130251733Y-136106431D01*
X130453569Y-136308267D01*
X130717280Y-136417500D01*
X131002720Y-136417500D01*
X131266431Y-136308267D01*
X131468267Y-136106431D01*
X131577500Y-135842720D01*
X131577500Y-135557280D01*
X143742500Y-135557280D01*
X143742500Y-135842720D01*
X143851733Y-136106431D01*
X144053569Y-136308267D01*
X144317280Y-136417500D01*
X144602720Y-136417500D01*
X144866431Y-136308267D01*
X145068267Y-136106431D01*
X145177500Y-135842720D01*
X145177500Y-135557280D01*
X145068267Y-135293569D01*
X144967743Y-135193045D01*
X144988905Y-135178905D01*
X145059078Y-135073882D01*
X145083720Y-134950000D01*
X145083720Y-134050000D01*
X145059078Y-133926118D01*
X144988905Y-133821095D01*
X144883882Y-133750922D01*
X144760000Y-133726280D01*
X144260000Y-133726280D01*
X144136118Y-133750922D01*
X144031095Y-133821095D01*
X143960922Y-133926118D01*
X143936280Y-134050000D01*
X143936280Y-134950000D01*
X143960922Y-135073882D01*
X144005181Y-135140121D01*
X143851733Y-135293569D01*
X143742500Y-135557280D01*
X131577500Y-135557280D01*
X131468267Y-135293569D01*
X131367743Y-135193045D01*
X131388905Y-135178905D01*
X131459078Y-135073882D01*
X131483720Y-134950000D01*
X131483720Y-134050000D01*
X131459078Y-133926118D01*
X131388905Y-133821095D01*
X131283882Y-133750922D01*
X131160000Y-133726280D01*
X130660000Y-133726280D01*
X130536118Y-133750922D01*
X130431095Y-133821095D01*
X130360922Y-133926118D01*
X130336280Y-134050000D01*
X130336280Y-134950000D01*
X130360922Y-135073882D01*
X130405181Y-135140121D01*
X130251733Y-135293569D01*
X130142500Y-135557280D01*
X127686088Y-135557280D01*
X127980459Y-135253855D01*
X128141486Y-134865085D01*
X128086271Y-134683500D01*
X127063500Y-134683500D01*
X126936500Y-134683500D01*
X126916500Y-134683500D01*
X126916500Y-134556500D01*
X126936500Y-134556500D01*
X126936500Y-133533597D01*
X127063500Y-133533597D01*
X127063500Y-134556500D01*
X128086271Y-134556500D01*
X128141486Y-134374915D01*
X127980459Y-133986145D01*
X127663260Y-133659189D01*
X127245086Y-133478508D01*
X127063500Y-133533597D01*
X126936500Y-133533597D01*
X126754914Y-133478508D01*
X126336740Y-133659189D01*
X126174500Y-133826419D01*
X126174500Y-132932558D01*
X126544464Y-133179760D01*
X126885015Y-133247500D01*
X127114985Y-133247500D01*
X127455536Y-133179760D01*
X127841720Y-132921720D01*
X128099760Y-132535536D01*
X128190372Y-132080000D01*
X128099760Y-131624464D01*
X127841720Y-131238280D01*
X127455536Y-130980240D01*
X127114985Y-130912500D01*
X126885015Y-130912500D01*
X126544464Y-130980240D01*
X126174500Y-131227442D01*
X126174500Y-130392558D01*
X126544464Y-130639760D01*
X126885015Y-130707500D01*
X127114985Y-130707500D01*
X127455536Y-130639760D01*
X127841720Y-130381720D01*
X128099760Y-129995536D01*
X128190372Y-129540000D01*
X128099760Y-129084464D01*
X127841720Y-128698280D01*
X127459480Y-128442875D01*
X130117500Y-128442875D01*
X130117500Y-128838154D01*
X130165836Y-128954849D01*
X130255150Y-129044163D01*
X130371845Y-129092500D01*
X130729625Y-129092500D01*
X130809000Y-129013125D01*
X130809000Y-128363500D01*
X130196875Y-128363500D01*
X130117500Y-128442875D01*
X127459480Y-128442875D01*
X127455536Y-128440240D01*
X127114985Y-128372500D01*
X126885015Y-128372500D01*
X126544464Y-128440240D01*
X126174500Y-128687442D01*
X126174500Y-127852558D01*
X126544464Y-128099760D01*
X126885015Y-128167500D01*
X127114985Y-128167500D01*
X127455536Y-128099760D01*
X127841720Y-127841720D01*
X127895090Y-127761846D01*
X130117500Y-127761846D01*
X130117500Y-128157125D01*
X130196875Y-128236500D01*
X130809000Y-128236500D01*
X130809000Y-127586875D01*
X130729625Y-127507500D01*
X130371845Y-127507500D01*
X130255150Y-127555837D01*
X130165836Y-127645151D01*
X130117500Y-127761846D01*
X127895090Y-127761846D01*
X128099760Y-127455536D01*
X128190372Y-127000000D01*
X128099760Y-126544464D01*
X127841720Y-126158280D01*
X127455536Y-125900240D01*
X127114985Y-125832500D01*
X126885015Y-125832500D01*
X126544464Y-125900240D01*
X126174500Y-126147442D01*
X126174500Y-125312558D01*
X126544464Y-125559760D01*
X126885015Y-125627500D01*
X127114985Y-125627500D01*
X127455536Y-125559760D01*
X127841720Y-125301720D01*
X128099760Y-124915536D01*
X128114213Y-124842875D01*
X130792500Y-124842875D01*
X130792500Y-125563155D01*
X130840837Y-125679850D01*
X130930151Y-125769164D01*
X131046846Y-125817500D01*
X131417125Y-125817500D01*
X131496500Y-125738125D01*
X131496500Y-124763500D01*
X130871875Y-124763500D01*
X130792500Y-124842875D01*
X128114213Y-124842875D01*
X128190372Y-124460000D01*
X128099760Y-124004464D01*
X127841720Y-123618280D01*
X127455536Y-123360240D01*
X127114985Y-123292500D01*
X126885015Y-123292500D01*
X126544464Y-123360240D01*
X126174500Y-123607442D01*
X126174500Y-122772558D01*
X126544464Y-123019760D01*
X126885015Y-123087500D01*
X127114985Y-123087500D01*
X127455536Y-123019760D01*
X127841720Y-122761720D01*
X128099760Y-122375536D01*
X128190372Y-121920000D01*
X128099760Y-121464464D01*
X127841720Y-121078280D01*
X127455536Y-120820240D01*
X127114985Y-120752500D01*
X126885015Y-120752500D01*
X126544464Y-120820240D01*
X126174500Y-121067442D01*
X126174500Y-120232558D01*
X126544464Y-120479760D01*
X126885015Y-120547500D01*
X127114985Y-120547500D01*
X127455536Y-120479760D01*
X127841720Y-120221720D01*
X128099760Y-119835536D01*
X128190372Y-119380000D01*
X128099760Y-118924464D01*
X127841720Y-118538280D01*
X127455536Y-118280240D01*
X127114985Y-118212500D01*
X126885015Y-118212500D01*
X126544464Y-118280240D01*
X126174500Y-118527442D01*
X126174500Y-118013720D01*
X127850000Y-118013720D01*
X127973882Y-117989078D01*
X128078905Y-117918905D01*
X128149078Y-117813882D01*
X128173720Y-117690000D01*
X128173720Y-115990000D01*
X128149078Y-115866118D01*
X128078905Y-115761095D01*
X127973882Y-115690922D01*
X127850000Y-115666280D01*
X126174500Y-115666280D01*
X126174500Y-111642875D01*
X131442500Y-111642875D01*
X131442500Y-112188154D01*
X131490836Y-112304849D01*
X131580150Y-112394163D01*
X131696845Y-112442500D01*
X132117125Y-112442500D01*
X132196500Y-112363125D01*
X132196500Y-111563500D01*
X132323500Y-111563500D01*
X132323500Y-112363125D01*
X132402875Y-112442500D01*
X132823155Y-112442500D01*
X132939850Y-112394163D01*
X133029164Y-112304849D01*
X133077500Y-112188154D01*
X133077500Y-111642875D01*
X132998125Y-111563500D01*
X132323500Y-111563500D01*
X132196500Y-111563500D01*
X131521875Y-111563500D01*
X131442500Y-111642875D01*
X126174500Y-111642875D01*
X126174500Y-110811846D01*
X131442500Y-110811846D01*
X131442500Y-111357125D01*
X131521875Y-111436500D01*
X132196500Y-111436500D01*
X132196500Y-110636875D01*
X132323500Y-110636875D01*
X132323500Y-111436500D01*
X132998125Y-111436500D01*
X133077500Y-111357125D01*
X133077500Y-110811846D01*
X133029164Y-110695151D01*
X132939850Y-110605837D01*
X132823155Y-110557500D01*
X132402875Y-110557500D01*
X132323500Y-110636875D01*
X132196500Y-110636875D01*
X132117125Y-110557500D01*
X131696845Y-110557500D01*
X131580150Y-110605837D01*
X131490836Y-110695151D01*
X131442500Y-110811846D01*
X126174500Y-110811846D01*
X126174500Y-106700000D01*
X130998280Y-106700000D01*
X130998280Y-107200000D01*
X131022922Y-107323882D01*
X131093095Y-107428905D01*
X131198118Y-107499078D01*
X131322000Y-107523720D01*
X132222000Y-107523720D01*
X132345882Y-107499078D01*
X132450905Y-107428905D01*
X132475230Y-107392500D01*
X132686280Y-107392500D01*
X132686280Y-107475000D01*
X132710922Y-107598882D01*
X132781095Y-107703905D01*
X132886118Y-107774078D01*
X133010000Y-107798720D01*
X133410000Y-107798720D01*
X133533882Y-107774078D01*
X133540957Y-107769350D01*
X133596846Y-107792500D01*
X133717125Y-107792500D01*
X133796500Y-107713125D01*
X133796500Y-107213500D01*
X133776500Y-107213500D01*
X133776500Y-107086500D01*
X133796500Y-107086500D01*
X133796500Y-106586875D01*
X133717125Y-106507500D01*
X133596846Y-106507500D01*
X133540957Y-106530650D01*
X133533882Y-106525922D01*
X133410000Y-106501280D01*
X133022312Y-106501280D01*
X133010000Y-106498831D01*
X132966418Y-106507500D01*
X132475230Y-106507500D01*
X132450905Y-106471095D01*
X132345882Y-106400922D01*
X132222000Y-106376280D01*
X131322000Y-106376280D01*
X131198118Y-106400922D01*
X131093095Y-106471095D01*
X131022922Y-106576118D01*
X130998280Y-106700000D01*
X126174500Y-106700000D01*
X126174500Y-104642875D01*
X131442500Y-104642875D01*
X131442500Y-105188154D01*
X131490836Y-105304849D01*
X131580150Y-105394163D01*
X131696845Y-105442500D01*
X132117125Y-105442500D01*
X132196500Y-105363125D01*
X132196500Y-104563500D01*
X132323500Y-104563500D01*
X132323500Y-105363125D01*
X132402875Y-105442500D01*
X132823155Y-105442500D01*
X132939850Y-105394163D01*
X133029164Y-105304849D01*
X133077500Y-105188154D01*
X133077500Y-104642875D01*
X132998125Y-104563500D01*
X132323500Y-104563500D01*
X132196500Y-104563500D01*
X131521875Y-104563500D01*
X131442500Y-104642875D01*
X126174500Y-104642875D01*
X126174500Y-103811846D01*
X131442500Y-103811846D01*
X131442500Y-104357125D01*
X131521875Y-104436500D01*
X132196500Y-104436500D01*
X132196500Y-103636875D01*
X132323500Y-103636875D01*
X132323500Y-104436500D01*
X132998125Y-104436500D01*
X133077500Y-104357125D01*
X133077500Y-103811846D01*
X133029164Y-103695151D01*
X132939850Y-103605837D01*
X132823155Y-103557500D01*
X132402875Y-103557500D01*
X132323500Y-103636875D01*
X132196500Y-103636875D01*
X132117125Y-103557500D01*
X131696845Y-103557500D01*
X131580150Y-103605837D01*
X131490836Y-103695151D01*
X131442500Y-103811846D01*
X126174500Y-103811846D01*
X126174500Y-95948500D01*
X132522500Y-95948500D01*
X132522500Y-98155125D01*
X132522500Y-98155125D01*
G37*
X132522500Y-98155125D02*
X132601875Y-98234500D01*
X133986500Y-98234500D01*
X133986500Y-98214500D01*
X134113500Y-98214500D01*
X134113500Y-98234500D01*
X135498125Y-98234500D01*
X135577500Y-98155125D01*
X135577500Y-95948500D01*
X136961280Y-95948500D01*
X136961280Y-100838000D01*
X136985922Y-100961882D01*
X137056095Y-101066905D01*
X137161118Y-101137078D01*
X137285000Y-101161720D01*
X137396500Y-101161720D01*
X137396500Y-101324065D01*
X137380150Y-101330837D01*
X137290836Y-101420151D01*
X137242500Y-101536846D01*
X137242500Y-101657125D01*
X137321875Y-101736500D01*
X137396500Y-101736500D01*
X137396500Y-101863500D01*
X137321875Y-101863500D01*
X137242500Y-101942875D01*
X137242500Y-102063154D01*
X137290836Y-102179849D01*
X137380150Y-102269163D01*
X137396500Y-102275935D01*
X137396500Y-102456280D01*
X137327500Y-102456280D01*
X137147172Y-102492149D01*
X136994297Y-102594297D01*
X136985475Y-102607500D01*
X136596638Y-102607500D01*
X136538905Y-102521095D01*
X136508340Y-102500673D01*
X136579163Y-102429850D01*
X136627500Y-102313155D01*
X136627500Y-102092875D01*
X136548125Y-102013500D01*
X136123500Y-102013500D01*
X136123500Y-102033500D01*
X135996500Y-102033500D01*
X135996500Y-102013500D01*
X135571875Y-102013500D01*
X135492500Y-102092875D01*
X135492500Y-102313155D01*
X135540837Y-102429850D01*
X135611660Y-102500673D01*
X135581095Y-102521095D01*
X135543296Y-102577666D01*
X135538905Y-102571095D01*
X135433882Y-102500922D01*
X135310000Y-102476280D01*
X134910000Y-102476280D01*
X134786118Y-102500922D01*
X134681095Y-102571095D01*
X134660000Y-102602666D01*
X134638905Y-102571095D01*
X134533882Y-102500922D01*
X134410000Y-102476280D01*
X134379140Y-102476280D01*
X134478116Y-102435283D01*
X134525609Y-102303412D01*
X134302697Y-102080500D01*
X134343154Y-102080500D01*
X134441548Y-102039745D01*
X134615412Y-102213609D01*
X134747283Y-102166116D01*
X134858038Y-101866688D01*
X134847283Y-101586845D01*
X135492500Y-101586845D01*
X135492500Y-101807125D01*
X135571875Y-101886500D01*
X135996500Y-101886500D01*
X135996500Y-101411875D01*
X136123500Y-101411875D01*
X136123500Y-101886500D01*
X136548125Y-101886500D01*
X136627500Y-101807125D01*
X136627500Y-101586845D01*
X136579163Y-101470150D01*
X136489849Y-101380836D01*
X136373154Y-101332500D01*
X136202875Y-101332500D01*
X136123500Y-101411875D01*
X135996500Y-101411875D01*
X135917125Y-101332500D01*
X135746846Y-101332500D01*
X135630151Y-101380836D01*
X135540837Y-101470150D01*
X135492500Y-101586845D01*
X134847283Y-101586845D01*
X134845777Y-101547670D01*
X134747283Y-101309884D01*
X134615412Y-101262391D01*
X134597500Y-101280303D01*
X134597500Y-101224498D01*
X134518127Y-101224498D01*
X134587125Y-101155500D01*
X135323154Y-101155500D01*
X135439849Y-101107164D01*
X135529163Y-101017850D01*
X135577500Y-100901155D01*
X135577500Y-98440875D01*
X135498125Y-98361500D01*
X134113500Y-98361500D01*
X134113500Y-98381500D01*
X133986500Y-98381500D01*
X133986500Y-98361500D01*
X132601875Y-98361500D01*
X132522500Y-98440875D01*
X132522500Y-100901155D01*
X132570837Y-101017850D01*
X132660151Y-101107164D01*
X132776846Y-101155500D01*
X133512875Y-101155500D01*
X133581873Y-101224498D01*
X133502500Y-101224498D01*
X133502500Y-101280303D01*
X133484588Y-101262391D01*
X133352717Y-101309884D01*
X133241962Y-101609312D01*
X133254223Y-101928330D01*
X133352717Y-102166116D01*
X133484588Y-102213609D01*
X133658452Y-102039745D01*
X133756846Y-102080500D01*
X133797303Y-102080500D01*
X133574391Y-102303412D01*
X133621884Y-102435283D01*
X133855197Y-102521583D01*
X133781095Y-102571095D01*
X133710922Y-102676118D01*
X133686280Y-102800000D01*
X133686280Y-103400000D01*
X133710922Y-103523882D01*
X133732838Y-103556683D01*
X133636118Y-103575922D01*
X133531095Y-103646095D01*
X133460922Y-103751118D01*
X133436280Y-103875000D01*
X133436280Y-105125000D01*
X133460922Y-105248882D01*
X133531095Y-105353905D01*
X133636118Y-105424078D01*
X133760000Y-105448720D01*
X134067501Y-105448720D01*
X134067500Y-106507500D01*
X134002875Y-106507500D01*
X133923500Y-106586875D01*
X133923500Y-107086500D01*
X133943500Y-107086500D01*
X133943500Y-107213500D01*
X133923500Y-107213500D01*
X133923500Y-107713125D01*
X134002875Y-107792500D01*
X134123154Y-107792500D01*
X134179043Y-107769350D01*
X134186118Y-107774078D01*
X134310000Y-107798720D01*
X134710000Y-107798720D01*
X134833882Y-107774078D01*
X134938905Y-107703905D01*
X135009078Y-107598882D01*
X135021417Y-107536846D01*
X135492500Y-107536846D01*
X135492500Y-107757125D01*
X135571875Y-107836500D01*
X135946500Y-107836500D01*
X135946500Y-107361875D01*
X135867125Y-107282500D01*
X135746845Y-107282500D01*
X135630150Y-107330837D01*
X135540836Y-107420151D01*
X135492500Y-107536846D01*
X135021417Y-107536846D01*
X135033720Y-107475000D01*
X135033720Y-106825000D01*
X135009078Y-106701118D01*
X134952500Y-106616442D01*
X134952500Y-105378230D01*
X134988905Y-105353905D01*
X135059078Y-105248882D01*
X135083720Y-105125000D01*
X135083720Y-103875000D01*
X135059078Y-103751118D01*
X135040772Y-103723720D01*
X135310000Y-103723720D01*
X135433882Y-103699078D01*
X135538905Y-103628905D01*
X135576704Y-103572334D01*
X135581095Y-103578905D01*
X135686118Y-103649078D01*
X135810000Y-103673720D01*
X136310000Y-103673720D01*
X136433882Y-103649078D01*
X136538905Y-103578905D01*
X136596638Y-103492500D01*
X136918657Y-103492500D01*
X136994297Y-103605703D01*
X137147172Y-103707851D01*
X137327500Y-103743720D01*
X137396500Y-103743720D01*
X137396500Y-107457293D01*
X137338905Y-107371095D01*
X137233882Y-107300922D01*
X137110000Y-107276280D01*
X136710000Y-107276280D01*
X136586118Y-107300922D01*
X136481095Y-107371095D01*
X136460673Y-107401660D01*
X136389850Y-107330837D01*
X136273155Y-107282500D01*
X136152875Y-107282500D01*
X136073500Y-107361875D01*
X136073500Y-107836500D01*
X136093500Y-107836500D01*
X136093500Y-107963500D01*
X136073500Y-107963500D01*
X136073500Y-107983500D01*
X135946500Y-107983500D01*
X135946500Y-107963500D01*
X135571875Y-107963500D01*
X135492500Y-108042875D01*
X135492500Y-108139865D01*
X135409793Y-108195128D01*
X135409792Y-108195129D01*
X135377024Y-108217024D01*
X135355129Y-108249792D01*
X135006965Y-108597956D01*
X134938905Y-108496095D01*
X134833882Y-108425922D01*
X134710000Y-108401280D01*
X134487068Y-108401280D01*
X134253716Y-108167928D01*
X134229025Y-108130975D01*
X134082655Y-108033174D01*
X133953582Y-108007500D01*
X133910000Y-107998831D01*
X133866418Y-108007500D01*
X132475230Y-108007500D01*
X132450905Y-107971095D01*
X132345882Y-107900922D01*
X132222000Y-107876280D01*
X131322000Y-107876280D01*
X131198118Y-107900922D01*
X131093095Y-107971095D01*
X131022922Y-108076118D01*
X130998280Y-108200000D01*
X130998280Y-108700000D01*
X131022922Y-108823882D01*
X131093095Y-108928905D01*
X131198118Y-108999078D01*
X131322000Y-109023720D01*
X132222000Y-109023720D01*
X132345882Y-108999078D01*
X132450905Y-108928905D01*
X132475230Y-108892500D01*
X132686280Y-108892500D01*
X132686280Y-109375000D01*
X132710922Y-109498882D01*
X132781095Y-109603905D01*
X132886118Y-109674078D01*
X133010000Y-109698720D01*
X133303641Y-109698720D01*
X133305964Y-109701043D01*
X133286280Y-109800000D01*
X133286280Y-110400000D01*
X133310922Y-110523882D01*
X133381095Y-110628905D01*
X133486118Y-110699078D01*
X133494570Y-110700759D01*
X133460922Y-110751118D01*
X133436280Y-110875000D01*
X133436280Y-112125000D01*
X133460922Y-112248882D01*
X133531095Y-112353905D01*
X133636118Y-112424078D01*
X133760000Y-112448720D01*
X133809086Y-112448720D01*
X133808831Y-112450000D01*
X133836280Y-112587996D01*
X133836280Y-112777430D01*
X133777024Y-112817024D01*
X133755125Y-112849797D01*
X133609794Y-112995129D01*
X133577025Y-113017024D01*
X133555130Y-113049792D01*
X133555128Y-113049794D01*
X133490274Y-113146855D01*
X133459812Y-113300000D01*
X133467501Y-113338655D01*
X133467500Y-113861349D01*
X133459812Y-113900000D01*
X133467500Y-113938651D01*
X133467500Y-113938654D01*
X133490274Y-114053145D01*
X133577024Y-114182976D01*
X133609795Y-114204873D01*
X133781202Y-114376280D01*
X133310000Y-114376280D01*
X133210000Y-114396172D01*
X133110000Y-114376280D01*
X132210000Y-114376280D01*
X132110000Y-114396172D01*
X132010000Y-114376280D01*
X131110000Y-114376280D01*
X130986118Y-114400922D01*
X130881095Y-114471095D01*
X130810922Y-114576118D01*
X130786280Y-114700000D01*
X130786280Y-116300000D01*
X130810922Y-116423882D01*
X130881095Y-116528905D01*
X130986118Y-116599078D01*
X131110000Y-116623720D01*
X132010000Y-116623720D01*
X132110000Y-116603828D01*
X132210000Y-116623720D01*
X132217501Y-116623720D01*
X132217500Y-122570198D01*
X132197039Y-122590659D01*
X132113900Y-122791374D01*
X132113900Y-122953900D01*
X131951374Y-122953900D01*
X131750659Y-123037039D01*
X131597039Y-123190659D01*
X131513900Y-123391374D01*
X131513900Y-123582500D01*
X131496498Y-123582500D01*
X131496498Y-123661873D01*
X131417125Y-123582500D01*
X131046846Y-123582500D01*
X130930151Y-123630836D01*
X130840837Y-123720150D01*
X130792500Y-123836845D01*
X130792500Y-124557125D01*
X130871875Y-124636500D01*
X131496500Y-124636500D01*
X131496500Y-124616500D01*
X131623500Y-124616500D01*
X131623500Y-124636500D01*
X131643500Y-124636500D01*
X131643500Y-124763500D01*
X131623500Y-124763500D01*
X131623500Y-125738125D01*
X131702875Y-125817500D01*
X132073154Y-125817500D01*
X132107406Y-125803313D01*
X132210000Y-125823720D01*
X132348002Y-125823720D01*
X132377928Y-125843716D01*
X132713900Y-126179689D01*
X132713900Y-126208626D01*
X132797039Y-126409341D01*
X132950659Y-126562961D01*
X133151374Y-126646100D01*
X133329422Y-126646100D01*
X133334144Y-126657500D01*
X132303580Y-126657500D01*
X132259999Y-126648831D01*
X132216418Y-126657500D01*
X132087345Y-126683174D01*
X131940975Y-126780975D01*
X131916285Y-126817926D01*
X131377926Y-127356286D01*
X131340976Y-127380975D01*
X131291156Y-127455536D01*
X131256435Y-127507500D01*
X131015375Y-127507500D01*
X130936000Y-127586875D01*
X130936000Y-128236500D01*
X130956000Y-128236500D01*
X130956000Y-128363500D01*
X130936000Y-128363500D01*
X130936000Y-129013125D01*
X131015375Y-129092500D01*
X131217501Y-129092500D01*
X131217501Y-129371280D01*
X130380000Y-129371280D01*
X130256118Y-129395922D01*
X130151095Y-129466095D01*
X130080922Y-129571118D01*
X130056280Y-129695000D01*
X130056280Y-133195000D01*
X130080922Y-133318882D01*
X130151095Y-133423905D01*
X130256118Y-133494078D01*
X130380000Y-133518720D01*
X133015491Y-133518720D01*
X132783387Y-133750824D01*
X132660000Y-133726280D01*
X132160000Y-133726280D01*
X132036118Y-133750922D01*
X131931095Y-133821095D01*
X131860922Y-133926118D01*
X131836280Y-134050000D01*
X131836280Y-134950000D01*
X131860922Y-135073882D01*
X131931095Y-135178905D01*
X132036118Y-135249078D01*
X132160000Y-135273720D01*
X132660000Y-135273720D01*
X132783882Y-135249078D01*
X132888905Y-135178905D01*
X132959078Y-135073882D01*
X132983720Y-134950000D01*
X132983720Y-134811998D01*
X133003716Y-134782072D01*
X133942078Y-133843712D01*
X133979025Y-133819025D01*
X134076826Y-133672655D01*
X134102500Y-133543582D01*
X134102500Y-133543581D01*
X134111169Y-133500000D01*
X134102500Y-133456418D01*
X134102500Y-131587875D01*
X136112500Y-131587875D01*
X136112500Y-133508154D01*
X136160836Y-133624849D01*
X136250150Y-133714163D01*
X136366845Y-133762500D01*
X138287125Y-133762500D01*
X138366500Y-133683125D01*
X138366500Y-131508500D01*
X138493500Y-131508500D01*
X138493500Y-133683125D01*
X138572875Y-133762500D01*
X140493155Y-133762500D01*
X140609850Y-133714163D01*
X140699164Y-133624849D01*
X140747500Y-133508154D01*
X140747500Y-131587875D01*
X140668125Y-131508500D01*
X138493500Y-131508500D01*
X138366500Y-131508500D01*
X136191875Y-131508500D01*
X136112500Y-131587875D01*
X134102500Y-131587875D01*
X134102500Y-129556082D01*
X134111169Y-129512500D01*
X134085181Y-129381846D01*
X136112500Y-129381846D01*
X136112500Y-131302125D01*
X136191875Y-131381500D01*
X138366500Y-131381500D01*
X138366500Y-129206875D01*
X138493500Y-129206875D01*
X138493500Y-131381500D01*
X140668125Y-131381500D01*
X140747500Y-131302125D01*
X140747500Y-129381846D01*
X140699164Y-129265151D01*
X140609850Y-129175837D01*
X140493155Y-129127500D01*
X138572875Y-129127500D01*
X138493500Y-129206875D01*
X138366500Y-129206875D01*
X138287125Y-129127500D01*
X136366845Y-129127500D01*
X136250150Y-129175837D01*
X136160836Y-129265151D01*
X136112500Y-129381846D01*
X134085181Y-129381846D01*
X134076826Y-129339845D01*
X134040283Y-129285155D01*
X133979025Y-129193475D01*
X133942074Y-129168786D01*
X133208720Y-128435432D01*
X133208720Y-128043750D01*
X133167427Y-127836156D01*
X133049834Y-127660166D01*
X132873844Y-127542573D01*
X132873477Y-127542500D01*
X135416418Y-127542500D01*
X135460000Y-127551169D01*
X135503582Y-127542500D01*
X135632655Y-127516826D01*
X135779025Y-127419025D01*
X135803716Y-127382072D01*
X137060001Y-126125789D01*
X137516285Y-126582074D01*
X137540975Y-126619025D01*
X137636983Y-126683175D01*
X137687345Y-126716826D01*
X137860000Y-126751169D01*
X137903582Y-126742500D01*
X140676712Y-126742500D01*
X143380595Y-129446384D01*
X143351095Y-129466095D01*
X143280922Y-129571118D01*
X143256280Y-129695000D01*
X143256280Y-133195000D01*
X143280922Y-133318882D01*
X143351095Y-133423905D01*
X143456118Y-133494078D01*
X143580000Y-133518720D01*
X146365490Y-133518720D01*
X146157931Y-133726280D01*
X145760000Y-133726280D01*
X145636118Y-133750922D01*
X145531095Y-133821095D01*
X145460922Y-133926118D01*
X145436280Y-134050000D01*
X145436280Y-134950000D01*
X145460922Y-135073882D01*
X145531095Y-135178905D01*
X145636118Y-135249078D01*
X145760000Y-135273720D01*
X146260000Y-135273720D01*
X146383882Y-135249078D01*
X146488905Y-135178905D01*
X146559078Y-135073882D01*
X146583720Y-134950000D01*
X146583720Y-134865085D01*
X148718514Y-134865085D01*
X148879541Y-135253855D01*
X149196740Y-135580811D01*
X149614914Y-135761492D01*
X149796500Y-135706403D01*
X149796500Y-134683500D01*
X148773729Y-134683500D01*
X148718514Y-134865085D01*
X146583720Y-134865085D01*
X146583720Y-134552069D01*
X146760874Y-134374915D01*
X148718514Y-134374915D01*
X148773729Y-134556500D01*
X149796500Y-134556500D01*
X149796500Y-133533597D01*
X149614914Y-133478508D01*
X149196740Y-133659189D01*
X148879541Y-133986145D01*
X148718514Y-134374915D01*
X146760874Y-134374915D01*
X147142078Y-133993712D01*
X147179025Y-133969025D01*
X147276826Y-133822655D01*
X147302500Y-133693582D01*
X147302500Y-133693581D01*
X147311169Y-133650000D01*
X147302500Y-133606418D01*
X147302500Y-129156082D01*
X147311169Y-129112500D01*
X147276826Y-128939845D01*
X147221082Y-128856418D01*
X147179025Y-128793475D01*
X147142077Y-128768787D01*
X146808720Y-128435431D01*
X146808720Y-128043750D01*
X146767427Y-127836156D01*
X146649834Y-127660166D01*
X146473844Y-127542573D01*
X146266250Y-127501280D01*
X145828750Y-127501280D01*
X145621156Y-127542573D01*
X145502500Y-127621857D01*
X145502500Y-124543582D01*
X145511169Y-124500000D01*
X145476826Y-124327345D01*
X145447312Y-124283174D01*
X145379025Y-124180975D01*
X145342075Y-124156286D01*
X144702500Y-123516712D01*
X144702500Y-121265266D01*
X144783882Y-121249078D01*
X144888905Y-121178905D01*
X144959078Y-121073882D01*
X144983720Y-120950000D01*
X144983720Y-120050000D01*
X144959078Y-119926118D01*
X144888905Y-119821095D01*
X144783882Y-119750922D01*
X144660000Y-119726280D01*
X143860000Y-119726280D01*
X143736118Y-119750922D01*
X143631095Y-119821095D01*
X143560922Y-119926118D01*
X143536280Y-120050000D01*
X143536280Y-120950000D01*
X143560922Y-121073882D01*
X143631095Y-121178905D01*
X143736118Y-121249078D01*
X143817500Y-121265266D01*
X143817501Y-123656413D01*
X143808831Y-123700000D01*
X143843174Y-123872654D01*
X143843175Y-123872655D01*
X143940976Y-124019025D01*
X143977926Y-124043714D01*
X144116878Y-124182666D01*
X143853569Y-124291733D01*
X143702464Y-124442839D01*
X143673125Y-124413500D01*
X143123500Y-124413500D01*
X143123500Y-124433500D01*
X142996500Y-124433500D01*
X142996500Y-124413500D01*
X141923500Y-124413500D01*
X141923500Y-124988125D01*
X141934793Y-124999418D01*
X141807932Y-125126280D01*
X141485000Y-125126280D01*
X141361118Y-125150922D01*
X141256095Y-125221095D01*
X141185922Y-125326118D01*
X141169734Y-125407500D01*
X141133720Y-125407500D01*
X141133720Y-124492875D01*
X141167500Y-124492875D01*
X141167500Y-124813155D01*
X141215837Y-124929850D01*
X141305151Y-125019164D01*
X141421846Y-125067500D01*
X141717125Y-125067500D01*
X141796500Y-124988125D01*
X141796500Y-124413500D01*
X141246875Y-124413500D01*
X141167500Y-124492875D01*
X141133720Y-124492875D01*
X141133720Y-123900000D01*
X141131104Y-123886845D01*
X141167500Y-123886845D01*
X141167500Y-124207125D01*
X141246875Y-124286500D01*
X141796500Y-124286500D01*
X141796500Y-123711875D01*
X141923500Y-123711875D01*
X141923500Y-124286500D01*
X142996500Y-124286500D01*
X142996500Y-123711875D01*
X143123500Y-123711875D01*
X143123500Y-124286500D01*
X143673125Y-124286500D01*
X143752500Y-124207125D01*
X143752500Y-123886845D01*
X143704163Y-123770150D01*
X143614849Y-123680836D01*
X143498154Y-123632500D01*
X143202875Y-123632500D01*
X143123500Y-123711875D01*
X142996500Y-123711875D01*
X142917125Y-123632500D01*
X142621846Y-123632500D01*
X142505151Y-123680836D01*
X142460000Y-123725987D01*
X142414849Y-123680836D01*
X142298154Y-123632500D01*
X142002875Y-123632500D01*
X141923500Y-123711875D01*
X141796500Y-123711875D01*
X141717125Y-123632500D01*
X141421846Y-123632500D01*
X141305151Y-123680836D01*
X141215837Y-123770150D01*
X141167500Y-123886845D01*
X141131104Y-123886845D01*
X141109078Y-123776118D01*
X141038905Y-123671095D01*
X140933882Y-123600922D01*
X140810000Y-123576280D01*
X140802500Y-123576280D01*
X140802500Y-122843580D01*
X140811169Y-122799999D01*
X140794843Y-122717923D01*
X140776826Y-122627345D01*
X140679025Y-122480975D01*
X140642074Y-122456285D01*
X140606100Y-122420311D01*
X140606100Y-122391374D01*
X140522961Y-122190659D01*
X140369341Y-122037039D01*
X140168626Y-121953900D01*
X139951374Y-121953900D01*
X139750659Y-122037039D01*
X139597039Y-122190659D01*
X139513900Y-122391374D01*
X139513900Y-122608626D01*
X139597039Y-122809341D01*
X139750659Y-122962961D01*
X139917501Y-123032069D01*
X139917501Y-123576280D01*
X139910000Y-123576280D01*
X139810000Y-123596172D01*
X139710000Y-123576280D01*
X138810000Y-123576280D01*
X138710000Y-123596172D01*
X138610000Y-123576280D01*
X137710000Y-123576280D01*
X137610000Y-123596172D01*
X137510000Y-123576280D01*
X136610000Y-123576280D01*
X136510000Y-123596172D01*
X136410000Y-123576280D01*
X136402500Y-123576280D01*
X136402500Y-123329802D01*
X136522961Y-123209341D01*
X136606100Y-123008626D01*
X136606100Y-122791374D01*
X136522961Y-122590659D01*
X136369341Y-122437039D01*
X136168626Y-122353900D01*
X135951374Y-122353900D01*
X135750659Y-122437039D01*
X135597039Y-122590659D01*
X135513900Y-122791374D01*
X135513900Y-122974516D01*
X135508831Y-123000000D01*
X135517501Y-123043587D01*
X135517501Y-123576280D01*
X135510000Y-123576280D01*
X135410000Y-123596172D01*
X135406100Y-123595396D01*
X135406100Y-123391374D01*
X135322961Y-123190659D01*
X135169341Y-123037039D01*
X134968626Y-122953900D01*
X134751374Y-122953900D01*
X134550659Y-123037039D01*
X134397039Y-123190659D01*
X134313900Y-123391374D01*
X134313900Y-123595396D01*
X134310000Y-123596172D01*
X134210000Y-123576280D01*
X133409508Y-123576280D01*
X134042075Y-122943714D01*
X134079025Y-122919025D01*
X134176826Y-122772655D01*
X134202500Y-122643582D01*
X134202500Y-122643581D01*
X134211169Y-122600001D01*
X134202500Y-122556420D01*
X134202500Y-118642875D01*
X142592500Y-118642875D01*
X142592500Y-119013155D01*
X142640837Y-119129850D01*
X142730151Y-119219164D01*
X142846846Y-119267500D01*
X143167125Y-119267500D01*
X143246500Y-119188125D01*
X143246500Y-118563500D01*
X143373500Y-118563500D01*
X143373500Y-119188125D01*
X143452875Y-119267500D01*
X143773154Y-119267500D01*
X143889849Y-119219164D01*
X143979163Y-119129850D01*
X144027500Y-119013155D01*
X144027500Y-118642875D01*
X143948125Y-118563500D01*
X143373500Y-118563500D01*
X143246500Y-118563500D01*
X142671875Y-118563500D01*
X142592500Y-118642875D01*
X134202500Y-118642875D01*
X134202500Y-117986845D01*
X142592500Y-117986845D01*
X142592500Y-118357125D01*
X142671875Y-118436500D01*
X143246500Y-118436500D01*
X143246500Y-117811875D01*
X143373500Y-117811875D01*
X143373500Y-118436500D01*
X143948125Y-118436500D01*
X144027500Y-118357125D01*
X144027500Y-117986845D01*
X143979163Y-117870150D01*
X143889849Y-117780836D01*
X143773154Y-117732500D01*
X143452875Y-117732500D01*
X143373500Y-117811875D01*
X143246500Y-117811875D01*
X143167125Y-117732500D01*
X142846846Y-117732500D01*
X142730151Y-117780836D01*
X142640837Y-117870150D01*
X142592500Y-117986845D01*
X134202500Y-117986845D01*
X134202500Y-116623720D01*
X134210000Y-116623720D01*
X134310000Y-116603828D01*
X134410000Y-116623720D01*
X135310000Y-116623720D01*
X135410000Y-116603828D01*
X135510000Y-116623720D01*
X135983345Y-116623720D01*
X135913900Y-116791374D01*
X135913900Y-117008626D01*
X135997039Y-117209341D01*
X136150659Y-117362961D01*
X136351374Y-117446100D01*
X136568626Y-117446100D01*
X136769341Y-117362961D01*
X136922961Y-117209341D01*
X137006100Y-117008626D01*
X137006100Y-116908978D01*
X137291359Y-116623720D01*
X137510000Y-116623720D01*
X137612594Y-116603313D01*
X137646846Y-116617500D01*
X138017125Y-116617500D01*
X138096500Y-116538125D01*
X138096500Y-115563500D01*
X138076500Y-115563500D01*
X138076500Y-115436500D01*
X138096500Y-115436500D01*
X138096500Y-114461875D01*
X138017125Y-114382500D01*
X137646846Y-114382500D01*
X137612594Y-114396687D01*
X137510000Y-114376280D01*
X136610000Y-114376280D01*
X136510000Y-114396172D01*
X136410000Y-114376280D01*
X136162069Y-114376280D01*
X135350433Y-113564645D01*
X135610208Y-113304871D01*
X135642976Y-113282976D01*
X135671377Y-113240472D01*
X135729726Y-113153146D01*
X135736101Y-113121095D01*
X135752500Y-113038655D01*
X135752500Y-113038652D01*
X135760188Y-113000001D01*
X135752500Y-112961350D01*
X135752500Y-110962578D01*
X135822579Y-110892500D01*
X136171349Y-110892500D01*
X136210000Y-110900188D01*
X136248651Y-110892500D01*
X136248655Y-110892500D01*
X136363146Y-110869726D01*
X136492976Y-110782976D01*
X136514873Y-110750205D01*
X136791359Y-110473720D01*
X137110000Y-110473720D01*
X137233882Y-110449078D01*
X137338905Y-110378905D01*
X137396500Y-110292707D01*
X137396500Y-111700000D01*
X137399759Y-111720080D01*
X138149759Y-113970080D01*
X138159200Y-113988100D01*
X138455000Y-114382500D01*
X138302875Y-114382500D01*
X138223500Y-114461875D01*
X138223500Y-115436500D01*
X138243500Y-115436500D01*
X138243500Y-115563500D01*
X138223500Y-115563500D01*
X138223500Y-116538125D01*
X138302875Y-116617500D01*
X138673154Y-116617500D01*
X138707406Y-116603313D01*
X138810000Y-116623720D01*
X139710000Y-116623720D01*
X139812594Y-116603313D01*
X139846846Y-116617500D01*
X140217125Y-116617500D01*
X140296500Y-116538125D01*
X140296500Y-115563500D01*
X140423500Y-115563500D01*
X140423500Y-116538125D01*
X140502875Y-116617500D01*
X140873154Y-116617500D01*
X140989849Y-116569164D01*
X141079163Y-116479850D01*
X141127500Y-116363155D01*
X141127500Y-115642875D01*
X141048125Y-115563500D01*
X140423500Y-115563500D01*
X140296500Y-115563500D01*
X140276500Y-115563500D01*
X140276500Y-115436500D01*
X140296500Y-115436500D01*
X140296500Y-115416500D01*
X140423500Y-115416500D01*
X140423500Y-115436500D01*
X141048125Y-115436500D01*
X141127500Y-115357125D01*
X141127500Y-115013500D01*
X141210000Y-115013500D01*
X141235014Y-115008366D01*
X141255445Y-114994350D01*
X141268958Y-114973583D01*
X141768958Y-113723583D01*
X141770241Y-113720080D01*
X142020241Y-112970080D01*
X142023500Y-112950000D01*
X142023500Y-104700000D01*
X142018666Y-104675700D01*
X142004901Y-104655099D01*
X141004901Y-103655099D01*
X140983583Y-103641042D01*
X139773500Y-103157009D01*
X139773500Y-101087221D01*
X139803905Y-101066905D01*
X139874078Y-100961882D01*
X139898720Y-100838000D01*
X139898720Y-98440875D01*
X141282500Y-98440875D01*
X141282500Y-100901155D01*
X141330837Y-101017850D01*
X141420151Y-101107164D01*
X141536846Y-101155500D01*
X142272875Y-101155500D01*
X142341873Y-101224498D01*
X142262500Y-101224498D01*
X142262500Y-101280303D01*
X142244588Y-101262391D01*
X142112717Y-101309884D01*
X142001962Y-101609312D01*
X142014223Y-101928330D01*
X142112717Y-102166116D01*
X142244588Y-102213609D01*
X142418452Y-102039745D01*
X142516846Y-102080500D01*
X142557303Y-102080500D01*
X142334391Y-102303412D01*
X142381884Y-102435283D01*
X142681312Y-102546038D01*
X143000330Y-102533777D01*
X143238116Y-102435283D01*
X143285609Y-102303412D01*
X143062697Y-102080500D01*
X143103154Y-102080500D01*
X143201548Y-102039745D01*
X143375412Y-102213609D01*
X143507283Y-102166116D01*
X143618038Y-101866688D01*
X143605777Y-101547670D01*
X143507283Y-101309884D01*
X143375412Y-101262391D01*
X143357500Y-101280303D01*
X143357500Y-101224498D01*
X143278127Y-101224498D01*
X143347125Y-101155500D01*
X144083154Y-101155500D01*
X144199849Y-101107164D01*
X144289163Y-101017850D01*
X144337500Y-100901155D01*
X144337500Y-98440875D01*
X144258125Y-98361500D01*
X142873500Y-98361500D01*
X142873500Y-98381500D01*
X142746500Y-98381500D01*
X142746500Y-98361500D01*
X141361875Y-98361500D01*
X141282500Y-98440875D01*
X139898720Y-98440875D01*
X139898720Y-95948500D01*
X141282500Y-95948500D01*
X141282500Y-98155125D01*
X141361875Y-98234500D01*
X142746500Y-98234500D01*
X142746500Y-98214500D01*
X142873500Y-98214500D01*
X142873500Y-98234500D01*
X144258125Y-98234500D01*
X144337500Y-98155125D01*
X144337500Y-95948500D01*
X150685500Y-95948500D01*
X150685500Y-116014405D01*
X150521336Y-115850241D01*
X150092230Y-115672500D01*
X149627770Y-115672500D01*
X149198664Y-115850241D01*
X148870241Y-116178664D01*
X148692500Y-116607770D01*
X148692500Y-117072230D01*
X148870241Y-117501336D01*
X149198664Y-117829759D01*
X149627770Y-118007500D01*
X150092230Y-118007500D01*
X150521336Y-117829759D01*
X150685500Y-117665595D01*
X150685500Y-118527442D01*
X150315536Y-118280240D01*
X149974985Y-118212500D01*
X149745015Y-118212500D01*
X149404464Y-118280240D01*
X149018280Y-118538280D01*
X148760240Y-118924464D01*
X148757647Y-118937500D01*
X146273289Y-118937500D01*
X145933720Y-118597932D01*
X145933720Y-118050000D01*
X145909078Y-117926118D01*
X145838905Y-117821095D01*
X145733882Y-117750922D01*
X145610000Y-117726280D01*
X144810000Y-117726280D01*
X144686118Y-117750922D01*
X144581095Y-117821095D01*
X144510922Y-117926118D01*
X144486280Y-118050000D01*
X144486280Y-118950000D01*
X144510922Y-119073882D01*
X144581095Y-119178905D01*
X144686118Y-119249078D01*
X144810000Y-119273720D01*
X145357931Y-119273720D01*
X145746285Y-119662074D01*
X145770975Y-119699025D01*
X145917345Y-119796826D01*
X146090000Y-119831169D01*
X146133582Y-119822500D01*
X148757647Y-119822500D01*
X148760240Y-119835536D01*
X149018280Y-120221720D01*
X149404464Y-120479760D01*
X149745015Y-120547500D01*
X149974985Y-120547500D01*
X150315536Y-120479760D01*
X150685500Y-120232558D01*
X150685500Y-121067442D01*
X150315536Y-120820240D01*
X149974985Y-120752500D01*
X149745015Y-120752500D01*
X149404464Y-120820240D01*
X149018280Y-121078280D01*
X148760240Y-121464464D01*
X148669628Y-121920000D01*
X148760240Y-122375536D01*
X149018280Y-122761720D01*
X149404464Y-123019760D01*
X149745015Y-123087500D01*
X149974985Y-123087500D01*
X150315536Y-123019760D01*
X150685500Y-122772558D01*
X150685500Y-123607442D01*
X150315536Y-123360240D01*
X149974985Y-123292500D01*
X149745015Y-123292500D01*
X149404464Y-123360240D01*
X149018280Y-123618280D01*
X148760240Y-124004464D01*
X148669628Y-124460000D01*
X148760240Y-124915536D01*
X149018280Y-125301720D01*
X149404464Y-125559760D01*
X149745015Y-125627500D01*
X149974985Y-125627500D01*
X150315536Y-125559760D01*
X150685500Y-125312558D01*
X150685500Y-126147442D01*
X150315536Y-125900240D01*
X149974985Y-125832500D01*
X149745015Y-125832500D01*
X149404464Y-125900240D01*
X149018280Y-126158280D01*
X148760240Y-126544464D01*
X148669628Y-127000000D01*
X148760240Y-127455536D01*
X149018280Y-127841720D01*
X149404464Y-128099760D01*
X149745015Y-128167500D01*
X149974985Y-128167500D01*
X150315536Y-128099760D01*
X150685500Y-127852558D01*
X150685500Y-128687442D01*
X150315536Y-128440240D01*
X149974985Y-128372500D01*
X149745015Y-128372500D01*
X149404464Y-128440240D01*
X149018280Y-128698280D01*
X148760240Y-129084464D01*
X148669628Y-129540000D01*
X148760240Y-129995536D01*
X149018280Y-130381720D01*
X149404464Y-130639760D01*
X149745015Y-130707500D01*
X149974985Y-130707500D01*
X150315536Y-130639760D01*
X150685500Y-130392558D01*
X150685500Y-131227442D01*
X150315536Y-130980240D01*
X149974985Y-130912500D01*
X149745015Y-130912500D01*
X149404464Y-130980240D01*
X149018280Y-131238280D01*
X148760240Y-131624464D01*
X148669628Y-132080000D01*
X148760240Y-132535536D01*
X149018280Y-132921720D01*
X149404464Y-133179760D01*
X149745015Y-133247500D01*
X149974985Y-133247500D01*
X150315536Y-133179760D01*
X150685500Y-132932558D01*
X150685500Y-133826419D01*
X150523260Y-133659189D01*
X150105086Y-133478508D01*
X149923500Y-133533597D01*
X149923500Y-134556500D01*
X149943500Y-134556500D01*
X149943500Y-134683500D01*
X149923500Y-134683500D01*
X149923500Y-135706403D01*
X150105086Y-135761492D01*
X150523260Y-135580811D01*
X150685500Y-135413581D01*
X150685500Y-135736698D01*
X148436698Y-137985500D01*
X126174500Y-137985500D01*
X126174500Y-135413581D01*
X126336740Y-135580811D01*
X126754914Y-135761492D01*
X126936500Y-135706403D01*
X126936500Y-134683500D01*
X127063500Y-134683500D01*
X127063500Y-135706403D01*
X127245086Y-135761492D01*
X127663260Y-135580811D01*
X127686088Y-135557280D01*
X130142500Y-135557280D01*
X130142500Y-135842720D01*
X130251733Y-136106431D01*
X130453569Y-136308267D01*
X130717280Y-136417500D01*
X131002720Y-136417500D01*
X131266431Y-136308267D01*
X131468267Y-136106431D01*
X131577500Y-135842720D01*
X131577500Y-135557280D01*
X143742500Y-135557280D01*
X143742500Y-135842720D01*
X143851733Y-136106431D01*
X144053569Y-136308267D01*
X144317280Y-136417500D01*
X144602720Y-136417500D01*
X144866431Y-136308267D01*
X145068267Y-136106431D01*
X145177500Y-135842720D01*
X145177500Y-135557280D01*
X145068267Y-135293569D01*
X144967743Y-135193045D01*
X144988905Y-135178905D01*
X145059078Y-135073882D01*
X145083720Y-134950000D01*
X145083720Y-134050000D01*
X145059078Y-133926118D01*
X144988905Y-133821095D01*
X144883882Y-133750922D01*
X144760000Y-133726280D01*
X144260000Y-133726280D01*
X144136118Y-133750922D01*
X144031095Y-133821095D01*
X143960922Y-133926118D01*
X143936280Y-134050000D01*
X143936280Y-134950000D01*
X143960922Y-135073882D01*
X144005181Y-135140121D01*
X143851733Y-135293569D01*
X143742500Y-135557280D01*
X131577500Y-135557280D01*
X131468267Y-135293569D01*
X131367743Y-135193045D01*
X131388905Y-135178905D01*
X131459078Y-135073882D01*
X131483720Y-134950000D01*
X131483720Y-134050000D01*
X131459078Y-133926118D01*
X131388905Y-133821095D01*
X131283882Y-133750922D01*
X131160000Y-133726280D01*
X130660000Y-133726280D01*
X130536118Y-133750922D01*
X130431095Y-133821095D01*
X130360922Y-133926118D01*
X130336280Y-134050000D01*
X130336280Y-134950000D01*
X130360922Y-135073882D01*
X130405181Y-135140121D01*
X130251733Y-135293569D01*
X130142500Y-135557280D01*
X127686088Y-135557280D01*
X127980459Y-135253855D01*
X128141486Y-134865085D01*
X128086271Y-134683500D01*
X127063500Y-134683500D01*
X126936500Y-134683500D01*
X126916500Y-134683500D01*
X126916500Y-134556500D01*
X126936500Y-134556500D01*
X126936500Y-133533597D01*
X127063500Y-133533597D01*
X127063500Y-134556500D01*
X128086271Y-134556500D01*
X128141486Y-134374915D01*
X127980459Y-133986145D01*
X127663260Y-133659189D01*
X127245086Y-133478508D01*
X127063500Y-133533597D01*
X126936500Y-133533597D01*
X126754914Y-133478508D01*
X126336740Y-133659189D01*
X126174500Y-133826419D01*
X126174500Y-132932558D01*
X126544464Y-133179760D01*
X126885015Y-133247500D01*
X127114985Y-133247500D01*
X127455536Y-133179760D01*
X127841720Y-132921720D01*
X128099760Y-132535536D01*
X128190372Y-132080000D01*
X128099760Y-131624464D01*
X127841720Y-131238280D01*
X127455536Y-130980240D01*
X127114985Y-130912500D01*
X126885015Y-130912500D01*
X126544464Y-130980240D01*
X126174500Y-131227442D01*
X126174500Y-130392558D01*
X126544464Y-130639760D01*
X126885015Y-130707500D01*
X127114985Y-130707500D01*
X127455536Y-130639760D01*
X127841720Y-130381720D01*
X128099760Y-129995536D01*
X128190372Y-129540000D01*
X128099760Y-129084464D01*
X127841720Y-128698280D01*
X127459480Y-128442875D01*
X130117500Y-128442875D01*
X130117500Y-128838154D01*
X130165836Y-128954849D01*
X130255150Y-129044163D01*
X130371845Y-129092500D01*
X130729625Y-129092500D01*
X130809000Y-129013125D01*
X130809000Y-128363500D01*
X130196875Y-128363500D01*
X130117500Y-128442875D01*
X127459480Y-128442875D01*
X127455536Y-128440240D01*
X127114985Y-128372500D01*
X126885015Y-128372500D01*
X126544464Y-128440240D01*
X126174500Y-128687442D01*
X126174500Y-127852558D01*
X126544464Y-128099760D01*
X126885015Y-128167500D01*
X127114985Y-128167500D01*
X127455536Y-128099760D01*
X127841720Y-127841720D01*
X127895090Y-127761846D01*
X130117500Y-127761846D01*
X130117500Y-128157125D01*
X130196875Y-128236500D01*
X130809000Y-128236500D01*
X130809000Y-127586875D01*
X130729625Y-127507500D01*
X130371845Y-127507500D01*
X130255150Y-127555837D01*
X130165836Y-127645151D01*
X130117500Y-127761846D01*
X127895090Y-127761846D01*
X128099760Y-127455536D01*
X128190372Y-127000000D01*
X128099760Y-126544464D01*
X127841720Y-126158280D01*
X127455536Y-125900240D01*
X127114985Y-125832500D01*
X126885015Y-125832500D01*
X126544464Y-125900240D01*
X126174500Y-126147442D01*
X126174500Y-125312558D01*
X126544464Y-125559760D01*
X126885015Y-125627500D01*
X127114985Y-125627500D01*
X127455536Y-125559760D01*
X127841720Y-125301720D01*
X128099760Y-124915536D01*
X128114213Y-124842875D01*
X130792500Y-124842875D01*
X130792500Y-125563155D01*
X130840837Y-125679850D01*
X130930151Y-125769164D01*
X131046846Y-125817500D01*
X131417125Y-125817500D01*
X131496500Y-125738125D01*
X131496500Y-124763500D01*
X130871875Y-124763500D01*
X130792500Y-124842875D01*
X128114213Y-124842875D01*
X128190372Y-124460000D01*
X128099760Y-124004464D01*
X127841720Y-123618280D01*
X127455536Y-123360240D01*
X127114985Y-123292500D01*
X126885015Y-123292500D01*
X126544464Y-123360240D01*
X126174500Y-123607442D01*
X126174500Y-122772558D01*
X126544464Y-123019760D01*
X126885015Y-123087500D01*
X127114985Y-123087500D01*
X127455536Y-123019760D01*
X127841720Y-122761720D01*
X128099760Y-122375536D01*
X128190372Y-121920000D01*
X128099760Y-121464464D01*
X127841720Y-121078280D01*
X127455536Y-120820240D01*
X127114985Y-120752500D01*
X126885015Y-120752500D01*
X126544464Y-120820240D01*
X126174500Y-121067442D01*
X126174500Y-120232558D01*
X126544464Y-120479760D01*
X126885015Y-120547500D01*
X127114985Y-120547500D01*
X127455536Y-120479760D01*
X127841720Y-120221720D01*
X128099760Y-119835536D01*
X128190372Y-119380000D01*
X128099760Y-118924464D01*
X127841720Y-118538280D01*
X127455536Y-118280240D01*
X127114985Y-118212500D01*
X126885015Y-118212500D01*
X126544464Y-118280240D01*
X126174500Y-118527442D01*
X126174500Y-118013720D01*
X127850000Y-118013720D01*
X127973882Y-117989078D01*
X128078905Y-117918905D01*
X128149078Y-117813882D01*
X128173720Y-117690000D01*
X128173720Y-115990000D01*
X128149078Y-115866118D01*
X128078905Y-115761095D01*
X127973882Y-115690922D01*
X127850000Y-115666280D01*
X126174500Y-115666280D01*
X126174500Y-111642875D01*
X131442500Y-111642875D01*
X131442500Y-112188154D01*
X131490836Y-112304849D01*
X131580150Y-112394163D01*
X131696845Y-112442500D01*
X132117125Y-112442500D01*
X132196500Y-112363125D01*
X132196500Y-111563500D01*
X132323500Y-111563500D01*
X132323500Y-112363125D01*
X132402875Y-112442500D01*
X132823155Y-112442500D01*
X132939850Y-112394163D01*
X133029164Y-112304849D01*
X133077500Y-112188154D01*
X133077500Y-111642875D01*
X132998125Y-111563500D01*
X132323500Y-111563500D01*
X132196500Y-111563500D01*
X131521875Y-111563500D01*
X131442500Y-111642875D01*
X126174500Y-111642875D01*
X126174500Y-110811846D01*
X131442500Y-110811846D01*
X131442500Y-111357125D01*
X131521875Y-111436500D01*
X132196500Y-111436500D01*
X132196500Y-110636875D01*
X132323500Y-110636875D01*
X132323500Y-111436500D01*
X132998125Y-111436500D01*
X133077500Y-111357125D01*
X133077500Y-110811846D01*
X133029164Y-110695151D01*
X132939850Y-110605837D01*
X132823155Y-110557500D01*
X132402875Y-110557500D01*
X132323500Y-110636875D01*
X132196500Y-110636875D01*
X132117125Y-110557500D01*
X131696845Y-110557500D01*
X131580150Y-110605837D01*
X131490836Y-110695151D01*
X131442500Y-110811846D01*
X126174500Y-110811846D01*
X126174500Y-106700000D01*
X130998280Y-106700000D01*
X130998280Y-107200000D01*
X131022922Y-107323882D01*
X131093095Y-107428905D01*
X131198118Y-107499078D01*
X131322000Y-107523720D01*
X132222000Y-107523720D01*
X132345882Y-107499078D01*
X132450905Y-107428905D01*
X132475230Y-107392500D01*
X132686280Y-107392500D01*
X132686280Y-107475000D01*
X132710922Y-107598882D01*
X132781095Y-107703905D01*
X132886118Y-107774078D01*
X133010000Y-107798720D01*
X133410000Y-107798720D01*
X133533882Y-107774078D01*
X133540957Y-107769350D01*
X133596846Y-107792500D01*
X133717125Y-107792500D01*
X133796500Y-107713125D01*
X133796500Y-107213500D01*
X133776500Y-107213500D01*
X133776500Y-107086500D01*
X133796500Y-107086500D01*
X133796500Y-106586875D01*
X133717125Y-106507500D01*
X133596846Y-106507500D01*
X133540957Y-106530650D01*
X133533882Y-106525922D01*
X133410000Y-106501280D01*
X133022312Y-106501280D01*
X133010000Y-106498831D01*
X132966418Y-106507500D01*
X132475230Y-106507500D01*
X132450905Y-106471095D01*
X132345882Y-106400922D01*
X132222000Y-106376280D01*
X131322000Y-106376280D01*
X131198118Y-106400922D01*
X131093095Y-106471095D01*
X131022922Y-106576118D01*
X130998280Y-106700000D01*
X126174500Y-106700000D01*
X126174500Y-104642875D01*
X131442500Y-104642875D01*
X131442500Y-105188154D01*
X131490836Y-105304849D01*
X131580150Y-105394163D01*
X131696845Y-105442500D01*
X132117125Y-105442500D01*
X132196500Y-105363125D01*
X132196500Y-104563500D01*
X132323500Y-104563500D01*
X132323500Y-105363125D01*
X132402875Y-105442500D01*
X132823155Y-105442500D01*
X132939850Y-105394163D01*
X133029164Y-105304849D01*
X133077500Y-105188154D01*
X133077500Y-104642875D01*
X132998125Y-104563500D01*
X132323500Y-104563500D01*
X132196500Y-104563500D01*
X131521875Y-104563500D01*
X131442500Y-104642875D01*
X126174500Y-104642875D01*
X126174500Y-103811846D01*
X131442500Y-103811846D01*
X131442500Y-104357125D01*
X131521875Y-104436500D01*
X132196500Y-104436500D01*
X132196500Y-103636875D01*
X132323500Y-103636875D01*
X132323500Y-104436500D01*
X132998125Y-104436500D01*
X133077500Y-104357125D01*
X133077500Y-103811846D01*
X133029164Y-103695151D01*
X132939850Y-103605837D01*
X132823155Y-103557500D01*
X132402875Y-103557500D01*
X132323500Y-103636875D01*
X132196500Y-103636875D01*
X132117125Y-103557500D01*
X131696845Y-103557500D01*
X131580150Y-103605837D01*
X131490836Y-103695151D01*
X131442500Y-103811846D01*
X126174500Y-103811846D01*
X126174500Y-95948500D01*
X132522500Y-95948500D01*
X132522500Y-98155125D01*
G36*
X137155129Y-108700208D02*
X137177024Y-108732976D01*
X137209792Y-108754871D01*
X137209793Y-108754872D01*
X137293233Y-108810625D01*
X137306854Y-108819726D01*
X137396500Y-108837558D01*
X137396500Y-109507293D01*
X137338905Y-109421095D01*
X137233882Y-109350922D01*
X137110000Y-109326280D01*
X136510000Y-109326280D01*
X136386118Y-109350922D01*
X136281095Y-109421095D01*
X136260673Y-109451660D01*
X136189850Y-109380837D01*
X136073155Y-109332500D01*
X135852875Y-109332500D01*
X135773500Y-109411875D01*
X135773500Y-109836500D01*
X135793500Y-109836500D01*
X135793500Y-109963500D01*
X135773500Y-109963500D01*
X135773500Y-109983500D01*
X135646500Y-109983500D01*
X135646500Y-109963500D01*
X135626500Y-109963500D01*
X135626500Y-109836500D01*
X135646500Y-109836500D01*
X135646500Y-109411875D01*
X135567125Y-109332500D01*
X135452500Y-109332500D01*
X135452500Y-109262578D01*
X135822579Y-108892500D01*
X136271349Y-108892500D01*
X136310000Y-108900188D01*
X136348651Y-108892500D01*
X136348655Y-108892500D01*
X136463146Y-108869726D01*
X136592976Y-108782976D01*
X136614873Y-108750205D01*
X136841358Y-108523720D01*
X136978641Y-108523720D01*
X137155129Y-108700208D01*
X137155129Y-108700208D01*
G37*
X137155129Y-108700208D02*
X137177024Y-108732976D01*
X137209792Y-108754871D01*
X137209793Y-108754872D01*
X137293233Y-108810625D01*
X137306854Y-108819726D01*
X137396500Y-108837558D01*
X137396500Y-109507293D01*
X137338905Y-109421095D01*
X137233882Y-109350922D01*
X137110000Y-109326280D01*
X136510000Y-109326280D01*
X136386118Y-109350922D01*
X136281095Y-109421095D01*
X136260673Y-109451660D01*
X136189850Y-109380837D01*
X136073155Y-109332500D01*
X135852875Y-109332500D01*
X135773500Y-109411875D01*
X135773500Y-109836500D01*
X135793500Y-109836500D01*
X135793500Y-109963500D01*
X135773500Y-109963500D01*
X135773500Y-109983500D01*
X135646500Y-109983500D01*
X135646500Y-109963500D01*
X135626500Y-109963500D01*
X135626500Y-109836500D01*
X135646500Y-109836500D01*
X135646500Y-109411875D01*
X135567125Y-109332500D01*
X135452500Y-109332500D01*
X135452500Y-109262578D01*
X135822579Y-108892500D01*
X136271349Y-108892500D01*
X136310000Y-108900188D01*
X136348651Y-108892500D01*
X136348655Y-108892500D01*
X136463146Y-108869726D01*
X136592976Y-108782976D01*
X136614873Y-108750205D01*
X136841358Y-108523720D01*
X136978641Y-108523720D01*
X137155129Y-108700208D01*
G36*
X139646500Y-103200000D02*
X139651334Y-103224300D01*
X139665099Y-103244901D01*
X139686417Y-103258958D01*
X140924315Y-103754117D01*
X141896500Y-104726302D01*
X141896500Y-112939697D01*
X141650350Y-113678147D01*
X141167009Y-114886500D01*
X141127500Y-114886500D01*
X141127500Y-114636845D01*
X141079163Y-114520150D01*
X140989849Y-114430836D01*
X140873154Y-114382500D01*
X140502875Y-114382500D01*
X140423500Y-114461875D01*
X140423500Y-114886500D01*
X140296500Y-114886500D01*
X140296500Y-114461875D01*
X140217125Y-114382500D01*
X139846846Y-114382500D01*
X139730151Y-114430836D01*
X139699061Y-114461926D01*
X139568500Y-114461926D01*
X139568500Y-114024922D01*
X139578344Y-114018344D01*
X139629952Y-113941107D01*
X139635000Y-113915729D01*
X139640048Y-113941107D01*
X139691656Y-114018344D01*
X139768893Y-114069952D01*
X139860000Y-114088074D01*
X140260000Y-114088074D01*
X140351107Y-114069952D01*
X140428344Y-114018344D01*
X140472632Y-113952063D01*
X140479919Y-113950605D01*
X140559388Y-113934798D01*
X140559573Y-113934675D01*
X140621119Y-113922365D01*
X140651795Y-113917653D01*
X140660490Y-113914491D01*
X140669561Y-113912677D01*
X140698217Y-113900772D01*
X140798804Y-113864195D01*
X140835675Y-113850983D01*
X140836503Y-113850486D01*
X140837408Y-113850157D01*
X140870751Y-113829938D01*
X140959320Y-113776796D01*
X140983774Y-113764115D01*
X140993730Y-113756150D01*
X141004667Y-113749588D01*
X141025074Y-113731075D01*
X141109929Y-113663191D01*
X141136723Y-113643174D01*
X141141280Y-113638111D01*
X141146601Y-113633854D01*
X141168147Y-113608259D01*
X141200471Y-113572343D01*
X141202069Y-113571564D01*
X141254704Y-113512084D01*
X141280547Y-113483370D01*
X141281434Y-113481879D01*
X141282583Y-113480580D01*
X141302042Y-113447222D01*
X141342642Y-113378944D01*
X141342897Y-113377185D01*
X141371715Y-113327781D01*
X141391171Y-113295278D01*
X141391954Y-113293087D01*
X141393123Y-113291082D01*
X141405438Y-113255329D01*
X141454378Y-113118299D01*
X141467632Y-113081876D01*
X141467818Y-113080667D01*
X141468232Y-113079508D01*
X141473929Y-113040947D01*
X141492392Y-112920937D01*
X141498500Y-112890229D01*
X141498500Y-112881234D01*
X141499866Y-112872355D01*
X141498500Y-112841107D01*
X141498500Y-105565565D01*
X141500328Y-105551022D01*
X141498500Y-105525431D01*
X141498500Y-105499771D01*
X141495640Y-105485393D01*
X141489136Y-105394341D01*
X141489866Y-105377645D01*
X141486277Y-105354317D01*
X141484595Y-105330769D01*
X141480174Y-105314648D01*
X141466982Y-105228901D01*
X141466060Y-105209951D01*
X141460878Y-105189223D01*
X141457632Y-105168124D01*
X141451150Y-105150310D01*
X141419314Y-105022967D01*
X141414223Y-104995638D01*
X141409578Y-104984027D01*
X141406546Y-104971897D01*
X141394675Y-104946768D01*
X141347875Y-104829769D01*
X141343364Y-104813296D01*
X141332974Y-104792516D01*
X141324342Y-104770936D01*
X141315023Y-104756615D01*
X141261947Y-104650462D01*
X141252207Y-104626878D01*
X141243999Y-104614566D01*
X141237382Y-104601332D01*
X141221739Y-104581176D01*
X141161070Y-104490172D01*
X141151636Y-104472459D01*
X141138811Y-104456784D01*
X141127577Y-104439933D01*
X141113402Y-104425728D01*
X141048666Y-104346605D01*
X141037298Y-104329593D01*
X141023264Y-104315559D01*
X141010687Y-104300187D01*
X140994880Y-104287175D01*
X140917618Y-104209913D01*
X140909274Y-104199064D01*
X140889234Y-104181529D01*
X140870406Y-104162701D01*
X140859026Y-104155097D01*
X140812568Y-104114446D01*
X140797216Y-104098414D01*
X140782362Y-104088016D01*
X140768723Y-104076082D01*
X140749496Y-104065010D01*
X140687256Y-104021442D01*
X140678354Y-104013182D01*
X140654381Y-103998429D01*
X140631302Y-103982274D01*
X140620178Y-103977381D01*
X140522696Y-103917392D01*
X140497891Y-103900377D01*
X140488522Y-103896362D01*
X140479832Y-103891014D01*
X140451608Y-103880541D01*
X140347279Y-103835829D01*
X140337408Y-103829843D01*
X140310375Y-103820013D01*
X140283939Y-103808683D01*
X140272646Y-103806293D01*
X140207374Y-103782558D01*
X140188103Y-103773454D01*
X140169659Y-103768843D01*
X140151795Y-103762347D01*
X140130733Y-103759112D01*
X140052182Y-103739474D01*
X140036838Y-103733672D01*
X140013249Y-103729741D01*
X139990047Y-103723940D01*
X139973661Y-103723142D01*
X139901734Y-103711155D01*
X139887048Y-103706820D01*
X139862138Y-103704556D01*
X139837475Y-103700445D01*
X139822175Y-103700923D01*
X139771551Y-103696320D01*
X139728344Y-103631656D01*
X139651107Y-103580048D01*
X139560000Y-103561926D01*
X139160000Y-103561926D01*
X139068893Y-103580048D01*
X138991656Y-103631656D01*
X138940048Y-103708893D01*
X138935000Y-103734271D01*
X138929952Y-103708893D01*
X138878344Y-103631656D01*
X138853500Y-103615056D01*
X138853500Y-103552921D01*
X138865142Y-103545142D01*
X138948724Y-103420053D01*
X138978074Y-103272500D01*
X138978074Y-102927500D01*
X138948724Y-102779947D01*
X138865142Y-102654858D01*
X138838500Y-102637056D01*
X138838500Y-102080020D01*
X138872340Y-102029375D01*
X138898074Y-101900000D01*
X138898074Y-101700000D01*
X138872340Y-101570625D01*
X138838500Y-101519980D01*
X138838500Y-101076074D01*
X139575000Y-101076074D01*
X139646500Y-101061852D01*
X139646500Y-103200000D01*
X139646500Y-103200000D01*
G37*
X139646500Y-103200000D02*
X139651334Y-103224300D01*
X139665099Y-103244901D01*
X139686417Y-103258958D01*
X140924315Y-103754117D01*
X141896500Y-104726302D01*
X141896500Y-112939697D01*
X141650350Y-113678147D01*
X141167009Y-114886500D01*
X141127500Y-114886500D01*
X141127500Y-114636845D01*
X141079163Y-114520150D01*
X140989849Y-114430836D01*
X140873154Y-114382500D01*
X140502875Y-114382500D01*
X140423500Y-114461875D01*
X140423500Y-114886500D01*
X140296500Y-114886500D01*
X140296500Y-114461875D01*
X140217125Y-114382500D01*
X139846846Y-114382500D01*
X139730151Y-114430836D01*
X139699061Y-114461926D01*
X139568500Y-114461926D01*
X139568500Y-114024922D01*
X139578344Y-114018344D01*
X139629952Y-113941107D01*
X139635000Y-113915729D01*
X139640048Y-113941107D01*
X139691656Y-114018344D01*
X139768893Y-114069952D01*
X139860000Y-114088074D01*
X140260000Y-114088074D01*
X140351107Y-114069952D01*
X140428344Y-114018344D01*
X140472632Y-113952063D01*
X140479919Y-113950605D01*
X140559388Y-113934798D01*
X140559573Y-113934675D01*
X140621119Y-113922365D01*
X140651795Y-113917653D01*
X140660490Y-113914491D01*
X140669561Y-113912677D01*
X140698217Y-113900772D01*
X140798804Y-113864195D01*
X140835675Y-113850983D01*
X140836503Y-113850486D01*
X140837408Y-113850157D01*
X140870751Y-113829938D01*
X140959320Y-113776796D01*
X140983774Y-113764115D01*
X140993730Y-113756150D01*
X141004667Y-113749588D01*
X141025074Y-113731075D01*
X141109929Y-113663191D01*
X141136723Y-113643174D01*
X141141280Y-113638111D01*
X141146601Y-113633854D01*
X141168147Y-113608259D01*
X141200471Y-113572343D01*
X141202069Y-113571564D01*
X141254704Y-113512084D01*
X141280547Y-113483370D01*
X141281434Y-113481879D01*
X141282583Y-113480580D01*
X141302042Y-113447222D01*
X141342642Y-113378944D01*
X141342897Y-113377185D01*
X141371715Y-113327781D01*
X141391171Y-113295278D01*
X141391954Y-113293087D01*
X141393123Y-113291082D01*
X141405438Y-113255329D01*
X141454378Y-113118299D01*
X141467632Y-113081876D01*
X141467818Y-113080667D01*
X141468232Y-113079508D01*
X141473929Y-113040947D01*
X141492392Y-112920937D01*
X141498500Y-112890229D01*
X141498500Y-112881234D01*
X141499866Y-112872355D01*
X141498500Y-112841107D01*
X141498500Y-105565565D01*
X141500328Y-105551022D01*
X141498500Y-105525431D01*
X141498500Y-105499771D01*
X141495640Y-105485393D01*
X141489136Y-105394341D01*
X141489866Y-105377645D01*
X141486277Y-105354317D01*
X141484595Y-105330769D01*
X141480174Y-105314648D01*
X141466982Y-105228901D01*
X141466060Y-105209951D01*
X141460878Y-105189223D01*
X141457632Y-105168124D01*
X141451150Y-105150310D01*
X141419314Y-105022967D01*
X141414223Y-104995638D01*
X141409578Y-104984027D01*
X141406546Y-104971897D01*
X141394675Y-104946768D01*
X141347875Y-104829769D01*
X141343364Y-104813296D01*
X141332974Y-104792516D01*
X141324342Y-104770936D01*
X141315023Y-104756615D01*
X141261947Y-104650462D01*
X141252207Y-104626878D01*
X141243999Y-104614566D01*
X141237382Y-104601332D01*
X141221739Y-104581176D01*
X141161070Y-104490172D01*
X141151636Y-104472459D01*
X141138811Y-104456784D01*
X141127577Y-104439933D01*
X141113402Y-104425728D01*
X141048666Y-104346605D01*
X141037298Y-104329593D01*
X141023264Y-104315559D01*
X141010687Y-104300187D01*
X140994880Y-104287175D01*
X140917618Y-104209913D01*
X140909274Y-104199064D01*
X140889234Y-104181529D01*
X140870406Y-104162701D01*
X140859026Y-104155097D01*
X140812568Y-104114446D01*
X140797216Y-104098414D01*
X140782362Y-104088016D01*
X140768723Y-104076082D01*
X140749496Y-104065010D01*
X140687256Y-104021442D01*
X140678354Y-104013182D01*
X140654381Y-103998429D01*
X140631302Y-103982274D01*
X140620178Y-103977381D01*
X140522696Y-103917392D01*
X140497891Y-103900377D01*
X140488522Y-103896362D01*
X140479832Y-103891014D01*
X140451608Y-103880541D01*
X140347279Y-103835829D01*
X140337408Y-103829843D01*
X140310375Y-103820013D01*
X140283939Y-103808683D01*
X140272646Y-103806293D01*
X140207374Y-103782558D01*
X140188103Y-103773454D01*
X140169659Y-103768843D01*
X140151795Y-103762347D01*
X140130733Y-103759112D01*
X140052182Y-103739474D01*
X140036838Y-103733672D01*
X140013249Y-103729741D01*
X139990047Y-103723940D01*
X139973661Y-103723142D01*
X139901734Y-103711155D01*
X139887048Y-103706820D01*
X139862138Y-103704556D01*
X139837475Y-103700445D01*
X139822175Y-103700923D01*
X139771551Y-103696320D01*
X139728344Y-103631656D01*
X139651107Y-103580048D01*
X139560000Y-103561926D01*
X139160000Y-103561926D01*
X139068893Y-103580048D01*
X138991656Y-103631656D01*
X138940048Y-103708893D01*
X138935000Y-103734271D01*
X138929952Y-103708893D01*
X138878344Y-103631656D01*
X138853500Y-103615056D01*
X138853500Y-103552921D01*
X138865142Y-103545142D01*
X138948724Y-103420053D01*
X138978074Y-103272500D01*
X138978074Y-102927500D01*
X138948724Y-102779947D01*
X138865142Y-102654858D01*
X138838500Y-102637056D01*
X138838500Y-102080020D01*
X138872340Y-102029375D01*
X138898074Y-101900000D01*
X138898074Y-101700000D01*
X138872340Y-101570625D01*
X138838500Y-101519980D01*
X138838500Y-101076074D01*
X139575000Y-101076074D01*
X139646500Y-101061852D01*
X139646500Y-103200000D01*
G36*
X138024858Y-103545142D02*
X138036500Y-103552921D01*
X138036501Y-103639372D01*
X137990048Y-103708893D01*
X137971926Y-103800000D01*
X137971926Y-104400000D01*
X137990048Y-104491107D01*
X138041656Y-104568344D01*
X138118893Y-104619952D01*
X138210000Y-104638074D01*
X138710000Y-104638074D01*
X138801107Y-104619952D01*
X138878344Y-104568344D01*
X138929952Y-104491107D01*
X138935000Y-104465729D01*
X138940048Y-104491107D01*
X138991656Y-104568344D01*
X139068893Y-104619952D01*
X139160000Y-104638074D01*
X139560000Y-104638074D01*
X139651107Y-104619952D01*
X139728344Y-104568344D01*
X139763106Y-104516319D01*
X139846749Y-104530259D01*
X139930345Y-104551158D01*
X140009627Y-104579988D01*
X140111483Y-104623641D01*
X140205627Y-104681576D01*
X140277636Y-104731983D01*
X140330770Y-104778475D01*
X140416737Y-104864442D01*
X140481189Y-104943217D01*
X140536001Y-105025434D01*
X140587027Y-105127486D01*
X140630421Y-105235972D01*
X140659121Y-105350773D01*
X140673722Y-105445678D01*
X140681500Y-105554563D01*
X140681501Y-112818760D01*
X140672182Y-112879335D01*
X140648046Y-112946913D01*
X140618293Y-112997919D01*
X140578718Y-113041891D01*
X140526267Y-113083852D01*
X140483498Y-113109513D01*
X140454100Y-113120203D01*
X140428344Y-113081656D01*
X140351107Y-113030048D01*
X140260000Y-113011926D01*
X139860000Y-113011926D01*
X139768893Y-113030048D01*
X139691656Y-113081656D01*
X139640048Y-113158893D01*
X139635000Y-113184271D01*
X139629952Y-113158893D01*
X139578344Y-113081656D01*
X139501107Y-113030048D01*
X139410000Y-113011926D01*
X138910000Y-113011926D01*
X138818893Y-113030048D01*
X138741656Y-113081656D01*
X138690048Y-113158893D01*
X138671926Y-113250000D01*
X138671926Y-113850000D01*
X138690048Y-113941107D01*
X138741656Y-114018344D01*
X138751500Y-114024922D01*
X138751500Y-114414952D01*
X138673154Y-114382500D01*
X138613750Y-114382500D01*
X138266982Y-113920142D01*
X137523500Y-111689697D01*
X137523500Y-111191875D01*
X138092500Y-111191875D01*
X138092500Y-111238154D01*
X138140836Y-111354849D01*
X138230150Y-111444163D01*
X138346845Y-111492500D01*
X138429625Y-111492500D01*
X138509000Y-111413125D01*
X138509000Y-111112500D01*
X138171875Y-111112500D01*
X138092500Y-111191875D01*
X137523500Y-111191875D01*
X137523500Y-110691875D01*
X138092500Y-110691875D01*
X138092500Y-110738154D01*
X138118117Y-110800000D01*
X138092500Y-110861846D01*
X138092500Y-110908125D01*
X138171875Y-110987500D01*
X138334774Y-110987500D01*
X138346845Y-110992500D01*
X138429625Y-110992500D01*
X138434625Y-110987500D01*
X138509000Y-110987500D01*
X138509000Y-110612500D01*
X138636000Y-110612500D01*
X138636000Y-110987500D01*
X138656000Y-110987500D01*
X138656000Y-111112500D01*
X138636000Y-111112500D01*
X138636000Y-111413125D01*
X138715375Y-111492500D01*
X138751501Y-111492500D01*
X138751500Y-111975078D01*
X138741656Y-111981656D01*
X138690048Y-112058893D01*
X138671926Y-112150000D01*
X138671926Y-112750000D01*
X138690048Y-112841107D01*
X138741656Y-112918344D01*
X138818893Y-112969952D01*
X138910000Y-112988074D01*
X139410000Y-112988074D01*
X139501107Y-112969952D01*
X139578344Y-112918344D01*
X139629952Y-112841107D01*
X139648074Y-112750000D01*
X139648074Y-112150000D01*
X139629952Y-112058893D01*
X139578344Y-111981656D01*
X139568500Y-111975078D01*
X139568500Y-111102724D01*
X139576501Y-111062500D01*
X139568500Y-111022276D01*
X139568500Y-111022271D01*
X139544798Y-110903112D01*
X139543263Y-110900815D01*
X139541593Y-110892420D01*
X139579164Y-110854849D01*
X139627500Y-110738154D01*
X139627500Y-110691875D01*
X139548125Y-110612500D01*
X139211000Y-110612500D01*
X139211000Y-110633500D01*
X139147505Y-110633500D01*
X139147500Y-110633499D01*
X139147495Y-110633500D01*
X139084000Y-110633500D01*
X139084000Y-110612500D01*
X138810226Y-110612500D01*
X138798155Y-110607500D01*
X138715375Y-110607500D01*
X138710375Y-110612500D01*
X138636000Y-110612500D01*
X138509000Y-110612500D01*
X138434625Y-110612500D01*
X138429625Y-110607500D01*
X138346845Y-110607500D01*
X138334774Y-110612500D01*
X138171875Y-110612500D01*
X138092500Y-110691875D01*
X137523500Y-110691875D01*
X137523500Y-110208500D01*
X137629625Y-110208500D01*
X137660000Y-110214542D01*
X137690375Y-110208500D01*
X137690380Y-110208500D01*
X137780370Y-110190600D01*
X137882415Y-110122415D01*
X137899624Y-110096660D01*
X138451501Y-109544784D01*
X138451500Y-110090228D01*
X138459426Y-110130075D01*
X138459426Y-110137301D01*
X138429625Y-110107500D01*
X138346845Y-110107500D01*
X138230150Y-110155837D01*
X138140836Y-110245151D01*
X138092500Y-110361846D01*
X138092500Y-110408125D01*
X138171875Y-110487500D01*
X138509000Y-110487500D01*
X138509000Y-110466500D01*
X138636000Y-110466500D01*
X138636000Y-110487500D01*
X139084000Y-110487500D01*
X139084000Y-110466500D01*
X139211000Y-110466500D01*
X139211000Y-110487500D01*
X139548125Y-110487500D01*
X139627500Y-110408125D01*
X139627500Y-110361846D01*
X139579164Y-110245151D01*
X139489850Y-110155837D01*
X139373155Y-110107500D01*
X139290375Y-110107500D01*
X139260574Y-110137301D01*
X139260574Y-110130076D01*
X139268500Y-110090229D01*
X139268500Y-109059771D01*
X139244798Y-108940612D01*
X139220574Y-108904359D01*
X139220574Y-108783439D01*
X139251663Y-108752350D01*
X139300000Y-108635655D01*
X139300000Y-108590625D01*
X139220625Y-108511250D01*
X139079147Y-108511250D01*
X139073607Y-108507548D01*
X138982500Y-108489426D01*
X138820574Y-108489426D01*
X138820574Y-108395641D01*
X138840046Y-108366500D01*
X138921250Y-108366500D01*
X138921250Y-108388750D01*
X139220625Y-108388750D01*
X139300000Y-108309375D01*
X139300000Y-108264345D01*
X139251663Y-108147650D01*
X139162349Y-108058336D01*
X139045654Y-108010000D01*
X139000625Y-108010000D01*
X138923502Y-108087123D01*
X138923502Y-108010000D01*
X138868500Y-108010000D01*
X138868500Y-107614625D01*
X138905142Y-107590142D01*
X138988724Y-107465053D01*
X139018074Y-107317500D01*
X139018074Y-107022500D01*
X138988724Y-106874947D01*
X138905142Y-106749858D01*
X138808075Y-106685000D01*
X138905142Y-106620142D01*
X138988724Y-106495053D01*
X139018074Y-106347500D01*
X139018074Y-106052500D01*
X138988724Y-105904947D01*
X138905142Y-105779858D01*
X138868500Y-105755375D01*
X138868500Y-105674922D01*
X138878344Y-105668344D01*
X138929952Y-105591107D01*
X138948074Y-105500000D01*
X138948074Y-104900000D01*
X138929952Y-104808893D01*
X138878344Y-104731656D01*
X138801107Y-104680048D01*
X138710000Y-104661926D01*
X138210000Y-104661926D01*
X138118893Y-104680048D01*
X138041656Y-104731656D01*
X137990048Y-104808893D01*
X137971926Y-104900000D01*
X137971926Y-105500000D01*
X137990048Y-105591107D01*
X138041656Y-105668344D01*
X138051500Y-105674922D01*
X138051501Y-105755374D01*
X138014858Y-105779858D01*
X137931276Y-105904947D01*
X137901926Y-106052500D01*
X137901926Y-106347500D01*
X137931276Y-106495053D01*
X138014858Y-106620142D01*
X138111925Y-106685000D01*
X138014858Y-106749858D01*
X137931276Y-106874947D01*
X137901926Y-107022500D01*
X137901926Y-107317500D01*
X137931276Y-107465053D01*
X138014858Y-107590142D01*
X138051500Y-107614626D01*
X138051501Y-108089426D01*
X137937500Y-108089426D01*
X137846393Y-108107548D01*
X137795580Y-108141500D01*
X137587785Y-108141500D01*
X137523500Y-108077215D01*
X137523500Y-103658074D01*
X137622500Y-103658074D01*
X137770053Y-103628724D01*
X137895142Y-103545142D01*
X137960000Y-103448075D01*
X138024858Y-103545142D01*
X138024858Y-103545142D01*
G37*
X138024858Y-103545142D02*
X138036500Y-103552921D01*
X138036501Y-103639372D01*
X137990048Y-103708893D01*
X137971926Y-103800000D01*
X137971926Y-104400000D01*
X137990048Y-104491107D01*
X138041656Y-104568344D01*
X138118893Y-104619952D01*
X138210000Y-104638074D01*
X138710000Y-104638074D01*
X138801107Y-104619952D01*
X138878344Y-104568344D01*
X138929952Y-104491107D01*
X138935000Y-104465729D01*
X138940048Y-104491107D01*
X138991656Y-104568344D01*
X139068893Y-104619952D01*
X139160000Y-104638074D01*
X139560000Y-104638074D01*
X139651107Y-104619952D01*
X139728344Y-104568344D01*
X139763106Y-104516319D01*
X139846749Y-104530259D01*
X139930345Y-104551158D01*
X140009627Y-104579988D01*
X140111483Y-104623641D01*
X140205627Y-104681576D01*
X140277636Y-104731983D01*
X140330770Y-104778475D01*
X140416737Y-104864442D01*
X140481189Y-104943217D01*
X140536001Y-105025434D01*
X140587027Y-105127486D01*
X140630421Y-105235972D01*
X140659121Y-105350773D01*
X140673722Y-105445678D01*
X140681500Y-105554563D01*
X140681501Y-112818760D01*
X140672182Y-112879335D01*
X140648046Y-112946913D01*
X140618293Y-112997919D01*
X140578718Y-113041891D01*
X140526267Y-113083852D01*
X140483498Y-113109513D01*
X140454100Y-113120203D01*
X140428344Y-113081656D01*
X140351107Y-113030048D01*
X140260000Y-113011926D01*
X139860000Y-113011926D01*
X139768893Y-113030048D01*
X139691656Y-113081656D01*
X139640048Y-113158893D01*
X139635000Y-113184271D01*
X139629952Y-113158893D01*
X139578344Y-113081656D01*
X139501107Y-113030048D01*
X139410000Y-113011926D01*
X138910000Y-113011926D01*
X138818893Y-113030048D01*
X138741656Y-113081656D01*
X138690048Y-113158893D01*
X138671926Y-113250000D01*
X138671926Y-113850000D01*
X138690048Y-113941107D01*
X138741656Y-114018344D01*
X138751500Y-114024922D01*
X138751500Y-114414952D01*
X138673154Y-114382500D01*
X138613750Y-114382500D01*
X138266982Y-113920142D01*
X137523500Y-111689697D01*
X137523500Y-111191875D01*
X138092500Y-111191875D01*
X138092500Y-111238154D01*
X138140836Y-111354849D01*
X138230150Y-111444163D01*
X138346845Y-111492500D01*
X138429625Y-111492500D01*
X138509000Y-111413125D01*
X138509000Y-111112500D01*
X138171875Y-111112500D01*
X138092500Y-111191875D01*
X137523500Y-111191875D01*
X137523500Y-110691875D01*
X138092500Y-110691875D01*
X138092500Y-110738154D01*
X138118117Y-110800000D01*
X138092500Y-110861846D01*
X138092500Y-110908125D01*
X138171875Y-110987500D01*
X138334774Y-110987500D01*
X138346845Y-110992500D01*
X138429625Y-110992500D01*
X138434625Y-110987500D01*
X138509000Y-110987500D01*
X138509000Y-110612500D01*
X138636000Y-110612500D01*
X138636000Y-110987500D01*
X138656000Y-110987500D01*
X138656000Y-111112500D01*
X138636000Y-111112500D01*
X138636000Y-111413125D01*
X138715375Y-111492500D01*
X138751501Y-111492500D01*
X138751500Y-111975078D01*
X138741656Y-111981656D01*
X138690048Y-112058893D01*
X138671926Y-112150000D01*
X138671926Y-112750000D01*
X138690048Y-112841107D01*
X138741656Y-112918344D01*
X138818893Y-112969952D01*
X138910000Y-112988074D01*
X139410000Y-112988074D01*
X139501107Y-112969952D01*
X139578344Y-112918344D01*
X139629952Y-112841107D01*
X139648074Y-112750000D01*
X139648074Y-112150000D01*
X139629952Y-112058893D01*
X139578344Y-111981656D01*
X139568500Y-111975078D01*
X139568500Y-111102724D01*
X139576501Y-111062500D01*
X139568500Y-111022276D01*
X139568500Y-111022271D01*
X139544798Y-110903112D01*
X139543263Y-110900815D01*
X139541593Y-110892420D01*
X139579164Y-110854849D01*
X139627500Y-110738154D01*
X139627500Y-110691875D01*
X139548125Y-110612500D01*
X139211000Y-110612500D01*
X139211000Y-110633500D01*
X139147505Y-110633500D01*
X139147500Y-110633499D01*
X139147495Y-110633500D01*
X139084000Y-110633500D01*
X139084000Y-110612500D01*
X138810226Y-110612500D01*
X138798155Y-110607500D01*
X138715375Y-110607500D01*
X138710375Y-110612500D01*
X138636000Y-110612500D01*
X138509000Y-110612500D01*
X138434625Y-110612500D01*
X138429625Y-110607500D01*
X138346845Y-110607500D01*
X138334774Y-110612500D01*
X138171875Y-110612500D01*
X138092500Y-110691875D01*
X137523500Y-110691875D01*
X137523500Y-110208500D01*
X137629625Y-110208500D01*
X137660000Y-110214542D01*
X137690375Y-110208500D01*
X137690380Y-110208500D01*
X137780370Y-110190600D01*
X137882415Y-110122415D01*
X137899624Y-110096660D01*
X138451501Y-109544784D01*
X138451500Y-110090228D01*
X138459426Y-110130075D01*
X138459426Y-110137301D01*
X138429625Y-110107500D01*
X138346845Y-110107500D01*
X138230150Y-110155837D01*
X138140836Y-110245151D01*
X138092500Y-110361846D01*
X138092500Y-110408125D01*
X138171875Y-110487500D01*
X138509000Y-110487500D01*
X138509000Y-110466500D01*
X138636000Y-110466500D01*
X138636000Y-110487500D01*
X139084000Y-110487500D01*
X139084000Y-110466500D01*
X139211000Y-110466500D01*
X139211000Y-110487500D01*
X139548125Y-110487500D01*
X139627500Y-110408125D01*
X139627500Y-110361846D01*
X139579164Y-110245151D01*
X139489850Y-110155837D01*
X139373155Y-110107500D01*
X139290375Y-110107500D01*
X139260574Y-110137301D01*
X139260574Y-110130076D01*
X139268500Y-110090229D01*
X139268500Y-109059771D01*
X139244798Y-108940612D01*
X139220574Y-108904359D01*
X139220574Y-108783439D01*
X139251663Y-108752350D01*
X139300000Y-108635655D01*
X139300000Y-108590625D01*
X139220625Y-108511250D01*
X139079147Y-108511250D01*
X139073607Y-108507548D01*
X138982500Y-108489426D01*
X138820574Y-108489426D01*
X138820574Y-108395641D01*
X138840046Y-108366500D01*
X138921250Y-108366500D01*
X138921250Y-108388750D01*
X139220625Y-108388750D01*
X139300000Y-108309375D01*
X139300000Y-108264345D01*
X139251663Y-108147650D01*
X139162349Y-108058336D01*
X139045654Y-108010000D01*
X139000625Y-108010000D01*
X138923502Y-108087123D01*
X138923502Y-108010000D01*
X138868500Y-108010000D01*
X138868500Y-107614625D01*
X138905142Y-107590142D01*
X138988724Y-107465053D01*
X139018074Y-107317500D01*
X139018074Y-107022500D01*
X138988724Y-106874947D01*
X138905142Y-106749858D01*
X138808075Y-106685000D01*
X138905142Y-106620142D01*
X138988724Y-106495053D01*
X139018074Y-106347500D01*
X139018074Y-106052500D01*
X138988724Y-105904947D01*
X138905142Y-105779858D01*
X138868500Y-105755375D01*
X138868500Y-105674922D01*
X138878344Y-105668344D01*
X138929952Y-105591107D01*
X138948074Y-105500000D01*
X138948074Y-104900000D01*
X138929952Y-104808893D01*
X138878344Y-104731656D01*
X138801107Y-104680048D01*
X138710000Y-104661926D01*
X138210000Y-104661926D01*
X138118893Y-104680048D01*
X138041656Y-104731656D01*
X137990048Y-104808893D01*
X137971926Y-104900000D01*
X137971926Y-105500000D01*
X137990048Y-105591107D01*
X138041656Y-105668344D01*
X138051500Y-105674922D01*
X138051501Y-105755374D01*
X138014858Y-105779858D01*
X137931276Y-105904947D01*
X137901926Y-106052500D01*
X137901926Y-106347500D01*
X137931276Y-106495053D01*
X138014858Y-106620142D01*
X138111925Y-106685000D01*
X138014858Y-106749858D01*
X137931276Y-106874947D01*
X137901926Y-107022500D01*
X137901926Y-107317500D01*
X137931276Y-107465053D01*
X138014858Y-107590142D01*
X138051500Y-107614626D01*
X138051501Y-108089426D01*
X137937500Y-108089426D01*
X137846393Y-108107548D01*
X137795580Y-108141500D01*
X137587785Y-108141500D01*
X137523500Y-108077215D01*
X137523500Y-103658074D01*
X137622500Y-103658074D01*
X137770053Y-103628724D01*
X137895142Y-103545142D01*
X137960000Y-103448075D01*
X138024858Y-103545142D01*
G36*
X137699375Y-108788750D02*
X137840853Y-108788750D01*
X137846393Y-108792452D01*
X137937500Y-108810574D01*
X138099426Y-108810574D01*
X138099426Y-108933500D01*
X137998750Y-108933500D01*
X137998750Y-108911250D01*
X137699375Y-108911250D01*
X137620000Y-108990625D01*
X137620000Y-109035655D01*
X137668337Y-109152350D01*
X137757651Y-109241664D01*
X137845616Y-109278100D01*
X137532216Y-109591500D01*
X137523500Y-109591500D01*
X137523500Y-108758500D01*
X137669125Y-108758500D01*
X137699375Y-108788750D01*
X137699375Y-108788750D01*
G37*
X137699375Y-108788750D02*
X137840853Y-108788750D01*
X137846393Y-108792452D01*
X137937500Y-108810574D01*
X138099426Y-108810574D01*
X138099426Y-108933500D01*
X137998750Y-108933500D01*
X137998750Y-108911250D01*
X137699375Y-108911250D01*
X137620000Y-108990625D01*
X137620000Y-109035655D01*
X137668337Y-109152350D01*
X137757651Y-109241664D01*
X137845616Y-109278100D01*
X137532216Y-109591500D01*
X137523500Y-109591500D01*
X137523500Y-108758500D01*
X137669125Y-108758500D01*
X137699375Y-108788750D01*
G36*
X138021501Y-101282500D02*
X137932875Y-101282500D01*
X137853500Y-101361875D01*
X137853500Y-101736500D01*
X137873500Y-101736500D01*
X137873500Y-101863500D01*
X137853500Y-101863500D01*
X137853500Y-102238125D01*
X137932875Y-102317500D01*
X138021500Y-102317500D01*
X138021501Y-102659883D01*
X137960000Y-102751925D01*
X137895142Y-102654858D01*
X137770053Y-102571276D01*
X137622500Y-102541926D01*
X137523500Y-102541926D01*
X137523500Y-102317500D01*
X137647125Y-102317500D01*
X137726500Y-102238125D01*
X137726500Y-101863500D01*
X137706500Y-101863500D01*
X137706500Y-101736500D01*
X137726500Y-101736500D01*
X137726500Y-101361875D01*
X137647125Y-101282500D01*
X137523500Y-101282500D01*
X137523500Y-101076074D01*
X138021501Y-101076074D01*
X138021501Y-101282500D01*
X138021501Y-101282500D01*
G37*
X138021501Y-101282500D02*
X137932875Y-101282500D01*
X137853500Y-101361875D01*
X137853500Y-101736500D01*
X137873500Y-101736500D01*
X137873500Y-101863500D01*
X137853500Y-101863500D01*
X137853500Y-102238125D01*
X137932875Y-102317500D01*
X138021500Y-102317500D01*
X138021501Y-102659883D01*
X137960000Y-102751925D01*
X137895142Y-102654858D01*
X137770053Y-102571276D01*
X137622500Y-102541926D01*
X137523500Y-102541926D01*
X137523500Y-102317500D01*
X137647125Y-102317500D01*
X137726500Y-102238125D01*
X137726500Y-101863500D01*
X137706500Y-101863500D01*
X137706500Y-101736500D01*
X137726500Y-101736500D01*
X137726500Y-101361875D01*
X137647125Y-101282500D01*
X137523500Y-101282500D01*
X137523500Y-101076074D01*
X138021501Y-101076074D01*
X138021501Y-101282500D01*
G04 #@! TD*
M02*
