G04 #@! TF.GenerationSoftware,KiCad,Pcbnew,(5.0.0)*
G04 #@! TF.CreationDate,2018-09-17T15:57:07-05:00*
G04 #@! TF.ProjectId,TESEO-LIV3F_uBUS,544553454F2D4C495633465F75425553,rev?*
G04 #@! TF.SameCoordinates,Original*
G04 #@! TF.FileFunction,Soldermask,Top*
G04 #@! TF.FilePolarity,Negative*
%FSLAX46Y46*%
G04 Gerber Fmt 4.6, Leading zero omitted, Abs format (unit mm)*
G04 Created by KiCad (PCBNEW (5.0.0)) date 09/17/18 15:57:07*
%MOMM*%
%LPD*%
G01*
G04 APERTURE LIST*
%ADD10R,0.501600X0.701600*%
%ADD11R,0.701600X0.501600*%
%ADD12R,1.001600X1.701600*%
%ADD13R,1.801600X1.801600*%
%ADD14O,1.801600X1.801600*%
%ADD15C,1.801600*%
%ADD16R,4.101600X4.101600*%
%ADD17R,3.001600X3.601600*%
%ADD18R,0.601600X0.701600*%
%ADD19R,0.851600X0.901600*%
%ADD20R,0.701600X0.601600*%
%ADD21C,0.100000*%
%ADD22C,0.501600*%
%ADD23C,0.976600*%
%ADD24R,0.426600X0.351600*%
%ADD25R,2.391600X5.181600*%
%ADD26R,2.521600X5.181600*%
%ADD27C,0.691600*%
%ADD28R,0.901600X1.001600*%
%ADD29R,0.601600X1.001600*%
%ADD30R,0.501600X0.751600*%
%ADD31R,0.346600X0.346600*%
%ADD32R,1.101600X1.351600*%
%ADD33R,1.001600X0.601600*%
G04 APERTURE END LIST*
D10*
G04 #@! TO.C,R7*
X135110000Y-103100000D03*
X134210000Y-103100000D03*
G04 #@! TD*
D11*
G04 #@! TO.C,R9*
X134460000Y-112650000D03*
X134460000Y-113550000D03*
G04 #@! TD*
D10*
G04 #@! TO.C,R8*
X133810000Y-110100000D03*
X134710000Y-110100000D03*
G04 #@! TD*
D12*
G04 #@! TO.C,U3*
X140360000Y-115500000D03*
X139260000Y-115500000D03*
X138160000Y-115500000D03*
X137060000Y-115500000D03*
X135960000Y-115500000D03*
X134860000Y-115500000D03*
X133760000Y-115500000D03*
X132660000Y-115500000D03*
X131560000Y-115500000D03*
X140360000Y-124700000D03*
X139260000Y-124700000D03*
X138160000Y-124700000D03*
X137060000Y-124700000D03*
X135960000Y-124700000D03*
X134860000Y-124700000D03*
X133760000Y-124700000D03*
X132660000Y-124700000D03*
X131560000Y-124700000D03*
G04 #@! TD*
D13*
G04 #@! TO.C,J1*
X127000000Y-116840000D03*
D14*
X127000000Y-119380000D03*
X127000000Y-121920000D03*
X127000000Y-124460000D03*
X127000000Y-127000000D03*
X127000000Y-129540000D03*
X127000000Y-132080000D03*
X127000000Y-134620000D03*
G04 #@! TD*
G04 #@! TO.C,J2*
X149860000Y-134620000D03*
X149860000Y-132080000D03*
X149860000Y-129540000D03*
X149860000Y-127000000D03*
X149860000Y-124460000D03*
X149860000Y-121920000D03*
X149860000Y-119380000D03*
D15*
X149860000Y-116840000D03*
G04 #@! TD*
D16*
G04 #@! TO.C,BT1*
X138430000Y-131445000D03*
D17*
X131830000Y-131445000D03*
X145030000Y-131445000D03*
G04 #@! TD*
D18*
G04 #@! TO.C,C1*
X136060000Y-103050000D03*
X136060000Y-101950000D03*
G04 #@! TD*
D19*
G04 #@! TO.C,C3*
X143060000Y-125850000D03*
X143060000Y-124350000D03*
G04 #@! TD*
D18*
G04 #@! TO.C,C4*
X138460000Y-104100000D03*
X138460000Y-105200000D03*
G04 #@! TD*
D19*
G04 #@! TO.C,C5*
X141860000Y-124350000D03*
X141860000Y-125850000D03*
G04 #@! TD*
D20*
G04 #@! TO.C,C6*
X136810000Y-109900000D03*
X135710000Y-109900000D03*
G04 #@! TD*
D18*
G04 #@! TO.C,C8*
X139160000Y-112450000D03*
X139160000Y-113550000D03*
G04 #@! TD*
D21*
G04 #@! TO.C,D1*
G36*
X138597691Y-101549804D02*
X138609864Y-101551610D01*
X138621802Y-101554600D01*
X138633389Y-101558746D01*
X138644513Y-101564007D01*
X138655069Y-101570334D01*
X138664953Y-101577664D01*
X138674071Y-101585929D01*
X138682336Y-101595047D01*
X138689666Y-101604931D01*
X138695993Y-101615487D01*
X138701254Y-101626611D01*
X138705400Y-101638198D01*
X138708390Y-101650136D01*
X138710196Y-101662309D01*
X138710800Y-101674600D01*
X138710800Y-101925400D01*
X138710196Y-101937691D01*
X138708390Y-101949864D01*
X138705400Y-101961802D01*
X138701254Y-101973389D01*
X138695993Y-101984513D01*
X138689666Y-101995069D01*
X138682336Y-102004953D01*
X138674071Y-102014071D01*
X138664953Y-102022336D01*
X138655069Y-102029666D01*
X138644513Y-102035993D01*
X138633389Y-102041254D01*
X138621802Y-102045400D01*
X138609864Y-102048390D01*
X138597691Y-102050196D01*
X138585400Y-102050800D01*
X138274600Y-102050800D01*
X138262309Y-102050196D01*
X138250136Y-102048390D01*
X138238198Y-102045400D01*
X138226611Y-102041254D01*
X138215487Y-102035993D01*
X138204931Y-102029666D01*
X138195047Y-102022336D01*
X138185929Y-102014071D01*
X138177664Y-102004953D01*
X138170334Y-101995069D01*
X138164007Y-101984513D01*
X138158746Y-101973389D01*
X138154600Y-101961802D01*
X138151610Y-101949864D01*
X138149804Y-101937691D01*
X138149200Y-101925400D01*
X138149200Y-101674600D01*
X138149804Y-101662309D01*
X138151610Y-101650136D01*
X138154600Y-101638198D01*
X138158746Y-101626611D01*
X138164007Y-101615487D01*
X138170334Y-101604931D01*
X138177664Y-101595047D01*
X138185929Y-101585929D01*
X138195047Y-101577664D01*
X138204931Y-101570334D01*
X138215487Y-101564007D01*
X138226611Y-101558746D01*
X138238198Y-101554600D01*
X138250136Y-101551610D01*
X138262309Y-101549804D01*
X138274600Y-101549200D01*
X138585400Y-101549200D01*
X138597691Y-101549804D01*
X138597691Y-101549804D01*
G37*
D22*
X138430000Y-101800000D03*
D21*
G36*
X137957691Y-101549804D02*
X137969864Y-101551610D01*
X137981802Y-101554600D01*
X137993389Y-101558746D01*
X138004513Y-101564007D01*
X138015069Y-101570334D01*
X138024953Y-101577664D01*
X138034071Y-101585929D01*
X138042336Y-101595047D01*
X138049666Y-101604931D01*
X138055993Y-101615487D01*
X138061254Y-101626611D01*
X138065400Y-101638198D01*
X138068390Y-101650136D01*
X138070196Y-101662309D01*
X138070800Y-101674600D01*
X138070800Y-101925400D01*
X138070196Y-101937691D01*
X138068390Y-101949864D01*
X138065400Y-101961802D01*
X138061254Y-101973389D01*
X138055993Y-101984513D01*
X138049666Y-101995069D01*
X138042336Y-102004953D01*
X138034071Y-102014071D01*
X138024953Y-102022336D01*
X138015069Y-102029666D01*
X138004513Y-102035993D01*
X137993389Y-102041254D01*
X137981802Y-102045400D01*
X137969864Y-102048390D01*
X137957691Y-102050196D01*
X137945400Y-102050800D01*
X137634600Y-102050800D01*
X137622309Y-102050196D01*
X137610136Y-102048390D01*
X137598198Y-102045400D01*
X137586611Y-102041254D01*
X137575487Y-102035993D01*
X137564931Y-102029666D01*
X137555047Y-102022336D01*
X137545929Y-102014071D01*
X137537664Y-102004953D01*
X137530334Y-101995069D01*
X137524007Y-101984513D01*
X137518746Y-101973389D01*
X137514600Y-101961802D01*
X137511610Y-101949864D01*
X137509804Y-101937691D01*
X137509200Y-101925400D01*
X137509200Y-101674600D01*
X137509804Y-101662309D01*
X137511610Y-101650136D01*
X137514600Y-101638198D01*
X137518746Y-101626611D01*
X137524007Y-101615487D01*
X137530334Y-101604931D01*
X137537664Y-101595047D01*
X137545929Y-101585929D01*
X137555047Y-101577664D01*
X137564931Y-101570334D01*
X137575487Y-101564007D01*
X137586611Y-101558746D01*
X137598198Y-101554600D01*
X137610136Y-101551610D01*
X137622309Y-101549804D01*
X137634600Y-101549200D01*
X137945400Y-101549200D01*
X137957691Y-101549804D01*
X137957691Y-101549804D01*
G37*
D22*
X137790000Y-101800000D03*
G04 #@! TD*
D21*
G04 #@! TO.C,D2*
G36*
X132715581Y-127775376D02*
X132739281Y-127778891D01*
X132762523Y-127784713D01*
X132785082Y-127792785D01*
X132806742Y-127803029D01*
X132827292Y-127815347D01*
X132846537Y-127829619D01*
X132864290Y-127845710D01*
X132880381Y-127863463D01*
X132894653Y-127882708D01*
X132906971Y-127903258D01*
X132917215Y-127924918D01*
X132925287Y-127947477D01*
X132931109Y-127970719D01*
X132934624Y-127994419D01*
X132935800Y-128018350D01*
X132935800Y-128581650D01*
X132934624Y-128605581D01*
X132931109Y-128629281D01*
X132925287Y-128652523D01*
X132917215Y-128675082D01*
X132906971Y-128696742D01*
X132894653Y-128717292D01*
X132880381Y-128736537D01*
X132864290Y-128754290D01*
X132846537Y-128770381D01*
X132827292Y-128784653D01*
X132806742Y-128796971D01*
X132785082Y-128807215D01*
X132762523Y-128815287D01*
X132739281Y-128821109D01*
X132715581Y-128824624D01*
X132691650Y-128825800D01*
X132203350Y-128825800D01*
X132179419Y-128824624D01*
X132155719Y-128821109D01*
X132132477Y-128815287D01*
X132109918Y-128807215D01*
X132088258Y-128796971D01*
X132067708Y-128784653D01*
X132048463Y-128770381D01*
X132030710Y-128754290D01*
X132014619Y-128736537D01*
X132000347Y-128717292D01*
X131988029Y-128696742D01*
X131977785Y-128675082D01*
X131969713Y-128652523D01*
X131963891Y-128629281D01*
X131960376Y-128605581D01*
X131959200Y-128581650D01*
X131959200Y-128018350D01*
X131960376Y-127994419D01*
X131963891Y-127970719D01*
X131969713Y-127947477D01*
X131977785Y-127924918D01*
X131988029Y-127903258D01*
X132000347Y-127882708D01*
X132014619Y-127863463D01*
X132030710Y-127845710D01*
X132048463Y-127829619D01*
X132067708Y-127815347D01*
X132088258Y-127803029D01*
X132109918Y-127792785D01*
X132132477Y-127784713D01*
X132155719Y-127778891D01*
X132179419Y-127775376D01*
X132203350Y-127774200D01*
X132691650Y-127774200D01*
X132715581Y-127775376D01*
X132715581Y-127775376D01*
G37*
D23*
X132447500Y-128300000D03*
D21*
G36*
X131140581Y-127775376D02*
X131164281Y-127778891D01*
X131187523Y-127784713D01*
X131210082Y-127792785D01*
X131231742Y-127803029D01*
X131252292Y-127815347D01*
X131271537Y-127829619D01*
X131289290Y-127845710D01*
X131305381Y-127863463D01*
X131319653Y-127882708D01*
X131331971Y-127903258D01*
X131342215Y-127924918D01*
X131350287Y-127947477D01*
X131356109Y-127970719D01*
X131359624Y-127994419D01*
X131360800Y-128018350D01*
X131360800Y-128581650D01*
X131359624Y-128605581D01*
X131356109Y-128629281D01*
X131350287Y-128652523D01*
X131342215Y-128675082D01*
X131331971Y-128696742D01*
X131319653Y-128717292D01*
X131305381Y-128736537D01*
X131289290Y-128754290D01*
X131271537Y-128770381D01*
X131252292Y-128784653D01*
X131231742Y-128796971D01*
X131210082Y-128807215D01*
X131187523Y-128815287D01*
X131164281Y-128821109D01*
X131140581Y-128824624D01*
X131116650Y-128825800D01*
X130628350Y-128825800D01*
X130604419Y-128824624D01*
X130580719Y-128821109D01*
X130557477Y-128815287D01*
X130534918Y-128807215D01*
X130513258Y-128796971D01*
X130492708Y-128784653D01*
X130473463Y-128770381D01*
X130455710Y-128754290D01*
X130439619Y-128736537D01*
X130425347Y-128717292D01*
X130413029Y-128696742D01*
X130402785Y-128675082D01*
X130394713Y-128652523D01*
X130388891Y-128629281D01*
X130385376Y-128605581D01*
X130384200Y-128581650D01*
X130384200Y-128018350D01*
X130385376Y-127994419D01*
X130388891Y-127970719D01*
X130394713Y-127947477D01*
X130402785Y-127924918D01*
X130413029Y-127903258D01*
X130425347Y-127882708D01*
X130439619Y-127863463D01*
X130455710Y-127845710D01*
X130473463Y-127829619D01*
X130492708Y-127815347D01*
X130513258Y-127803029D01*
X130534918Y-127792785D01*
X130557477Y-127784713D01*
X130580719Y-127778891D01*
X130604419Y-127775376D01*
X130628350Y-127774200D01*
X131116650Y-127774200D01*
X131140581Y-127775376D01*
X131140581Y-127775376D01*
G37*
D23*
X130872500Y-128300000D03*
G04 #@! TD*
D21*
G04 #@! TO.C,D3*
G36*
X144740581Y-127775376D02*
X144764281Y-127778891D01*
X144787523Y-127784713D01*
X144810082Y-127792785D01*
X144831742Y-127803029D01*
X144852292Y-127815347D01*
X144871537Y-127829619D01*
X144889290Y-127845710D01*
X144905381Y-127863463D01*
X144919653Y-127882708D01*
X144931971Y-127903258D01*
X144942215Y-127924918D01*
X144950287Y-127947477D01*
X144956109Y-127970719D01*
X144959624Y-127994419D01*
X144960800Y-128018350D01*
X144960800Y-128581650D01*
X144959624Y-128605581D01*
X144956109Y-128629281D01*
X144950287Y-128652523D01*
X144942215Y-128675082D01*
X144931971Y-128696742D01*
X144919653Y-128717292D01*
X144905381Y-128736537D01*
X144889290Y-128754290D01*
X144871537Y-128770381D01*
X144852292Y-128784653D01*
X144831742Y-128796971D01*
X144810082Y-128807215D01*
X144787523Y-128815287D01*
X144764281Y-128821109D01*
X144740581Y-128824624D01*
X144716650Y-128825800D01*
X144228350Y-128825800D01*
X144204419Y-128824624D01*
X144180719Y-128821109D01*
X144157477Y-128815287D01*
X144134918Y-128807215D01*
X144113258Y-128796971D01*
X144092708Y-128784653D01*
X144073463Y-128770381D01*
X144055710Y-128754290D01*
X144039619Y-128736537D01*
X144025347Y-128717292D01*
X144013029Y-128696742D01*
X144002785Y-128675082D01*
X143994713Y-128652523D01*
X143988891Y-128629281D01*
X143985376Y-128605581D01*
X143984200Y-128581650D01*
X143984200Y-128018350D01*
X143985376Y-127994419D01*
X143988891Y-127970719D01*
X143994713Y-127947477D01*
X144002785Y-127924918D01*
X144013029Y-127903258D01*
X144025347Y-127882708D01*
X144039619Y-127863463D01*
X144055710Y-127845710D01*
X144073463Y-127829619D01*
X144092708Y-127815347D01*
X144113258Y-127803029D01*
X144134918Y-127792785D01*
X144157477Y-127784713D01*
X144180719Y-127778891D01*
X144204419Y-127775376D01*
X144228350Y-127774200D01*
X144716650Y-127774200D01*
X144740581Y-127775376D01*
X144740581Y-127775376D01*
G37*
D23*
X144472500Y-128300000D03*
D21*
G36*
X146315581Y-127775376D02*
X146339281Y-127778891D01*
X146362523Y-127784713D01*
X146385082Y-127792785D01*
X146406742Y-127803029D01*
X146427292Y-127815347D01*
X146446537Y-127829619D01*
X146464290Y-127845710D01*
X146480381Y-127863463D01*
X146494653Y-127882708D01*
X146506971Y-127903258D01*
X146517215Y-127924918D01*
X146525287Y-127947477D01*
X146531109Y-127970719D01*
X146534624Y-127994419D01*
X146535800Y-128018350D01*
X146535800Y-128581650D01*
X146534624Y-128605581D01*
X146531109Y-128629281D01*
X146525287Y-128652523D01*
X146517215Y-128675082D01*
X146506971Y-128696742D01*
X146494653Y-128717292D01*
X146480381Y-128736537D01*
X146464290Y-128754290D01*
X146446537Y-128770381D01*
X146427292Y-128784653D01*
X146406742Y-128796971D01*
X146385082Y-128807215D01*
X146362523Y-128815287D01*
X146339281Y-128821109D01*
X146315581Y-128824624D01*
X146291650Y-128825800D01*
X145803350Y-128825800D01*
X145779419Y-128824624D01*
X145755719Y-128821109D01*
X145732477Y-128815287D01*
X145709918Y-128807215D01*
X145688258Y-128796971D01*
X145667708Y-128784653D01*
X145648463Y-128770381D01*
X145630710Y-128754290D01*
X145614619Y-128736537D01*
X145600347Y-128717292D01*
X145588029Y-128696742D01*
X145577785Y-128675082D01*
X145569713Y-128652523D01*
X145563891Y-128629281D01*
X145560376Y-128605581D01*
X145559200Y-128581650D01*
X145559200Y-128018350D01*
X145560376Y-127994419D01*
X145563891Y-127970719D01*
X145569713Y-127947477D01*
X145577785Y-127924918D01*
X145588029Y-127903258D01*
X145600347Y-127882708D01*
X145614619Y-127863463D01*
X145630710Y-127845710D01*
X145648463Y-127829619D01*
X145667708Y-127815347D01*
X145688258Y-127803029D01*
X145709918Y-127792785D01*
X145732477Y-127784713D01*
X145755719Y-127778891D01*
X145779419Y-127775376D01*
X145803350Y-127774200D01*
X146291650Y-127774200D01*
X146315581Y-127775376D01*
X146315581Y-127775376D01*
G37*
D23*
X146047500Y-128300000D03*
G04 #@! TD*
D24*
G04 #@! TO.C,F1*
X139147500Y-110550000D03*
X139147500Y-111050000D03*
X138572500Y-111050000D03*
X138572500Y-110550000D03*
X138860000Y-110050000D03*
G04 #@! TD*
D25*
G04 #@! TO.C,J3*
X138430000Y-98298000D03*
D26*
X142810000Y-98298000D03*
X134050000Y-98298000D03*
G04 #@! TD*
D21*
G04 #@! TO.C,L1*
G36*
X137664847Y-102730033D02*
X137681631Y-102732522D01*
X137698090Y-102736645D01*
X137714066Y-102742361D01*
X137729404Y-102749616D01*
X137743958Y-102758339D01*
X137757587Y-102768446D01*
X137770159Y-102779841D01*
X137781554Y-102792413D01*
X137791661Y-102806042D01*
X137800384Y-102820596D01*
X137807639Y-102835934D01*
X137813355Y-102851910D01*
X137817478Y-102868369D01*
X137819967Y-102885153D01*
X137820800Y-102902100D01*
X137820800Y-103297900D01*
X137819967Y-103314847D01*
X137817478Y-103331631D01*
X137813355Y-103348090D01*
X137807639Y-103364066D01*
X137800384Y-103379404D01*
X137791661Y-103393958D01*
X137781554Y-103407587D01*
X137770159Y-103420159D01*
X137757587Y-103431554D01*
X137743958Y-103441661D01*
X137729404Y-103450384D01*
X137714066Y-103457639D01*
X137698090Y-103463355D01*
X137681631Y-103467478D01*
X137664847Y-103469967D01*
X137647900Y-103470800D01*
X137302100Y-103470800D01*
X137285153Y-103469967D01*
X137268369Y-103467478D01*
X137251910Y-103463355D01*
X137235934Y-103457639D01*
X137220596Y-103450384D01*
X137206042Y-103441661D01*
X137192413Y-103431554D01*
X137179841Y-103420159D01*
X137168446Y-103407587D01*
X137158339Y-103393958D01*
X137149616Y-103379404D01*
X137142361Y-103364066D01*
X137136645Y-103348090D01*
X137132522Y-103331631D01*
X137130033Y-103314847D01*
X137129200Y-103297900D01*
X137129200Y-102902100D01*
X137130033Y-102885153D01*
X137132522Y-102868369D01*
X137136645Y-102851910D01*
X137142361Y-102835934D01*
X137149616Y-102820596D01*
X137158339Y-102806042D01*
X137168446Y-102792413D01*
X137179841Y-102779841D01*
X137192413Y-102768446D01*
X137206042Y-102758339D01*
X137220596Y-102749616D01*
X137235934Y-102742361D01*
X137251910Y-102736645D01*
X137268369Y-102732522D01*
X137285153Y-102730033D01*
X137302100Y-102729200D01*
X137647900Y-102729200D01*
X137664847Y-102730033D01*
X137664847Y-102730033D01*
G37*
D27*
X137475000Y-103100000D03*
D21*
G36*
X138634847Y-102730033D02*
X138651631Y-102732522D01*
X138668090Y-102736645D01*
X138684066Y-102742361D01*
X138699404Y-102749616D01*
X138713958Y-102758339D01*
X138727587Y-102768446D01*
X138740159Y-102779841D01*
X138751554Y-102792413D01*
X138761661Y-102806042D01*
X138770384Y-102820596D01*
X138777639Y-102835934D01*
X138783355Y-102851910D01*
X138787478Y-102868369D01*
X138789967Y-102885153D01*
X138790800Y-102902100D01*
X138790800Y-103297900D01*
X138789967Y-103314847D01*
X138787478Y-103331631D01*
X138783355Y-103348090D01*
X138777639Y-103364066D01*
X138770384Y-103379404D01*
X138761661Y-103393958D01*
X138751554Y-103407587D01*
X138740159Y-103420159D01*
X138727587Y-103431554D01*
X138713958Y-103441661D01*
X138699404Y-103450384D01*
X138684066Y-103457639D01*
X138668090Y-103463355D01*
X138651631Y-103467478D01*
X138634847Y-103469967D01*
X138617900Y-103470800D01*
X138272100Y-103470800D01*
X138255153Y-103469967D01*
X138238369Y-103467478D01*
X138221910Y-103463355D01*
X138205934Y-103457639D01*
X138190596Y-103450384D01*
X138176042Y-103441661D01*
X138162413Y-103431554D01*
X138149841Y-103420159D01*
X138138446Y-103407587D01*
X138128339Y-103393958D01*
X138119616Y-103379404D01*
X138112361Y-103364066D01*
X138106645Y-103348090D01*
X138102522Y-103331631D01*
X138100033Y-103314847D01*
X138099200Y-103297900D01*
X138099200Y-102902100D01*
X138100033Y-102885153D01*
X138102522Y-102868369D01*
X138106645Y-102851910D01*
X138112361Y-102835934D01*
X138119616Y-102820596D01*
X138128339Y-102806042D01*
X138138446Y-102792413D01*
X138149841Y-102779841D01*
X138162413Y-102768446D01*
X138176042Y-102758339D01*
X138190596Y-102749616D01*
X138205934Y-102742361D01*
X138221910Y-102736645D01*
X138238369Y-102732522D01*
X138255153Y-102730033D01*
X138272100Y-102729200D01*
X138617900Y-102729200D01*
X138634847Y-102730033D01*
X138634847Y-102730033D01*
G37*
D27*
X138445000Y-103100000D03*
G04 #@! TD*
D21*
G04 #@! TO.C,L2*
G36*
X138674847Y-106825033D02*
X138691631Y-106827522D01*
X138708090Y-106831645D01*
X138724066Y-106837361D01*
X138739404Y-106844616D01*
X138753958Y-106853339D01*
X138767587Y-106863446D01*
X138780159Y-106874841D01*
X138791554Y-106887413D01*
X138801661Y-106901042D01*
X138810384Y-106915596D01*
X138817639Y-106930934D01*
X138823355Y-106946910D01*
X138827478Y-106963369D01*
X138829967Y-106980153D01*
X138830800Y-106997100D01*
X138830800Y-107342900D01*
X138829967Y-107359847D01*
X138827478Y-107376631D01*
X138823355Y-107393090D01*
X138817639Y-107409066D01*
X138810384Y-107424404D01*
X138801661Y-107438958D01*
X138791554Y-107452587D01*
X138780159Y-107465159D01*
X138767587Y-107476554D01*
X138753958Y-107486661D01*
X138739404Y-107495384D01*
X138724066Y-107502639D01*
X138708090Y-107508355D01*
X138691631Y-107512478D01*
X138674847Y-107514967D01*
X138657900Y-107515800D01*
X138262100Y-107515800D01*
X138245153Y-107514967D01*
X138228369Y-107512478D01*
X138211910Y-107508355D01*
X138195934Y-107502639D01*
X138180596Y-107495384D01*
X138166042Y-107486661D01*
X138152413Y-107476554D01*
X138139841Y-107465159D01*
X138128446Y-107452587D01*
X138118339Y-107438958D01*
X138109616Y-107424404D01*
X138102361Y-107409066D01*
X138096645Y-107393090D01*
X138092522Y-107376631D01*
X138090033Y-107359847D01*
X138089200Y-107342900D01*
X138089200Y-106997100D01*
X138090033Y-106980153D01*
X138092522Y-106963369D01*
X138096645Y-106946910D01*
X138102361Y-106930934D01*
X138109616Y-106915596D01*
X138118339Y-106901042D01*
X138128446Y-106887413D01*
X138139841Y-106874841D01*
X138152413Y-106863446D01*
X138166042Y-106853339D01*
X138180596Y-106844616D01*
X138195934Y-106837361D01*
X138211910Y-106831645D01*
X138228369Y-106827522D01*
X138245153Y-106825033D01*
X138262100Y-106824200D01*
X138657900Y-106824200D01*
X138674847Y-106825033D01*
X138674847Y-106825033D01*
G37*
D27*
X138460000Y-107170000D03*
D21*
G36*
X138674847Y-105855033D02*
X138691631Y-105857522D01*
X138708090Y-105861645D01*
X138724066Y-105867361D01*
X138739404Y-105874616D01*
X138753958Y-105883339D01*
X138767587Y-105893446D01*
X138780159Y-105904841D01*
X138791554Y-105917413D01*
X138801661Y-105931042D01*
X138810384Y-105945596D01*
X138817639Y-105960934D01*
X138823355Y-105976910D01*
X138827478Y-105993369D01*
X138829967Y-106010153D01*
X138830800Y-106027100D01*
X138830800Y-106372900D01*
X138829967Y-106389847D01*
X138827478Y-106406631D01*
X138823355Y-106423090D01*
X138817639Y-106439066D01*
X138810384Y-106454404D01*
X138801661Y-106468958D01*
X138791554Y-106482587D01*
X138780159Y-106495159D01*
X138767587Y-106506554D01*
X138753958Y-106516661D01*
X138739404Y-106525384D01*
X138724066Y-106532639D01*
X138708090Y-106538355D01*
X138691631Y-106542478D01*
X138674847Y-106544967D01*
X138657900Y-106545800D01*
X138262100Y-106545800D01*
X138245153Y-106544967D01*
X138228369Y-106542478D01*
X138211910Y-106538355D01*
X138195934Y-106532639D01*
X138180596Y-106525384D01*
X138166042Y-106516661D01*
X138152413Y-106506554D01*
X138139841Y-106495159D01*
X138128446Y-106482587D01*
X138118339Y-106468958D01*
X138109616Y-106454404D01*
X138102361Y-106439066D01*
X138096645Y-106423090D01*
X138092522Y-106406631D01*
X138090033Y-106389847D01*
X138089200Y-106372900D01*
X138089200Y-106027100D01*
X138090033Y-106010153D01*
X138092522Y-105993369D01*
X138096645Y-105976910D01*
X138102361Y-105960934D01*
X138109616Y-105945596D01*
X138118339Y-105931042D01*
X138128446Y-105917413D01*
X138139841Y-105904841D01*
X138152413Y-105893446D01*
X138166042Y-105883339D01*
X138180596Y-105874616D01*
X138195934Y-105867361D01*
X138211910Y-105861645D01*
X138228369Y-105857522D01*
X138245153Y-105855033D01*
X138262100Y-105854200D01*
X138657900Y-105854200D01*
X138674847Y-105855033D01*
X138674847Y-105855033D01*
G37*
D27*
X138460000Y-106200000D03*
G04 #@! TD*
D28*
G04 #@! TO.C,Q1*
X145210000Y-118500000D03*
X143310000Y-118500000D03*
X144260000Y-120500000D03*
G04 #@! TD*
D10*
G04 #@! TO.C,R1*
X138460000Y-104100000D03*
X139360000Y-104100000D03*
G04 #@! TD*
G04 #@! TO.C,R3*
X136010000Y-107900000D03*
X136910000Y-107900000D03*
G04 #@! TD*
D29*
G04 #@! TO.C,R4*
X130910000Y-134500000D03*
X132410000Y-134500000D03*
G04 #@! TD*
D10*
G04 #@! TO.C,R5*
X140060000Y-113550000D03*
X139160000Y-113550000D03*
G04 #@! TD*
D29*
G04 #@! TO.C,R6*
X144510000Y-134500000D03*
X146010000Y-134500000D03*
G04 #@! TD*
D30*
G04 #@! TO.C,U1*
X134510000Y-107150000D03*
X133210000Y-107150000D03*
X133860000Y-107150000D03*
X133210000Y-109050000D03*
X134510000Y-109050000D03*
G04 #@! TD*
D31*
G04 #@! TO.C,U2*
X138060000Y-108850000D03*
X138460000Y-108850000D03*
X138860000Y-108850000D03*
X138860000Y-108450000D03*
X138460000Y-108450000D03*
X138060000Y-108450000D03*
G04 #@! TD*
D32*
G04 #@! TO.C,C2*
X134260000Y-104500000D03*
X132260000Y-104500000D03*
G04 #@! TD*
G04 #@! TO.C,C7*
X132260000Y-111500000D03*
X134260000Y-111500000D03*
G04 #@! TD*
D33*
G04 #@! TO.C,R2*
X131772000Y-108450000D03*
X131772000Y-106950000D03*
G04 #@! TD*
M02*
