M48
;DRILL file {KiCad (5.0.0)} date 09/17/18 15:57:46
;FORMAT={-:-/ absolute / inch / decimal}
FMAT,2
INCH,TZ
T1C0.0100
T2C0.0157
T3C0.0181
T4C0.0394
%
G90
G05
M72
T1
X4.9787Y-3.7874
X4.9787Y-3.8465
X4.9787Y-3.9055
X4.9787Y-3.9646
X4.9787Y-4.0236
X4.9787Y-4.0827
X4.9787Y-4.1417
X4.9787Y-4.2008
X4.9787Y-4.2598
X4.9787Y-4.3189
X4.9787Y-4.378
X4.9787Y-4.437
X4.9787Y-4.4961
X5.0378Y-3.7874
X5.0378Y-4.4961
X5.0969Y-3.7874
X5.0969Y-4.4961
X5.0969Y-4.5846
X5.0969Y-4.8209
X5.0969Y-5.0571
X5.0969Y-5.2933
X5.1362Y-4.2008
X5.1362Y-4.2598
X5.1559Y-3.7874
X5.1559Y-4.0236
X5.1559Y-4.0827
X5.1559Y-4.1417
X5.1559Y-4.3189
X5.1559Y-4.378
X5.1559Y-4.437
X5.1559Y-4.4961
X5.1953Y-3.7874
X5.1953Y-3.8268
X5.1953Y-3.8661
X5.1953Y-3.9055
X5.1953Y-3.9449
X5.1953Y-3.9843
X5.1953Y-4.1713
X5.1992Y-4.8622
X5.2051Y-4.0433
X5.215Y-4.3189
X5.215Y-4.437
X5.215Y-4.4961
X5.2228Y-4.8386
X5.2346Y-4.0039
X5.2445Y-4.1713
X5.2465Y-4.9646
X5.2701Y-4.9803
X5.2937Y-4.5
X5.3094Y-4.8622
X5.3134Y-4.2598
X5.3232Y-4.0039
X5.3331Y-4.8209
X5.3331Y-5.0571
X5.3331Y-5.1752
X5.3331Y-5.2933
X5.3488Y-4.2953
X5.3528Y-4.0925
X5.3528Y-4.1319
X5.3528Y-4.1713
X5.3528Y-4.2106
X5.3528Y-4.3681
X5.3528Y-4.4075
X5.3528Y-4.4469
X5.3567Y-4.8386
X5.3626Y-3.7874
X5.3626Y-3.8268
X5.3626Y-3.8661
X5.3626Y-3.9055
X5.3626Y-3.9449
X5.3626Y-3.9843
X5.3724Y-4.6024
X5.3921Y-4.0138
X5.3921Y-4.2894
X5.4118Y-4.0925
X5.4118Y-4.1319
X5.4118Y-4.1713
X5.4118Y-4.2106
X5.4118Y-4.2992
X5.4118Y-4.3681
X5.4118Y-4.4075
X5.4118Y-4.4469
X5.4118Y-4.4862
X5.4217Y-4.25
X5.4512Y-4.4075
X5.4512Y-4.4469
X5.4512Y-4.4862
X5.4512Y-5.0571
X5.4512Y-5.2933
X5.4807Y-4.0039
X5.4807Y-4.0433
X5.4906Y-4.1319
X5.4906Y-4.1713
X5.4906Y-4.2106
X5.4906Y-4.25
X5.4906Y-4.2894
X5.4906Y-4.3287
X5.5102Y-4.437
X5.5142Y-4.8228
X5.5201Y-4.5
X5.5299Y-4.0728
X5.5299Y-4.1713
X5.5299Y-4.2106
X5.5299Y-4.25
X5.5299Y-4.2894
X5.5299Y-4.3287
X5.5299Y-4.3681
X5.5299Y-4.4075
X5.5398Y-3.7874
X5.5398Y-3.8268
X5.5398Y-3.8661
X5.5398Y-3.9055
X5.5398Y-3.9449
X5.5398Y-3.9843
X5.5594Y-4.1024
X5.5594Y-4.4862
X5.5693Y-4.0138
X5.5693Y-4.8209
X5.5693Y-5.0571
X5.5693Y-5.1752
X5.5693Y-5.2933
X5.5791Y-4.1319
X5.5791Y-4.1713
X5.5791Y-4.2106
X5.5791Y-4.25
X5.5791Y-4.2894
X5.5791Y-4.3287
X5.5791Y-4.3681
X5.5791Y-4.4075
X5.5791Y-4.4469
X5.5791Y-4.5256
X5.5791Y-4.5748
X5.6283Y-4.4961
X5.6776Y-4.0138
X5.6874Y-4.4961
X5.7071Y-3.7874
X5.7071Y-3.8268
X5.7071Y-3.8661
X5.7071Y-3.9055
X5.7071Y-3.9449
X5.7071Y-3.9843
X5.7465Y-3.7874
X5.7465Y-4.4961
X5.8055Y-3.7874
X5.8055Y-4.4961
X5.8055Y-4.5846
X5.8055Y-4.8228
X5.8055Y-5.0571
X5.8055Y-5.2933
X5.8646Y-3.7874
X5.8646Y-4.4961
X5.9236Y-3.7874
X5.9236Y-3.8465
X5.9236Y-3.9055
X5.9236Y-3.9646
X5.9236Y-4.0236
X5.9236Y-4.0827
X5.9236Y-4.1417
X5.9236Y-4.2008
X5.9236Y-4.2598
X5.9236Y-4.3189
X5.9236Y-4.378
X5.9236Y-4.437
X5.9236Y-4.4961
T2
X5.152Y-5.3425
X5.6795Y-4.9173
X5.6795Y-4.9567
X5.6874Y-5.3425
T3
X5.2776Y-4.0054
X5.6224Y-4.0054
T4
X5.9Y-4.6
X5.9Y-4.7
X5.9Y-4.8
X5.9Y-4.9
X5.9Y-5.
X5.9Y-5.1
X5.9Y-5.2
X5.9Y-5.3
X5.Y-4.6
X5.Y-4.7
X5.Y-4.8
X5.Y-4.9
X5.Y-5.
X5.Y-5.1
X5.Y-5.2
X5.Y-5.3
T0
M30
