G04 #@! TF.GenerationSoftware,KiCad,Pcbnew,(5.0.0)*
G04 #@! TF.CreationDate,2018-09-17T15:57:07-05:00*
G04 #@! TF.ProjectId,TESEO-LIV3F_uBUS,544553454F2D4C495633465F75425553,rev?*
G04 #@! TF.SameCoordinates,Original*
G04 #@! TF.FileFunction,Copper,L4,Bot,Signal*
G04 #@! TF.FilePolarity,Positive*
%FSLAX46Y46*%
G04 Gerber Fmt 4.6, Leading zero omitted, Abs format (unit mm)*
G04 Created by KiCad (PCBNEW (5.0.0)) date 09/17/18 15:57:07*
%MOMM*%
%LPD*%
G01*
G04 APERTURE LIST*
G04 #@! TA.AperFunction,ComponentPad*
%ADD10R,1.700000X1.700000*%
G04 #@! TD*
G04 #@! TA.AperFunction,ComponentPad*
%ADD11O,1.700000X1.700000*%
G04 #@! TD*
G04 #@! TA.AperFunction,ComponentPad*
%ADD12C,1.700000*%
G04 #@! TD*
G04 #@! TA.AperFunction,SMDPad,CuDef*
%ADD13R,2.420000X5.080000*%
G04 #@! TD*
G04 #@! TA.AperFunction,ViaPad*
%ADD14C,0.970000*%
G04 #@! TD*
G04 #@! TA.AperFunction,Conductor*
%ADD15R,0.460000X0.950000*%
G04 #@! TD*
G04 #@! TA.AperFunction,ViaPad*
%ADD16C,0.800000*%
G04 #@! TD*
G04 #@! TA.AperFunction,ViaPad*
%ADD17C,0.457200*%
G04 #@! TD*
G04 #@! TA.AperFunction,Conductor*
%ADD18C,0.250000*%
G04 #@! TD*
G04 #@! TA.AperFunction,Conductor*
%ADD19C,0.150000*%
G04 #@! TD*
G04 #@! TA.AperFunction,Conductor*
%ADD20C,0.127000*%
G04 #@! TD*
G04 APERTURE END LIST*
D10*
G04 #@! TO.P,J1,1*
G04 #@! TO.N,Net-(J1-Pad1)*
X127000000Y-116840000D03*
D11*
G04 #@! TO.P,J1,2*
G04 #@! TO.N,/RESET*
X127000000Y-119380000D03*
G04 #@! TO.P,J1,3*
G04 #@! TO.N,Net-(J1-Pad3)*
X127000000Y-121920000D03*
G04 #@! TO.P,J1,4*
G04 #@! TO.N,Net-(J1-Pad4)*
X127000000Y-124460000D03*
G04 #@! TO.P,J1,5*
G04 #@! TO.N,Net-(J1-Pad5)*
X127000000Y-127000000D03*
G04 #@! TO.P,J1,6*
G04 #@! TO.N,Net-(J1-Pad6)*
X127000000Y-129540000D03*
G04 #@! TO.P,J1,7*
G04 #@! TO.N,+3V3*
X127000000Y-132080000D03*
G04 #@! TO.P,J1,8*
G04 #@! TO.N,GND*
X127000000Y-134620000D03*
G04 #@! TD*
G04 #@! TO.P,J2,8*
G04 #@! TO.N,GND*
X149860000Y-134620000D03*
G04 #@! TO.P,J2,7*
G04 #@! TO.N,Net-(J2-Pad7)*
X149860000Y-132080000D03*
G04 #@! TO.P,J2,6*
G04 #@! TO.N,/SDA*
X149860000Y-129540000D03*
G04 #@! TO.P,J2,5*
G04 #@! TO.N,/SCL*
X149860000Y-127000000D03*
G04 #@! TO.P,J2,4*
G04 #@! TO.N,/RX*
X149860000Y-124460000D03*
G04 #@! TO.P,J2,3*
G04 #@! TO.N,/TX*
X149860000Y-121920000D03*
G04 #@! TO.P,J2,2*
G04 #@! TO.N,/PPS*
X149860000Y-119380000D03*
D12*
G04 #@! TO.P,J2,1*
G04 #@! TO.N,/EXI*
X149860000Y-116840000D03*
G04 #@! TD*
D13*
G04 #@! TO.P,J3,2*
G04 #@! TO.N,GND*
X142810000Y-98298000D03*
X134050000Y-98298000D03*
D14*
G04 #@! TD*
G04 #@! TO.N,GND*
G04 #@! TO.C,J3*
X142810000Y-101738000D03*
G04 #@! TO.N,GND*
G04 #@! TO.C,J3*
X134050000Y-101738000D03*
D15*
X142810000Y-101288000D03*
X134050000Y-101288000D03*
G04 #@! TD*
D16*
G04 #@! TO.N,+3V3*
X130860000Y-135700000D03*
X144260000Y-125900000D03*
X144260000Y-124900000D03*
X144460000Y-135700000D03*
D17*
G04 #@! TO.N,GND*
X136210000Y-96200000D03*
X136210000Y-97200000D03*
X136210000Y-98200000D03*
X136210000Y-99200000D03*
X136210000Y-100200000D03*
X136210000Y-101200000D03*
X140710000Y-99200000D03*
X140710000Y-100200000D03*
X140710000Y-96200000D03*
X140710000Y-97200000D03*
X140710000Y-98200000D03*
X140710000Y-101200000D03*
X141460000Y-101950000D03*
X144960000Y-98200000D03*
X144960000Y-99200000D03*
X144960000Y-96200000D03*
X144960000Y-97200000D03*
X144960000Y-100200000D03*
X144960000Y-101200000D03*
X144210000Y-101950000D03*
X135210000Y-101700000D03*
X132960000Y-101700000D03*
X131960000Y-99200000D03*
X131960000Y-96200000D03*
X131960000Y-97200000D03*
X131960000Y-100200000D03*
X131960000Y-101200000D03*
X131960000Y-98200000D03*
X130960000Y-96200000D03*
X126460000Y-96200000D03*
X127960000Y-96200000D03*
X129460000Y-96200000D03*
X145960000Y-96200000D03*
X147460000Y-96200000D03*
X148960000Y-96200000D03*
X150460000Y-96200000D03*
X150460000Y-97700000D03*
X150460000Y-99200000D03*
X150460000Y-100700000D03*
X150460000Y-102200000D03*
X150460000Y-103700000D03*
X150460000Y-105200000D03*
X150460000Y-106700000D03*
X150460000Y-108200000D03*
X150460000Y-109700000D03*
X150460000Y-111200000D03*
X150460000Y-112700000D03*
X150460000Y-114200000D03*
X126460000Y-97700000D03*
X126460000Y-99200000D03*
X126460000Y-100700000D03*
X126460000Y-102200000D03*
X126460000Y-103700000D03*
X126460000Y-105200000D03*
X126460000Y-106700000D03*
X126460000Y-108200000D03*
X126460000Y-109700000D03*
X126460000Y-111200000D03*
X126460000Y-112700000D03*
X126460000Y-114200000D03*
X139210000Y-101700000D03*
X139210000Y-102700000D03*
X140460000Y-103450000D03*
X141210000Y-104200000D03*
X141710000Y-104950000D03*
X141710000Y-105950000D03*
X141710000Y-106950000D03*
X141710000Y-107950000D03*
X141710000Y-108950000D03*
X141710000Y-109950000D03*
X141710000Y-110950000D03*
X141710000Y-111950000D03*
X141710000Y-112950000D03*
X141210000Y-113950000D03*
X140210000Y-114300000D03*
X140460000Y-105950000D03*
X140460000Y-106950000D03*
X140460000Y-107950000D03*
X140460000Y-108950000D03*
X140460000Y-109950000D03*
X140460000Y-110950000D03*
X140460000Y-111950000D03*
X139960000Y-112700000D03*
X139460000Y-105950000D03*
X139460000Y-106950000D03*
X139460000Y-107950000D03*
X139460000Y-108950000D03*
X139460000Y-109950000D03*
X139460000Y-104950000D03*
X136960000Y-101950000D03*
X137460000Y-104950000D03*
X137460000Y-105950000D03*
X137460000Y-106950000D03*
X137460000Y-103950000D03*
X137710000Y-107950000D03*
X137460000Y-109200000D03*
X136960000Y-108950000D03*
X138460000Y-111950000D03*
X138460000Y-112950000D03*
X138460000Y-113950000D03*
X137460000Y-113950000D03*
X137460000Y-112950000D03*
X137460000Y-111950000D03*
X137460000Y-110950000D03*
X130960000Y-114200000D03*
X141710000Y-114950000D03*
X141710000Y-116200000D03*
X127960000Y-114200000D03*
X129460000Y-114200000D03*
X132460000Y-114200000D03*
X148960000Y-114200000D03*
X147460000Y-114200000D03*
X145960000Y-114200000D03*
X144460000Y-114200000D03*
X142960000Y-114200000D03*
X135460000Y-131450000D03*
X135460000Y-128450000D03*
X138460000Y-128450000D03*
X141460000Y-128450000D03*
X141460000Y-131450000D03*
X141460000Y-134450000D03*
X138460000Y-134450000D03*
X135460000Y-134450000D03*
X129460000Y-128450000D03*
X129460000Y-134450000D03*
X129460000Y-122450000D03*
X129460000Y-116450000D03*
X147460000Y-128450000D03*
X147460000Y-122500000D03*
X147460000Y-116450000D03*
X141460000Y-122450000D03*
X135460000Y-122450000D03*
X147460000Y-134450000D03*
X135960000Y-110950000D03*
X135960000Y-111950000D03*
X135960000Y-112950000D03*
X135960000Y-106950000D03*
X135960000Y-105950000D03*
X135960000Y-104950000D03*
X135960000Y-103950000D03*
X130960000Y-112700000D03*
X130960000Y-111200000D03*
X130960000Y-109700000D03*
X130960000Y-105200000D03*
X130960000Y-103700000D03*
X130960000Y-102200000D03*
X130460000Y-108200000D03*
X130460000Y-106700000D03*
X132460000Y-109700000D03*
X132460000Y-112700000D03*
X133210000Y-105950000D03*
X131960000Y-105950000D03*
X132210000Y-102700000D03*
X134960000Y-108200000D03*
X135860000Y-109100000D03*
G04 #@! TO.N,/RESET*
X140060000Y-122500000D03*
G04 #@! TO.N,/SDA*
X132060000Y-123500000D03*
G04 #@! TO.N,/SCL*
X132660000Y-122900000D03*
G04 #@! TO.N,/RX*
X133860000Y-126500000D03*
G04 #@! TO.N,/TX*
X133260000Y-126100000D03*
G04 #@! TO.N,/PPS*
X134860000Y-123500000D03*
G04 #@! TO.N,/EXI*
X136060000Y-122900000D03*
G04 #@! TO.N,/ANT_OFF*
X136460000Y-116900000D03*
X134460000Y-114300000D03*
G04 #@! TD*
D18*
G04 #@! TO.N,/RESET*
X140060000Y-122500000D02*
X139860000Y-122700000D01*
X139860000Y-122700000D02*
X136660000Y-122700000D01*
X133340000Y-119380000D02*
X127000000Y-119380000D01*
X136660000Y-122700000D02*
X133340000Y-119380000D01*
G04 #@! TO.N,/SDA*
X149860000Y-129540000D02*
X148220000Y-127900000D01*
X148220000Y-127900000D02*
X140660000Y-127900000D01*
X140660000Y-127900000D02*
X140260000Y-127500000D01*
X140260000Y-127500000D02*
X133260000Y-127500000D01*
X133260000Y-127500000D02*
X132060000Y-126300000D01*
X132060000Y-126300000D02*
X132060000Y-123500000D01*
G04 #@! TO.N,/SCL*
X147960000Y-127000000D02*
X149860000Y-127000000D01*
X147460000Y-127500000D02*
X147960000Y-127000000D01*
X132660000Y-122900000D02*
X132660000Y-126300000D01*
X132660000Y-126300000D02*
X133460000Y-127100000D01*
X133460000Y-127100000D02*
X140460000Y-127100000D01*
X140460000Y-127100000D02*
X140860000Y-127500000D01*
X140860000Y-127500000D02*
X147460000Y-127500000D01*
G04 #@! TO.N,/RX*
X147220000Y-127100000D02*
X149860000Y-124460000D01*
X141060000Y-127100000D02*
X147220000Y-127100000D01*
X133860000Y-126500000D02*
X140460000Y-126500000D01*
X140460000Y-126500000D02*
X141060000Y-127100000D01*
G04 #@! TO.N,/TX*
X145080000Y-126700000D02*
X149860000Y-121920000D01*
X141260000Y-126700000D02*
X145080000Y-126700000D01*
X140460000Y-125900000D02*
X141260000Y-126700000D01*
X133260000Y-126100000D02*
X133460000Y-125900000D01*
X133460000Y-125900000D02*
X140460000Y-125900000D01*
G04 #@! TO.N,/PPS*
X145740000Y-123500000D02*
X149860000Y-119380000D01*
X134860000Y-123500000D02*
X145740000Y-123500000D01*
G04 #@! TO.N,/EXI*
X136060000Y-122900000D02*
X136260000Y-123100000D01*
X143600000Y-123100000D02*
X149860000Y-116840000D01*
X136260000Y-123100000D02*
X143600000Y-123100000D01*
D19*
G04 #@! TO.N,/ANT_OFF*
X136460000Y-116900000D02*
X134460000Y-114900000D01*
X134460000Y-114900000D02*
X134460000Y-114300000D01*
G04 #@! TD*
D20*
G04 #@! TO.N,GND*
G36*
X135765219Y-122431008D02*
X135750659Y-122437039D01*
X135597039Y-122590659D01*
X135513900Y-122791374D01*
X135513900Y-123008626D01*
X135534144Y-123057500D01*
X135189802Y-123057500D01*
X135169341Y-123037039D01*
X134968626Y-122953900D01*
X134751374Y-122953900D01*
X134550659Y-123037039D01*
X134397039Y-123190659D01*
X134313900Y-123391374D01*
X134313900Y-123608626D01*
X134397039Y-123809341D01*
X134550659Y-123962961D01*
X134751374Y-124046100D01*
X134968626Y-124046100D01*
X135169341Y-123962961D01*
X135189802Y-123942500D01*
X145696418Y-123942500D01*
X145740000Y-123951169D01*
X145783582Y-123942500D01*
X145912655Y-123916826D01*
X146059025Y-123819025D01*
X146083716Y-123782072D01*
X149393413Y-120472376D01*
X149404464Y-120479760D01*
X149745015Y-120547500D01*
X149974985Y-120547500D01*
X150315536Y-120479760D01*
X150685500Y-120232558D01*
X150685500Y-121067442D01*
X150315536Y-120820240D01*
X149974985Y-120752500D01*
X149745015Y-120752500D01*
X149404464Y-120820240D01*
X149018280Y-121078280D01*
X148760240Y-121464464D01*
X148669628Y-121920000D01*
X148760240Y-122375536D01*
X148767624Y-122386587D01*
X144896712Y-126257500D01*
X144888535Y-126257500D01*
X144977500Y-126042720D01*
X144977500Y-125757280D01*
X144868267Y-125493569D01*
X144774698Y-125400000D01*
X144868267Y-125306431D01*
X144977500Y-125042720D01*
X144977500Y-124757280D01*
X144868267Y-124493569D01*
X144666431Y-124291733D01*
X144402720Y-124182500D01*
X144117280Y-124182500D01*
X143853569Y-124291733D01*
X143651733Y-124493569D01*
X143542500Y-124757280D01*
X143542500Y-125042720D01*
X143651733Y-125306431D01*
X143745302Y-125400000D01*
X143651733Y-125493569D01*
X143542500Y-125757280D01*
X143542500Y-126042720D01*
X143631465Y-126257500D01*
X141443289Y-126257500D01*
X140803716Y-125617928D01*
X140779025Y-125580975D01*
X140632655Y-125483174D01*
X140503582Y-125457500D01*
X140460000Y-125448831D01*
X140416418Y-125457500D01*
X133503582Y-125457500D01*
X133460000Y-125448831D01*
X133416418Y-125457500D01*
X133287345Y-125483174D01*
X133181496Y-125553900D01*
X133151374Y-125553900D01*
X133102500Y-125574144D01*
X133102500Y-123229802D01*
X133122961Y-123209341D01*
X133206100Y-123008626D01*
X133206100Y-122791374D01*
X133122961Y-122590659D01*
X132969341Y-122437039D01*
X132768626Y-122353900D01*
X132551374Y-122353900D01*
X132350659Y-122437039D01*
X132197039Y-122590659D01*
X132113900Y-122791374D01*
X132113900Y-122953900D01*
X131951374Y-122953900D01*
X131750659Y-123037039D01*
X131597039Y-123190659D01*
X131513900Y-123391374D01*
X131513900Y-123608626D01*
X131597039Y-123809341D01*
X131617501Y-123829803D01*
X131617500Y-126256418D01*
X131608831Y-126300000D01*
X131630580Y-126409341D01*
X131643174Y-126472654D01*
X131740975Y-126619025D01*
X131777928Y-126643716D01*
X132916286Y-127782074D01*
X132940975Y-127819025D01*
X133087345Y-127916826D01*
X133216418Y-127942500D01*
X133259999Y-127951169D01*
X133303580Y-127942500D01*
X140076712Y-127942500D01*
X140316285Y-128182074D01*
X140340975Y-128219025D01*
X140487345Y-128316826D01*
X140616418Y-128342500D01*
X140659999Y-128351169D01*
X140703580Y-128342500D01*
X148036712Y-128342500D01*
X148767624Y-129073413D01*
X148760240Y-129084464D01*
X148669628Y-129540000D01*
X148760240Y-129995536D01*
X149018280Y-130381720D01*
X149404464Y-130639760D01*
X149745015Y-130707500D01*
X149974985Y-130707500D01*
X150315536Y-130639760D01*
X150685500Y-130392558D01*
X150685500Y-131227442D01*
X150315536Y-130980240D01*
X149974985Y-130912500D01*
X149745015Y-130912500D01*
X149404464Y-130980240D01*
X149018280Y-131238280D01*
X148760240Y-131624464D01*
X148669628Y-132080000D01*
X148760240Y-132535536D01*
X149018280Y-132921720D01*
X149404464Y-133179760D01*
X149745015Y-133247500D01*
X149974985Y-133247500D01*
X150315536Y-133179760D01*
X150685500Y-132932558D01*
X150685500Y-133826419D01*
X150523260Y-133659189D01*
X150105086Y-133478508D01*
X149923500Y-133533597D01*
X149923500Y-134556500D01*
X149943500Y-134556500D01*
X149943500Y-134683500D01*
X149923500Y-134683500D01*
X149923500Y-135706403D01*
X150105086Y-135761492D01*
X150523260Y-135580811D01*
X150685500Y-135413581D01*
X150685500Y-135736698D01*
X148436698Y-137985500D01*
X126174500Y-137985500D01*
X126174500Y-135413581D01*
X126336740Y-135580811D01*
X126754914Y-135761492D01*
X126936500Y-135706403D01*
X126936500Y-134683500D01*
X127063500Y-134683500D01*
X127063500Y-135706403D01*
X127245086Y-135761492D01*
X127663260Y-135580811D01*
X127686088Y-135557280D01*
X130142500Y-135557280D01*
X130142500Y-135842720D01*
X130251733Y-136106431D01*
X130453569Y-136308267D01*
X130717280Y-136417500D01*
X131002720Y-136417500D01*
X131266431Y-136308267D01*
X131468267Y-136106431D01*
X131577500Y-135842720D01*
X131577500Y-135557280D01*
X143742500Y-135557280D01*
X143742500Y-135842720D01*
X143851733Y-136106431D01*
X144053569Y-136308267D01*
X144317280Y-136417500D01*
X144602720Y-136417500D01*
X144866431Y-136308267D01*
X145068267Y-136106431D01*
X145177500Y-135842720D01*
X145177500Y-135557280D01*
X145068267Y-135293569D01*
X144866431Y-135091733D01*
X144602720Y-134982500D01*
X144317280Y-134982500D01*
X144053569Y-135091733D01*
X143851733Y-135293569D01*
X143742500Y-135557280D01*
X131577500Y-135557280D01*
X131468267Y-135293569D01*
X131266431Y-135091733D01*
X131002720Y-134982500D01*
X130717280Y-134982500D01*
X130453569Y-135091733D01*
X130251733Y-135293569D01*
X130142500Y-135557280D01*
X127686088Y-135557280D01*
X127980459Y-135253855D01*
X128141486Y-134865085D01*
X148718514Y-134865085D01*
X148879541Y-135253855D01*
X149196740Y-135580811D01*
X149614914Y-135761492D01*
X149796500Y-135706403D01*
X149796500Y-134683500D01*
X148773729Y-134683500D01*
X148718514Y-134865085D01*
X128141486Y-134865085D01*
X128086271Y-134683500D01*
X127063500Y-134683500D01*
X126936500Y-134683500D01*
X126916500Y-134683500D01*
X126916500Y-134556500D01*
X126936500Y-134556500D01*
X126936500Y-133533597D01*
X127063500Y-133533597D01*
X127063500Y-134556500D01*
X128086271Y-134556500D01*
X128141486Y-134374915D01*
X148718514Y-134374915D01*
X148773729Y-134556500D01*
X149796500Y-134556500D01*
X149796500Y-133533597D01*
X149614914Y-133478508D01*
X149196740Y-133659189D01*
X148879541Y-133986145D01*
X148718514Y-134374915D01*
X128141486Y-134374915D01*
X127980459Y-133986145D01*
X127663260Y-133659189D01*
X127245086Y-133478508D01*
X127063500Y-133533597D01*
X126936500Y-133533597D01*
X126754914Y-133478508D01*
X126336740Y-133659189D01*
X126174500Y-133826419D01*
X126174500Y-132932558D01*
X126544464Y-133179760D01*
X126885015Y-133247500D01*
X127114985Y-133247500D01*
X127455536Y-133179760D01*
X127841720Y-132921720D01*
X128099760Y-132535536D01*
X128190372Y-132080000D01*
X128099760Y-131624464D01*
X127841720Y-131238280D01*
X127455536Y-130980240D01*
X127114985Y-130912500D01*
X126885015Y-130912500D01*
X126544464Y-130980240D01*
X126174500Y-131227442D01*
X126174500Y-130392558D01*
X126544464Y-130639760D01*
X126885015Y-130707500D01*
X127114985Y-130707500D01*
X127455536Y-130639760D01*
X127841720Y-130381720D01*
X128099760Y-129995536D01*
X128190372Y-129540000D01*
X128099760Y-129084464D01*
X127841720Y-128698280D01*
X127455536Y-128440240D01*
X127114985Y-128372500D01*
X126885015Y-128372500D01*
X126544464Y-128440240D01*
X126174500Y-128687442D01*
X126174500Y-127852558D01*
X126544464Y-128099760D01*
X126885015Y-128167500D01*
X127114985Y-128167500D01*
X127455536Y-128099760D01*
X127841720Y-127841720D01*
X128099760Y-127455536D01*
X128190372Y-127000000D01*
X128099760Y-126544464D01*
X127841720Y-126158280D01*
X127455536Y-125900240D01*
X127114985Y-125832500D01*
X126885015Y-125832500D01*
X126544464Y-125900240D01*
X126174500Y-126147442D01*
X126174500Y-125312558D01*
X126544464Y-125559760D01*
X126885015Y-125627500D01*
X127114985Y-125627500D01*
X127455536Y-125559760D01*
X127841720Y-125301720D01*
X128099760Y-124915536D01*
X128190372Y-124460000D01*
X128099760Y-124004464D01*
X127841720Y-123618280D01*
X127455536Y-123360240D01*
X127114985Y-123292500D01*
X126885015Y-123292500D01*
X126544464Y-123360240D01*
X126174500Y-123607442D01*
X126174500Y-122772558D01*
X126544464Y-123019760D01*
X126885015Y-123087500D01*
X127114985Y-123087500D01*
X127455536Y-123019760D01*
X127841720Y-122761720D01*
X128099760Y-122375536D01*
X128190372Y-121920000D01*
X128099760Y-121464464D01*
X127841720Y-121078280D01*
X127455536Y-120820240D01*
X127114985Y-120752500D01*
X126885015Y-120752500D01*
X126544464Y-120820240D01*
X126174500Y-121067442D01*
X126174500Y-120232558D01*
X126544464Y-120479760D01*
X126885015Y-120547500D01*
X127114985Y-120547500D01*
X127455536Y-120479760D01*
X127841720Y-120221720D01*
X128099760Y-119835536D01*
X128102353Y-119822500D01*
X133156712Y-119822500D01*
X135765219Y-122431008D01*
X135765219Y-122431008D01*
G37*
X135765219Y-122431008D02*
X135750659Y-122437039D01*
X135597039Y-122590659D01*
X135513900Y-122791374D01*
X135513900Y-123008626D01*
X135534144Y-123057500D01*
X135189802Y-123057500D01*
X135169341Y-123037039D01*
X134968626Y-122953900D01*
X134751374Y-122953900D01*
X134550659Y-123037039D01*
X134397039Y-123190659D01*
X134313900Y-123391374D01*
X134313900Y-123608626D01*
X134397039Y-123809341D01*
X134550659Y-123962961D01*
X134751374Y-124046100D01*
X134968626Y-124046100D01*
X135169341Y-123962961D01*
X135189802Y-123942500D01*
X145696418Y-123942500D01*
X145740000Y-123951169D01*
X145783582Y-123942500D01*
X145912655Y-123916826D01*
X146059025Y-123819025D01*
X146083716Y-123782072D01*
X149393413Y-120472376D01*
X149404464Y-120479760D01*
X149745015Y-120547500D01*
X149974985Y-120547500D01*
X150315536Y-120479760D01*
X150685500Y-120232558D01*
X150685500Y-121067442D01*
X150315536Y-120820240D01*
X149974985Y-120752500D01*
X149745015Y-120752500D01*
X149404464Y-120820240D01*
X149018280Y-121078280D01*
X148760240Y-121464464D01*
X148669628Y-121920000D01*
X148760240Y-122375536D01*
X148767624Y-122386587D01*
X144896712Y-126257500D01*
X144888535Y-126257500D01*
X144977500Y-126042720D01*
X144977500Y-125757280D01*
X144868267Y-125493569D01*
X144774698Y-125400000D01*
X144868267Y-125306431D01*
X144977500Y-125042720D01*
X144977500Y-124757280D01*
X144868267Y-124493569D01*
X144666431Y-124291733D01*
X144402720Y-124182500D01*
X144117280Y-124182500D01*
X143853569Y-124291733D01*
X143651733Y-124493569D01*
X143542500Y-124757280D01*
X143542500Y-125042720D01*
X143651733Y-125306431D01*
X143745302Y-125400000D01*
X143651733Y-125493569D01*
X143542500Y-125757280D01*
X143542500Y-126042720D01*
X143631465Y-126257500D01*
X141443289Y-126257500D01*
X140803716Y-125617928D01*
X140779025Y-125580975D01*
X140632655Y-125483174D01*
X140503582Y-125457500D01*
X140460000Y-125448831D01*
X140416418Y-125457500D01*
X133503582Y-125457500D01*
X133460000Y-125448831D01*
X133416418Y-125457500D01*
X133287345Y-125483174D01*
X133181496Y-125553900D01*
X133151374Y-125553900D01*
X133102500Y-125574144D01*
X133102500Y-123229802D01*
X133122961Y-123209341D01*
X133206100Y-123008626D01*
X133206100Y-122791374D01*
X133122961Y-122590659D01*
X132969341Y-122437039D01*
X132768626Y-122353900D01*
X132551374Y-122353900D01*
X132350659Y-122437039D01*
X132197039Y-122590659D01*
X132113900Y-122791374D01*
X132113900Y-122953900D01*
X131951374Y-122953900D01*
X131750659Y-123037039D01*
X131597039Y-123190659D01*
X131513900Y-123391374D01*
X131513900Y-123608626D01*
X131597039Y-123809341D01*
X131617501Y-123829803D01*
X131617500Y-126256418D01*
X131608831Y-126300000D01*
X131630580Y-126409341D01*
X131643174Y-126472654D01*
X131740975Y-126619025D01*
X131777928Y-126643716D01*
X132916286Y-127782074D01*
X132940975Y-127819025D01*
X133087345Y-127916826D01*
X133216418Y-127942500D01*
X133259999Y-127951169D01*
X133303580Y-127942500D01*
X140076712Y-127942500D01*
X140316285Y-128182074D01*
X140340975Y-128219025D01*
X140487345Y-128316826D01*
X140616418Y-128342500D01*
X140659999Y-128351169D01*
X140703580Y-128342500D01*
X148036712Y-128342500D01*
X148767624Y-129073413D01*
X148760240Y-129084464D01*
X148669628Y-129540000D01*
X148760240Y-129995536D01*
X149018280Y-130381720D01*
X149404464Y-130639760D01*
X149745015Y-130707500D01*
X149974985Y-130707500D01*
X150315536Y-130639760D01*
X150685500Y-130392558D01*
X150685500Y-131227442D01*
X150315536Y-130980240D01*
X149974985Y-130912500D01*
X149745015Y-130912500D01*
X149404464Y-130980240D01*
X149018280Y-131238280D01*
X148760240Y-131624464D01*
X148669628Y-132080000D01*
X148760240Y-132535536D01*
X149018280Y-132921720D01*
X149404464Y-133179760D01*
X149745015Y-133247500D01*
X149974985Y-133247500D01*
X150315536Y-133179760D01*
X150685500Y-132932558D01*
X150685500Y-133826419D01*
X150523260Y-133659189D01*
X150105086Y-133478508D01*
X149923500Y-133533597D01*
X149923500Y-134556500D01*
X149943500Y-134556500D01*
X149943500Y-134683500D01*
X149923500Y-134683500D01*
X149923500Y-135706403D01*
X150105086Y-135761492D01*
X150523260Y-135580811D01*
X150685500Y-135413581D01*
X150685500Y-135736698D01*
X148436698Y-137985500D01*
X126174500Y-137985500D01*
X126174500Y-135413581D01*
X126336740Y-135580811D01*
X126754914Y-135761492D01*
X126936500Y-135706403D01*
X126936500Y-134683500D01*
X127063500Y-134683500D01*
X127063500Y-135706403D01*
X127245086Y-135761492D01*
X127663260Y-135580811D01*
X127686088Y-135557280D01*
X130142500Y-135557280D01*
X130142500Y-135842720D01*
X130251733Y-136106431D01*
X130453569Y-136308267D01*
X130717280Y-136417500D01*
X131002720Y-136417500D01*
X131266431Y-136308267D01*
X131468267Y-136106431D01*
X131577500Y-135842720D01*
X131577500Y-135557280D01*
X143742500Y-135557280D01*
X143742500Y-135842720D01*
X143851733Y-136106431D01*
X144053569Y-136308267D01*
X144317280Y-136417500D01*
X144602720Y-136417500D01*
X144866431Y-136308267D01*
X145068267Y-136106431D01*
X145177500Y-135842720D01*
X145177500Y-135557280D01*
X145068267Y-135293569D01*
X144866431Y-135091733D01*
X144602720Y-134982500D01*
X144317280Y-134982500D01*
X144053569Y-135091733D01*
X143851733Y-135293569D01*
X143742500Y-135557280D01*
X131577500Y-135557280D01*
X131468267Y-135293569D01*
X131266431Y-135091733D01*
X131002720Y-134982500D01*
X130717280Y-134982500D01*
X130453569Y-135091733D01*
X130251733Y-135293569D01*
X130142500Y-135557280D01*
X127686088Y-135557280D01*
X127980459Y-135253855D01*
X128141486Y-134865085D01*
X148718514Y-134865085D01*
X148879541Y-135253855D01*
X149196740Y-135580811D01*
X149614914Y-135761492D01*
X149796500Y-135706403D01*
X149796500Y-134683500D01*
X148773729Y-134683500D01*
X148718514Y-134865085D01*
X128141486Y-134865085D01*
X128086271Y-134683500D01*
X127063500Y-134683500D01*
X126936500Y-134683500D01*
X126916500Y-134683500D01*
X126916500Y-134556500D01*
X126936500Y-134556500D01*
X126936500Y-133533597D01*
X127063500Y-133533597D01*
X127063500Y-134556500D01*
X128086271Y-134556500D01*
X128141486Y-134374915D01*
X148718514Y-134374915D01*
X148773729Y-134556500D01*
X149796500Y-134556500D01*
X149796500Y-133533597D01*
X149614914Y-133478508D01*
X149196740Y-133659189D01*
X148879541Y-133986145D01*
X148718514Y-134374915D01*
X128141486Y-134374915D01*
X127980459Y-133986145D01*
X127663260Y-133659189D01*
X127245086Y-133478508D01*
X127063500Y-133533597D01*
X126936500Y-133533597D01*
X126754914Y-133478508D01*
X126336740Y-133659189D01*
X126174500Y-133826419D01*
X126174500Y-132932558D01*
X126544464Y-133179760D01*
X126885015Y-133247500D01*
X127114985Y-133247500D01*
X127455536Y-133179760D01*
X127841720Y-132921720D01*
X128099760Y-132535536D01*
X128190372Y-132080000D01*
X128099760Y-131624464D01*
X127841720Y-131238280D01*
X127455536Y-130980240D01*
X127114985Y-130912500D01*
X126885015Y-130912500D01*
X126544464Y-130980240D01*
X126174500Y-131227442D01*
X126174500Y-130392558D01*
X126544464Y-130639760D01*
X126885015Y-130707500D01*
X127114985Y-130707500D01*
X127455536Y-130639760D01*
X127841720Y-130381720D01*
X128099760Y-129995536D01*
X128190372Y-129540000D01*
X128099760Y-129084464D01*
X127841720Y-128698280D01*
X127455536Y-128440240D01*
X127114985Y-128372500D01*
X126885015Y-128372500D01*
X126544464Y-128440240D01*
X126174500Y-128687442D01*
X126174500Y-127852558D01*
X126544464Y-128099760D01*
X126885015Y-128167500D01*
X127114985Y-128167500D01*
X127455536Y-128099760D01*
X127841720Y-127841720D01*
X128099760Y-127455536D01*
X128190372Y-127000000D01*
X128099760Y-126544464D01*
X127841720Y-126158280D01*
X127455536Y-125900240D01*
X127114985Y-125832500D01*
X126885015Y-125832500D01*
X126544464Y-125900240D01*
X126174500Y-126147442D01*
X126174500Y-125312558D01*
X126544464Y-125559760D01*
X126885015Y-125627500D01*
X127114985Y-125627500D01*
X127455536Y-125559760D01*
X127841720Y-125301720D01*
X128099760Y-124915536D01*
X128190372Y-124460000D01*
X128099760Y-124004464D01*
X127841720Y-123618280D01*
X127455536Y-123360240D01*
X127114985Y-123292500D01*
X126885015Y-123292500D01*
X126544464Y-123360240D01*
X126174500Y-123607442D01*
X126174500Y-122772558D01*
X126544464Y-123019760D01*
X126885015Y-123087500D01*
X127114985Y-123087500D01*
X127455536Y-123019760D01*
X127841720Y-122761720D01*
X128099760Y-122375536D01*
X128190372Y-121920000D01*
X128099760Y-121464464D01*
X127841720Y-121078280D01*
X127455536Y-120820240D01*
X127114985Y-120752500D01*
X126885015Y-120752500D01*
X126544464Y-120820240D01*
X126174500Y-121067442D01*
X126174500Y-120232558D01*
X126544464Y-120479760D01*
X126885015Y-120547500D01*
X127114985Y-120547500D01*
X127455536Y-120479760D01*
X127841720Y-120221720D01*
X128099760Y-119835536D01*
X128102353Y-119822500D01*
X133156712Y-119822500D01*
X135765219Y-122431008D01*
G36*
X132522500Y-98155125D02*
X132601875Y-98234500D01*
X133986500Y-98234500D01*
X133986500Y-98214500D01*
X134113500Y-98214500D01*
X134113500Y-98234500D01*
X135498125Y-98234500D01*
X135577500Y-98155125D01*
X135577500Y-95948500D01*
X141282500Y-95948500D01*
X141282500Y-98155125D01*
X141361875Y-98234500D01*
X142746500Y-98234500D01*
X142746500Y-98214500D01*
X142873500Y-98214500D01*
X142873500Y-98234500D01*
X144258125Y-98234500D01*
X144337500Y-98155125D01*
X144337500Y-95948500D01*
X150685500Y-95948500D01*
X150685500Y-116014405D01*
X150521336Y-115850241D01*
X150092230Y-115672500D01*
X149627770Y-115672500D01*
X149198664Y-115850241D01*
X148870241Y-116178664D01*
X148692500Y-116607770D01*
X148692500Y-117072230D01*
X148783145Y-117291066D01*
X143416712Y-122657500D01*
X140585856Y-122657500D01*
X140606100Y-122608626D01*
X140606100Y-122391374D01*
X140522961Y-122190659D01*
X140369341Y-122037039D01*
X140168626Y-121953900D01*
X139951374Y-121953900D01*
X139750659Y-122037039D01*
X139597039Y-122190659D01*
X139569353Y-122257500D01*
X136843289Y-122257500D01*
X133683716Y-119097928D01*
X133659025Y-119060975D01*
X133512655Y-118963174D01*
X133383582Y-118937500D01*
X133340000Y-118928831D01*
X133296418Y-118937500D01*
X128102353Y-118937500D01*
X128099760Y-118924464D01*
X127841720Y-118538280D01*
X127455536Y-118280240D01*
X127114985Y-118212500D01*
X126885015Y-118212500D01*
X126544464Y-118280240D01*
X126174500Y-118527442D01*
X126174500Y-118013720D01*
X127850000Y-118013720D01*
X127973882Y-117989078D01*
X128078905Y-117918905D01*
X128149078Y-117813882D01*
X128173720Y-117690000D01*
X128173720Y-115990000D01*
X128149078Y-115866118D01*
X128078905Y-115761095D01*
X127973882Y-115690922D01*
X127850000Y-115666280D01*
X126174500Y-115666280D01*
X126174500Y-114191374D01*
X133913900Y-114191374D01*
X133913900Y-114408626D01*
X133997039Y-114609341D01*
X134067500Y-114679802D01*
X134067500Y-114861349D01*
X134059812Y-114900000D01*
X134067500Y-114938651D01*
X134067500Y-114938654D01*
X134090274Y-115053145D01*
X134177024Y-115182976D01*
X134209795Y-115204873D01*
X135913900Y-116908979D01*
X135913900Y-117008626D01*
X135997039Y-117209341D01*
X136150659Y-117362961D01*
X136351374Y-117446100D01*
X136568626Y-117446100D01*
X136769341Y-117362961D01*
X136922961Y-117209341D01*
X137006100Y-117008626D01*
X137006100Y-116791374D01*
X136922961Y-116590659D01*
X136769341Y-116437039D01*
X136568626Y-116353900D01*
X136468979Y-116353900D01*
X134852500Y-114737422D01*
X134852500Y-114679802D01*
X134922961Y-114609341D01*
X135006100Y-114408626D01*
X135006100Y-114191374D01*
X134922961Y-113990659D01*
X134769341Y-113837039D01*
X134568626Y-113753900D01*
X134351374Y-113753900D01*
X134150659Y-113837039D01*
X133997039Y-113990659D01*
X133913900Y-114191374D01*
X126174500Y-114191374D01*
X126174500Y-98440875D01*
X132522500Y-98440875D01*
X132522500Y-100901155D01*
X132570837Y-101017850D01*
X132660151Y-101107164D01*
X132776846Y-101155500D01*
X133512875Y-101155500D01*
X133581873Y-101224498D01*
X133502500Y-101224498D01*
X133502500Y-101280303D01*
X133484588Y-101262391D01*
X133352717Y-101309884D01*
X133241962Y-101609312D01*
X133254223Y-101928330D01*
X133352717Y-102166116D01*
X133484588Y-102213609D01*
X133658452Y-102039745D01*
X133756846Y-102080500D01*
X133797303Y-102080500D01*
X133574391Y-102303412D01*
X133621884Y-102435283D01*
X133921312Y-102546038D01*
X134240330Y-102533777D01*
X134478116Y-102435283D01*
X134525609Y-102303412D01*
X134302697Y-102080500D01*
X134343154Y-102080500D01*
X134441548Y-102039745D01*
X134615412Y-102213609D01*
X134747283Y-102166116D01*
X134858038Y-101866688D01*
X134845777Y-101547670D01*
X134747283Y-101309884D01*
X134615412Y-101262391D01*
X134597500Y-101280303D01*
X134597500Y-101224498D01*
X134518127Y-101224498D01*
X134587125Y-101155500D01*
X135323154Y-101155500D01*
X135439849Y-101107164D01*
X135529163Y-101017850D01*
X135577500Y-100901155D01*
X135577500Y-98440875D01*
X141282500Y-98440875D01*
X141282500Y-100901155D01*
X141330837Y-101017850D01*
X141420151Y-101107164D01*
X141536846Y-101155500D01*
X142272875Y-101155500D01*
X142341873Y-101224498D01*
X142262500Y-101224498D01*
X142262500Y-101280303D01*
X142244588Y-101262391D01*
X142112717Y-101309884D01*
X142001962Y-101609312D01*
X142014223Y-101928330D01*
X142112717Y-102166116D01*
X142244588Y-102213609D01*
X142418452Y-102039745D01*
X142516846Y-102080500D01*
X142557303Y-102080500D01*
X142334391Y-102303412D01*
X142381884Y-102435283D01*
X142681312Y-102546038D01*
X143000330Y-102533777D01*
X143238116Y-102435283D01*
X143285609Y-102303412D01*
X143062697Y-102080500D01*
X143103154Y-102080500D01*
X143201548Y-102039745D01*
X143375412Y-102213609D01*
X143507283Y-102166116D01*
X143618038Y-101866688D01*
X143605777Y-101547670D01*
X143507283Y-101309884D01*
X143375412Y-101262391D01*
X143357500Y-101280303D01*
X143357500Y-101224498D01*
X143278127Y-101224498D01*
X143347125Y-101155500D01*
X144083154Y-101155500D01*
X144199849Y-101107164D01*
X144289163Y-101017850D01*
X144337500Y-100901155D01*
X144337500Y-98440875D01*
X144258125Y-98361500D01*
X142873500Y-98361500D01*
X142873500Y-98381500D01*
X142746500Y-98381500D01*
X142746500Y-98361500D01*
X141361875Y-98361500D01*
X141282500Y-98440875D01*
X135577500Y-98440875D01*
X135498125Y-98361500D01*
X134113500Y-98361500D01*
X134113500Y-98381500D01*
X133986500Y-98381500D01*
X133986500Y-98361500D01*
X132601875Y-98361500D01*
X132522500Y-98440875D01*
X126174500Y-98440875D01*
X126174500Y-95948500D01*
X132522500Y-95948500D01*
X132522500Y-98155125D01*
X132522500Y-98155125D01*
G37*
X132522500Y-98155125D02*
X132601875Y-98234500D01*
X133986500Y-98234500D01*
X133986500Y-98214500D01*
X134113500Y-98214500D01*
X134113500Y-98234500D01*
X135498125Y-98234500D01*
X135577500Y-98155125D01*
X135577500Y-95948500D01*
X141282500Y-95948500D01*
X141282500Y-98155125D01*
X141361875Y-98234500D01*
X142746500Y-98234500D01*
X142746500Y-98214500D01*
X142873500Y-98214500D01*
X142873500Y-98234500D01*
X144258125Y-98234500D01*
X144337500Y-98155125D01*
X144337500Y-95948500D01*
X150685500Y-95948500D01*
X150685500Y-116014405D01*
X150521336Y-115850241D01*
X150092230Y-115672500D01*
X149627770Y-115672500D01*
X149198664Y-115850241D01*
X148870241Y-116178664D01*
X148692500Y-116607770D01*
X148692500Y-117072230D01*
X148783145Y-117291066D01*
X143416712Y-122657500D01*
X140585856Y-122657500D01*
X140606100Y-122608626D01*
X140606100Y-122391374D01*
X140522961Y-122190659D01*
X140369341Y-122037039D01*
X140168626Y-121953900D01*
X139951374Y-121953900D01*
X139750659Y-122037039D01*
X139597039Y-122190659D01*
X139569353Y-122257500D01*
X136843289Y-122257500D01*
X133683716Y-119097928D01*
X133659025Y-119060975D01*
X133512655Y-118963174D01*
X133383582Y-118937500D01*
X133340000Y-118928831D01*
X133296418Y-118937500D01*
X128102353Y-118937500D01*
X128099760Y-118924464D01*
X127841720Y-118538280D01*
X127455536Y-118280240D01*
X127114985Y-118212500D01*
X126885015Y-118212500D01*
X126544464Y-118280240D01*
X126174500Y-118527442D01*
X126174500Y-118013720D01*
X127850000Y-118013720D01*
X127973882Y-117989078D01*
X128078905Y-117918905D01*
X128149078Y-117813882D01*
X128173720Y-117690000D01*
X128173720Y-115990000D01*
X128149078Y-115866118D01*
X128078905Y-115761095D01*
X127973882Y-115690922D01*
X127850000Y-115666280D01*
X126174500Y-115666280D01*
X126174500Y-114191374D01*
X133913900Y-114191374D01*
X133913900Y-114408626D01*
X133997039Y-114609341D01*
X134067500Y-114679802D01*
X134067500Y-114861349D01*
X134059812Y-114900000D01*
X134067500Y-114938651D01*
X134067500Y-114938654D01*
X134090274Y-115053145D01*
X134177024Y-115182976D01*
X134209795Y-115204873D01*
X135913900Y-116908979D01*
X135913900Y-117008626D01*
X135997039Y-117209341D01*
X136150659Y-117362961D01*
X136351374Y-117446100D01*
X136568626Y-117446100D01*
X136769341Y-117362961D01*
X136922961Y-117209341D01*
X137006100Y-117008626D01*
X137006100Y-116791374D01*
X136922961Y-116590659D01*
X136769341Y-116437039D01*
X136568626Y-116353900D01*
X136468979Y-116353900D01*
X134852500Y-114737422D01*
X134852500Y-114679802D01*
X134922961Y-114609341D01*
X135006100Y-114408626D01*
X135006100Y-114191374D01*
X134922961Y-113990659D01*
X134769341Y-113837039D01*
X134568626Y-113753900D01*
X134351374Y-113753900D01*
X134150659Y-113837039D01*
X133997039Y-113990659D01*
X133913900Y-114191374D01*
X126174500Y-114191374D01*
X126174500Y-98440875D01*
X132522500Y-98440875D01*
X132522500Y-100901155D01*
X132570837Y-101017850D01*
X132660151Y-101107164D01*
X132776846Y-101155500D01*
X133512875Y-101155500D01*
X133581873Y-101224498D01*
X133502500Y-101224498D01*
X133502500Y-101280303D01*
X133484588Y-101262391D01*
X133352717Y-101309884D01*
X133241962Y-101609312D01*
X133254223Y-101928330D01*
X133352717Y-102166116D01*
X133484588Y-102213609D01*
X133658452Y-102039745D01*
X133756846Y-102080500D01*
X133797303Y-102080500D01*
X133574391Y-102303412D01*
X133621884Y-102435283D01*
X133921312Y-102546038D01*
X134240330Y-102533777D01*
X134478116Y-102435283D01*
X134525609Y-102303412D01*
X134302697Y-102080500D01*
X134343154Y-102080500D01*
X134441548Y-102039745D01*
X134615412Y-102213609D01*
X134747283Y-102166116D01*
X134858038Y-101866688D01*
X134845777Y-101547670D01*
X134747283Y-101309884D01*
X134615412Y-101262391D01*
X134597500Y-101280303D01*
X134597500Y-101224498D01*
X134518127Y-101224498D01*
X134587125Y-101155500D01*
X135323154Y-101155500D01*
X135439849Y-101107164D01*
X135529163Y-101017850D01*
X135577500Y-100901155D01*
X135577500Y-98440875D01*
X141282500Y-98440875D01*
X141282500Y-100901155D01*
X141330837Y-101017850D01*
X141420151Y-101107164D01*
X141536846Y-101155500D01*
X142272875Y-101155500D01*
X142341873Y-101224498D01*
X142262500Y-101224498D01*
X142262500Y-101280303D01*
X142244588Y-101262391D01*
X142112717Y-101309884D01*
X142001962Y-101609312D01*
X142014223Y-101928330D01*
X142112717Y-102166116D01*
X142244588Y-102213609D01*
X142418452Y-102039745D01*
X142516846Y-102080500D01*
X142557303Y-102080500D01*
X142334391Y-102303412D01*
X142381884Y-102435283D01*
X142681312Y-102546038D01*
X143000330Y-102533777D01*
X143238116Y-102435283D01*
X143285609Y-102303412D01*
X143062697Y-102080500D01*
X143103154Y-102080500D01*
X143201548Y-102039745D01*
X143375412Y-102213609D01*
X143507283Y-102166116D01*
X143618038Y-101866688D01*
X143605777Y-101547670D01*
X143507283Y-101309884D01*
X143375412Y-101262391D01*
X143357500Y-101280303D01*
X143357500Y-101224498D01*
X143278127Y-101224498D01*
X143347125Y-101155500D01*
X144083154Y-101155500D01*
X144199849Y-101107164D01*
X144289163Y-101017850D01*
X144337500Y-100901155D01*
X144337500Y-98440875D01*
X144258125Y-98361500D01*
X142873500Y-98361500D01*
X142873500Y-98381500D01*
X142746500Y-98381500D01*
X142746500Y-98361500D01*
X141361875Y-98361500D01*
X141282500Y-98440875D01*
X135577500Y-98440875D01*
X135498125Y-98361500D01*
X134113500Y-98361500D01*
X134113500Y-98381500D01*
X133986500Y-98381500D01*
X133986500Y-98361500D01*
X132601875Y-98361500D01*
X132522500Y-98440875D01*
X126174500Y-98440875D01*
X126174500Y-95948500D01*
X132522500Y-95948500D01*
X132522500Y-98155125D01*
G04 #@! TD*
M02*
